<svg width="48" height="48" viewBox="0 0 48 48" fill="none" xmlns="http://www.w3.org/2000/svg">
<g clip-path="url(#clip0_177_5990)">
<path fill-rule="evenodd" clip-rule="evenodd" d="M48 24C48 37.2548 37.2548 48 24 48C10.7452 48 0 37.2548 0 24C0 10.7452 10.7452 0 24 0C37.2548 0 48 10.7452 48 24Z" fill="#FEFEFE"/>
<path d="M24 48.144V47.856L25.2276 47.8252L26.4392 47.7328L27.6332 47.5812L28.808 47.3716L29.962 47.1052L31.094 46.7836L32.2024 46.4088L33.286 45.9816L34.3424 45.5036L35.3712 44.9768L36.3704 44.4024L37.338 43.782L38.2736 43.1168L39.1748 42.4084L40.0404 41.6588L40.8688 40.8688L41.6588 40.0404L42.4084 39.1748L43.1168 38.2736L43.782 37.338L44.4024 36.3704L44.9768 35.3712L45.5036 34.3424L45.9816 33.286L46.4088 32.2024L46.7836 31.094L47.1052 29.962L47.3716 28.808L47.5812 27.6332L47.7328 26.4392L47.8252 25.2276L47.856 24H48.144L48.1128 25.2424L48.0192 26.4684L47.866 27.6768L47.6536 28.8656L47.384 30.034L47.0584 31.1796L46.6788 32.3016L46.2464 33.398L45.7632 34.4676L45.23 35.5084L44.6484 36.5196L44.0204 37.4992L43.3476 38.446L42.6304 39.358L41.872 40.234L41.0724 41.0724L40.234 41.872L39.358 42.6304L38.446 43.3476L37.4992 44.0204L36.5196 44.6484L35.5084 45.23L34.4676 45.7632L33.398 46.2464L32.3016 46.6788L31.1796 47.0584L30.034 47.384L28.8656 47.6536L27.6768 47.866L26.4684 48.0192L25.2424 48.1128L24 48.144ZM-0.143982 24H0.144018L0.174818 25.2276L0.267218 26.4392L0.418818 27.6332L0.628418 28.808L0.894818 29.962L1.21642 31.094L1.59122 32.2024L2.01842 33.286L2.49642 34.3424L3.02322 35.3712L3.59762 36.3704L4.21802 37.338L4.88322 38.2736L5.59162 39.1748L6.34122 40.0404L7.13122 40.8688L7.95962 41.6588L8.82522 42.4084L9.72642 43.1168L10.662 43.782L11.6296 44.4024L12.6288 44.9768L13.6576 45.5036L14.714 45.9816L15.7976 46.4088L16.906 46.7836L18.038 47.1052L19.192 47.3716L20.3668 47.5812L21.5608 47.7328L22.7724 47.8252L24 47.856V48.144L22.7576 48.1128L21.5316 48.0192L20.3232 47.866L19.1344 47.6536L17.966 47.384L16.8204 47.0584L15.6984 46.6788L14.602 46.2464L13.5324 45.7632L12.4916 45.23L11.4804 44.6484L10.5008 44.0204L9.55402 43.3476L8.64202 42.6304L7.76602 41.872L6.92762 41.0724L6.12802 40.234L5.36962 39.358L4.65242 38.446L3.97962 37.4992L3.35162 36.5196L2.77002 35.5084L2.23682 34.4676L1.75362 33.398L1.32122 32.3016L0.941618 31.1796L0.616018 30.034L0.346418 28.8656L0.134018 27.6768L-0.0191819 26.4684L-0.112782 25.2424L-0.143982 24ZM24 -0.143982V0.144018L22.7724 0.174818L21.5608 0.267218L20.3668 0.418818L19.192 0.628818L18.038 0.895218L16.906 1.21642L15.7976 1.59162L14.714 2.01882L13.6576 2.49642L12.6288 3.02322L11.6296 3.59762L10.662 4.21802L9.72642 4.88322L8.82522 5.59162L7.95962 6.34122L7.13122 7.13122L6.34122 7.96002L5.59162 8.82562L4.88322 9.72682L4.21802 10.662L3.59762 11.6296L3.02322 12.6288L2.49642 13.6576L2.01842 14.714L1.59122 15.7976L1.21642 16.906L0.894818 18.038L0.628418 19.192L0.418818 20.3668L0.267218 21.5608L0.174818 22.7724L0.144018 24H-0.143982L-0.112782 22.7576L-0.0191819 21.5316L0.134018 20.3232L0.346418 19.1344L0.616018 17.966L0.941618 16.8204L1.32122 15.6984L1.75362 14.602L2.23682 13.5324L2.77002 12.4916L3.35162 11.4804L3.97962 10.5008L4.65242 9.55442L5.36962 8.64202L6.12802 7.76602L6.92762 6.92762L7.76602 6.12802L8.64202 5.36962L9.55402 4.65282L10.5008 3.97962L11.4804 3.35162L12.4916 2.77002L13.5324 2.23682L14.602 1.75362L15.6984 1.32122L16.8204 0.941618L17.966 0.616018L19.1344 0.346418L20.3232 0.134418L21.5316 -0.0191819L22.7576 -0.112382L24 -0.143982ZM48.144 24H47.856L47.8252 22.7724L47.7328 21.5608L47.5812 20.3668L47.3716 19.192L47.1052 18.038L46.7836 16.906L46.4088 15.7976L45.9816 14.714L45.5036 13.6576L44.9768 12.6288L44.4024 11.6296L43.782 10.662L43.1168 9.72682L42.4084 8.82562L41.6588 7.96002L40.8688 7.13122L40.0404 6.34122L39.1748 5.59162L38.2736 4.88322L37.338 4.21802L36.3704 3.59762L35.3712 3.02322L34.3424 2.49642L33.286 2.01882L32.2024 1.59162L31.094 1.21642L29.962 0.895218L28.808 0.628818L27.6332 0.418818L26.4392 0.267218L25.2276 0.174818L24 0.144018V-0.143982L25.2424 -0.112382L26.4684 -0.0191819L27.6768 0.134418L28.8656 0.346418L30.034 0.616018L31.1796 0.941618L32.3016 1.32122L33.398 1.75362L34.4676 2.23682L35.5084 2.77002L36.5196 3.35162L37.4992 3.97962L38.446 4.65282L39.358 5.36962L40.234 6.12802L41.0724 6.92762L41.872 7.76602L42.6304 8.64202L43.3476 9.55442L44.0204 10.5008L44.6484 11.4804L45.23 12.4916L45.7632 13.5324L46.2464 14.602L46.6788 15.6984L47.0584 16.8204L47.384 17.966L47.6536 19.1344L47.866 20.3232L48.0192 21.5316L48.1128 22.7576L48.144 24Z" fill="#4474B8"/>
<path fill-rule="evenodd" clip-rule="evenodd" d="M27.2616 2.32281C28.442 2.51561 29.6024 2.81521 30.7284 3.21801H25.918C26.35 2.89641 26.8 2.59801 27.2616 2.32281ZM32.0088 3.72962C32.6996 4.03202 33.3724 4.37321 34.0244 4.75201H24.1636C24.5096 4.38962 24.8764 4.04842 25.2624 3.72962H32.0088ZM35.132 5.44842C35.6092 5.76841 36.0716 6.10922 36.5188 6.47082H22.8316C23.05 6.11522 23.2904 5.77361 23.5524 5.44881L35.132 5.44842ZM37.2012 7.04361C37.5728 7.37201 37.9324 7.71281 38.2788 8.06681H22.0656C22.1904 7.71641 22.3384 7.37441 22.5088 7.04361H37.2012ZM38.8176 8.64002C39.116 8.97082 39.404 9.31121 39.6812 9.66201H21.6712C21.7212 9.31721 21.7932 8.97562 21.8872 8.64002H38.8176ZM40.138 10.26C40.382 10.5928 40.6148 10.9336 40.8368 11.2832H21.5992C21.5816 10.97 21.5816 10.6564 21.5992 10.3436L21.6048 10.2656L40.138 10.26ZM41.2444 11.9492C41.4368 12.2832 41.6284 12.6212 41.8052 12.9712H21.866C21.772 12.636 21.7016 12.2944 21.6556 11.9492H41.2444ZM42.0336 13.436C42.1928 13.7716 42.3444 14.1076 42.4856 14.458H22.4524C22.282 14.128 22.1348 13.7864 22.012 13.436H42.0336ZM42.744 15.124C42.8676 15.4608 42.9836 15.8016 43.0892 16.1464H23.5656C23.3024 15.8196 23.0576 15.4784 22.8332 15.124H42.744ZM43.264 16.7556C43.356 17.0924 43.4396 17.4328 43.5144 17.778H25.082C24.7336 17.446 24.3988 17.106 24.082 16.7556H43.264ZM43.6392 18.3968C43.7032 18.7348 43.7564 19.0756 43.7988 19.42H26.92C26.5264 19.0812 26.1352 18.7416 25.752 18.3968H43.6392ZM43.866 20.0084C43.8996 20.3464 43.9252 20.6876 43.9424 21.0304H28.6056C28.2856 20.6864 27.9432 20.3456 27.5776 20.0084H43.866ZM43.9644 21.6784C43.9644 21.7916 43.9644 21.906 43.9644 22.0192C43.9644 22.2476 43.96 22.474 43.9512 22.7004H30.002C29.7504 22.3568 29.4772 22.016 29.188 21.6784H43.9644ZM43.9292 23.258C43.908 23.6016 43.8784 23.9424 43.84 24.2804H31.026C30.834 23.9388 30.6228 23.598 30.3924 23.258H43.9292ZM43.7632 24.8848C43.7132 25.2284 43.6548 25.5692 43.5884 25.9072H31.818C31.6776 25.5652 31.5232 25.2248 31.3504 24.8848H43.7632ZM43.4608 26.5108C43.382 26.8556 43.294 27.1968 43.1968 27.534H32.3612C32.2728 27.1932 32.1692 26.8524 32.0492 26.5108H43.4608ZM43.0316 28.0752C42.9224 28.4208 42.8036 28.7616 42.6756 29.0984H32.6604C32.6196 28.7584 32.5624 28.4176 32.4888 28.0752H43.0316ZM42.4164 29.748C42.272 30.0948 42.1172 30.436 41.952 30.7712H32.7384C32.748 30.4324 32.7384 30.0916 32.7188 29.748H42.4164ZM41.6276 31.4056C41.442 31.7532 41.2472 32.094 41.0432 32.4288H32.5656C32.6296 32.092 32.6752 31.7512 32.7028 31.4056H41.6276ZM40.688 32.9864C40.4588 33.3344 40.2196 33.6752 39.9692 34.0084H32.1508C32.266 33.6728 32.3648 33.3316 32.4472 32.9864H40.688ZM39.5084 34.5968C39.2232 34.948 38.9264 35.2888 38.6188 35.6188H31.4444C31.622 35.2868 31.7824 34.9456 31.9244 34.5968H39.5084ZM37.9852 36.2736C37.6232 36.6272 37.248 36.968 36.8596 37.2956H30.3428C30.6012 36.968 30.842 36.6268 31.0644 36.2736H37.9852ZM36.1692 37.8536C35.6992 38.2148 35.2136 38.5556 34.7124 38.8756H28.8472C29.2108 38.5556 29.5544 38.2144 29.8772 37.8536H36.1692ZM33.726 39.4648C33.0424 39.8464 32.3376 40.1876 31.6144 40.4872H26.59C27.126 40.1812 27.6408 39.8396 28.1312 39.4648H33.726ZM30.3236 40.9676C28.284 41.646 26.148 41.99 23.9988 41.9872H23.9832C23.66 41.9872 23.3372 41.9784 23.0168 41.962C23.9296 41.7084 24.818 41.3748 25.6724 40.9648L30.3236 40.9676Z" fill="#4474B8"/>
<path fill-rule="evenodd" clip-rule="evenodd" d="M18.4512 41.2068C17.454 40.9188 16.4808 40.5528 15.5412 40.1116C14.0096 39.2656 12.5348 38.3204 11.126 37.2824C6.62523 33.4928 4.03003 27.9076 4.03523 22.024C4.03523 11.1016 12.8048 2.22959 23.6856 2.06079C21.0772 3.48479 15.9184 6.79799 15.0796 11.118C13.9488 16.9428 17.2168 22.2512 20.8724 24.8264C21.3888 25.1892 21.8928 25.5512 22.3736 25.9196C29.6256 31.472 27.7484 42.2204 18.4512 41.2068Z" fill="#983D35"/>
<path fill-rule="evenodd" clip-rule="evenodd" d="M4.66681 36.0364L6.18521 34.9424L5.79561 34.4012L6.10441 34.1784L7.14881 35.6276L6.84081 35.8444L6.45201 35.306L4.93361 36.404L4.66681 36.0364ZM6.85721 38.6904L6.53841 38.3168L6.80121 37.8372L6.21401 37.1496L5.70361 37.3416L5.38961 36.9752L7.67001 36.1756L7.98281 36.5424L6.85721 38.6904ZM6.99441 37.476L7.42521 36.6968L6.59401 37.0076L6.99441 37.476ZM8.13841 36.408L7.96281 36.2024L8.03561 35.5816L8.34841 35.9472L8.13841 36.408ZM7.03761 38.8344L8.59801 37.2092L8.92641 37.526L7.36681 39.15L7.03761 38.8344ZM8.30041 40.0676L9.66161 38.2736L10.0128 38.5404L9.83921 40.3028L10.7536 39.102L11.0896 39.3572L9.72601 41.1512L9.36321 40.8768L9.53121 39.1492L8.63641 40.3288L8.30041 40.0676ZM11.4256 41.3404L11.6328 41.0216L12.4524 41.5544L11.9632 42.3076C11.8032 42.3324 11.6404 42.3256 11.4832 42.2876C11.2988 42.2504 11.1236 42.1788 10.966 42.0764C10.7828 41.9644 10.6328 41.8056 10.5312 41.6164C10.4404 41.4408 10.4064 41.2412 10.4352 41.0456C10.4632 40.8396 10.5372 40.6428 10.652 40.4696C10.7676 40.2852 10.9276 40.1324 11.1176 40.0252C11.2972 39.9256 11.5036 39.8848 11.7076 39.908C11.8924 39.9324 12.0688 40.0008 12.2212 40.108C12.4224 40.2228 12.5808 40.3992 12.6732 40.6116C12.7412 40.7984 12.7372 41.004 12.662 41.1876L12.2356 41.012C12.2696 40.9084 12.2672 40.7964 12.2288 40.6944C12.1844 40.5864 12.1068 40.4956 12.0072 40.4352C11.8624 40.3324 11.68 40.2976 11.5072 40.3392C11.3404 40.3812 11.1892 40.5064 11.054 40.7144C10.9064 40.9312 10.8496 41.1348 10.8728 41.3152C10.8984 41.4912 11.0016 41.646 11.154 41.7376C11.2372 41.7892 11.3292 41.8248 11.4256 41.8424C11.5176 41.8628 11.6124 41.8696 11.7068 41.8624L11.8624 41.6232L11.4256 41.3404ZM13.1628 40.7836L13.5696 40.988L13.0216 42.0832C12.962 42.1936 12.9108 42.3084 12.868 42.4268C12.8428 42.5132 12.8508 42.6064 12.89 42.6876C12.9412 42.7804 13.0216 42.8536 13.1188 42.896C13.2068 42.9488 13.3104 42.97 13.4124 42.9556C13.4896 42.9404 13.558 42.8972 13.6044 42.8336C13.6764 42.7276 13.7404 42.616 13.7964 42.5004L14.356 41.3872L14.7636 41.5916L14.232 42.6476C14.1516 42.8212 14.0552 42.9876 13.944 43.1436C13.8788 43.2276 13.7932 43.2936 13.6956 43.3356C13.5948 43.3764 13.486 43.392 13.3776 43.3816C13.2312 43.3648 13.0896 43.32 12.9604 43.2492C12.8084 43.1808 12.672 43.0828 12.558 42.9612C12.4872 42.878 12.4368 42.7796 12.4112 42.6732C12.3896 42.5808 12.3896 42.4844 12.4112 42.392C12.4644 42.208 12.5372 42.03 12.628 41.8612L13.1628 40.7836ZM14.7388 44.0284L15.0892 43.1476L14.8012 41.63L15.2964 41.828L15.4568 42.8508L16.2676 42.2144L16.7544 42.4064L15.5064 43.3164L15.1572 44.1948L14.7388 44.0284ZM16.14 44.5852L16.7716 42.4236L18.3716 42.8904L18.2648 43.256L17.1028 42.9164L16.9624 43.396L18.0376 43.7148L17.9312 44.0796L16.8504 43.7636L16.6784 44.35L17.884 44.7012L17.7772 45.0672L16.14 44.5852ZM17.1604 42.324L17.5968 41.9796L17.9808 42.0908L18.1592 42.6148L17.8272 42.5188L17.7208 42.2492L17.498 42.4228L17.1604 42.324ZM18.1556 45.1676L18.6692 42.974L19.098 43.0744L19.6576 44.7552L20.0012 43.2856L20.412 43.3816L19.8984 45.5748L19.4552 45.4712L18.9032 43.8212L18.5664 45.2608L18.1556 45.1676ZM21.82 45.7916L21.1876 43.488L21.6788 43.5256L22.1224 45.2312L22.794 43.61L23.274 43.6476L22.3036 45.832L21.82 45.7916ZM25.3664 45.8596L24.8756 45.8772L24.6636 45.3712L23.7604 45.402L23.586 45.922L23.106 45.9396L23.9028 43.658L24.3824 43.6416L25.3664 45.8596ZM24.5024 44.996L24.1608 44.1736L23.8852 45.0172L24.5024 44.996ZM24.3796 43.4356L24.1088 43.4448L23.6692 43.0004L24.1492 42.9844L24.3796 43.4356ZM26.4728 45.7676L26.206 43.5332L26.8844 43.4528L27.4664 44.9308L27.6812 43.3576L28.3608 43.2772L28.6268 45.5132L28.208 45.5632L27.998 43.8032L27.7656 45.616L27.3308 45.6676L26.682 43.9596L26.8904 45.7196L26.4728 45.7676ZM28.6804 44.3444C28.6212 44.1552 28.602 43.956 28.6236 43.7588C28.6424 43.6348 28.6828 43.5148 28.7428 43.4044C28.7988 43.2992 28.876 43.206 28.9692 43.1312C29.1012 43.0296 29.2524 42.956 29.4136 42.9144C29.6964 42.8212 30.0052 42.852 30.264 42.9988C30.5116 43.1444 30.6848 43.3944 30.7832 43.7484C30.8816 44.102 30.8628 44.4032 30.7268 44.6516C30.5816 44.91 30.3344 45.0952 30.0452 45.1608C29.7624 45.2556 29.4528 45.2264 29.1928 45.0804C28.9472 44.9376 28.7764 44.6928 28.6804 44.3464V44.3444ZM29.1276 44.204C29.1956 44.45 29.3052 44.6208 29.454 44.7156C29.7396 44.8936 30.1156 44.8056 30.2932 44.52C30.302 44.5056 30.31 44.4916 30.3176 44.4768C30.3944 44.3192 30.3984 44.1148 30.3272 43.8624C30.256 43.61 30.1516 43.4432 30.0088 43.352C29.864 43.2592 29.6856 43.236 29.522 43.2884C29.3544 43.3288 29.2136 43.4416 29.1384 43.5964C29.0616 43.754 29.0576 43.9556 29.1276 44.206V44.204ZM28.8772 42.894L29.0692 42.3712L29.4528 42.2644L29.8812 42.6156L29.5472 42.7116L29.3148 42.538L29.2188 42.8028L28.8772 42.894ZM31.4052 44.7176L30.6584 42.592L31.0884 42.4412L31.8352 44.566L31.4052 44.7176ZM33.5244 43.9068L32.7564 42.202L32.1488 42.4764L31.9924 42.13L33.624 41.3928L33.7804 41.7404L33.176 42.014L33.9436 43.7196L33.5244 43.9068ZM34.8268 43.3528L33.6924 41.4052L34.5184 40.9256C34.666 40.8292 34.828 40.7572 34.9984 40.7124C35.1128 40.6924 35.2312 40.7116 35.3336 40.7664C35.4444 40.8244 35.5364 40.9136 35.5984 41.0224C35.6808 41.1524 35.7104 41.3084 35.6816 41.4592C35.6396 41.6224 35.5412 41.7656 35.4036 41.8632C35.5064 41.8616 35.6088 41.8756 35.708 41.9036C35.8488 41.9532 35.9852 42.0152 36.1156 42.0888L36.5744 42.3296L36.1052 42.6044L35.5752 42.344C35.454 42.2816 35.3292 42.2272 35.2012 42.1808C35.1476 42.1644 35.0912 42.1604 35.036 42.1692C34.9608 42.1908 34.8896 42.2232 34.824 42.2652L34.7444 42.3116L35.2192 43.1236L34.8268 43.3528ZM34.5648 42.0016L34.8528 41.8316C34.974 41.7684 35.088 41.6912 35.1916 41.6012C35.228 41.5604 35.2496 41.5088 35.2528 41.4544C35.2552 41.3944 35.2396 41.3352 35.2076 41.2844C35.1456 41.1604 34.9956 41.1084 34.87 41.1676C34.8356 41.1808 34.7384 41.2348 34.582 41.3276L34.2748 41.5072L34.5648 42.0016ZM37.086 39.2548L37.4372 39.0052L37.616 39.2564C37.6764 39.3368 37.7256 39.4248 37.7616 39.5188C37.7852 39.5916 37.7892 39.6696 37.774 39.7452C37.7332 39.9004 37.6456 40.0392 37.5236 40.1432L37.6428 40.3104C37.758 40.464 37.8588 40.6276 37.944 40.8C37.9876 40.8964 38.006 41.0028 37.9976 41.1088C37.9768 41.3308 37.8364 41.534 37.5744 41.7192C37.2848 41.9248 37.0288 41.9964 36.8068 41.9344C36.7148 41.9112 36.6296 41.8668 36.558 41.8048C36.4204 41.6708 36.2972 41.5228 36.1904 41.3632L35.4948 40.3824L35.8672 40.1184L36.5716 41.1108C36.6412 41.2152 36.7184 41.3144 36.8028 41.4072C36.9544 41.5504 37.1332 41.5492 37.3364 41.4072C37.54 41.2652 37.5896 41.1196 37.51 40.9488C37.4504 40.8356 37.3816 40.7276 37.3048 40.6252L36.584 39.608L36.9556 39.3448L37.42 39.9984C37.5108 39.9192 37.5676 39.8084 37.5792 39.6884C37.5748 39.6144 37.548 39.5436 37.5024 39.4852L37.3396 39.602L37.086 39.2548ZM38.4488 39.5876C38.5764 39.754 38.76 39.868 38.9652 39.9092C39.1352 39.9352 39.3076 39.8812 39.4328 39.7632C39.5672 39.656 39.6444 39.492 39.6408 39.32C39.6248 39.1096 39.5348 38.912 39.3868 38.7624C39.2604 38.596 39.0792 38.48 38.8752 38.436C38.528 38.4068 38.2232 38.6648 38.194 39.012C38.1936 39.0196 38.1932 39.0272 38.1928 39.0348C38.2088 39.244 38.3 39.44 38.4488 39.5876ZM38.9516 37.6528L39.2772 37.3696L39.4796 37.6028C39.5484 37.6764 39.6064 37.7596 39.6516 37.8496C39.682 37.9196 39.694 37.996 39.686 38.0724C39.6764 38.158 39.65 38.2412 39.6084 38.3168C39.6572 38.3612 39.7032 38.4088 39.7464 38.4592C39.9844 38.7316 40.0972 39.0104 40.0844 39.296C40.0668 39.5928 39.9232 39.868 39.69 40.052C39.4752 40.2596 39.1824 40.3664 38.8848 40.3456C38.6004 40.3204 38.3412 40.1728 38.106 39.9036C37.8572 39.6196 37.7412 39.3276 37.7588 39.0284C37.7812 38.7404 37.9236 38.4752 38.1512 38.2976C38.3672 38.0924 38.6596 37.988 38.9568 38.0096C39.1344 38.028 39.3048 38.0912 39.4508 38.194C39.5056 38.0772 39.4824 37.9384 39.3924 37.8456L39.236 37.982L38.9516 37.6528ZM38.258 37.9868L38.0544 38.1644L37.4324 38.098L37.7952 37.7816L38.258 37.9868ZM40.8992 38.882L39.2744 37.3216L39.5804 37.0028L41.308 37.3804L40.2188 36.3348L40.5068 36.0308L42.1384 37.5912L41.8224 37.9196L40.1228 37.552L41.19 38.578L40.8992 38.882ZM42.4136 35.8684L42.1124 35.6364L42.7104 34.862L43.4216 35.4108C43.4332 35.5728 43.4136 35.736 43.3628 35.8904C43.3104 36.0712 43.2248 36.2404 43.1104 36.3896C42.9836 36.5628 42.8132 36.6992 42.6172 36.786C42.4352 36.8628 42.234 36.8816 42.0412 36.8388C41.8384 36.794 41.6484 36.704 41.4848 36.576C41.31 36.4456 41.1704 36.274 41.0788 36.0768C40.9944 35.8892 40.97 35.68 41.0096 35.478C41.0488 35.296 41.1312 35.1264 41.2496 34.9824C41.3808 34.7912 41.5704 34.6472 41.79 34.572C41.9808 34.5196 42.184 34.5404 42.3608 34.6296L42.1516 35.0404C42.0508 34.998 41.9392 34.9912 41.834 35.0212C41.7228 35.056 41.626 35.1264 41.5584 35.2216C41.4432 35.3572 41.3924 35.5364 41.4196 35.712C41.4484 35.8812 41.5604 36.042 41.7564 36.192C41.968 36.3552 42.1636 36.4308 42.3428 36.4196C42.52 36.4072 42.6828 36.3164 42.786 36.172C42.8452 36.094 42.8896 36.0056 42.9164 35.9116C42.944 35.8216 42.958 35.7276 42.9588 35.6336L42.7304 35.4608L42.4136 35.8684Z" fill="#4474B8"/>
<path fill-rule="evenodd" clip-rule="evenodd" d="M26.782 18.7292C25.3648 23.3008 25.3316 28.1892 26.686 32.78H21.722C22.6892 30.5132 23.2508 27.8112 23.2508 24.91C23.2592 22.8188 22.9536 20.7388 22.344 18.7384C23.8072 19.06 25.3232 19.056 26.7848 18.7272L26.782 18.7292Z" fill="#298D50"/>
<path fill-rule="evenodd" clip-rule="evenodd" d="M24.4556 12.9532C25.4796 12.9532 26.3108 13.982 26.3108 15.25C26.3108 16.5176 25.4796 17.5464 24.4556 17.5464C23.4312 17.5464 22.6004 16.5176 22.6004 15.25C22.6004 13.982 23.4312 12.9532 24.4556 12.9532Z" fill="#298D50"/>
<path fill-rule="evenodd" clip-rule="evenodd" d="M22.344 18.7404C18.8812 17.9728 16.3396 15.4292 16.3396 12.4108C16.3396 12.1576 16.3576 11.9052 16.3932 11.6544C16.6564 11.7504 16.918 11.8588 17.1784 11.98C20.2392 13.3972 22.1828 16.0952 22.344 18.7404Z" fill="#298D50"/>
<path fill-rule="evenodd" clip-rule="evenodd" d="M32.6844 11.6756C32.7184 11.9192 32.7352 12.1648 32.7352 12.4108C32.7352 15.4128 30.2228 17.944 26.7896 18.728C26.9576 16.0868 28.9012 13.3948 31.954 11.98C32.196 11.8676 32.4396 11.7668 32.6844 11.6756Z" fill="#298D50"/>
</g>
<defs>
<clipPath id="clip0_177_5990">
<rect width="48" height="48" fill="white"/>
</clipPath>
</defs>
</svg>
