<svg id="eov60vmtn3x81" xmlns="http://www.w3.org/2000/svg" xmlns:xlink="http://www.w3.org/1999/xlink" viewBox="0 0 900 560" shape-rendering="geometricPrecision" text-rendering="geometricPrecision"><style><![CDATA[#eov60vmtn3x843_to {animation: eov60vmtn3x843_to__to 6000ms linear infinite normal forwards}@keyframes eov60vmtn3x843_to__to { 0% {transform: translate(0px,10px)} 16.666667% {transform: translate(0px,10px)} 21.666667% {transform: translate(0px,0px)} 100% {transform: translate(0px,0px)} }#eov60vmtn3x843 {animation: eov60vmtn3x843_c_o 6000ms linear infinite normal forwards}@keyframes eov60vmtn3x843_c_o { 0% {opacity: 0} 16.666667% {opacity: 0} 20% {opacity: 1} 100% {opacity: 1} }#eov60vmtn3x848_to {animation: eov60vmtn3x848_to__to 6000ms linear infinite normal forwards}@keyframes eov60vmtn3x848_to__to { 0% {transform: translate(0px,10px)} 33.333333% {transform: translate(0px,10px)} 38.333333% {transform: translate(0px,0px)} 100% {transform: translate(0px,0px)} }#eov60vmtn3x848 {animation: eov60vmtn3x848_c_o 6000ms linear infinite normal forwards}@keyframes eov60vmtn3x848_c_o { 0% {opacity: 0} 33.333333% {opacity: 0} 36.666667% {opacity: 1} 100% {opacity: 1} }#eov60vmtn3x853_to {animation: eov60vmtn3x853_to__to 6000ms linear infinite normal forwards}@keyframes eov60vmtn3x853_to__to { 0% {transform: translate(0px,10px)} 5% {transform: translate(0px,0px)} 100% {transform: translate(0px,0px)} }#eov60vmtn3x853 {animation: eov60vmtn3x853_c_o 6000ms linear infinite normal forwards}@keyframes eov60vmtn3x853_c_o { 0% {opacity: 0} 3.333333% {opacity: 1} 100% {opacity: 1} }#eov60vmtn3x859_to {animation: eov60vmtn3x859_to__to 6000ms linear infinite normal forwards}@keyframes eov60vmtn3x859_to__to { 0% {transform: translate(0px,0px)} 50% {transform: translate(0px,-5px)} 100% {transform: translate(0px,0px)} }]]></style><defs><linearGradient id="eov60vmtn3x85-fill" x1="265.178000" y1="298.087800" x2="119.187200" y2="518.937900" spreadMethod="pad" gradientUnits="userSpaceOnUse"><stop id="eov60vmtn3x85-fill-0" offset="0%" stop-color="rgb(241,241,241)"/><stop id="eov60vmtn3x85-fill-1" offset="28.530000%" stop-color="rgb(244,244,245)"/><stop id="eov60vmtn3x85-fill-2" offset="100%" stop-color="rgb(247,248,249)"/></linearGradient><linearGradient id="eov60vmtn3x86-fill" x1="339.125000" y1="232.355500" x2="249.941000" y2="15.012600" spreadMethod="pad" gradientUnits="userSpaceOnUse"><stop id="eov60vmtn3x86-fill-0" offset="0%" stop-color="rgb(241,241,241)"/><stop id="eov60vmtn3x86-fill-1" offset="28.530000%" stop-color="rgb(244,244,245)"/><stop id="eov60vmtn3x86-fill-2" offset="100%" stop-color="rgb(247,248,249)"/></linearGradient><linearGradient id="eov60vmtn3x87-fill" x1="747.497000" y1="467.285800" x2="776.036900" y2="564.306000" spreadMethod="pad" gradientUnits="userSpaceOnUse"><stop id="eov60vmtn3x87-fill-0" offset="0%" stop-color="rgb(241,241,241)"/><stop id="eov60vmtn3x87-fill-1" offset="28.530000%" stop-color="rgb(244,244,245)"/><stop id="eov60vmtn3x87-fill-2" offset="100%" stop-color="rgb(247,248,249)"/></linearGradient><linearGradient id="eov60vmtn3x88-fill" x1="583.499900" y1="80.951800" x2="874.728600" y2="80.951800" spreadMethod="pad" gradientUnits="userSpaceOnUse"><stop id="eov60vmtn3x88-fill-0" offset="0%" stop-color="rgb(241,241,241)"/><stop id="eov60vmtn3x88-fill-1" offset="31.010000%" stop-color="rgb(245,246,246)"/><stop id="eov60vmtn3x88-fill-2" offset="100%" stop-color="rgb(247,248,249)"/></linearGradient><linearGradient id="eov60vmtn3x810-fill" x1="251.413300" y1="288.188200" x2="95.218100" y2="504.285600" spreadMethod="pad" gradientUnits="userSpaceOnUse"><stop id="eov60vmtn3x810-fill-0" offset="0%" stop-color="rgb(255,255,255)"/><stop id="eov60vmtn3x810-fill-1" offset="28.530000%" stop-color="rgb(251,252,252)"/><stop id="eov60vmtn3x810-fill-2" offset="100%" stop-color="rgb(247,248,249)"/></linearGradient><linearGradient id="eov60vmtn3x811-fill" x1="739.653900" y1="467.687500" x2="782.635100" y2="566.340700" spreadMethod="pad" gradientUnits="userSpaceOnUse"><stop id="eov60vmtn3x811-fill-0" offset="0%" stop-color="rgb(255,255,255)"/><stop id="eov60vmtn3x811-fill-1" offset="28.530000%" stop-color="rgb(251,252,252)"/><stop id="eov60vmtn3x811-fill-2" offset="100%" stop-color="rgb(247,248,249)"/></linearGradient><linearGradient id="eov60vmtn3x812-fill" x1="344.135800" y1="225.561400" x2="237.676400" y2="7.726300" spreadMethod="pad" gradientUnits="userSpaceOnUse"><stop id="eov60vmtn3x812-fill-0" offset="0%" stop-color="rgb(255,255,255)"/><stop id="eov60vmtn3x812-fill-1" offset="28.530000%" stop-color="rgb(251,252,252)"/><stop id="eov60vmtn3x812-fill-2" offset="100%" stop-color="rgb(247,248,249)"/></linearGradient><linearGradient id="eov60vmtn3x813-fill" x1="653.038500" y1="152.078900" x2="803.210600" y2="-8.208400" spreadMethod="pad" gradientUnits="userSpaceOnUse"><stop id="eov60vmtn3x813-fill-0" offset="0%" stop-color="rgb(255,255,255)"/><stop id="eov60vmtn3x813-fill-1" offset="28.530000%" stop-color="rgb(251,252,252)"/><stop id="eov60vmtn3x813-fill-2" offset="100%" stop-color="rgb(247,248,249)"/></linearGradient></defs><rect id="eov60vmtn3x82" width="900" height="560" rx="0" ry="0" clip-rule="evenodd" fill="rgb(247,247,247)" fill-rule="evenodd" stroke="none" stroke-width="1"/><g id="eov60vmtn3x83"><path id="eov60vmtn3x84" d="M583.500000,142.700000L616.700000,161.900000L778,255L780.100000,256.200000C784.100000,258.400000,786.500000,262.600000,786.500000,267.100000C786.500000,271.700000,784,275.800000,780.100000,278L691,329.500000L787,384.900000L789.100000,386.100000C793.100000,388.300000,795.500000,392.500000,795.500000,397C795.500000,401.600000,793,405.700000,789.100000,407.900000L709.100000,454.100000L709.100000,454.100000L691,464.600000L669,477.300000L396.100000,319.700000L358.500000,298L336.500000,285.300000L583.500000,142.700000L583.500000,142.700000ZM755,267.200000L583.500000,168.200000L380.500000,285.400000L552,384.400000L755,267.200000L755,267.200000ZM669,342.200000L574,397L669,451.800000L764,397L669,342.200000Z" clip-rule="evenodd" fill="rgb(240,240,240)" fill-rule="evenodd" stroke="none" stroke-width="1"/><path id="eov60vmtn3x85" d="M396.100000,319.700000L396.100000,319.700000L358.500000,298L396.100000,319.700000L396.100000,319.700000ZM358.500000,298L336.500000,285.300000L269.300000,324.100000L0,479.600000L0,505L358.500000,298Z" clip-rule="evenodd" fill="url(#eov60vmtn3x85-fill)" fill-rule="evenodd" stroke="none" stroke-width="1"/><polygon id="eov60vmtn3x86" points="336.500000,285.300000 0,91.100000 0,65.700000 358.500000,272.600000 561.500000,155.400000 292.300000,0 336.300000,0 583.500000,142.700000 583.500000,142.700000" clip-rule="evenodd" fill="url(#eov60vmtn3x86-fill)" fill-rule="evenodd" stroke="none" stroke-width="1"/><polygon id="eov60vmtn3x87" points="691,464.600000 856.200000,560 812.200000,560 669,477.300000" clip-rule="evenodd" fill="url(#eov60vmtn3x87-fill)" fill-rule="evenodd" stroke="none" stroke-width="1"/><polygon id="eov60vmtn3x88" points="583.500000,142.700000 830.700000,0 874.700000,0 605.500000,155.400000 616.700000,161.900000" clip-rule="evenodd" fill="url(#eov60vmtn3x88-fill)" fill-rule="evenodd" stroke="none" stroke-width="1"/><path id="eov60vmtn3x89" d="M356.500000,296.900000L358.500000,295.700000L671,476.200000L689,465.800000L687,464.600000L786,407.400000L788.100000,406.200000L788.100000,406.200000C791.300000,404.400000,793.500000,401,793.500000,397C793.500000,393,791.300000,389.600000,788.100000,387.800000L788.100000,387.800000L786,386.600000L786,386.600000L786,386.600000L687,329.400000L777,277.400000L779.100000,276.200000L779.100000,276.200000C782.300000,274.400000,784.500000,271,784.500000,267C784.500000,263,782.300000,259.600000,779.100000,257.800000L779.100000,257.800000L777,256.600000L777,256.600000L601.500000,155.400000L603.500000,154.200000L585.500000,143.800000L583.500000,145L581.500000,143.800000L563.500000,154.200000L565.500000,155.400000L358.500000,275L356.500000,273.800000L338.500000,284.200000L340.500000,285.400000L338.500000,286.600000L356.500000,296.900000L356.500000,296.900000ZM658,325.500000L651,329.500000L552,386.700000L376.500000,285.300000L583.500000,165.800000L759,267.200000L658,325.500000L658,325.500000ZM669,339.900000L768,397.100000L669.800000,453.800000L669.800000,453.800000C669.500000,454,669.300000,454,669,454C668.800000,454,668.500000,453.900000,668.300000,453.800000L570,397.100000L669,339.900000Z" clip-rule="evenodd" fill="rgb(255,255,255)" fill-rule="evenodd" stroke="none" stroke-width="1"/><polygon id="eov60vmtn3x810" points="0,502.700000 356.500000,296.900000 338.500000,286.500000 0,481.900000" clip-rule="evenodd" fill="url(#eov60vmtn3x810-fill)" fill-rule="evenodd" stroke="none" stroke-width="1"/><polygon id="eov60vmtn3x811" points="671,476.200000 816.200000,560 852.200000,560 689,465.800000" clip-rule="evenodd" fill="url(#eov60vmtn3x811-fill)" fill-rule="evenodd" stroke="none" stroke-width="1"/><path id="eov60vmtn3x812" d="M581.500000,143.900000L332.300000,0L296.300000,0L563.500000,154.300000L581.500000,143.900000L581.500000,143.900000ZM356.500000,273.800000L338.500000,284.200000L0,88.800000L0,68L356.500000,273.800000Z" clip-rule="evenodd" fill="url(#eov60vmtn3x812-fill)" fill-rule="evenodd" stroke="none" stroke-width="1"/><polygon id="eov60vmtn3x813" points="603.500000,154.300000 870.700000,0 834.700000,0 585.500000,143.900000" clip-rule="evenodd" fill="url(#eov60vmtn3x813-fill)" fill-rule="evenodd" stroke="none" stroke-width="1"/></g><g id="eov60vmtn3x814"><polygon id="eov60vmtn3x815" points="336,215.200000 336,246.400000 372,225.600000 372,194.400000" clip-rule="evenodd" fill="rgb(229,229,229)" fill-rule="evenodd" stroke="none" stroke-width="1"/><polygon id="eov60vmtn3x816" points="300,194.400000 318,184 336,215.200000 336,246.400000 300,225.600000" clip-rule="evenodd" fill="rgb(206,206,206)" fill-rule="evenodd" stroke="none" stroke-width="1"/><rect id="eov60vmtn3x817" width="41.600000" height="36" rx="0" ry="0" transform="matrix(0.86600000000000 -0.50000000000000 0.50000000000000 0.86600000000000 317.97189999999989 184.01619999999997)" clip-rule="evenodd" fill="rgb(255,255,255)" fill-rule="evenodd" stroke="none" stroke-width="1"/></g><g id="eov60vmtn3x818"><polygon id="eov60vmtn3x819" points="669,397.100000 669,438.600000 714,412.600000 714,371.100000" clip-rule="evenodd" fill="rgb(229,229,229)" fill-rule="evenodd" stroke="none" stroke-width="1"/><polygon id="eov60vmtn3x820" points="633,376.300000 669,397.100000 669,438.600000 633,417.800000" clip-rule="evenodd" fill="rgb(206,206,206)" fill-rule="evenodd" stroke="none" stroke-width="1"/><polygon id="eov60vmtn3x821" points="633,376.300000 669,397.100000 714,371.100000 678,350.300000" clip-rule="evenodd" fill="rgb(255,255,255)" fill-rule="evenodd" stroke="none" stroke-width="1"/></g><g id="eov60vmtn3x822"><polygon id="eov60vmtn3x823" points="471,210 471,324.300000 525,293.100000 525,178.800000" clip-rule="evenodd" fill="rgb(229,229,229)" fill-rule="evenodd" stroke="none" stroke-width="1"/><polygon id="eov60vmtn3x824" points="435,189.200000 471,210 471,324.300000 435,303.500000" clip-rule="evenodd" fill="rgb(206,206,206)" fill-rule="evenodd" stroke="none" stroke-width="1"/><polygon id="eov60vmtn3x825" points="435,189.200000 471,210 525,178.800000 489,158" clip-rule="evenodd" fill="rgb(255,255,255)" fill-rule="evenodd" stroke="none" stroke-width="1"/></g><g id="eov60vmtn3x826"><polygon id="eov60vmtn3x827" points="543,251.600000 543,365.900000 597,334.700000 597,220.400000" clip-rule="evenodd" fill="rgb(229,229,229)" fill-rule="evenodd" stroke="none" stroke-width="1"/><polygon id="eov60vmtn3x828" points="507,230.800000 543,251.600000 543,365.900000 507,345.100000" clip-rule="evenodd" fill="rgb(206,206,206)" fill-rule="evenodd" stroke="none" stroke-width="1"/><polygon id="eov60vmtn3x829" points="507,230.800000 543,251.600000 597,220.400000 561,199.600000" clip-rule="evenodd" fill="rgb(255,255,255)" fill-rule="evenodd" stroke="none" stroke-width="1"/></g><g id="eov60vmtn3x830"><polygon id="eov60vmtn3x831" points="750,194.400000 750,225.600000 786,204.800000 786,173.600000" clip-rule="evenodd" fill="rgb(229,229,229)" fill-rule="evenodd" stroke="none" stroke-width="1"/><polygon id="eov60vmtn3x832" points="714,173.600000 732,163.200000 750,194.400000 750,225.600000 714,204.800000" clip-rule="evenodd" fill="rgb(206,206,206)" fill-rule="evenodd" stroke="none" stroke-width="1"/><rect id="eov60vmtn3x833" width="41.600000" height="36" rx="0" ry="0" transform="matrix(0.86600000000000 -0.50000000000000 0.50000000000000 0.86600000000000 731.95779999999991 163.22639999999996)" clip-rule="evenodd" fill="rgb(255,255,255)" fill-rule="evenodd" stroke="none" stroke-width="1"/></g><g id="eov60vmtn3x834"><polygon id="eov60vmtn3x835" points="363,376.300000 363,417.800000 408,391.900000 408,350.300000" clip-rule="evenodd" fill="rgb(229,229,229)" fill-rule="evenodd" stroke="none" stroke-width="1"/><polygon id="eov60vmtn3x836" points="327,355.500000 363,376.300000 363,417.800000 327,397.100000" clip-rule="evenodd" fill="rgb(206,206,206)" fill-rule="evenodd" stroke="none" stroke-width="1"/><polygon id="eov60vmtn3x837" points="327,355.500000 363,376.300000 408,350.300000 372,329.500000" clip-rule="evenodd" fill="rgb(255,255,255)" fill-rule="evenodd" stroke="none" stroke-width="1"/></g><polygon id="eov60vmtn3x838" points="786,329.500000 786,371.100000 813,355.500000 813,313.900000" clip-rule="evenodd" fill="rgb(229,229,229)" fill-rule="evenodd" stroke="none" stroke-width="1"/><polygon id="eov60vmtn3x839" points="750,308.700000 786,329.500000 786,371.100000 750,350.300000" clip-rule="evenodd" fill="rgb(206,206,206)" fill-rule="evenodd" stroke="none" stroke-width="1"/><polygon id="eov60vmtn3x840" points="750,308.700000 786,329.500000 813,313.900000 777,293.100000" clip-rule="evenodd" fill="rgb(255,255,255)" fill-rule="evenodd" stroke="none" stroke-width="1"/><polyline id="eov60vmtn3x841" points="552,397.100000 668.900000,464.500000 786,396.900000 669.100000,329.500000" clip-rule="evenodd" fill="none" fill-rule="evenodd" stroke="rgb(229,229,229)" stroke-width="9" stroke-linecap="round" stroke-linejoin="round" stroke-miterlimit="2.613100"/><polyline id="eov60vmtn3x842" points="414.100000,317.400000 552,397.100000 777,267.200000 666,203.100000" clip-rule="evenodd" fill="none" fill-rule="evenodd" stroke="rgb(2,123,242)" stroke-width="9" stroke-linecap="round" stroke-linejoin="round" stroke-miterlimit="2.613100"/><g id="eov60vmtn3x843_to" transform="translate(0,10)"><g id="eov60vmtn3x843" transform="translate(0,0)" opacity="0"><path id="eov60vmtn3x844" d="M717,329.300000C717,329.400000,717,329.400000,717,329.500000C717,331.500000,715.900000,333,714.400000,333.900000L714.400000,333.900000L711.500000,335.600000L711.500000,335.600000C710.100000,336.400000,708.200000,336.600000,706.500000,335.700000C706.300000,335.600000,706.200000,335.500000,706,335.400000L683,322L683,322L674,327.200000L669,313.900000L669,313.900000L661.600000,309.700000C661.500000,309.600000,661.400000,309.600000,661.300000,309.500000C654.900000,306,650.800000,299.200000,650.900000,291.900000C650.900000,281.500000,650.900000,271.100000,650.900000,260.700000C650.900000,260.500000,650.900000,260.400000,650.900000,260.200000C650.900000,258.200000,652,256.600000,653.500000,255.800000L656.300000,254.200000L656.200000,254.300000C657.700000,253.400000,659.600000,253.200000,661.200000,254.100000C661.400000,254.200000,661.500000,254.300000,661.700000,254.400000L706.600000,280.300000C709.700000,282.100000,712.300000,284.700000,714.100000,287.700000C715.900000,290.700000,716.800000,294.200000,716.800000,297.700000C717,308.300000,717,318.800000,717,329.300000Z" clip-rule="evenodd" fill="rgb(206,206,206)" fill-rule="evenodd" stroke="none" stroke-width="1"/><path id="eov60vmtn3x845" d="M674.500000,325.700000L683,320.800000L706.600000,334.400000C706.700000,334.500000,706.900000,334.600000,707,334.700000C709.600000,336.200000,712.900000,334.200000,712.900000,331.200000C712.900000,331.100000,712.900000,331.100000,712.900000,331C712.900000,320.500000,712.800000,310,712.900000,299.500000C712.900000,292.700000,709.100000,286.300000,703.200000,282.900000L658.400000,257C658.200000,256.900000,658.100000,256.800000,657.900000,256.700000C655.300000,255.300000,652,257.200000,652,260.200000C652,260.400000,652,260.500000,652,260.700000C652,271.100000,652.100000,281.500000,652,291.900000C652,298.800000,655.800000,305.300000,661.800000,308.700000C661.900000,308.800000,662,308.800000,662.100000,308.900000L669.800000,313.300000L674.500000,325.700000Z" clip-rule="evenodd" fill="rgb(255,255,255)" fill-rule="evenodd" stroke="none" stroke-width="1"/><path id="eov60vmtn3x846" d="M679.800000,300.800000C679.700000,301.600000,679.300000,302.200000,678.800000,302.500000L678.800000,302.500000L678.800000,302.500000L677,303.500000L677,303.500000C677.700000,303.100000,678.100000,302.300000,678.100000,301.200000C678.100000,300.700000,678,300.100000,677.800000,299.600000L679.800000,300.800000L679.800000,300.800000ZM670.300000,286.500000C670.400000,286.500000,670.400000,286.400000,670.300000,286.500000L670.500000,286.500000C670.500000,286.500000,670.400000,286.500000,670.300000,286.500000L670.300000,286.500000ZM667.900000,282.400000C668.200000,282.200000,668.600000,282.300000,669,282.500000L681,289.400000C681.800000,289.900000,682.500000,290.900000,682.500000,291.800000L682.500000,291.800000L682.500000,299.300000L685.400000,301L689.700000,299.200000L687.500000,300.100000L684.300000,298.300000L684.300000,290.800000L684.300000,290.800000C684.300000,290,683.600000,288.900000,682.800000,288.400000L670.800000,281.500000C670.400000,281.200000,670,281.200000,669.700000,281.400000C669.700000,281.400000,669.700000,281.400000,669.600000,281.400000L667.900000,282.400000L667.900000,282.400000ZM682.500000,282.900000L684.300000,281.900000L691.300000,285.900000L694.800000,301.100000L693,302.100000L688.500000,304L688.500000,304L693,302.100000L689.500000,286.900000L682.500000,282.900000L682.500000,282.900000ZM689.600000,305L689.600000,305C690.400000,304.600000,691.600000,304.700000,693,305.400000C695.500000,306.800000,697.500000,310,697.500000,312.500000C697.500000,313.600000,697.100000,314.400000,696.400000,314.800000L698.100000,313.800000L698.100000,313.800000C698.800000,313.400000,699.300000,312.600000,699.300000,311.400000C699.300000,308.900000,697.300000,305.700000,694.800000,304.300000C693.400000,303.500000,692.200000,303.400000,691.400000,303.900000L689.600000,305L689.600000,305ZM694.300000,310.100000C694.400000,310.400000,694.500000,310.600000,694.500000,310.800000C694.500000,311.600000,693.800000,311.900000,693,311.400000C692.200000,310.900000,691.500000,309.900000,691.500000,309C691.500000,308.200000,692.200000,307.900000,693,308.400000C693.200000,308.500000,693.300000,308.600000,693.500000,308.700000C693.600000,309.200000,694,309.700000,694.300000,310.100000L694.300000,310.100000ZM674,297.500000C674.200000,298,674.500000,298.400000,674.900000,298.800000C675,299.100000,675.100000,299.300000,675.100000,299.500000C675.100000,300.300000,674.400000,300.600000,673.600000,300.100000C672.800000,299.600000,672.100000,298.600000,672.100000,297.700000C672.100000,296.900000,672.800000,296.600000,673.600000,297L673.700000,297C673.700000,297.300000,673.800000,297.400000,674,297.500000Z" clip-rule="evenodd" fill="rgb(229,229,229)" fill-rule="evenodd" stroke="none" stroke-width="1"/><path id="eov60vmtn3x847" d="M677.700000,299.600000C677.900000,300.200000,678,300.700000,678,301.200000C678,303.700000,676,304.500000,673.500000,303.100000C671,301.700000,669,298.500000,669,296C669,295.500000,669.100000,295,669.300000,294.600000L667.500000,293.600000L667.500000,290.600000C667.500000,288.200000,668.700000,286.700000,670.500000,286.300000L669,285.400000C668.200000,284.900000,667.500000,283.900000,667.500000,283L667.500000,283C667.500000,282.200000,668.200000,281.900000,669,282.400000L681,289.300000C681.800000,289.800000,682.500000,290.800000,682.500000,291.700000L682.500000,291.700000L682.500000,299.200000L685.400000,300.900000L689.700000,299.100000L687.200000,288.400000L682.500000,285.700000L682.500000,282.700000L689.500000,286.700000L693,301.900000L686.600000,304.600000L686.600000,304.600000L677.700000,299.600000L677.700000,299.600000ZM693,305.400000C690.500000,304,688.500000,304.800000,688.500000,307.300000C688.500000,309.800000,690.500000,313,693,314.400000C695.500000,315.800000,697.500000,315,697.500000,312.500000C697.500000,310,695.500000,306.900000,693,305.400000L693,305.400000ZM693,308.400000C693.800000,308.900000,694.500000,309.900000,694.500000,310.800000C694.500000,311.600000,693.800000,311.900000,693,311.400000C692.200000,310.900000,691.500000,309.900000,691.500000,309C691.500000,308.200000,692.200000,308,693,308.400000L693,308.400000ZM673.500000,297.200000L673.500000,297.200000C672.600000,296.700000,672,297,672,297.800000C672,298.600000,672.700000,299.700000,673.500000,300.200000C674.300000,300.700000,675,300.400000,675,299.600000C675,298.700000,674.300000,297.700000,673.500000,297.200000Z" clip-rule="evenodd" fill="rgb(102,102,102)" fill-rule="evenodd" stroke="none" stroke-width="1"/></g></g><g id="eov60vmtn3x848_to" transform="translate(0,10)"><g id="eov60vmtn3x848" transform="translate(0,0)" opacity="0"><path id="eov60vmtn3x849" d="M762,438.400000C762,438.500000,762,438.500000,762,438.600000C762,440.600000,760.900000,442.100000,759.400000,443L759.400000,443L756.500000,444.700000L756.500000,444.700000C755.100000,445.500000,753.200000,445.700000,751.500000,444.800000C751.300000,444.700000,751.200000,444.600000,751,444.500000L728,431.100000L728,431.100000L719,436.300000L714,423L714,423L706.600000,418.800000C706.500000,418.700000,706.400000,418.700000,706.300000,418.600000C699.900000,415.100000,695.800000,408.300000,695.900000,401C695.900000,390.600000,695.900000,380.200000,695.900000,369.800000C695.900000,369.600000,695.900000,369.500000,695.900000,369.300000C695.900000,367.300000,697,365.700000,698.500000,364.900000L701.300000,363.300000L701.200000,363.400000C702.700000,362.500000,704.600000,362.300000,706.200000,363.200000C706.400000,363.300000,706.500000,363.400000,706.700000,363.500000L751.600000,389.400000C754.700000,391.200000,757.300000,393.800000,759.100000,396.800000C760.900000,399.800000,761.800000,403.300000,761.800000,406.800000C762,417.400000,762,427.900000,762,438.400000Z" clip-rule="evenodd" fill="rgb(206,206,206)" fill-rule="evenodd" stroke="none" stroke-width="1"/><path id="eov60vmtn3x850" d="M719.500000,434.900000L728,430L751.600000,443.600000C751.700000,443.700000,751.900000,443.800000,752,443.900000C754.600000,445.400000,757.900000,443.400000,757.900000,440.400000C757.900000,440.300000,757.900000,440.300000,757.900000,440.200000C757.900000,429.700000,757.800000,419.200000,757.900000,408.700000C757.900000,401.900000,754.100000,395.500000,748.200000,392.100000L703.300000,366.200000C703.100000,366.100000,703,366,702.800000,365.900000C700.200000,364.400000,696.900000,366.400000,696.900000,369.400000C696.900000,369.600000,696.900000,369.700000,696.900000,369.900000C696.900000,380.300000,697,390.700000,696.900000,401.100000C696.900000,408,700.700000,414.500000,706.700000,417.900000C706.800000,418,706.900000,418,707,418.100000L714.700000,422.500000L719.500000,434.900000Z" clip-rule="evenodd" fill="rgb(255,255,255)" fill-rule="evenodd" stroke="none" stroke-width="1"/><path id="eov60vmtn3x851" d="M720.400000,396.500000L721.300000,393.100000L721.200000,393.100000L721.200000,393.100000C720.500000,392.700000,719.900000,392.800000,719.700000,393.400000L719.700000,393.400000L719.700000,393.400000L718.600000,397.600000L736.400000,407.900000L735.900000,405.500000L720.400000,396.500000L720.400000,396.500000ZM741.100000,407.500000L741.800000,407.900000C742.200000,408.100000,742.500000,408.700000,742.500000,409.100000L742.500000,409.700000C742.500000,410.500000,742,410.800000,741.300000,410.500000L740.700000,410.200000C740.300000,410,740,409.600000,739.900000,409.200000L739.600000,407.500000C739.500000,407,739.700000,406.800000,740.100000,406.900000C740.200000,406.900000,740.200000,406.900000,740.300000,407L741.100000,407.500000L741.100000,407.500000L741.100000,407.500000ZM715,395.200000L715.800000,394.700000L716.700000,391.300000C716.700000,391.300000,716.600000,391.300000,716.600000,391.200000L715.700000,390.700000L715.700000,390.700000L715,390.300000C714.800000,390.200000,714.600000,390.200000,714.500000,390.200000L714.500000,390.200000L712.700000,391.200000C712.800000,391.100000,713,391.100000,713.200000,391.300000L713.900000,391.700000L713.900000,391.700000L714.800000,392.200000C714.900000,392.200000,714.900000,392.300000,715,392.300000C715.400000,392.600000,715.600000,393.200000,715.500000,393.500000L715.200000,394.800000C715.100000,395.100000,715.100000,395.100000,715,395.200000L715,395.200000ZM719.900000,410.700000L718.100000,411.700000C718.300000,411.600000,718.500000,411.300000,718.500000,410.900000L718.500000,409.400000L720.200000,410.400000C720.100000,410.600000,720,410.700000,719.900000,410.700000L719.900000,410.700000ZM717.800000,389.100000L719.600000,388.100000L719.600000,388.100000C720.100000,387.800000,721,387.900000,721.900000,388.400000L721.900000,388.400000L736.900000,397.100000L736.900000,397.100000C738.300000,397.900000,739.500000,399.600000,739.800000,401.100000L739.800000,401.100000L740.900000,406.400000L741.600000,406L741.600000,406L741.600000,406L741.600000,406C741.700000,406,741.800000,405.900000,741.900000,406C742,406,742,406,742.100000,406.100000L743,406.600000L743,406.600000L743.700000,407C744.100000,407.200000,744.400000,407.800000,744.400000,408.200000L744.400000,408.800000C744.400000,409.200000,744.200000,409.500000,744,409.600000L742.800000,410.300000C742.900000,410.500000,742.900000,410.800000,742.900000,411C742.900000,415,742.900000,419,742.900000,423C742.900000,423.400000,742.800000,423.600000,742.500000,423.800000L742.500000,423.800000L742.500000,423.800000L740.700000,424.800000C740.900000,424.700000,741.100000,424.400000,741.100000,424C741.100000,420,741.100000,416,741.100000,412C741.100000,411.200000,740.400000,410.100000,739.600000,409.600000L739.600000,409.600000L738,402L738,402C737.700000,400.500000,736.500000,398.800000,735.100000,398L735.100000,398L720.100000,389.300000L720.100000,389.300000C719.100000,388.800000,718.300000,388.800000,717.800000,389.100000L717.800000,389.100000ZM738,414.100000C737.900000,414,737.700000,414,737.600000,413.900000C736.400000,413.200000,735.300000,411.600000,735.300000,410.400000C735.300000,410.400000,735.300000,410.300000,735.300000,410.300000C734.300000,409.900000,733.500000,410.400000,733.500000,411.500000C733.500000,412.700000,734.500000,414.300000,735.800000,415C737,415.600000,737.900000,415.300000,738,414.100000L738,414.100000ZM721.500000,404.600000C721.400000,405.700000,720.500000,406.100000,719.300000,405.400000C718.100000,404.700000,717,403.100000,717,401.900000C717,400.800000,717.800000,400.300000,718.800000,400.700000C718.800000,400.700000,718.800000,400.800000,718.800000,400.800000C718.800000,402,719.800000,403.600000,721.100000,404.300000C721.200000,404.500000,721.400000,404.500000,721.500000,404.600000Z" clip-rule="evenodd" fill="rgb(229,229,229)" fill-rule="evenodd" stroke="none" stroke-width="1"/><path id="eov60vmtn3x852" d="M718.600000,397.500000L719.700000,393.300000L719.700000,393.300000L719.700000,393.300000C719.900000,392.700000,720.500000,392.600000,721.200000,393L721.200000,393L733.700000,400.200000L733.700000,400.200000C734.400000,400.600000,735,401.400000,735.200000,402.200000L735.200000,402.200000L735.200000,402.200000L736.300000,407.700000L718.600000,397.500000L718.600000,397.500000ZM713.900000,391.800000L713.200000,391.400000C712.800000,391.200000,712.500000,391.300000,712.500000,391.800000L712.500000,392.400000C712.500000,393.200000,713,394.100000,713.700000,394.600000L714.300000,395C714.700000,395.200000,715,395.200000,715.100000,394.900000L715.400000,393.600000C715.500000,393.200000,715.300000,392.700000,714.900000,392.400000C714.800000,392.400000,714.800000,392.300000,714.700000,392.300000L713.900000,391.800000L713.900000,391.800000L713.900000,391.800000ZM741.100000,407.500000L741.800000,407.900000C742.200000,408.100000,742.500000,408.700000,742.500000,409.100000L742.500000,409.700000C742.500000,410.500000,742,410.800000,741.300000,410.500000L740.700000,410.200000C740.300000,410,740,409.600000,739.900000,409.200000L739.600000,407.500000C739.500000,407,739.700000,406.800000,740.100000,406.900000C740.200000,406.900000,740.200000,406.900000,740.300000,407L741.100000,407.500000L741.100000,407.500000L741.100000,407.500000ZM741,412C741,411.200000,740.300000,410.100000,739.500000,409.600000L739.500000,409.600000L737.900000,402L737.900000,402C737.600000,400.500000,736.400000,398.800000,735,398L735,398L720,389.300000L720,389.300000C718.600000,388.500000,717.400000,388.800000,717.100000,390L717.100000,390L715.500000,395.700000L715.500000,395.700000C714.700000,395.200000,714,395.500000,714,396.300000C714,400.300000,714,404.300000,714,408.300000C714,409.100000,714.700000,410.200000,715.500000,410.700000L717,411.600000C717.800000,412.100000,718.500000,411.800000,718.500000,411L718.500000,409.500000L736.500000,419.900000L736.500000,421.400000C736.500000,422.200000,737.200000,423.300000,738,423.800000L739.500000,424.700000C740.300000,425.200000,741,424.900000,741,424.100000C741,420,741,416,741,412L741,412ZM735.800000,410.400000C737,411.100000,738.100000,412.700000,738.100000,413.900000C738.100000,415.100000,737.100000,415.600000,735.800000,414.900000C734.600000,414.200000,733.500000,412.600000,733.500000,411.400000C733.500000,410.100000,734.500000,409.700000,735.800000,410.400000L735.800000,410.400000ZM719.300000,400.900000C718.100000,400.200000,717,400.600000,717,401.900000C717,403.100000,718,404.700000,719.300000,405.400000C720.500000,406.100000,721.600000,405.700000,721.600000,404.400000C721.500000,403.200000,720.500000,401.600000,719.300000,400.900000Z" clip-rule="evenodd" fill="rgb(102,102,102)" fill-rule="evenodd" stroke="none" stroke-width="1"/></g></g><g id="eov60vmtn3x853_to" transform="translate(0,10)"><g id="eov60vmtn3x853" transform="translate(0,0)" opacity="0"><path id="eov60vmtn3x854" d="M632.700000,102.900000L637.400000,100.100000L637.400000,100.100000C642.700000,96.900000,650,97.200000,658.200000,101.900000C674.200000,111.200000,687.200000,133.700000,687.200000,152.200000C687.200000,159.400000,685.200000,165,681.900000,168.500000L659.700000,194.700000C659.500000,195,659.300000,195.200000,659.100000,195.300000L659.100000,195.300000L659.100000,195.300000L654.200000,198.200000C654.400000,198.100000,654.500000,197.900000,654.700000,197.700000L676.900000,171.500000C680.300000,168,682.200000,162.400000,682.200000,155.200000C682.200000,136.700000,669.200000,114.100000,653.200000,104.900000C645.200000,100.300000,638,99.900000,632.700000,102.900000L632.700000,102.900000L632.700000,102.900000ZM657.900000,152.100000C649.700000,147.300000,643,135.800000,643,126.200000C643,123,643.800000,120.400000,645.100000,118.600000C640.900000,119.200000,638,123,638,129.200000C638,138.700000,644.700000,150.300000,652.900000,155.100000C658.400000,158.300000,663.100000,157.600000,665.700000,154.100000C663.400000,154.400000,660.700000,153.800000,657.900000,152.100000Z" clip-rule="evenodd" fill="rgb(205,70,53)" fill-rule="evenodd" stroke="none" stroke-width="1"/><path id="eov60vmtn3x855" d="M635.300000,101.400000L637.400000,100.100000L637.400000,100.100000C642.700000,96.900000,650,97.200000,658.200000,101.900000C666.100000,106.400000,673.200000,114.200000,678.400000,123.100000L668.400000,128.900000C665.700000,124.200000,662,120.100000,657.800000,117.700000C656.400000,116.900000,655,116.300000,653.700000,116L653.700000,116L635.300000,101.400000Z" clip-rule="evenodd" fill="rgb(242,117,100)" fill-rule="evenodd" stroke="none" stroke-width="1"/><path id="eov60vmtn3x856" d="M653.200000,104.900000C637.200000,95.600000,624.200000,103.100000,624.200000,121.700000C624.200000,129.300000,626.400000,137.500000,630,145.200000L652.200000,197.100000C652.900000,198.600000,653.800000,198.900000,654.700000,197.700000L676.900000,171.500000C680.300000,168,682.200000,162.400000,682.200000,155.200000C682.200000,136.800000,669.200000,114.200000,653.200000,104.900000L653.200000,104.900000ZM652.900000,155.100000C644.700000,150.300000,638,138.800000,638,129.200000C638,119.700000,644.700000,115.800000,652.900000,120.600000C661.100000,125.400000,667.800000,136.900000,667.800000,146.500000C667.800000,156,661.100000,159.900000,652.900000,155.100000Z" clip-rule="evenodd" fill="rgb(239,82,62)" fill-rule="evenodd" stroke="none" stroke-width="1"/><path id="eov60vmtn3x857" d="M653.200000,104.900000C648.400000,102.100000,643.800000,100.800000,639.800000,100.900000C643.600000,101,647.800000,102.300000,652.200000,104.900000C668.200000,114.200000,681.200000,136.700000,681.200000,155.200000C681.200000,162.400000,679.200000,168,675.900000,171.500000L653.700000,197.700000C653.500000,198,653.300000,198.200000,653.100000,198.300000C653.600000,198.600000,654.200000,198.400000,654.700000,197.700000L676.900000,171.500000C680.300000,168,682.200000,162.400000,682.200000,155.200000C682.200000,136.800000,669.200000,114.200000,653.200000,104.900000L653.200000,104.900000ZM652.900000,155.100000C655.100000,156.400000,657.200000,157,659,157.100000C656.900000,157.200000,654.400000,156.600000,651.900000,155.100000C643.700000,150.300000,637,138.800000,637,129.200000C637,122.200000,640.600000,118.300000,645.800000,118.600000C641.200000,118.900000,638,122.700000,638,129.200000C638,138.800000,644.600000,150.300000,652.900000,155.100000Z" clip-rule="evenodd" fill="rgb(242,117,100)" fill-rule="evenodd" stroke="none" stroke-width="1"/></g></g><path id="eov60vmtn3x858" d="M308,297.800000C308,296.700000,308.800000,295.700000,309.900000,295.400000L357.400000,284L369.500000,262.500000L369.500000,262.500000C370,261.600000,371,261.100000,372.100000,261.100000C373.100000,261.100000,374.100000,261.600000,374.700000,262.500000C374.700000,262.600000,374.800000,262.600000,374.800000,262.600000L399.700000,305.800000C399.700000,305.900000,399.800000,305.900000,399.800000,306C400,306.400000,400.200000,306.900000,400.200000,307.400000L400.200000,312.400000L400.200000,312.400000C400.200000,314.100000,398.900000,315.400000,397.200000,315.400000C397.100000,315.400000,396.900000,315.400000,396.800000,315.400000L311,305.400000C310.900000,305.400000,310.900000,305.400000,310.800000,305.400000L310.500000,305.400000C309.200000,305.300000,308.300000,304.200000,308.300000,302.900000L308.300000,297.800000Z" opacity="0.2" clip-rule="evenodd" fill="rgb(152,152,152)" fill-rule="evenodd" stroke="none" stroke-width="1"/><g id="eov60vmtn3x859_to" transform="translate(0,0)"><g id="eov60vmtn3x859" transform="translate(0,0)"><path id="eov60vmtn3x860" d="M310.800000,295.400000C310.700000,295.400000,310.700000,295.400000,310.600000,295.400000L310.300000,295.400000C309,295.300000,308.100000,294.200000,308.100000,292.900000C308.100000,291.800000,308.900000,290.800000,310,290.500000L357.500000,279.100000L369.600000,257.600000L369.600000,257.600000C370.100000,256.700000,371.100000,256.200000,372.200000,256.200000C373.200000,256.200000,374.200000,256.700000,374.800000,257.600000C374.800000,257.700000,374.900000,257.700000,374.900000,257.700000L399.800000,300.900000C399.800000,301,399.900000,301,399.900000,301.100000C400.100000,301.500000,400.300000,302,400.300000,302.500000C400.300000,304.200000,399,305.500000,397.300000,305.500000C397.200000,305.500000,397,305.500000,396.900000,305.500000L310.800000,295.400000Z" clip-rule="evenodd" fill="rgb(246,136,123)" fill-rule="evenodd" stroke="none" stroke-width="1"/><path id="eov60vmtn3x861" d="M370.300000,258L358,279.900000L310.200000,291.400000L310.200000,291.400000L310.200000,291.400000L310.200000,291.400000L310.200000,291.400000C309.600000,291.600000,309.100000,292.200000,309.100000,292.900000C309.100000,293.700000,309.700000,294.300000,310.400000,294.400000L310.400000,294.400000L310.800000,294.400000C310.900000,294.400000,310.900000,294.400000,311,294.400000L312.400000,294.600000L396.900000,304.400000C397,304.400000,397.100000,304.400000,397.200000,304.400000C398.300000,304.400000,399.200000,303.500000,399.200000,302.400000C399.200000,302.100000,399.100000,301.700000,399,301.500000L399,301.500000C399,301.500000,399,301.400000,398.900000,301.400000L374,258.200000C374,258.200000,374,258.100000,373.900000,258.100000L373.900000,258.100000C373.500000,257.500000,372.900000,257.200000,372.200000,257.200000C371.500000,257.200000,370.700000,257.400000,370.300000,258L370.300000,258Z" clip-rule="evenodd" fill="rgb(242,117,100)" fill-rule="evenodd" stroke="none" stroke-width="1"/><path id="eov60vmtn3x862" d="M370.300000,258L358,279.900000L398.700000,303.400000C398.900000,303.100000,399,302.800000,399,302.400000C399,302.100000,398.900000,301.700000,398.800000,301.500000L398.800000,301.500000C398.800000,301.500000,398.800000,301.400000,398.700000,301.400000L373.800000,258.200000C373.800000,258.200000,373.800000,258.100000,373.700000,258.100000L373.700000,258.100000C373.300000,257.500000,372.700000,257.200000,372,257.200000C371.300000,257.200000,370.700000,257.400000,370.300000,258L370.300000,258Z" clip-rule="evenodd" fill="rgb(239,82,62)" fill-rule="evenodd" stroke="none" stroke-width="1"/><path id="eov60vmtn3x863" d="M310.800000,300.400000C310.700000,300.400000,310.700000,300.400000,310.600000,300.400000L310.300000,300.400000C309,300.300000,308.100000,299.200000,308.100000,297.900000L308.100000,292.900000C308.100000,294.200000,309.100000,295.200000,310.300000,295.400000L310.600000,295.400000C310.700000,295.400000,310.700000,295.400000,310.800000,295.400000L396.600000,305.400000C396.700000,305.400000,396.900000,305.400000,397,305.400000C398.700000,305.400000,400,304.100000,400,302.400000L400,307.400000L400,307.400000C400,309.100000,398.700000,310.400000,397,310.400000C396.900000,310.400000,396.700000,310.400000,396.600000,310.400000L310.800000,300.400000Z" clip-rule="evenodd" fill="rgb(205,70,53)" fill-rule="evenodd" stroke="none" stroke-width="1"/></g></g></svg>