<svg width="96" height="96" viewBox="0 0 96 96" fill="none" xmlns="http://www.w3.org/2000/svg">
<g clip-path="url(#clip0_772_12562)">
<path d="M48 96C74.5097 96 96 74.5097 96 48C96 21.4903 74.5097 0 48 0C21.4903 0 0 21.4903 0 48C0 74.5097 21.4903 96 48 96Z" fill="white"/>
<path d="M48 90C71.196 90 90 71.196 90 48C90 24.804 71.196 6 48 6C24.804 6 6 24.804 6 48C6 71.196 24.804 90 48 90Z" fill="url(#paint0_linear_772_12562)"/>
<path d="M48 89.9999C71.1803 89.9999 90 71.1803 90 47.9999C90 47.1584 90 46.3169 89.9235 45.4753C89.235 56.1857 84.5683 66.1311 76.765 73.4753C68.9618 80.8196 58.7104 84.8743 48 84.8743C37.2896 84.8743 27.0383 80.8196 19.235 73.4753C11.4317 66.1311 6.76503 56.1857 6.0765 45.4753C6 46.3169 6 47.1584 6 47.9999C6 71.1803 24.8197 89.9999 48 89.9999Z" fill="#050C38" fill-opacity="0.05"/>
<g filter="url(#filter0_d_772_12562)">
<path fill-rule="evenodd" clip-rule="evenodd" d="M64.788 55.881C68.88 55.2 72 51.644 72 47.359C72 42.587 68.132 38.719 63.36 38.719C63.342 38.719 63.325 38.72 63.307 38.72C63.341 38.468 63.36 38.212 63.36 37.951C63.36 34.769 60.781 32.191 57.6 32.191C56.086 32.191 54.708 32.776 53.68 33.732C51.927 29.342 47.639 26.239 42.624 26.239C36.049 26.239 30.72 31.568 30.72 38.143C30.72 38.407 30.732 38.669 30.749 38.929C26.887 39.792 24 43.237 24 47.359C24 52.13 27.868 55.999 32.64 55.999L41.333 55.971L42.472 56.934V58.048V59.185L40.999 60.407L41.251 61.2C41.512 62.172 41.892 63.114 42.38 63.994L42.792 64.719L44.807 64.528C45.295 65.137 45.854 65.696 46.463 66.184L46.287 68.251L47.005 68.656C47.872 69.138 48.797 69.517 49.752 69.778L50.554 70L51.866 68.42C52.253 68.464 52.644 68.489 53.034 68.489C53.424 68.489 53.815 68.464 54.202 68.42L55.514 70L56.277 69.778C57.24 69.511 58.167 69.122 59.033 68.626L59.75 68.222L59.567 66.184C60.178 65.698 60.737 65.139 61.223 64.527L63.238 64.718L63.65 63.993C64.138 63.114 64.518 62.172 64.778 61.2L64.992 60.436L63.526 59.216V56.926L64.788 55.881ZM52.999 53.06C55.76 53.06 57.999 55.298 57.999 58.06C57.999 60.821 55.76 63.06 52.999 63.06C50.237 63.06 47.999 60.821 47.999 58.06C47.999 55.298 50.237 53.06 52.999 53.06ZM52.999 56.06C54.104 56.06 54.999 56.955 54.999 58.06C54.999 59.164 54.104 60.06 52.999 60.06C51.894 60.06 50.999 59.164 50.999 58.06C50.999 56.955 51.894 56.06 52.999 56.06ZM41.971 52.969L32.631 52.999C29.515 53.009 27 50.467 27 47.359C27 44.722 28.833 42.431 31.403 41.856L33.913 41.296L33.742 38.73C33.729 38.535 33.72 38.339 33.72 38.143C33.72 33.224 37.705 29.239 42.624 29.239C46.273 29.239 49.545 31.465 50.894 34.844L52.517 38.908L55.722 35.929C56.236 35.451 56.898 35.191 57.6 35.191C59.125 35.191 60.36 36.425 60.36 37.951C60.36 38.075 60.35 38.199 60.334 38.322L59.871 41.775L63.355 41.72C63.384 41.719 63.413 41.718 63.401 41.718C66.476 41.719 69 44.243 69 47.359C69 50.069 67.068 52.396 64.425 52.899L64.07 52.9C63.951 52.638 63.824 52.38 63.687 52.127L63.275 51.364L61.253 51.547C60.765 50.954 60.21 50.41 59.605 49.936L59.788 47.899L59.071 47.494C58.202 46.997 57.273 46.607 56.308 46.341L55.545 46.12L54.201 47.7C53.815 47.655 53.424 47.631 53.034 47.631C52.644 47.631 52.253 47.655 51.866 47.7L50.553 46.12L49.752 46.342C48.789 46.608 47.857 46.998 46.99 47.495L46.287 47.899L46.463 49.936C45.853 50.422 45.295 50.977 44.807 51.584L42.792 51.401L42.38 52.164C42.234 52.427 42.098 52.696 41.971 52.969ZM44.25 54.111L46.044 54.278L46.463 53.653C47.018 52.846 47.722 52.144 48.532 51.592L49.15 51.165L48.982 49.348C49.211 49.242 49.432 49.15 49.669 49.066L50.866 50.47L51.629 50.333C52.109 50.242 52.599 50.196 53.088 50.196C53.576 50.196 54.067 50.242 54.545 50.333L55.309 50.47L56.476 49.066C56.705 49.15 56.934 49.242 57.163 49.348L56.987 51.165L57.613 51.592C58.42 52.147 59.122 52.85 59.674 53.66L60.101 54.279L61.895 54.111C61.994 54.34 62.093 54.576 62.177 54.813L60.796 55.958L60.933 56.721C61.015 57.168 61.063 57.625 61.07 58.079C61.062 58.536 61.015 58.995 60.933 59.445L60.796 60.208L62.177 61.353C62.093 61.589 61.994 61.826 61.895 62.055L60.024 61.841L59.597 62.459C59.045 63.27 58.344 63.973 57.537 64.528L56.918 64.955L57.086 66.772C56.857 66.878 56.636 66.97 56.399 67.054L55.232 65.65L54.469 65.787C53.99 65.877 53.5 65.924 53.011 65.924C52.523 65.924 52.032 65.877 51.553 65.787L50.79 65.65L49.623 67.054C49.386 66.97 49.164 66.878 48.936 66.771L49.104 64.955L48.486 64.528C47.677 63.97 46.975 63.268 46.418 62.459L45.998 61.841L44.205 62.009C44.098 61.78 44.006 61.544 43.922 61.307L45.296 60.162L45.166 59.399C45.083 58.953 45.035 58.5 45.028 58.048C45.035 57.592 45.082 57.132 45.165 56.682L45.295 55.919L43.998 54.812C44.051 54.576 44.143 54.34 44.25 54.111Z" fill="white"/>
</g>
</g>
<defs>
<filter id="filter0_d_772_12562" x="24" y="26.239" width="48" height="44.761" filterUnits="userSpaceOnUse" color-interpolation-filters="sRGB">
<feFlood flood-opacity="0" result="BackgroundImageFix"/>
<feColorMatrix in="SourceAlpha" type="matrix" values="0 0 0 0 0 0 0 0 0 0 0 0 0 0 0 0 0 0 127 0" result="hardAlpha"/>
<feOffset dy="1"/>
<feColorMatrix type="matrix" values="0 0 0 0 0 0 0 0 0 0 0 0 0 0 0 0 0 0 0.08 0"/>
<feBlend mode="normal" in2="BackgroundImageFix" result="effect1_dropShadow_772_12562"/>
<feBlend mode="normal" in="SourceGraphic" in2="effect1_dropShadow_772_12562" result="shape"/>
</filter>
<linearGradient id="paint0_linear_772_12562" x1="74.9973" y1="80.1738" x2="21.0028" y2="15.8263" gradientUnits="userSpaceOnUse">
<stop stop-color="#26568E"/>
<stop offset="0.4" stop-color="#3C6BAC"/>
<stop offset="1" stop-color="#3D6CAD"/>
</linearGradient>
<clipPath id="clip0_772_12562">
<rect width="96" height="96" fill="white"/>
</clipPath>
</defs>
</svg>
