<svg width="96" height="96" viewBox="0 0 96 96" fill="none" xmlns="http://www.w3.org/2000/svg">
<g clip-path="url(#clip0_772_12421)">
<path d="M48 96C74.5097 96 96 74.5097 96 48C96 21.4903 74.5097 0 48 0C21.4903 0 0 21.4903 0 48C0 74.5097 21.4903 96 48 96Z" fill="white"/>
<path d="M48 90C71.196 90 90 71.196 90 48C90 24.804 71.196 6 48 6C24.804 6 6 24.804 6 48C6 71.196 24.804 90 48 90Z" fill="url(#paint0_linear_772_12421)"/>
<path d="M48 89.9999C71.1803 89.9999 90 71.1803 90 47.9999C90 47.1584 90 46.3169 89.9235 45.4753C89.235 56.1857 84.5683 66.1311 76.765 73.4753C68.9618 80.8196 58.7104 84.8743 48 84.8743C37.2896 84.8743 27.0383 80.8196 19.235 73.4753C11.4317 66.1311 6.76503 56.1857 6.0765 45.4753C6 46.3169 6 47.1584 6 47.9999C6 71.1803 24.8197 89.9999 48 89.9999Z" fill="#050C38" fill-opacity="0.05"/>
<g clip-path="url(#clip1_772_12421)">
<g filter="url(#filter0_d_772_12421)">
<path fill-rule="evenodd" clip-rule="evenodd" d="M68.425 56.1921C65.175 64.2824 57.2538 69.998 48.0022 69.998C40.2629 69.998 33.4596 66.007 29.538 59.9707C29.3603 59.9881 29.1826 60.0011 29.0006 60.0011C26.2403 60.0011 24 57.7607 24 55.0004C24 52.2358 26.2403 49.9998 29.0006 49.9998C31.7609 49.9998 34.0013 52.2358 34.0013 55.0004C34.0013 56.4868 33.3513 57.8214 32.3199 58.7357C35.7476 63.7277 41.4892 66.9993 47.9978 66.9993C55.9884 66.9993 62.8221 62.0724 65.6344 55.0871C64.4211 54.6061 63.2121 54.1251 61.9987 53.6354L70.3837 46.8582C70.9297 50.4765 71.454 53.9648 72 57.5787C70.804 57.1194 69.6124 56.6558 68.425 56.1921ZM29.0006 52.9984C30.1056 52.9984 30.9983 53.8954 30.9983 55.0004C30.9983 56.1054 30.1056 56.9981 29.0006 56.9981C27.8956 56.9981 26.9986 56.1054 26.9986 55.0004C26.9986 53.8954 27.8956 52.9984 29.0006 52.9984Z" fill="white"/>
<path fill-rule="evenodd" clip-rule="evenodd" d="M27.575 39.8079C30.825 31.7176 38.7462 26.002 47.9978 26.002C55.7371 26.002 62.5361 29.9929 66.462 36.0292C66.6397 36.0119 66.8174 35.9989 66.9994 35.9989C69.7597 35.9989 72 38.2392 72 40.9995C72 43.7598 69.7597 46.0001 66.9994 46.0001C64.2391 46.0001 61.9987 43.7598 61.9987 40.9995C61.9987 39.5132 62.6487 38.1785 63.6801 37.2642C60.2524 32.2722 54.5108 29.0006 47.9978 29.0006C40.0116 29.0006 33.1779 33.9276 30.3656 40.9129C31.5789 41.3938 32.7879 41.8748 34.0013 42.3645L25.6163 49.1418C25.0703 45.5235 24.546 42.0352 24 38.4212C25.196 38.8805 26.3877 39.3442 27.575 39.8079ZM66.9994 43.0015C65.8944 43.0015 65.0017 42.1045 65.0017 40.9995C65.0017 39.8945 65.8944 39.0019 66.9994 39.0019C68.1044 39.0019 69.0014 39.8945 69.0014 40.9995C69.0014 42.1045 68.1044 43.0015 66.9994 43.0015Z" fill="white"/>
<path d="M36.2504 51.1395C36.5147 52.1101 36.8917 53.0548 37.3813 53.9344L37.793 54.6581L39.808 54.4674C40.2977 55.0784 40.8567 55.6374 41.4633 56.1228L41.29 58.1898L42.005 58.5971C42.8716 59.0781 43.799 59.4551 44.7523 59.7194L45.554 59.9404L46.8669 58.3587C47.2526 58.4064 47.6469 58.4281 48.0369 58.4281C48.4269 58.4281 48.8169 58.4064 49.2026 58.3587L50.5156 59.9404L51.2783 59.7194C52.2402 59.4507 53.1676 59.0607 54.0342 58.5667L54.7536 58.1638L54.5672 56.1228C55.1782 55.6374 55.7372 55.0784 56.2225 54.4674L58.2375 54.6581L58.6492 53.9344C59.1389 53.0548 59.5202 52.1101 59.7802 51.1395L59.9925 50.3768L58.5279 49.1548V46.8668L60.0012 45.6448L59.7845 44.8822C59.5375 43.9028 59.1692 42.9582 58.6882 42.0655L58.2765 41.3029L56.2529 41.4849C55.7676 40.8955 55.2129 40.3495 54.6062 39.8772L54.7882 37.8406L54.0732 37.4332C53.2022 36.9349 52.2749 36.5449 51.3086 36.2806L50.5459 36.0596L49.2026 37.6412C48.8169 37.5936 48.4269 37.5719 48.0369 37.5719C47.6469 37.5719 47.2526 37.5936 46.8669 37.6412L45.554 36.0596L44.7523 36.2806C43.7903 36.5492 42.8586 36.9392 41.992 37.4332L41.29 37.8406L41.4633 39.8772C40.8567 40.3625 40.2977 40.9172 39.808 41.5239L37.793 41.3419L37.3813 42.1045C36.8917 42.9842 36.5147 43.9245 36.2547 44.8995L36.038 45.6622L37.4723 46.8755V47.9892V49.1245L35.999 50.3465L36.2504 51.1395ZM39.2533 44.0502L41.043 44.2192L41.4633 43.5909C42.018 42.7849 42.7243 42.0829 43.5346 41.5325L44.15 41.1035L43.981 39.2879C44.2106 39.1795 44.4316 39.0885 44.67 39.0062L45.866 40.4102L46.6286 40.2715C47.1096 40.1805 47.5993 40.1372 48.0889 40.1372C48.5786 40.1372 49.0683 40.1805 49.5449 40.2715L50.3076 40.4102L51.4776 39.0062C51.7072 39.0885 51.9369 39.1795 52.1622 39.2879L51.9889 41.1035L52.6129 41.5325C53.4232 42.0872 54.1252 42.7892 54.6756 43.5995L55.1046 44.2192L56.8942 44.0502C56.9939 44.2798 57.0935 44.5182 57.1802 44.7522L55.7979 45.8962L55.9322 46.6588C56.0146 47.1095 56.0622 47.5645 56.0709 48.0195C56.0622 48.4745 56.0146 48.9338 55.9322 49.3845L55.7979 50.1471L57.1759 51.2911C57.0935 51.5295 56.9939 51.7678 56.8942 51.9931L55.0266 51.7808L54.5976 52.4005C54.0472 53.2108 53.3452 53.9128 52.5392 54.4674L51.9196 54.8964L52.0886 56.7121C51.8589 56.8204 51.6379 56.9114 51.3996 56.9938L50.2339 55.5898L49.4713 55.7284C48.9903 55.8151 48.5006 55.8628 48.0109 55.8628C47.5256 55.8628 47.0316 55.8151 46.555 55.7284L45.7923 55.5898L44.6223 56.9938C44.3883 56.9114 44.1673 56.8161 43.9376 56.7121L44.1066 54.8964L43.487 54.4674C42.6766 53.9084 41.9746 53.2065 41.42 52.4005L40.9997 51.7808L39.2057 51.9498C39.0973 51.7201 39.0063 51.4818 38.924 51.2478L40.2977 50.1038L40.1677 49.3411C40.0853 48.8948 40.0377 48.4398 40.029 47.9892C40.0377 47.5298 40.0853 47.0705 40.1677 46.6242L40.2977 45.8572L38.9977 44.7522C39.054 44.5182 39.145 44.2798 39.2533 44.0502Z" fill="white"/>
<path fill-rule="evenodd" clip-rule="evenodd" d="M47.9978 43.0015C50.7624 43.0015 52.9984 45.2374 52.9984 47.9978C52.9984 50.7624 50.7624 52.9984 47.9978 52.9984C45.2374 52.9984 43.0015 50.7624 43.0015 47.9978C43.0015 45.2374 45.2374 43.0015 47.9978 43.0015ZM47.9978 46.0001C49.1028 46.0001 49.9997 46.8971 49.9997 47.9978C49.9997 49.1028 49.1028 49.9997 47.9978 49.9997C46.8971 49.9997 46.0001 49.1028 46.0001 47.9978C46.0001 46.8971 46.8971 46.0001 47.9978 46.0001Z" fill="white"/>
</g>
</g>
</g>
<defs>
<filter id="filter0_d_772_12421" x="24" y="26.002" width="48" height="44.9961" filterUnits="userSpaceOnUse" color-interpolation-filters="sRGB">
<feFlood flood-opacity="0" result="BackgroundImageFix"/>
<feColorMatrix in="SourceAlpha" type="matrix" values="0 0 0 0 0 0 0 0 0 0 0 0 0 0 0 0 0 0 127 0" result="hardAlpha"/>
<feOffset dy="1"/>
<feColorMatrix type="matrix" values="0 0 0 0 0 0 0 0 0 0 0 0 0 0 0 0 0 0 0.08 0"/>
<feBlend mode="normal" in2="BackgroundImageFix" result="effect1_dropShadow_772_12421"/>
<feBlend mode="normal" in="SourceGraphic" in2="effect1_dropShadow_772_12421" result="shape"/>
</filter>
<linearGradient id="paint0_linear_772_12421" x1="74.9973" y1="80.1738" x2="21.0028" y2="15.8263" gradientUnits="userSpaceOnUse">
<stop stop-color="#2DB38F"/>
<stop offset="0.4" stop-color="#2DB38F"/>
<stop offset="1" stop-color="#83E6CB"/>
</linearGradient>
<clipPath id="clip0_772_12421">
<rect width="96" height="96" fill="white"/>
</clipPath>
<clipPath id="clip1_772_12421">
<rect width="48" height="48" fill="white" transform="translate(24 24)"/>
</clipPath>
</defs>
</svg>
