<svg width="96" height="96" viewBox="0 0 96 96" fill="none" xmlns="http://www.w3.org/2000/svg">
<g clip-path="url(#clip0_772_12556)">
<path d="M48 96C74.5097 96 96 74.5097 96 48C96 21.4903 74.5097 0 48 0C21.4903 0 0 21.4903 0 48C0 74.5097 21.4903 96 48 96Z" fill="white"/>
<path d="M48 90C71.196 90 90 71.196 90 48C90 24.804 71.196 6 48 6C24.804 6 6 24.804 6 48C6 71.196 24.804 90 48 90Z" fill="url(#paint0_linear_772_12556)"/>
<path d="M48 89.9999C71.1803 89.9999 90 71.1803 90 47.9999C90 47.1584 90 46.3169 89.9235 45.4753C89.235 56.1857 84.5683 66.1311 76.765 73.4753C68.9618 80.8196 58.7104 84.8743 48 84.8743C37.2896 84.8743 27.0383 80.8196 19.235 73.4753C11.4317 66.1311 6.76503 56.1857 6.0765 45.4753C6 46.3169 6 47.1584 6 47.9999C6 71.1803 24.8197 89.9999 48 89.9999Z" fill="#050C38" fill-opacity="0.05"/>
<g clip-path="url(#clip1_772_12556)">
<g filter="url(#filter0_d_772_12556)">
<path fill-rule="evenodd" clip-rule="evenodd" d="M38.9987 24H57.0009C59.7491 24 61.9986 26.2496 61.9986 28.9978V66.9966C61.9986 69.7504 59.7491 72 57.0009 72H38.9987C36.2505 72 34.001 69.7504 34.001 66.9966V28.9978C34.001 26.2496 36.2505 24 38.9987 24ZM43.3619 49.7537L41.5429 48.1445L43.4922 46.1953C43.5148 46.1726 43.5318 46.1556 43.5488 46.1273C44.0702 45.4813 44.0928 44.6597 43.4922 44.059C43.4299 43.9967 43.3675 43.9514 43.2882 43.9117C42.9935 43.7644 42.7839 43.6114 42.4269 43.6114C42.0983 43.6114 41.8206 43.7077 41.5486 43.889C41.5033 43.9174 41.4693 43.9457 41.4296 43.9854L38.4491 46.9659C38.4264 46.9885 38.4094 47.0112 38.3924 47.0339C37.8711 47.6798 37.8485 48.5015 38.4491 49.1021L41.2823 51.941C41.3503 52.0033 41.4126 52.0486 41.4919 52.0883C41.7809 52.2356 41.9963 52.3886 42.3532 52.3886C42.7782 52.3886 43.1239 52.2356 43.4185 51.941C43.4412 51.9183 43.4582 51.8956 43.4752 51.873C43.9908 51.2327 44.0418 50.2864 43.3619 49.7537ZM52.6321 49.7537L54.4567 48.1445L52.5074 46.1953C52.4847 46.1726 52.4677 46.1556 52.4451 46.1273C51.9294 45.4813 51.9011 44.6597 52.5074 44.059C52.5697 43.9967 52.6321 43.9514 52.7114 43.9117C53.0004 43.7644 53.2157 43.6114 53.5727 43.6114C53.8957 43.6114 54.179 43.7077 54.4453 43.889C54.4906 43.9174 54.5303 43.9457 54.5643 43.9854L57.5505 46.9659C57.5675 46.9885 57.5902 47.0112 57.6072 47.0339C58.1228 47.6798 58.1511 48.5015 57.5505 49.1021L54.7116 51.941C54.6493 52.0033 54.587 52.0486 54.5076 52.0883C54.213 52.2356 54.0033 52.3886 53.6464 52.3886C53.2214 52.3886 52.8757 52.2356 52.5754 51.941C52.5527 51.9183 52.5357 51.8956 52.5187 51.873C52.0031 51.2327 51.9578 50.2864 52.6321 49.7537ZM51.0681 45.3226C51.3855 45.8836 51.3571 46.5919 50.8812 47.0679L47.1017 50.8474C46.8864 51.0627 46.4104 51.295 46.1101 51.295C45.7417 51.295 45.5661 51.1817 45.2884 50.9834C45.1864 50.9267 45.1128 50.8587 45.0391 50.7624C44.6085 50.1901 44.5915 49.3798 45.1184 48.8528L48.9716 45.147C49.2096 44.9033 49.6119 44.6993 49.9632 44.6993C50.4335 44.6993 50.9095 44.8863 51.0681 45.3226ZM36.9985 30.0007H58.9954V28.9978C58.9954 27.9041 58.0945 26.9975 57.0009 26.9975H38.9987C37.9051 26.9975 36.9985 27.9041 36.9985 28.9978V30.0007ZM58.9954 32.9982H36.9985V63.0018H58.9954V32.9982ZM58.9954 65.9993H36.9985V66.9966C36.9985 68.0902 37.9051 68.9968 38.9987 68.9968H57.0009C58.0945 68.9968 58.9954 68.0902 58.9954 66.9966V65.9993Z" fill="white"/>
</g>
</g>
</g>
<defs>
<filter id="filter0_d_772_12556" x="34.001" y="24" width="27.9976" height="49" filterUnits="userSpaceOnUse" color-interpolation-filters="sRGB">
<feFlood flood-opacity="0" result="BackgroundImageFix"/>
<feColorMatrix in="SourceAlpha" type="matrix" values="0 0 0 0 0 0 0 0 0 0 0 0 0 0 0 0 0 0 127 0" result="hardAlpha"/>
<feOffset dy="1"/>
<feColorMatrix type="matrix" values="0 0 0 0 0 0 0 0 0 0 0 0 0 0 0 0 0 0 0.08 0"/>
<feBlend mode="normal" in2="BackgroundImageFix" result="effect1_dropShadow_772_12556"/>
<feBlend mode="normal" in="SourceGraphic" in2="effect1_dropShadow_772_12556" result="shape"/>
</filter>
<linearGradient id="paint0_linear_772_12556" x1="74.9973" y1="80.1738" x2="21.0028" y2="15.8263" gradientUnits="userSpaceOnUse">
<stop stop-color="#503B96"/>
<stop offset="0.4" stop-color="#644ABD"/>
<stop offset="1" stop-color="#8776FA"/>
</linearGradient>
<clipPath id="clip0_772_12556">
<rect width="96" height="96" fill="white"/>
</clipPath>
<clipPath id="clip1_772_12556">
<rect width="48" height="48" fill="white" transform="translate(24 24)"/>
</clipPath>
</defs>
</svg>
