<svg width="96" height="96" viewBox="0 0 96 96" fill="none" xmlns="http://www.w3.org/2000/svg">
<g clip-path="url(#clip0_779_12846)">
<path d="M48 96C74.5097 96 96 74.5097 96 48C96 21.4903 74.5097 0 48 0C21.4903 0 0 21.4903 0 48C0 74.5097 21.4903 96 48 96Z" fill="white"/>
<path d="M48 90C71.196 90 90 71.196 90 48C90 24.804 71.196 6 48 6C24.804 6 6 24.804 6 48C6 71.196 24.804 90 48 90Z" fill="url(#paint0_linear_779_12846)"/>
<path d="M48 89.9999C71.1803 89.9999 90 71.1803 90 47.9999C90 47.1584 90 46.3169 89.9235 45.4753C89.235 56.1857 84.5683 66.1311 76.765 73.4753C68.9618 80.8196 58.7104 84.8743 48 84.8743C37.2896 84.8743 27.0383 80.8196 19.235 73.4753C11.4317 66.1311 6.76503 56.1857 6.0765 45.4753C6 46.3169 6 47.1584 6 47.9999C6 71.1803 24.8197 89.9999 48 89.9999Z" fill="#050C38" fill-opacity="0.05"/>
<g clip-path="url(#clip1_779_12846)">
<g filter="url(#filter0_d_779_12846)">
<path fill-rule="evenodd" clip-rule="evenodd" d="M53.8586 25.7596C61.8439 27.8627 68.1373 34.1403 70.2404 42.1256C72.9602 42.6949 75 45.1142 75 47.9921C75 50.8858 72.9602 53.2893 70.2404 53.8586C68.1373 61.8439 61.8439 68.1373 53.8586 70.2404C53.2893 72.9602 50.8858 75 47.9921 75C45.1142 75 42.6949 72.9602 42.1256 70.2404C34.1403 68.1373 27.8627 61.8439 25.7596 53.8744C23.0398 53.2893 21 50.8858 21 47.9921C21 45.1142 23.0398 42.6949 25.7596 42.1256C27.8627 34.1403 34.1403 27.8627 42.1256 25.7596C42.6949 23.0398 45.1142 21 47.9921 21C50.8858 21 53.2893 23.0398 53.8586 25.7596ZM53.7163 67.157C60.152 65.2436 65.2436 60.152 67.157 53.7163C64.7376 52.9414 62.9982 50.6644 62.9982 47.9921C62.9982 45.3198 64.7376 43.0586 67.157 42.2837C65.2436 35.8322 60.152 30.7564 53.7163 28.8272C52.9414 31.2466 50.6644 33.0018 47.9921 33.0018C45.3198 33.0018 43.0586 31.2466 42.2837 28.8272C35.8322 30.7564 30.7406 35.8322 28.8272 42.2837C31.2466 43.0586 33.0018 45.3198 33.0018 47.9921C33.0018 50.6644 31.2466 52.9414 28.8272 53.7163C30.7564 60.152 35.8322 65.2436 42.2837 67.157C43.0586 64.7376 45.3198 62.9982 47.9921 62.9982C50.6644 62.9982 52.9414 64.7376 53.7163 67.157ZM47.9921 65.9868C49.6524 65.9868 50.9965 67.3309 50.9965 68.9912C50.9965 70.6515 49.6524 71.9956 47.9921 71.9956C46.3318 71.9956 45.0035 70.6515 45.0035 68.9912C45.0035 67.3309 46.3318 65.9868 47.9921 65.9868ZM26.993 45.0035C28.6533 45.0035 29.9974 46.3476 29.9974 47.9921C29.9974 49.6524 28.6533 50.9965 26.993 50.9965C25.3485 50.9965 24.0044 49.6524 24.0044 47.9921C24.0044 46.3476 25.3485 45.0035 26.993 45.0035ZM68.9912 45.0035C70.6515 45.0035 71.9956 46.3318 71.9956 47.9921C71.9956 49.6524 70.6515 50.9965 68.9912 50.9965C67.3309 50.9965 65.9868 49.6524 65.9868 47.9921C65.9868 46.3318 67.3309 45.0035 68.9912 45.0035ZM47.9921 24.0044C49.6524 24.0044 50.9965 25.3485 50.9965 26.993C50.9965 28.6533 49.6524 29.9974 47.9921 29.9974C46.3318 29.9974 45.0035 28.6533 45.0035 26.993C45.0035 25.3485 46.3318 24.0044 47.9921 24.0044Z" fill="white"/>
<path d="M36.2432 51.1387C36.512 52.1032 36.8916 53.052 37.3817 53.9217L37.7929 54.6491L39.8011 54.4593C40.2913 55.076 40.8447 55.6295 41.4614 56.1196L41.2875 58.1911L41.999 58.5864C42.8687 59.0766 43.8017 59.4561 44.7504 59.7091L45.5569 59.9305L46.8693 58.3492C47.2488 58.3967 47.6441 58.4283 48.0236 58.4283C48.4189 58.4283 48.8142 58.3967 49.1937 58.3492L50.5062 59.9305L51.281 59.7091C52.2298 59.4403 53.1627 59.0608 54.0324 58.5548L54.744 58.1595L54.57 56.1196C55.1709 55.6295 55.7402 55.076 56.2145 54.4593L58.2386 54.6491L58.6497 53.9217C59.1399 53.052 59.5194 52.1032 59.7724 51.1387L59.9937 50.3797L58.5232 49.1463V46.8693L59.9937 45.6359L59.7882 44.8769C59.5352 43.8965 59.1557 42.9478 58.6813 42.0623L58.2702 41.3032L56.2462 41.4772C55.756 40.8921 55.2025 40.3545 54.6017 39.8801L54.7914 37.8403L54.064 37.4292C53.1943 36.939 52.2772 36.5437 51.2968 36.2748L50.5378 36.0535L49.1937 37.6347C48.8142 37.5873 48.4189 37.5715 48.0236 37.5715C47.6441 37.5715 47.2488 37.5873 46.8693 37.6347L45.5569 36.0535L44.7504 36.2748C43.7858 36.5437 42.8529 36.939 41.9832 37.4292L41.2875 37.8403L41.4614 39.8801C40.8447 40.3545 40.2913 40.9079 39.8011 41.5246L37.7929 41.3349L37.3817 42.0939C36.8916 42.9794 36.512 43.9281 36.2432 44.8927L36.0377 45.6517L37.4766 46.8693V47.992V49.1147L35.9902 50.348L36.2432 51.1387ZM39.2476 44.0546L41.0344 44.2128L41.4614 43.5961C42.0148 42.7896 42.7264 42.0781 43.5328 41.5246L44.1495 41.0977L43.9756 39.2792C44.2128 39.1844 44.4342 39.0895 44.6713 39.0104L45.8573 40.4019L46.6321 40.2754C47.1065 40.1806 47.5967 40.1331 48.0869 40.1331C48.5771 40.1331 49.0672 40.1806 49.5416 40.2754L50.3006 40.4019L51.4708 39.0104C51.7079 39.0895 51.9293 39.1844 52.1665 39.2792L51.9768 41.0977L52.6093 41.5246C53.4157 42.0781 54.1115 42.7896 54.6649 43.5961L55.0918 44.2128L56.8945 44.0546C56.9894 44.276 57.0842 44.5132 57.1791 44.7504L55.7876 45.8889L55.9299 46.6637C56.009 47.1065 56.0564 47.565 56.0722 48.0078C56.0564 48.4663 56.009 48.9249 55.9299 49.3835L55.7876 50.1425L57.1791 51.281C57.0842 51.5182 56.9894 51.7554 56.8945 51.9926L55.0128 51.7712L54.5858 52.3879C54.0482 53.2101 53.3366 53.9059 52.5302 54.4593L51.9135 54.8863L52.0874 56.7047C51.8503 56.8154 51.6289 56.9103 51.3917 56.9893L50.2216 55.582L49.4626 55.7243C48.9882 55.8192 48.498 55.8666 48.0078 55.8666C47.5176 55.8666 47.0274 55.8192 46.553 55.7243L45.794 55.582L44.6239 56.9893C44.3867 56.9103 44.1653 56.8154 43.9282 56.7047L44.1021 54.8863L43.4854 54.4593C42.679 53.9059 41.9674 53.2101 41.414 52.3879L41.0028 51.7712L39.2002 51.9451C39.0895 51.7079 39.0104 51.4866 38.9156 51.2494L40.2913 50.095L40.1648 49.336C40.0857 48.8933 40.0383 48.4347 40.0224 47.992C40.0383 47.5334 40.0857 47.0748 40.1648 46.6163L40.2913 45.8573L38.9946 44.7504C39.0421 44.5132 39.1369 44.276 39.2476 44.0546Z" fill="white"/>
<path fill-rule="evenodd" clip-rule="evenodd" d="M47.9919 42.9951C50.7591 42.9951 52.9887 45.2405 52.9887 47.9919C52.9887 50.7591 50.7591 52.9887 47.9919 52.9887C45.2405 52.9887 42.9951 50.7591 42.9951 47.9919C42.9951 45.2405 45.2405 42.9951 47.9919 42.9951ZM47.9919 45.9995C49.0988 45.9995 50.0001 46.885 50.0001 47.9919C50.0001 49.0988 49.0988 50.0001 47.9919 50.0001C46.885 50.0001 45.9995 49.0988 45.9995 47.9919C45.9995 46.885 46.885 45.9995 47.9919 45.9995Z" fill="white"/>
</g>
</g>
</g>
<defs>
<filter id="filter0_d_779_12846" x="21" y="21" width="54" height="55" filterUnits="userSpaceOnUse" color-interpolation-filters="sRGB">
<feFlood flood-opacity="0" result="BackgroundImageFix"/>
<feColorMatrix in="SourceAlpha" type="matrix" values="0 0 0 0 0 0 0 0 0 0 0 0 0 0 0 0 0 0 127 0" result="hardAlpha"/>
<feOffset dy="1"/>
<feColorMatrix type="matrix" values="0 0 0 0 0 0 0 0 0 0 0 0 0 0 0 0 0 0 0.08 0"/>
<feBlend mode="normal" in2="BackgroundImageFix" result="effect1_dropShadow_779_12846"/>
<feBlend mode="normal" in="SourceGraphic" in2="effect1_dropShadow_779_12846" result="shape"/>
</filter>
<linearGradient id="paint0_linear_779_12846" x1="74.9973" y1="80.1738" x2="21.0028" y2="15.8263" gradientUnits="userSpaceOnUse">
<stop stop-color="#B53773"/>
<stop offset="0.4" stop-color="#E74A8A"/>
<stop offset="1" stop-color="#F48EBC"/>
</linearGradient>
<clipPath id="clip0_779_12846">
<rect width="96" height="96" fill="white"/>
</clipPath>
<clipPath id="clip1_779_12846">
<rect width="54" height="54" fill="white" transform="translate(21 21)"/>
</clipPath>
</defs>
</svg>
