<svg width="96" height="96" viewBox="0 0 96 96" fill="none" xmlns="http://www.w3.org/2000/svg">
<g clip-path="url(#clip0_772_12586)">
<path d="M48 96C74.5097 96 96 74.5097 96 48C96 21.4903 74.5097 0 48 0C21.4903 0 0 21.4903 0 48C0 74.5097 21.4903 96 48 96Z" fill="white"/>
<path d="M48 90C71.196 90 90 71.196 90 48C90 24.804 71.196 6 48 6C24.804 6 6 24.804 6 48C6 71.196 24.804 90 48 90Z" fill="url(#paint0_linear_772_12586)"/>
<path d="M48 89.9999C71.1803 89.9999 90 71.1803 90 47.9999C90 47.1584 90 46.3169 89.9235 45.4753C89.235 56.1857 84.5683 66.1311 76.765 73.4753C68.9618 80.8196 58.7104 84.8743 48 84.8743C37.2896 84.8743 27.0383 80.8196 19.235 73.4753C11.4317 66.1311 6.76503 56.1857 6.0765 45.4753C6 46.3169 6 47.1584 6 47.9999C6 71.1803 24.8197 89.9999 48 89.9999Z" fill="#050C38" fill-opacity="0.05"/>
<g clip-path="url(#clip1_772_12586)">
<g filter="url(#filter0_d_772_12586)">
<path fill-rule="evenodd" clip-rule="evenodd" d="M30.2271 56.567C32.0427 56.567 31.4144 55.3104 33.5854 55.3104C34.0057 55.3104 34.3437 55.9387 34.5994 56.255C34.9461 56.6927 35.0891 56.9354 35.5657 57.243C36.5624 57.893 40.9997 58.7813 40.9997 56.71C40.9997 54.0884 37.845 55.969 36.8397 54.7167C35.8604 53.5077 35.1801 52.5154 33.1651 52.5154C32.4327 52.5154 31.8087 52.732 31.2757 53.005C27.5664 54.9117 29.2911 56.567 30.2271 56.567Z" fill="white"/>
<path fill-rule="evenodd" clip-rule="evenodd" d="M67.502 28.002H28.498C26.0237 28.002 24 30.0256 24 32.4999V59.5007C24 61.9751 26.0237 63.9987 28.498 63.9987H40.9995V68.9993H38.0009V71.998H57.9991V68.9993H55.0005V63.9987H67.502C69.9763 63.9987 72 61.9751 72 59.5007V32.4999C72 30.0256 69.9763 28.002 67.502 28.002ZM52.0018 68.9993H43.9982V63.9987H52.0018V68.9993ZM67.502 31.0006H28.498C27.679 31.0006 26.9986 31.6809 26.9986 32.4999V59.5007C26.9986 60.3197 27.679 61.0001 28.498 61.0001H67.502C68.321 61.0001 69.0014 60.3197 69.0014 59.5007V32.4999C69.0014 31.6809 68.321 31.0006 67.502 31.0006Z" fill="white"/>
<path d="M62.9954 33.722L66.2801 37.0023C67.2377 37.9643 67.2377 39.5199 66.2801 40.4776L51.3215 55.4362L43.7382 56.9875C43.4046 57.0568 43.0796 56.8402 43.0102 56.5108C42.9972 56.4285 42.9972 56.3462 43.0102 56.2638L44.5616 48.6762L59.5201 33.722C60.4821 32.76 62.0378 32.76 62.9954 33.722ZM59.8451 37.6393L62.3628 40.1569L63.7754 38.7399L61.2578 36.2266L59.8451 37.6393ZM60.2395 42.2759L57.7218 39.7583L47.3219 50.1625L46.6762 53.3258L49.8395 52.6802L60.2395 42.2759Z" fill="white"/>
</g>
</g>
</g>
<defs>
<filter id="filter0_d_772_12586" x="24" y="28.002" width="48" height="44.9961" filterUnits="userSpaceOnUse" color-interpolation-filters="sRGB">
<feFlood flood-opacity="0" result="BackgroundImageFix"/>
<feColorMatrix in="SourceAlpha" type="matrix" values="0 0 0 0 0 0 0 0 0 0 0 0 0 0 0 0 0 0 127 0" result="hardAlpha"/>
<feOffset dy="1"/>
<feColorMatrix type="matrix" values="0 0 0 0 0 0 0 0 0 0 0 0 0 0 0 0 0 0 0.08 0"/>
<feBlend mode="normal" in2="BackgroundImageFix" result="effect1_dropShadow_772_12586"/>
<feBlend mode="normal" in="SourceGraphic" in2="effect1_dropShadow_772_12586" result="shape"/>
</filter>
<linearGradient id="paint0_linear_772_12586" x1="74.9973" y1="80.1738" x2="21.0028" y2="15.8263" gradientUnits="userSpaceOnUse">
<stop stop-color="#5947B1"/>
<stop offset="1" stop-color="#FB3774"/>
</linearGradient>
<clipPath id="clip0_772_12586">
<rect width="96" height="96" fill="white"/>
</clipPath>
<clipPath id="clip1_772_12586">
<rect width="48" height="48" fill="white" transform="translate(24 26)"/>
</clipPath>
</defs>
</svg>
