<svg width="96" height="96" viewBox="0 0 96 96" fill="none" xmlns="http://www.w3.org/2000/svg">
<g clip-path="url(#clip0_772_12453)">
<path d="M48 96C74.5097 96 96 74.5097 96 48C96 21.4903 74.5097 0 48 0C21.4903 0 0 21.4903 0 48C0 74.5097 21.4903 96 48 96Z" fill="white"/>
<path d="M48 90C71.196 90 90 71.196 90 48C90 24.804 71.196 6 48 6C24.804 6 6 24.804 6 48C6 71.196 24.804 90 48 90Z" fill="url(#paint0_linear_772_12453)"/>
<path d="M48 89.9999C71.1803 89.9999 90 71.1803 90 47.9999C90 47.1584 90 46.3169 89.9235 45.4753C89.235 56.1857 84.5683 66.1311 76.765 73.4753C68.9618 80.8196 58.7104 84.8743 48 84.8743C37.2896 84.8743 27.0383 80.8196 19.235 73.4753C11.4317 66.1311 6.76503 56.1857 6.0765 45.4753C6 46.3169 6 47.1584 6 47.9999C6 71.1803 24.8197 89.9999 48 89.9999Z" fill="#050C38" fill-opacity="0.05"/>
<g filter="url(#filter0_d_772_12453)">
<path fill-rule="evenodd" clip-rule="evenodd" d="M24 58.8931V59.1078C24.056 61.798 26.2376 63.9656 28.9349 64.0006H29.0632C31.7954 63.9656 33.9981 61.742 33.9981 59.0004C33.9981 56.2402 31.7605 54.0002 28.9979 54.0002C26.2726 54.0002 24.0583 56.1819 24 58.8931ZM28.9979 57.0008C30.1038 57.0008 30.9975 57.8968 30.9975 59.0004C30.9975 60.1064 30.1038 61.0024 28.9979 61.0024C27.8942 61.0024 26.9982 60.1064 26.9982 59.0004C26.9982 57.8968 27.8942 57.0008 28.9979 57.0008Z" fill="white"/>
<path fill-rule="evenodd" clip-rule="evenodd" d="M24 47.9199V52.9295C24.1703 52.7895 24.3477 52.6588 24.532 52.5328L25.1503 52.1058L24.9823 50.2905C25.211 50.1832 25.4326 50.0922 25.6683 50.0082L26.8653 51.4128L27.6282 51.2752C28.1089 51.1842 28.5989 51.1375 29.0865 51.1375C29.5765 51.1375 30.0665 51.1842 30.5448 51.2752L31.3078 51.4105L32.4768 50.0082C32.7054 50.0922 32.9341 50.1832 33.1627 50.2905L32.9877 52.1058L33.6131 52.5328C34.4204 53.0881 35.1204 53.7928 35.6733 54.6024L36.1003 55.2207L37.8946 55.0527C37.9926 55.2814 38.0929 55.517 38.1769 55.755L36.7956 56.8983L36.9333 57.6613C37.015 58.1093 37.0616 58.5666 37.0686 59.0216C37.0616 59.4766 37.015 59.9363 36.9333 60.3866L36.7956 61.1496L38.1769 62.2929C38.0929 62.5308 37.9926 62.7665 37.8946 62.9952L36.0233 62.7828L35.5963 63.4012C35.4563 63.6088 35.3047 63.8071 35.1437 64.0008H40.1159C40.3865 63.3988 40.6082 62.7758 40.7762 62.1412L40.9909 61.3782L39.5256 60.1579V57.8666L40.9979 56.6463L40.7855 55.8834C40.5359 54.9057 40.1649 53.9584 39.6866 53.0671L39.2736 52.3041L37.253 52.4885C36.7653 51.8958 36.21 51.3522 35.6033 50.8785L35.7877 48.8392L35.0714 48.4356C34.201 47.9386 33.2724 47.5489 32.3064 47.2829L31.5435 47.0613L30.2018 48.6409C29.8145 48.5966 29.4225 48.5732 29.0329 48.5732C28.6432 48.5732 28.2512 48.5966 27.8662 48.6409L26.5526 47.0613L25.7523 47.2829C25.1526 47.4486 24.567 47.6633 24 47.9199Z" fill="white"/>
<path d="M41.252 49.1402C41.511 50.1132 41.8913 51.0558 42.3813 51.9355L42.792 52.6588L44.8079 52.4698C45.2955 53.0788 45.8555 53.6364 46.4645 54.1241L46.2872 56.1914L47.0058 56.5973C47.8715 57.078 48.7978 57.4583 49.7521 57.7196L50.5547 57.9413L51.866 56.3617C52.2534 56.406 52.6453 56.4293 53.035 56.4293C53.4247 56.4293 53.8166 56.406 54.2016 56.3617L55.5153 57.9413L56.2782 57.7196C57.2395 57.4513 58.1682 57.064 59.0338 56.567L59.7501 56.1634L59.5682 54.1241C60.1771 53.6388 60.7371 53.0788 61.2224 52.4675L63.2384 52.6588L63.649 51.9331C64.139 51.0558 64.517 50.1132 64.7783 49.1402L64.9907 48.3772L63.5254 47.1569V44.868L65 43.6454L64.7853 42.8824C64.538 41.9048 64.167 40.9574 63.6864 40.0685L63.2757 39.3055L61.2528 39.4875C60.7651 38.8948 60.2098 38.3512 59.6055 37.8775L59.7875 35.8406L59.0712 35.4346C58.2032 34.9376 57.2722 34.548 56.3086 34.282L55.5456 34.0603L54.2016 35.6423C53.8166 35.5956 53.4247 35.5723 53.035 35.5723C52.6453 35.5723 52.2534 35.5956 51.866 35.6423L50.5547 34.0626L49.7521 34.282C48.7884 34.5503 47.8575 34.9399 46.9895 35.4369L46.2872 35.8406L46.4645 37.8775C45.8532 38.3629 45.2955 38.9182 44.8079 39.5248L42.792 39.3428L42.3813 40.1058C41.8913 40.9854 41.511 41.9281 41.252 42.8987L41.0373 43.6617L42.4723 44.875V45.9903V47.1266L41 48.3469L41.252 49.1402ZM44.2502 42.0517L46.0445 42.2197L46.4645 41.5944C47.0175 40.7871 47.7221 40.0848 48.5318 39.5342L49.1501 39.1048L48.9821 37.2895C49.2108 37.1822 49.4324 37.0912 49.6681 37.0072L50.8674 38.4118L51.6304 38.2742C52.1087 38.1832 52.5987 38.1365 53.0887 38.1365C53.5763 38.1365 54.0663 38.1832 54.5446 38.2742L55.3099 38.4118L56.4766 37.0072C56.7052 37.0912 56.9339 37.1822 57.1626 37.2895L56.9876 39.1048L57.6129 39.5342C58.4202 40.0871 59.1225 40.7918 59.6731 41.6014L60.1025 42.2197L61.8944 42.0517C61.9947 42.2804 62.0927 42.5184 62.1767 42.7541L60.7955 43.8997L60.9331 44.6627C61.0148 45.1083 61.0638 45.5656 61.0708 46.0206C61.0614 46.4756 61.0148 46.9353 60.9331 47.3856L60.7955 48.1486L62.1767 49.2942C62.0927 49.5299 61.9947 49.7655 61.8944 49.9965L60.0255 49.7819L59.5961 50.4002C59.0455 51.2098 58.3432 51.9145 57.5359 52.4698L56.9176 52.8968L57.0856 54.7121C56.8569 54.8194 56.6352 54.9104 56.3996 54.9944L55.2329 53.5898L54.47 53.7274C53.9893 53.8184 53.4993 53.8651 53.0117 53.8651C52.524 53.8651 52.0317 53.8184 51.5534 53.7274L50.7904 53.5898L49.6238 54.9944C49.3858 54.9104 49.1641 54.8194 48.9354 54.7121L49.1034 52.8968L48.4851 52.4675C47.6778 51.9121 46.9755 51.2075 46.4178 50.4002L45.9979 49.7819L44.2059 49.9499C44.0986 49.7212 44.0076 49.4855 43.9236 49.2475L45.2955 48.1042L45.1672 47.3389C45.0832 46.8933 45.0366 46.4406 45.0296 45.9903C45.0366 45.533 45.0832 45.0733 45.1649 44.623L45.2955 43.86L43.9983 42.7541C44.0519 42.5161 44.1429 42.2804 44.2502 42.0517Z" fill="white"/>
<path fill-rule="evenodd" clip-rule="evenodd" d="M53.0002 41.0017C55.7604 41.0017 58.0004 43.2393 58.0004 46.0019C58.0004 48.7622 55.7604 50.9998 53.0002 50.9998C50.2376 50.9998 48 48.7622 48 46.0019C48 43.2393 50.2376 41.0017 53.0002 41.0017ZM53.0002 44C54.1038 44 54.9998 44.8959 54.9998 46.0019C54.9998 47.1055 54.1038 48.0015 53.0002 48.0015C51.8942 48.0015 50.9982 47.1055 50.9982 46.0019C50.9982 44.8959 51.8942 44 53.0002 44Z" fill="white"/>
<path fill-rule="evenodd" clip-rule="evenodd" d="M67.4991 28.0007H28.4985C26.0253 28.0007 24 30.026 24 32.5016V59.4999C24 61.9755 26.0253 64.0007 28.4985 64.0007H41.0002V69.0009H37.9996V71.9992H58.0004V69.0009H54.9998V64.0007H67.4991C69.9747 64.0007 71.9977 61.9755 71.9977 59.4999V32.5016C71.9977 30.026 69.9747 28.0007 67.4991 28.0007ZM51.9992 69.0009H44.0008V64.0007H51.9992V69.0009ZM67.4991 31.0013H28.4985C27.6796 31.0013 27.0006 31.6826 27.0006 32.5016V59.4999C27.0006 60.3188 27.6796 61.0001 28.4985 61.0001H67.4991C68.3181 61.0001 68.9994 60.3188 68.9994 59.4999V32.5016C68.9994 31.6826 68.3181 31.0013 67.4991 31.0013Z" fill="white"/>
</g>
</g>
<defs>
<filter id="filter0_d_772_12453" x="24" y="28.0007" width="47.9976" height="44.9985" filterUnits="userSpaceOnUse" color-interpolation-filters="sRGB">
<feFlood flood-opacity="0" result="BackgroundImageFix"/>
<feColorMatrix in="SourceAlpha" type="matrix" values="0 0 0 0 0 0 0 0 0 0 0 0 0 0 0 0 0 0 127 0" result="hardAlpha"/>
<feOffset dy="1"/>
<feColorMatrix type="matrix" values="0 0 0 0 0 0 0 0 0 0 0 0 0 0 0 0 0 0 0.08 0"/>
<feBlend mode="normal" in2="BackgroundImageFix" result="effect1_dropShadow_772_12453"/>
<feBlend mode="normal" in="SourceGraphic" in2="effect1_dropShadow_772_12453" result="shape"/>
</filter>
<linearGradient id="paint0_linear_772_12453" x1="74.9973" y1="80.1738" x2="21.0028" y2="15.8263" gradientUnits="userSpaceOnUse">
<stop stop-color="#CE191E"/>
<stop offset="0.4" stop-color="#FF4244"/>
<stop offset="1" stop-color="#FF8E3C"/>
</linearGradient>
<clipPath id="clip0_772_12453">
<rect width="96" height="96" fill="white"/>
</clipPath>
</defs>
</svg>
