<svg width="96" height="96" viewBox="0 0 96 96" fill="none" xmlns="http://www.w3.org/2000/svg">
<g clip-path="url(#clip0_772_12406)">
<path d="M48 96C74.5097 96 96 74.5097 96 48C96 21.4903 74.5097 0 48 0C21.4903 0 0 21.4903 0 48C0 74.5097 21.4903 96 48 96Z" fill="white"/>
<path d="M48 90C71.196 90 90 71.196 90 48C90 24.804 71.196 6 48 6C24.804 6 6 24.804 6 48C6 71.196 24.804 90 48 90Z" fill="url(#paint0_linear_772_12406)"/>
<path d="M48 89.9999C71.1803 89.9999 90 71.1803 90 47.9999C90 47.1584 90 46.3169 89.9235 45.4753C89.235 56.1857 84.5683 66.1311 76.765 73.4753C68.9618 80.8196 58.7104 84.8743 48 84.8743C37.2896 84.8743 27.0383 80.8196 19.235 73.4753C11.4317 66.1311 6.76503 56.1857 6.0765 45.4753C6 46.3169 6 47.1584 6 47.9999C6 71.1803 24.8197 89.9999 48 89.9999Z" fill="#050C38" fill-opacity="0.05"/>
<g filter="url(#filter0_d_772_12406)">
<path d="M70.1982 50.4495C70.1982 50.6028 70.3515 50.6028 70.3515 50.7485C71.5475 53.0024 70.7962 55.8467 68.8489 57.3493L68.5499 57.5027L51.0012 69.3474C49.4986 70.3977 47.5513 70.85 45.5964 70.551H45.1517L27.9021 66.6488C26.5528 66.5031 25.6481 65.2995 25.5024 64.1035V63.7969V56C25.5024 54.3517 26.6984 53.1481 28.3467 53.0024H28.5H52.8029C53.8455 53.0024 54.5968 53.4471 55.0492 54.1984L63.8963 48.9468C65.9969 47.5975 68.8489 48.3488 70.1982 50.4495ZM35.9979 36.4964C36.9025 36.4964 37.5005 37.1021 37.5005 37.9991C37.5005 38.9037 36.9025 39.5017 35.9979 39.5017C35.1009 39.5017 34.5029 38.9037 34.5029 37.9991C34.5029 37.1021 35.1009 36.4964 35.9979 36.4964ZM40.4981 26.001C45.2974 26.001 49.4986 28.8529 51.4459 33.0465L51.5992 33.4988H63.996L68.4962 37.9991L63.996 42.4993H57.6021L53.9988 46.1026L51.3002 43.3963L51.1469 43.7029C49.1996 47.2985 45.5964 49.6982 41.3951 49.9971H40.9505H40.4981C33.8973 49.9971 28.5 44.5999 28.5 37.9991C28.5 31.3982 33.8973 26.001 40.4981 26.001ZM40.4981 28.9986C35.5532 28.9986 31.4976 33.0465 31.4976 37.9991C31.4976 42.9516 35.5532 46.9995 40.4981 46.9995C44.4004 46.9995 47.8503 44.4466 49.0463 40.851L49.1996 40.552L49.4986 39.5017H51.5992L53.9988 41.9013L56.3985 39.5017H62.754L64.2566 37.9991L62.754 36.4964H49.4986L49.1996 35.4538C47.996 31.6972 44.546 28.9986 40.4981 28.9986ZM67.5532 51.9061C67.0702 51.3311 66.1809 51.0475 65.5216 51.4768L65.4756 51.4998L55.4785 57.4183L55.4478 57.449L55.3482 57.9473C54.5968 60.2013 52.6495 61.8496 49.7976 62.0029H49.4986H42.0008V58.9976H49.4986C50.0966 58.9976 50.5489 58.852 51.0012 58.6986V56H28.5V63.7969L45.903 67.5458C46.9457 67.8524 48.1493 67.5458 49.0463 67.1011L49.3453 66.9478L50.0123 66.3958L67.0319 54.9037L67.1929 54.827C67.8752 54.1677 68.1589 53.0331 67.7066 52.1744C67.6529 52.0901 67.5992 51.9981 67.5532 51.9061Z" fill="white"/>
</g>
</g>
<defs>
<filter id="filter0_d_772_12406" x="25.5024" y="26.001" width="45.4238" height="45.6406" filterUnits="userSpaceOnUse" color-interpolation-filters="sRGB">
<feFlood flood-opacity="0" result="BackgroundImageFix"/>
<feColorMatrix in="SourceAlpha" type="matrix" values="0 0 0 0 0 0 0 0 0 0 0 0 0 0 0 0 0 0 127 0" result="hardAlpha"/>
<feOffset dy="1"/>
<feColorMatrix type="matrix" values="0 0 0 0 0 0 0 0 0 0 0 0 0 0 0 0 0 0 0.08 0"/>
<feBlend mode="normal" in2="BackgroundImageFix" result="effect1_dropShadow_772_12406"/>
<feBlend mode="normal" in="SourceGraphic" in2="effect1_dropShadow_772_12406" result="shape"/>
</filter>
<linearGradient id="paint0_linear_772_12406" x1="74.9973" y1="80.1738" x2="21.0028" y2="15.8263" gradientUnits="userSpaceOnUse">
<stop stop-color="#278DFF"/>
<stop offset="0.4" stop-color="#278DFF"/>
<stop offset="1" stop-color="#5FB7F9"/>
</linearGradient>
<clipPath id="clip0_772_12406">
<rect width="96" height="96" fill="white"/>
</clipPath>
</defs>
</svg>
