<svg width="96" height="96" viewBox="0 0 96 96" fill="none" xmlns="http://www.w3.org/2000/svg">
<g clip-path="url(#clip0_772_12400)">
<path d="M48 96C74.5097 96 96 74.5097 96 48C96 21.4903 74.5097 0 48 0C21.4903 0 0 21.4903 0 48C0 74.5097 21.4903 96 48 96Z" fill="white"/>
<path d="M48 90C71.196 90 90 71.196 90 48C90 24.804 71.196 6 48 6C24.804 6 6 24.804 6 48C6 71.196 24.804 90 48 90Z" fill="url(#paint0_linear_772_12400)"/>
<path d="M48 89.9999C71.1803 89.9999 90 71.1803 90 47.9999C90 47.1584 90 46.3169 89.9235 45.4753C89.235 56.1857 84.5683 66.1311 76.765 73.4753C68.9618 80.8196 58.7104 84.8743 48 84.8743C37.2896 84.8743 27.0383 80.8196 19.235 73.4753C11.4317 66.1311 6.76503 56.1857 6.0765 45.4753C6 46.3169 6 47.1584 6 47.9999C6 71.1803 24.8197 89.9999 48 89.9999Z" fill="#050C38" fill-opacity="0.05"/>
<g filter="url(#filter0_d_772_12400)">
<path fill-rule="evenodd" clip-rule="evenodd" d="M47.9991 29C50.756 29 53.3749 29.588 55.7388 30.6429C55.3158 31.5549 55.0598 32.5579 55.0098 33.6148C52.8929 32.5809 50.514 31.9999 47.9991 31.9999C45.4852 31.9999 43.1063 32.5809 40.9904 33.6138C40.9404 32.5569 40.6834 31.5539 40.2604 30.6429C42.6243 29.587 45.2432 29 47.9991 29ZM66.5753 51.997C65.5633 56.7218 62.7945 60.7947 58.9866 63.4996C58.5516 62.5866 57.9897 61.7466 57.3227 61.0017C60.3236 58.8468 62.5475 55.6779 63.4944 51.997H66.5753ZM37.0135 63.5006C33.2047 60.7957 30.4348 56.7228 29.4229 51.997H32.5037C33.4507 55.6789 35.6756 58.8468 38.6765 61.0027C38.0095 61.7476 37.4475 62.5876 37.0135 63.5006Z" fill="white"/>
<path d="M45.8775 60.5248C44.1785 59.7248 43.0005 57.9968 43.0005 55.9988C43.0005 53.2418 45.2435 50.9988 48.0005 50.9988C50.7575 50.9988 53.0005 53.2418 53.0005 55.9988C53.0005 57.9968 51.8225 59.7248 50.1235 60.5248C53.9685 60.8428 57.0005 64.0738 57.0005 67.9988V70.9988H39.0005V67.9988C39.0005 64.0728 42.0325 60.8428 45.8775 60.5248ZM42.0005 67.9988H54.0005C54.0005 65.5178 51.9815 63.4988 49.5005 63.4988H46.5005C44.0195 63.4988 42.0005 65.5178 42.0005 67.9988ZM48.0005 57.9988C49.1015 57.9988 50.0005 57.0998 50.0005 55.9988C50.0005 54.8978 49.1015 53.9988 48.0005 53.9988C46.8995 53.9988 46.0005 54.8978 46.0005 55.9988C46.0005 57.0998 46.8995 57.9988 48.0005 57.9988Z" fill="white"/>
<path d="M30.877 38.525C29.179 37.725 28 35.997 28 33.999C28 31.242 30.243 28.999 33 28.999C35.757 28.999 38 31.242 38 33.999C38 35.997 36.822 37.725 35.123 38.525C38.969 38.843 42 42.073 42 45.999V48.999H24V45.999C24 42.073 27.032 38.843 30.877 38.525ZM27 45.998H39C39 43.517 36.981 41.499 34.5 41.499H31.5C29.019 41.499 27 43.517 27 45.998ZM33 35.999C34.101 35.999 35 35.1 35 33.999C35 32.898 34.101 31.999 33 31.999C31.899 31.999 31 32.898 31 33.999C31 35.1 31.899 35.999 33 35.999Z" fill="white"/>
<path d="M60.878 38.5248C59.179 37.7248 58.001 35.9968 58.001 33.9988C58.001 31.2418 60.244 28.9988 63.001 28.9988C65.758 28.9988 68.001 31.2418 68.001 33.9988C68.001 35.9968 66.823 37.7248 65.124 38.5248C68.969 38.8428 72.001 42.0728 72.001 45.9988V48.9988H54.001V45.9988C54.001 42.0728 57.033 38.8428 60.878 38.5248ZM57.001 45.9978H69.001C69.001 43.5168 66.982 41.4988 64.501 41.4988H61.501C59.02 41.4988 57.001 43.5168 57.001 45.9978ZM63.001 35.9988C64.102 35.9988 65.001 35.0998 65.001 33.9988C65.001 32.8978 64.102 31.9988 63.001 31.9988C61.9 31.9988 61.001 32.8978 61.001 33.9988C61.001 35.0998 61.9 35.9988 63.001 35.9988Z" fill="white"/>
</g>
</g>
<defs>
<filter id="filter0_d_772_12400" x="24" y="28.9988" width="48.001" height="43" filterUnits="userSpaceOnUse" color-interpolation-filters="sRGB">
<feFlood flood-opacity="0" result="BackgroundImageFix"/>
<feColorMatrix in="SourceAlpha" type="matrix" values="0 0 0 0 0 0 0 0 0 0 0 0 0 0 0 0 0 0 127 0" result="hardAlpha"/>
<feOffset dy="1"/>
<feColorMatrix type="matrix" values="0 0 0 0 0 0 0 0 0 0 0 0 0 0 0 0 0 0 0.08 0"/>
<feBlend mode="normal" in2="BackgroundImageFix" result="effect1_dropShadow_772_12400"/>
<feBlend mode="normal" in="SourceGraphic" in2="effect1_dropShadow_772_12400" result="shape"/>
</filter>
<linearGradient id="paint0_linear_772_12400" x1="74.9973" y1="80.1738" x2="21.0028" y2="15.8263" gradientUnits="userSpaceOnUse">
<stop stop-color="#025CD5"/>
<stop offset="0.4" stop-color="#0060DF"/>
<stop offset="1" stop-color="#33A0FF"/>
</linearGradient>
<clipPath id="clip0_772_12400">
<rect width="96" height="96" fill="white"/>
</clipPath>
</defs>
</svg>
