<svg width="96" height="96" viewBox="0 0 96 96" fill="none" xmlns="http://www.w3.org/2000/svg">
<g clip-path="url(#clip0_772_12447)">
<path d="M48 96C74.5097 96 96 74.5097 96 48C96 21.4903 74.5097 0 48 0C21.4903 0 0 21.4903 0 48C0 74.5097 21.4903 96 48 96Z" fill="white"/>
<path d="M48 90C71.196 90 90 71.196 90 48C90 24.804 71.196 6 48 6C24.804 6 6 24.804 6 48C6 71.196 24.804 90 48 90Z" fill="url(#paint0_linear_772_12447)"/>
<path d="M48 89.9999C71.1803 89.9999 90 71.1803 90 47.9999C90 47.1584 90 46.3169 89.9235 45.4753C89.235 56.1857 84.5683 66.1311 76.765 73.4753C68.9618 80.8196 58.7104 84.8743 48 84.8743C37.2896 84.8743 27.0383 80.8196 19.235 73.4753C11.4317 66.1311 6.76503 56.1857 6.0765 45.4753C6 46.3169 6 47.1584 6 47.9999C6 71.1803 24.8197 89.9999 48 89.9999Z" fill="#050C38" fill-opacity="0.05"/>
<g clip-path="url(#clip1_772_12447)">
<g filter="url(#filter0_d_772_12447)">
<path fill-rule="evenodd" clip-rule="evenodd" d="M40.0038 69.9973H42.4786L39.0029 59.1082L47.4942 51.0018L55.9965 59.1082L52.5537 69.9973H54.9955V73C50.002 73 44.9974 73 40.0038 73V69.9973ZM64.2678 33.9973C63.0139 38.2209 60.2091 41.7736 56.5134 43.9954H60.2531C60.869 42.2466 62.5409 40.9927 64.4987 40.9927C66.9845 40.9927 68.9974 43.0165 68.9974 45.4913C68.9974 47.9771 66.9845 50.0009 64.4987 50.0009C62.5409 50.0009 60.869 48.747 60.2531 46.9982H52.0038V50.0009H42.9955V46.9982H34.7462C34.1193 48.747 32.4584 50.0009 30.5006 50.0009C28.0148 50.0009 26.002 47.9771 26.002 45.4913C26.002 43.0165 28.0148 40.9927 30.5006 40.9927C32.4584 40.9927 34.1193 42.2466 34.7462 43.9954H38.4859C34.7902 41.7736 31.9855 38.2209 30.7316 33.9973H26.002V25H34.9992V33.9973H33.8883C35.4172 38.1549 38.7829 41.4106 42.9955 42.7855V41.0037H52.0038V42.7855C56.2164 41.4106 59.5932 38.1549 61.111 33.9973H60.0001V25H68.9974V33.9973H64.2678ZM29.0047 28.0027H31.9965V30.9945H29.0047V28.0027ZM45.9983 43.9954H49.001V46.9982H45.9983V43.9954ZM30.5006 43.9954C31.3255 43.9954 31.9965 44.6664 31.9965 45.4913C31.9965 46.3272 31.3255 46.9982 30.5006 46.9982C29.6646 46.9982 28.9937 46.3272 28.9937 45.4913C28.9937 44.6664 29.6646 43.9954 30.5006 43.9954ZM64.4987 43.9954C65.3237 43.9954 65.9946 44.6664 65.9946 45.4913C65.9946 46.3272 65.3237 46.9982 64.4987 46.9982C63.6738 46.9982 63.0029 46.3272 63.0029 45.4913C63.0029 44.6664 63.6738 43.9954 64.4987 43.9954ZM63.0029 28.0027H65.9946V30.9945H63.0029V28.0027ZM45.6353 69.9973H45.9983V65.9936H49.001V69.9973H49.408L52.5757 59.9881L47.4942 55.1485L42.4236 59.9771L45.6353 69.9973ZM49.496 61C49.496 59.8891 48.6051 58.9982 47.4942 58.9982C46.3943 58.9982 45.5033 59.8891 45.5033 61C45.5033 62.0999 46.3943 63.0018 47.4942 63.0018C48.6051 63.0018 49.496 62.0999 49.496 61Z" fill="white"/>
</g>
</g>
</g>
<defs>
<filter id="filter0_d_772_12447" x="26.002" y="25" width="42.9956" height="49" filterUnits="userSpaceOnUse" color-interpolation-filters="sRGB">
<feFlood flood-opacity="0" result="BackgroundImageFix"/>
<feColorMatrix in="SourceAlpha" type="matrix" values="0 0 0 0 0 0 0 0 0 0 0 0 0 0 0 0 0 0 127 0" result="hardAlpha"/>
<feOffset dy="1"/>
<feColorMatrix type="matrix" values="0 0 0 0 0 0 0 0 0 0 0 0 0 0 0 0 0 0 0.08 0"/>
<feBlend mode="normal" in2="BackgroundImageFix" result="effect1_dropShadow_772_12447"/>
<feBlend mode="normal" in="SourceGraphic" in2="effect1_dropShadow_772_12447" result="shape"/>
</filter>
<linearGradient id="paint0_linear_772_12447" x1="74.9973" y1="80.1738" x2="21.0028" y2="15.8263" gradientUnits="userSpaceOnUse">
<stop stop-color="#F18525"/>
<stop offset="0.333333" stop-color="#F5A21F"/>
<stop offset="1" stop-color="#FBCA17"/>
</linearGradient>
<clipPath id="clip0_772_12447">
<rect width="96" height="96" fill="white"/>
</clipPath>
<clipPath id="clip1_772_12447">
<rect width="48" height="48" fill="white" transform="translate(24 25)"/>
</clipPath>
</defs>
</svg>
