<svg id="e0pcberx5ucx1" xmlns="http://www.w3.org/2000/svg" xmlns:xlink="http://www.w3.org/1999/xlink" viewBox="0 0 400 360" shape-rendering="geometricPrecision" text-rendering="geometricPrecision"><style><![CDATA[#e0pcberx5ucx3_to {animation: e0pcberx5ucx3_to__to 3000ms linear infinite normal forwards}@keyframes e0pcberx5ucx3_to__to { 0% {transform: translate(0px,0px)} 50% {transform: translate(0px,5px)} 100% {transform: translate(0px,0px)} }#e0pcberx5ucx18_to {animation: e0pcberx5ucx18_to__to 3000ms linear infinite normal forwards}@keyframes e0pcberx5ucx18_to__to { 0% {transform: translate(0px,10px);animation-timing-function: cubic-bezier(0.420000,0,1,1)} 6.666667% {transform: translate(0px,0px)} 100% {transform: translate(0px,0px)} }#e0pcberx5ucx18 {animation: e0pcberx5ucx18_c_o 3000ms linear infinite normal forwards}@keyframes e0pcberx5ucx18_c_o { 0% {opacity: 0} 3.333333% {opacity: 1} 100% {opacity: 1} }#e0pcberx5ucx24_to {animation: e0pcberx5ucx24_to__to 3000ms linear infinite normal forwards}@keyframes e0pcberx5ucx24_to__to { 0% {transform: translate(0px,10px)} 33.333333% {transform: translate(0px,10px)} 40% {transform: translate(0px,0px)} 100% {transform: translate(0px,0px)} }#e0pcberx5ucx24 {animation: e0pcberx5ucx24_c_o 3000ms linear infinite normal forwards}@keyframes e0pcberx5ucx24_c_o { 0% {opacity: 0} 33.333333% {opacity: 0} 36.666667% {opacity: 1} 100% {opacity: 1} }#e0pcberx5ucx30_to {animation: e0pcberx5ucx30_to__to 3000ms linear infinite normal forwards}@keyframes e0pcberx5ucx30_to__to { 0% {transform: translate(0px,10px)} 66.666667% {transform: translate(0px,10px)} 73.333333% {transform: translate(0px,0px)} 100% {transform: translate(0px,0px)} }#e0pcberx5ucx30 {animation: e0pcberx5ucx30_c_o 3000ms linear infinite normal forwards}@keyframes e0pcberx5ucx30_c_o { 0% {opacity: 0} 66.666667% {opacity: 0} 70% {opacity: 1} 100% {opacity: 1} }]]></style><path id="e0pcberx5ucx2" d="M211.400000,350.300000L368,259.900000C373.700000,256.600000,373,250.800000,366.400000,247L213,158.500000C206.400000,154.700000,196.300000,154.300000,190.600000,157.600000L34,247.900000C28.300000,251.200000,29,257,35.600000,260.800000L189,349.400000C195.600000,353.200000,205.700000,353.600000,211.400000,350.300000Z" opacity="0.1" clip-rule="evenodd" fill="rgb(153,153,153)" fill-rule="evenodd" stroke="none" stroke-width="1"/><g id="e0pcberx5ucx3_to" transform="translate(0,0)"><g id="e0pcberx5ucx3" transform="translate(0,0)"><g id="e0pcberx5ucx4"><path id="e0pcberx5ucx5" d="M370.900000,216.600000L207.400000,311C207.400000,311,207.300000,311.100000,207.300000,311.100000C205.400000,312.200000,203.200000,312.700000,201,312.700000C198.800000,312.700000,196.600000,312.100000,194.700000,311.100000C194.700000,311.100000,194.600000,311,194.600000,311L31.100000,216.600000C30.500000,216.300000,30,215.600000,30,214.800000L30,214.800000L30,205.600000L201,205.600000L372,205.600000L372,214.800000L372,214.800000C372,215.600000,371.600000,216.300000,370.900000,216.600000Z" clip-rule="evenodd" fill="rgb(161,161,161)" fill-rule="evenodd" stroke="none" stroke-width="1"/><path id="e0pcberx5ucx6" d="M372,205.600000L203,303.200000L203,303.200000L203,303.200000L203,303.200000C202.400000,303.500000,201.800000,303.700000,201.100000,303.700000C200.400000,303.700000,199.700000,303.500000,199.200000,303.200000L199.200000,303.200000L199.200000,303.200000L199.200000,303.200000L30,205.600000L199,108L199,108L199,108L199,108C199.600000,107.700000,200.200000,107.500000,200.900000,107.500000C201.600000,107.500000,202.300000,107.700000,202.800000,108L202.800000,108L202.800000,108L202.800000,108L372,205.600000Z" clip-rule="evenodd" fill="rgb(229,229,229)" fill-rule="evenodd" stroke="none" stroke-width="1"/><polygon id="e0pcberx5ucx7" points="305,254.600000 291,262.700000 291,252.400000 305,244.300000" clip-rule="evenodd" fill="rgb(117,117,117)" fill-rule="evenodd" stroke="none" stroke-width="1"/><polygon id="e0pcberx5ucx8" points="138,278.300000 124,270.200000 124,259.900000 138,268" clip-rule="evenodd" fill="rgb(117,117,117)" fill-rule="evenodd" stroke="none" stroke-width="1"/><polygon id="e0pcberx5ucx9" points="309,169.300000 242,207.900000 305,244.300000 309,242 309,242 291,252.400000 228,216 138,268 124,259.900000 155,242 133,229.300000 147,221.200000 169,233.900000 214,207.900000 120,153.700000 134,145.600000 228,199.900000 295,161.200000" clip-rule="evenodd" fill="rgb(255,255,255)" fill-rule="evenodd" stroke="none" stroke-width="1"/></g><g id="e0pcberx5ucx10"><polygon id="e0pcberx5ucx11" points="120,236.800000 156,216 156,143.300000 156,143.300000 156,143.300000 156,143.300000 120,164.100000" clip-rule="evenodd" fill="rgb(207,207,207)" fill-rule="evenodd" stroke="none" stroke-width="1"/><polygon id="e0pcberx5ucx12" points="84,143.300000 120,164.100000 156,143.300000 120,122.500000" clip-rule="evenodd" fill="rgb(255,255,255)" fill-rule="evenodd" stroke="none" stroke-width="1"/><polygon id="e0pcberx5ucx13" points="84,143.300000 120,164.100000 120,236.800000 84,216" clip-rule="evenodd" fill="rgb(185,187,192)" fill-rule="evenodd" stroke="none" stroke-width="1"/></g><g id="e0pcberx5ucx14"><polygon id="e0pcberx5ucx15" points="192,122.500000 192,164.100000 219,179.600000 255,158.900000 255,117.300000 255,117.300000 219,138.100000" clip-rule="evenodd" fill="rgb(207,207,207)" fill-rule="evenodd" stroke="none" stroke-width="1"/><polygon id="e0pcberx5ucx16" points="192,122.500000 219,138.100000 255,117.300000 228,101.700000" clip-rule="evenodd" fill="rgb(255,255,255)" fill-rule="evenodd" stroke="none" stroke-width="1"/><polygon id="e0pcberx5ucx17" points="192,122.500000 219,138.100000 219,179.600000 192,164.100000" clip-rule="evenodd" fill="rgb(185,187,192)" fill-rule="evenodd" stroke="none" stroke-width="1"/></g><g id="e0pcberx5ucx18_to" transform="translate(0,10)"><g id="e0pcberx5ucx18" transform="translate(0,0)" opacity="0"><path id="e0pcberx5ucx19" d="M239.300000,225L241.100000,223.900000L241.100000,223.900000C243.100000,222.700000,245.900000,222.800000,249,224.600000C255.100000,228.100000,260,236.700000,260,243.800000C260,246.600000,259.200000,248.700000,258,250L249.500000,260C249.200000,260.400000,248.800000,260.300000,248.600000,259.800000L240.100000,240C238.700000,237.100000,237.900000,233.900000,237.900000,231C237.900000,228.900000,238.400000,227.100000,239.200000,225.800000L239.300000,225L239.300000,225ZM248.900000,243.700000C252,245.500000,254.600000,244,254.600000,240.400000C254.600000,236.800000,252.100000,232.400000,248.900000,230.500000C245.800000,228.700000,243.200000,230.200000,243.200000,233.800000C243.200000,237.500000,245.800000,241.900000,248.900000,243.700000Z" clip-rule="evenodd" fill="rgb(206,70,53)" fill-rule="evenodd" stroke="none" stroke-width="1"/><path id="e0pcberx5ucx20" d="M240.300000,224.400000L241.100000,223.900000L241.100000,223.900000C243.100000,222.700000,245.900000,222.800000,249,224.600000C252,226.300000,254.700000,229.300000,256.700000,232.700000L252.900000,234.900000C251.900000,233.100000,250.400000,231.500000,248.900000,230.600000C248.400000,230.300000,247.800000,230.100000,247.300000,229.900000L247.300000,229.900000L240.300000,224.400000Z" clip-rule="evenodd" fill="rgb(243,117,100)" fill-rule="evenodd" stroke="none" stroke-width="1"/><polygon id="e0pcberx5ucx21" points="247.400000,261.400000 249.400000,260.200000 249.300000,259.200000 248.600000,259 247.300000,260.400000" clip-rule="evenodd" fill="rgb(206,70,53)" fill-rule="evenodd" stroke="none" stroke-width="1"/><path id="e0pcberx5ucx22" d="M247.100000,225.800000C241,222.300000,236.100000,225.100000,236.100000,232.200000C236.100000,235.100000,236.900000,238.200000,238.300000,241.200000L246.800000,261C247.100000,261.600000,247.400000,261.700000,247.700000,261.200000L256.200000,251.200000C257.500000,249.900000,258.200000,247.700000,258.200000,245C258.200000,237.900000,253.200000,229.300000,247.100000,225.800000L247.100000,225.800000ZM247,244.900000C243.900000,243.100000,241.300000,238.700000,241.300000,235C241.300000,231.400000,243.800000,229.900000,247,231.700000C250.100000,233.500000,252.700000,237.900000,252.700000,241.600000C252.700000,245.200000,250.100000,246.700000,247,244.900000Z" clip-rule="evenodd" fill="rgb(240,82,62)" fill-rule="evenodd" stroke="none" stroke-width="1"/><path id="e0pcberx5ucx23" d="M247.100000,225.800000C245.300000,224.700000,243.500000,224.200000,242,224.300000C243.400000,224.300000,245,224.800000,246.700000,225.800000C252.800000,229.300000,257.700000,237.900000,257.700000,245C257.700000,247.800000,256.900000,249.900000,255.700000,251.200000L247.200000,261.200000C247.100000,261.300000,247.100000,261.400000,247,261.400000C247.200000,261.500000,247.400000,261.500000,247.600000,261.200000L256.100000,251.200000C257.400000,249.900000,258.100000,247.700000,258.100000,245C258.200000,237.900000,253.200000,229.300000,247.100000,225.800000L247.100000,225.800000ZM247,244.900000C247.800000,245.400000,248.600000,245.600000,249.300000,245.700000C248.500000,245.700000,247.600000,245.500000,246.600000,244.900000C243.500000,243.100000,240.900000,238.700000,240.900000,235C240.900000,232.300000,242.300000,230.800000,244.200000,230.900000C242.400000,231,241.200000,232.500000,241.200000,235C241.300000,238.700000,243.900000,243.100000,247,244.900000Z" clip-rule="evenodd" fill="rgb(243,117,100)" fill-rule="evenodd" stroke="none" stroke-width="1"/></g></g><g id="e0pcberx5ucx24_to" transform="translate(0,10)"><g id="e0pcberx5ucx24" transform="translate(0,0)" opacity="0"><path id="e0pcberx5ucx25" d="M193.600000,215.500000L195.400000,214.400000L195.400000,214.400000C197.400000,213.200000,200.200000,213.300000,203.300000,215.100000C209.400000,218.600000,214.300000,227.200000,214.300000,234.300000C214.300000,237.100000,213.500000,239.200000,212.300000,240.500000L203.800000,250.500000C203.500000,250.900000,203.100000,250.800000,202.900000,250.300000L194.400000,230.500000C193,227.600000,192.200000,224.400000,192.200000,221.500000C192.200000,219.400000,192.700000,217.600000,193.500000,216.300000L193.600000,215.500000L193.600000,215.500000ZM203.200000,234.200000C206.300000,236,208.900000,234.500000,208.900000,230.900000C208.900000,227.300000,206.400000,222.900000,203.200000,221C200.100000,219.200000,197.500000,220.700000,197.500000,224.300000C197.500000,228,200.100000,232.400000,203.200000,234.200000Z" clip-rule="evenodd" fill="rgb(206,70,53)" fill-rule="evenodd" stroke="none" stroke-width="1"/><path id="e0pcberx5ucx26" d="M194.600000,214.900000L195.400000,214.400000L195.400000,214.400000C197.400000,213.200000,200.200000,213.300000,203.300000,215.100000C206.300000,216.800000,209,219.800000,211,223.200000L207.200000,225.400000C206.200000,223.600000,204.700000,222,203.200000,221.100000C202.700000,220.800000,202.100000,220.600000,201.600000,220.400000L201.600000,220.400000L194.600000,214.900000Z" clip-rule="evenodd" fill="rgb(243,117,100)" fill-rule="evenodd" stroke="none" stroke-width="1"/><polygon id="e0pcberx5ucx27" points="201.700000,251.900000 203.700000,250.700000 203.600000,249.700000 202.900000,249.500000 201.600000,250.900000" clip-rule="evenodd" fill="rgb(206,70,53)" fill-rule="evenodd" stroke="none" stroke-width="1"/><path id="e0pcberx5ucx28" d="M201.500000,216.200000C195.400000,212.700000,190.500000,215.500000,190.500000,222.600000C190.500000,225.500000,191.300000,228.600000,192.700000,231.600000L201.200000,251.400000C201.500000,252,201.800000,252.100000,202.100000,251.600000L210.600000,241.600000C211.900000,240.300000,212.600000,238.100000,212.600000,235.400000C212.500000,228.400000,207.600000,219.800000,201.500000,216.200000L201.500000,216.200000ZM201.300000,235.400000C198.200000,233.600000,195.600000,229.200000,195.600000,225.500000C195.600000,221.900000,198.100000,220.400000,201.300000,222.200000C204.400000,224,207,228.400000,207,232.100000C207,235.700000,204.400000,237.200000,201.300000,235.400000Z" clip-rule="evenodd" fill="rgb(240,82,62)" fill-rule="evenodd" stroke="none" stroke-width="1"/><path id="e0pcberx5ucx29" d="M201.500000,216.200000C199.700000,215.100000,197.900000,214.600000,196.400000,214.700000C197.800000,214.700000,199.400000,215.200000,201.100000,216.200000C207.200000,219.700000,212.100000,228.300000,212.100000,235.400000C212.100000,238.200000,211.300000,240.300000,210.100000,241.600000L201.600000,251.600000C201.500000,251.700000,201.500000,251.800000,201.400000,251.800000C201.600000,251.900000,201.800000,251.900000,202,251.600000L210.500000,241.600000C211.800000,240.300000,212.500000,238.100000,212.500000,235.400000C212.500000,228.400000,207.600000,219.800000,201.500000,216.200000L201.500000,216.200000ZM201.300000,235.400000C202.100000,235.900000,202.900000,236.100000,203.600000,236.200000C202.800000,236.200000,201.900000,236,200.900000,235.400000C197.800000,233.600000,195.200000,229.200000,195.200000,225.500000C195.200000,222.800000,196.600000,221.300000,198.500000,221.400000C196.700000,221.500000,195.500000,223,195.500000,225.500000C195.600000,229.100000,198.200000,233.500000,201.300000,235.400000Z" clip-rule="evenodd" fill="rgb(243,117,100)" fill-rule="evenodd" stroke="none" stroke-width="1"/></g></g><g id="e0pcberx5ucx30_to" transform="translate(0,10)"><g id="e0pcberx5ucx30" transform="translate(0,0)" opacity="0"><path id="e0pcberx5ucx31" d="M182.700000,112.100000L180.900000,111L180.900000,111C178.900000,109.800000,176.100000,109.900000,173,111.700000C166.900000,115.200000,162,123.800000,162,130.900000C162,133.700000,162.800000,135.800000,164,137.100000L172.500000,147.100000C172.800000,147.500000,173.200000,147.400000,173.400000,146.900000L181.900000,127.100000C183.300000,124.200000,184.100000,121,184.100000,118.100000C184.100000,116,183.600000,114.200000,182.800000,112.900000L182.700000,112.100000L182.700000,112.100000ZM173.100000,130.800000C170,132.600000,167.400000,131.100000,167.400000,127.500000C167.400000,123.900000,169.900000,119.500000,173.100000,117.600000C176.200000,115.800000,178.800000,117.300000,178.800000,120.900000C178.800000,124.600000,176.200000,129,173.100000,130.800000Z" clip-rule="evenodd" fill="rgb(206,70,53)" fill-rule="evenodd" stroke="none" stroke-width="1"/><path id="e0pcberx5ucx32" d="M181.700000,111.500000L180.900000,111L180.900000,111C178.900000,109.800000,176.100000,109.900000,173,111.700000C170,113.400000,167.300000,116.400000,165.300000,119.800000L169.100000,122C170.100000,120.200000,171.600000,118.600000,173.100000,117.700000C173.600000,117.400000,174.200000,117.200000,174.700000,117L174.700000,117L181.700000,111.500000Z" clip-rule="evenodd" fill="rgb(243,117,100)" fill-rule="evenodd" stroke="none" stroke-width="1"/><polygon id="e0pcberx5ucx33" points="174.600000,148.400000 172.600000,147.300000 172.700000,146.300000 173.400000,146 174.700000,147.500000" clip-rule="evenodd" fill="rgb(206,70,53)" fill-rule="evenodd" stroke="none" stroke-width="1"/><path id="e0pcberx5ucx34" d="M174.900000,112.800000C181,109.300000,185.900000,112.100000,185.900000,119.200000C185.900000,122.100000,185.100000,125.200000,183.700000,128.200000L175.200000,148C174.900000,148.600000,174.600000,148.700000,174.300000,148.200000L165.800000,138.200000C164.500000,136.900000,163.800000,134.700000,163.800000,132C163.800000,124.900000,168.800000,116.400000,174.900000,112.800000L174.900000,112.800000ZM175,131.900000C178.100000,130.100000,180.700000,125.700000,180.700000,122C180.700000,118.400000,178.200000,116.900000,175,118.700000C171.900000,120.500000,169.300000,124.900000,169.300000,128.600000C169.300000,132.300000,171.900000,133.700000,175,131.900000Z" clip-rule="evenodd" fill="rgb(240,82,62)" fill-rule="evenodd" stroke="none" stroke-width="1"/><path id="e0pcberx5ucx35" d="M174.900000,112.800000C176.700000,111.700000,178.500000,111.200000,180,111.300000C178.600000,111.300000,177,111.800000,175.300000,112.800000C169.200000,116.300000,164.300000,124.900000,164.300000,132C164.300000,134.800000,165.100000,136.900000,166.300000,138.200000L174.800000,148.200000C174.900000,148.300000,174.900000,148.400000,175,148.400000C174.800000,148.500000,174.600000,148.500000,174.400000,148.200000L165.900000,138.200000C164.600000,136.900000,163.900000,134.700000,163.900000,132C163.800000,124.900000,168.800000,116.400000,174.900000,112.800000L174.900000,112.800000ZM175,131.900000C174.200000,132.400000,173.400000,132.600000,172.700000,132.700000C173.500000,132.700000,174.400000,132.500000,175.400000,131.900000C178.500000,130.100000,181.100000,125.700000,181.100000,122C181.100000,119.300000,179.700000,117.800000,177.800000,117.900000C179.600000,118,180.800000,119.500000,180.800000,122C180.700000,125.700000,178.100000,130.100000,175,131.900000Z" clip-rule="evenodd" fill="rgb(243,117,100)" fill-rule="evenodd" stroke="none" stroke-width="1"/></g></g><g id="e0pcberx5ucx36"><path id="e0pcberx5ucx37" d="M297.400000,143.100000L301,140.900000L301,140.900000C305,138.400000,310.600000,138.700000,316.900000,142.300000C329.100000,149.400000,339,166.500000,339,180.700000C339,186.200000,337.500000,190.400000,334.900000,193.100000L318,213.100000C317.300000,214,316.600000,213.800000,316.100000,212.600000L299.200000,173.100000C296.400000,167.200000,294.800000,160.900000,294.800000,155.200000C294.800000,150.900000,295.700000,147.400000,297.300000,144.800000L297.400000,143.100000L297.400000,143.100000ZM316.600000,180.600000C322.900000,184.200000,328,181.300000,328,174C328,166.700000,322.900000,157.900000,316.600000,154.300000C310.300000,150.700000,305.200000,153.600000,305.200000,160.900000C305.200000,168.100000,310.300000,177,316.600000,180.600000Z" clip-rule="evenodd" fill="rgb(206,70,53)" fill-rule="evenodd" stroke="none" stroke-width="1"/><path id="e0pcberx5ucx38" d="M299.400000,141.900000L301,140.900000L301,140.900000C305,138.400000,310.600000,138.700000,316.900000,142.300000C322.900000,145.800000,328.300000,151.700000,332.300000,158.400000L324.700000,162.800000C322.600000,159.200000,319.800000,156.100000,316.600000,154.200000C315.500000,153.600000,314.500000,153.100000,313.500000,152.900000L313.500000,152.900000L299.400000,141.900000Z" clip-rule="evenodd" fill="rgb(243,117,100)" fill-rule="evenodd" stroke="none" stroke-width="1"/><polygon id="e0pcberx5ucx39" points="313.700000,215.900000 317.500000,213.500000 317.400000,211.600000 316.100000,211.100000 313.400000,213.900000" clip-rule="evenodd" fill="rgb(206,70,53)" fill-rule="evenodd" stroke="none" stroke-width="1"/><path id="e0pcberx5ucx40" d="M313.100000,144.600000C300.900000,137.500000,291,143.300000,291,157.400000C291,163.200000,292.700000,169.500000,295.400000,175.300000L312.300000,214.800000C312.800000,215.900000,313.500000,216.200000,314.200000,215.300000L331.100000,195.300000C333.700000,192.600000,335.200000,188.400000,335.200000,182.900000C335.200000,168.900000,325.300000,151.700000,313.100000,144.600000L313.100000,144.600000ZM312.800000,182.900000C306.500000,179.300000,301.400000,170.400000,301.400000,163.200000C301.400000,155.900000,306.500000,153,312.800000,156.600000C319.100000,160.200000,324.200000,169.100000,324.200000,176.300000C324.100000,183.600000,319.100000,186.500000,312.800000,182.900000Z" clip-rule="evenodd" fill="rgb(240,82,62)" fill-rule="evenodd" stroke="none" stroke-width="1"/><path id="e0pcberx5ucx41" d="M313.100000,144.600000C309.400000,142.500000,305.900000,141.500000,302.900000,141.600000C305.800000,141.700000,309,142.700000,312.400000,144.600000C324.600000,151.700000,334.500000,168.800000,334.500000,183C334.500000,188.500000,333,192.700000,330.400000,195.400000L313.500000,215.400000C313.400000,215.600000,313.200000,215.700000,313.100000,215.800000C313.500000,216,313.900000,215.900000,314.300000,215.400000L331.200000,195.400000C333.800000,192.700000,335.300000,188.500000,335.300000,183C335.200000,168.900000,325.300000,151.700000,313.100000,144.600000L313.100000,144.600000ZM312.800000,182.900000C314.500000,183.900000,316.100000,184.400000,317.500000,184.400000C315.900000,184.500000,314,184,312.100000,182.900000C305.800000,179.300000,300.700000,170.400000,300.700000,163.200000C300.700000,157.900000,303.400000,154.900000,307.400000,155.100000C303.900000,155.300000,301.500000,158.200000,301.500000,163.200000C301.400000,170.400000,306.500000,179.200000,312.800000,182.900000Z" clip-rule="evenodd" fill="rgb(243,117,100)" fill-rule="evenodd" stroke="none" stroke-width="1"/></g><g id="e0pcberx5ucx42"><g id="e0pcberx5ucx43"><path id="e0pcberx5ucx44" d="M182,272.500000L182,272.500000C181.400000,272.500000,181,272,181,271.500000L181,263.500000L183,263.500000L183,271.500000C183,272,182.600000,272.500000,182,272.500000Z" clip-rule="evenodd" fill="rgb(117,117,117)" fill-rule="evenodd" stroke="none" stroke-width="1"/><path id="e0pcberx5ucx45" d="M182,264.500000C179.600000,264.500000,177.400000,263.800000,175.500000,262.600000C175.200000,262.400000,175,262.100000,175,261.700000C175,261.600000,175,261.500000,175.100000,261.400000L182,236.500000L188.900000,261.400000C188.900000,261.500000,189,261.600000,189,261.700000C189,262.100000,188.800000,262.400000,188.500000,262.600000C186.600000,263.700000,184.400000,264.500000,182,264.500000Z" clip-rule="evenodd" fill="rgb(134,173,100)" fill-rule="evenodd" stroke="none" stroke-width="1"/><g id="e0pcberx5ucx46"><rect id="e0pcberx5ucx47" width="1" height="3.100000" rx="0" ry="0" transform="matrix(1 0 0 1 182 263.50000000000000)" clip-rule="evenodd" fill="rgb(117,117,117)" fill-rule="evenodd" stroke="none" stroke-width="1"/><path id="e0pcberx5ucx48" d="M182,236.500000L188.900000,261.400000C188.900000,261.500000,189,261.600000,189,261.700000C189,262.100000,188.800000,262.400000,188.500000,262.600000C186.600000,263.800000,184.400000,264.500000,182,264.500000L182,236.500000Z" clip-rule="evenodd" fill="rgb(176,207,149)" fill-rule="evenodd" stroke="none" stroke-width="1"/></g></g><g id="e0pcberx5ucx49"><path id="e0pcberx5ucx50" d="M67,205.600000L67,205.600000C66.400000,205.600000,66,205.100000,66,204.600000L66,196.600000L68,196.600000L68,204.600000C68,205.200000,67.600000,205.600000,67,205.600000Z" clip-rule="evenodd" fill="rgb(117,117,117)" fill-rule="evenodd" stroke="none" stroke-width="1"/><path id="e0pcberx5ucx51" d="M67,197.600000C64.600000,197.600000,62.400000,196.900000,60.500000,195.700000C60.200000,195.500000,60,195.200000,60,194.800000C60,194.700000,60,194.600000,60.100000,194.500000L67,169.600000L73.900000,194.500000C73.900000,194.600000,74,194.700000,74,194.800000C74,195.200000,73.800000,195.500000,73.500000,195.700000C71.600000,196.900000,69.400000,197.600000,67,197.600000Z" clip-rule="evenodd" fill="rgb(134,173,100)" fill-rule="evenodd" stroke="none" stroke-width="1"/><g id="e0pcberx5ucx52"><rect id="e0pcberx5ucx53" width="1" height="3.100000" rx="0" ry="0" transform="matrix(1 0 0 1 67 196.59999999999999)" clip-rule="evenodd" fill="rgb(117,117,117)" fill-rule="evenodd" stroke="none" stroke-width="1"/><path id="e0pcberx5ucx54" d="M67,169.600000L73.900000,194.500000C73.900000,194.600000,74,194.700000,74,194.800000C74,195.200000,73.800000,195.500000,73.500000,195.700000C71.600000,196.900000,69.400000,197.600000,67,197.600000L67,169.600000Z" clip-rule="evenodd" fill="rgb(176,207,149)" fill-rule="evenodd" stroke="none" stroke-width="1"/></g></g><g id="e0pcberx5ucx55"><path id="e0pcberx5ucx56" d="M281,215.300000L281,215.300000C280.400000,215.300000,280,214.800000,280,214.300000L280,206.300000L282,206.300000L282,214.300000C282,214.800000,281.600000,215.300000,281,215.300000Z" clip-rule="evenodd" fill="rgb(117,117,117)" fill-rule="evenodd" stroke="none" stroke-width="1"/><path id="e0pcberx5ucx57" d="M281,207.300000C278.600000,207.300000,276.400000,206.600000,274.500000,205.400000C274.200000,205.200000,274,204.900000,274,204.500000C274,204.400000,274,204.300000,274.100000,204.200000L281,179.300000L287.900000,204.200000C287.900000,204.300000,288,204.400000,288,204.500000C288,204.900000,287.800000,205.200000,287.500000,205.400000C285.600000,206.600000,283.400000,207.300000,281,207.300000Z" clip-rule="evenodd" fill="rgb(134,173,100)" fill-rule="evenodd" stroke="none" stroke-width="1"/><g id="e0pcberx5ucx58"><rect id="e0pcberx5ucx59" width="1" height="3.100000" rx="0" ry="0" transform="matrix(1 0 0 1 281 206.30000000000001)" clip-rule="evenodd" fill="rgb(117,117,117)" fill-rule="evenodd" stroke="none" stroke-width="1"/><path id="e0pcberx5ucx60" d="M281,179.300000L287.900000,204.200000C287.900000,204.300000,288,204.400000,288,204.500000C288,204.900000,287.800000,205.200000,287.500000,205.400000C285.600000,206.600000,283.400000,207.300000,281,207.300000L281,179.300000Z" clip-rule="evenodd" fill="rgb(176,207,149)" fill-rule="evenodd" stroke="none" stroke-width="1"/></g></g><g id="e0pcberx5ucx61"><path id="e0pcberx5ucx62" d="M173,206L173,206C172.400000,206,172,205.500000,172,205L172,197L174,197L174,205C174,205.600000,173.600000,206,173,206Z" clip-rule="evenodd" fill="rgb(117,117,117)" fill-rule="evenodd" stroke="none" stroke-width="1"/><path id="e0pcberx5ucx63" d="M173,198C170.600000,198,168.400000,197.300000,166.500000,196.100000C166.200000,195.900000,166,195.600000,166,195.200000C166,195.100000,166,195,166.100000,194.900000L173,170L179.900000,194.900000C179.900000,195,180,195.100000,180,195.200000C180,195.600000,179.800000,195.900000,179.500000,196.100000C177.600000,197.300000,175.400000,198,173,198Z" clip-rule="evenodd" fill="rgb(134,173,100)" fill-rule="evenodd" stroke="none" stroke-width="1"/><g id="e0pcberx5ucx64"><rect id="e0pcberx5ucx65" width="1" height="3.100000" rx="0" ry="0" transform="matrix(1 0 0 1 173 197)" clip-rule="evenodd" fill="rgb(117,117,117)" fill-rule="evenodd" stroke="none" stroke-width="1"/><path id="e0pcberx5ucx66" d="M173,170L179.900000,194.900000C179.900000,195,180,195.100000,180,195.200000C180,195.600000,179.800000,195.900000,179.500000,196.100000C177.600000,197.300000,175.400000,198,173,198L173,170Z" clip-rule="evenodd" fill="rgb(176,207,149)" fill-rule="evenodd" stroke="none" stroke-width="1"/></g></g></g><g id="e0pcberx5ucx67"><polygon id="e0pcberx5ucx68" points="361.800000,146.600000 365.800000,144.300000 365,143.300000 362,142.800000 360.800000,144.400000" clip-rule="evenodd" fill="rgb(161,161,161)" fill-rule="evenodd" stroke="none" stroke-width="1"/><path id="e0pcberx5ucx69" d="M271.500000,7.900000L363.500000,61C365.400000,62.100000,367,65.100000,367,67.600000L367,141.500000C367,144,365.400000,145.200000,363.500000,144.100000L363,143.800000L363,143.800000L363,70C363,67.500000,361.400000,64.500000,359.500000,63.400000L268,10.500000C268,7.900000,269.600000,6.800000,271.500000,7.900000Z" clip-rule="evenodd" fill="rgb(161,161,161)" fill-rule="evenodd" stroke="none" stroke-width="1"/><polygon id="e0pcberx5ucx70" points="265.200000,10 269.200000,7.700000 270.100000,8.900000 269.900000,12.200000 266.300000,11.200000" clip-rule="evenodd" fill="rgb(161,161,161)" fill-rule="evenodd" stroke="none" stroke-width="1"/><path id="e0pcberx5ucx71" d="M267.500000,10.200000L359.600000,63.400000C361.500000,64.500000,363.100000,67.500000,363.100000,70L363.100000,143.900000C363.100000,146.400000,361.500000,147.600000,359.600000,146.500000L322.600000,125.100000L322.600000,125.100000L313.600000,135.500000L304.600000,114.700000L304.600000,114.700000L267.600000,93.300000C265.700000,92.200000,264.100000,89.200000,264.100000,86.700000L264.100000,12.800000C264,10.300000,265.600000,9.100000,267.500000,10.200000Z" clip-rule="evenodd" fill="rgb(51,51,51)" fill-rule="evenodd" stroke="none" stroke-width="1"/><path id="e0pcberx5ucx72" d="M276,75.800000L313,97.200000L313,101.200000L311,102.400000L311,98.400000L274,77L276,75.800000L276,75.800000ZM290,38.200000L292,37L292,33.800000L292,33L276,23.800000L274,25L290,34.200000L290,34.300000L290,38.200000L290,38.200000ZM311,84.300000L313,83.100000L313,79.100000L276,57.700000L274,58.900000L311,80.300000L311,84.300000L311,84.300000ZM311,64.300000L311,54.300000L274,33L276,31.800000L313,53.200000L313,63.200000L311,64.300000L311,64.300000ZM353,118.600000L355,117.400000L355,113.400000L276,67.800000L274,69L353,114.600000L353,118.600000L353,118.600000ZM353,100.600000L355,99.400000L355,95.400000L276,49.800000L274,51L353,96.600000L353,100.600000L353,100.600000ZM353,88.600000L353,78.600000L316,57.200000L318,56L355,77.400000L355,87.400000L353,88.600000L353,88.600000ZM332,62.400000L332,58.400000L316,49.200000L318,48L334,57.200000L334,61.200000L332,62.400000Z" clip-rule="evenodd" fill="rgb(92,92,92)" fill-rule="evenodd" stroke="none" stroke-width="1"/><path id="e0pcberx5ucx73" d="M274,77L311,98.400000L311,102.400000L274,81L274,77L274,77ZM274,33L311,54.400000L311,64.400000L274,43L274,33L274,33ZM274,25L274,29L290,38.200000L290,34.200000L274,25L274,25ZM316,49.200000L332,58.400000L332,62.400000L316,53.200000L316,49.200000L316,49.200000ZM316,57.200000L316,67.200000L353,88.600000L353,78.600000L316,57.200000L316,57.200000ZM274,51L274,55L353,100.600000L353,96.600000L274,51L274,51ZM274,59L274,63L311,84.400000L311,80.400000L274,59L274,59ZM274,69L274,73L353,118.600000L353,114.600000L274,69Z" clip-rule="evenodd" fill="rgb(255,255,255)" fill-rule="evenodd" stroke="none" stroke-width="1"/></g><g id="e0pcberx5ucx74"><path id="e0pcberx5ucx75" d="M145.800000,46.400000L145.800000,46.400000C145.200000,46.100000,144.400000,46.100000,143.600000,46.600000L78.500000,84.100000C76.600000,85.200000,75,88.200000,75,90.700000L75,138.600000C75,140,75.500000,141,76.200000,141.400000L72.200000,139.100000L72.200000,139.100000C71.400000,138.700000,71,137.700000,71,136.300000L71,88.400000C71,85.900000,72.600000,82.900000,74.500000,81.800000L139.600000,44.200000C140.500000,43.700000,141.300000,43.700000,141.900000,44L141.900000,44L141.900000,44L145.800000,46.400000L145.800000,46.400000Z" clip-rule="evenodd" fill="rgb(206,70,53)" fill-rule="evenodd" stroke="none" stroke-width="1"/><path id="e0pcberx5ucx76" d="M78.500000,141.300000L102,127.700000L111,138.100000L120,117.300000L143.500000,103.700000C145.400000,102.600000,147,99.600000,147,97.100000L147,49.200000C147,46.700000,145.400000,45.500000,143.500000,46.600000L78.500000,84.100000C76.600000,85.200000,75,88.200000,75,90.700000L75,138.600000C75,141.200000,76.600000,142.400000,78.500000,141.300000Z" clip-rule="evenodd" fill="rgb(240,82,62)" fill-rule="evenodd" stroke="none" stroke-width="1"/><g id="e0pcberx5ucx77"><path id="e0pcberx5ucx78" d="M110,77.600000L136,62.600000L138,63.800000L138,66.200000L138,66.200000L138,63.800000L112,78.800000L112,82.800000L110,81.600000L110,77.600000L110,77.600000ZM110,105.600000L112,106.800000L112,102.800000L130,92.400000L128,91.200000L110,101.600000L110,105.600000L110,105.600000ZM130,94.800000L130,92.400000L130,94.800000L130,94.800000L130,94.800000ZM110,97.600000L112,98.800000L112,94.800000L134,82.100000L132,80.900000L110,93.600000L110,97.600000L110,97.600000ZM134,84.500000L134,84.500000L134,82.100000L134,84.500000L134,84.500000ZM110,89.600000L112,90.800000L112,86.800000L138,71.800000L136,70.600000L110,85.600000L110,89.600000L110,89.600000ZM138,74.200000L138,74.200000L138,71.800000L138,74.200000Z" clip-rule="evenodd" fill="rgb(206,70,53)" fill-rule="evenodd" stroke="none" stroke-width="1"/><path id="e0pcberx5ucx79" d="M112,78.800000L138,63.800000L138,67.800000L112,82.800000L112,78.800000L112,78.800000ZM112,102.800000L130,92.400000L130,96.400000L112,106.800000L112,102.800000L112,102.800000ZM112,94.800000L112,98.800000L134,86.100000L134,82.100000L112,94.800000L112,94.800000ZM112,86.800000L112,90.800000L138,75.800000L138,71.800000L112,86.800000Z" clip-rule="evenodd" fill="rgb(255,255,255)" fill-rule="evenodd" stroke="none" stroke-width="1"/><path id="e0pcberx5ucx80" d="M101.700000,85L99.900000,84L99.900000,84C97.900000,82.800000,95.100000,82.900000,92,84.700000C85.900000,88.200000,81,96.800000,81,103.900000C81,106.700000,81.800000,108.800000,83,110.100000L91.500000,120.100000C91.800000,120.500000,92.200000,120.400000,92.400000,119.900000L100.900000,100.100000C102.300000,97.200000,103.100000,94,103.100000,91.100000C103.100000,89,102.600000,87.200000,101.800000,85.900000L101.700000,85L101.700000,85ZM92.100000,103.800000C89,105.600000,86.400000,104.100000,86.400000,100.500000C86.400000,96.900000,88.900000,92.500000,92.100000,90.600000C95.200000,88.800000,97.800000,90.300000,97.800000,93.900000C97.800000,97.600000,95.200000,102,92.100000,103.800000Z" clip-rule="evenodd" fill="rgb(206,70,53)" fill-rule="evenodd" stroke="none" stroke-width="1"/><polygon id="e0pcberx5ucx81" points="93.600000,121.400000 91.600000,120.300000 91.700000,119.300000 92.400000,119 93.700000,120.500000" clip-rule="evenodd" fill="rgb(206,70,53)" fill-rule="evenodd" stroke="none" stroke-width="1"/><path id="e0pcberx5ucx82" d="M93.900000,85.800000C100,82.300000,104.900000,85.100000,104.900000,92.200000C104.900000,95.100000,104.100000,98.200000,102.700000,101.200000L94.200000,121C93.900000,121.600000,93.600000,121.700000,93.300000,121.200000L84.800000,111.200000C83.500000,109.900000,82.800000,107.700000,82.800000,105C82.800000,97.900000,87.800000,89.400000,93.900000,85.800000L93.900000,85.800000ZM94,104.900000C97.100000,103.100000,99.700000,98.700000,99.700000,95C99.700000,91.400000,97.200000,89.900000,94,91.700000C90.900000,93.500000,88.300000,97.900000,88.300000,101.600000C88.300000,105.300000,90.900000,106.700000,94,104.900000Z" clip-rule="evenodd" fill="rgb(255,255,255)" fill-rule="evenodd" stroke="none" stroke-width="1"/><path id="e0pcberx5ucx83" d="M93.900000,85.800000C95.700000,84.700000,97.500000,84.200000,99,84.300000C97.600000,84.300000,96,84.800000,94.300000,85.800000C88.200000,89.300000,83.300000,97.900000,83.300000,105C83.300000,107.800000,84.100000,109.900000,85.300000,111.200000L93.800000,121.200000C93.900000,121.300000,93.900000,121.400000,94,121.400000C93.800000,121.500000,93.600000,121.500000,93.400000,121.200000L84.900000,111.200000C83.600000,109.900000,82.900000,107.700000,82.900000,105C82.800000,97.900000,87.800000,89.400000,93.900000,85.800000L93.900000,85.800000ZM94,104.900000C93.200000,105.400000,92.400000,105.600000,91.700000,105.700000C92.500000,105.700000,93.400000,105.500000,94.400000,104.900000C97.500000,103.100000,100.100000,98.700000,100.100000,95C100.100000,92.300000,98.700000,90.800000,96.800000,90.900000C98.600000,91,99.800000,92.500000,99.800000,95C99.700000,98.700000,97.100000,103.100000,94,104.900000Z" clip-rule="evenodd" fill="rgb(240,82,62)" fill-rule="evenodd" stroke="none" stroke-width="1"/></g></g></g></g></svg>