<svg width="96" height="96" viewBox="0 0 96 96" fill="none" xmlns="http://www.w3.org/2000/svg">
<g clip-path="url(#clip0_965_15964)">
<path fill-rule="evenodd" clip-rule="evenodd" d="M50.8856 95.9044L60.5985 94.6163C60.8261 94.589 61.0536 94.5572 61.2812 94.5253L61.3586 94.5162L61.354 94.5117C66.8613 93.6514 71.9681 90.2424 75.2543 84.5484L93.31 53.2751C97.8843 45.351 95.9089 34.1862 88.9224 28.465L59.7883 4.63338C55.1367 0.823784 49.6931 -0.573511 44.5863 0.218448L35.6836 1.40183L35.4561 2.07089C40.2988 1.38362 45.4557 2.73542 49.9161 6.38571L80.0242 31.0184C83.1602 33.5854 85.131 37.3677 85.8319 41.3275C86.5374 45.3191 85.9685 49.5839 83.9294 53.1158L65.2319 85.4952C61.9639 91.1572 56.798 94.5298 51.2497 95.2262L50.8856 95.9044Z" fill="url(#paint0_linear_965_15964)"/>
<g filter="url(#filter0_dd_965_15964)">
<path fill-rule="evenodd" clip-rule="evenodd" d="M50.3122 5.89418L80.4248 30.5314C86.8743 35.8111 88.6994 46.1157 84.4756 53.4299L65.7781 85.8138C59.4424 96.7874 46.3433 99.2862 36.6623 91.3666L6.55415 66.7339C0.100143 61.4542 -1.72045 51.1496 2.50333 43.8308L21.1963 11.4515C27.532 0.477909 40.6357 -2.02541 50.3122 5.89418Z" fill="url(#paint1_linear_965_15964)"/>
<path d="M49.3621 7.05497L49.3623 7.05512L79.4746 31.6921C79.4748 31.6922 79.4749 31.6923 79.475 31.6923C85.3446 36.4977 87.04 45.9898 83.1767 52.6798L83.1766 52.6799L64.4791 85.0638C58.594 95.2569 46.5588 97.5245 37.6121 90.2056C37.6121 90.2056 37.612 90.2056 37.612 90.2056L7.50398 65.573L7.50392 65.5729C1.6306 60.7682 -0.061651 51.2762 3.8025 44.5806L22.4953 12.2016C22.4953 12.2015 22.4953 12.2015 22.4954 12.2015C28.3808 2.00766 40.4207 -0.26306 49.3621 7.05497Z" stroke="url(#paint2_linear_965_15964)" stroke-width="3"/>
</g>
<path fill-rule="evenodd" clip-rule="evenodd" d="M28.7608 34.623C28.5651 33.6263 28.3648 32.634 28.1828 31.6373C28.1282 31.346 28.1054 31.0456 28.1009 30.7497C28.1009 30.3219 28.2966 30.0306 28.6379 29.8804C28.8018 29.8076 28.9702 29.7484 29.1432 29.7165C30.0899 29.539 31.032 29.357 31.9787 29.2113C32.7343 29.0975 33.1667 29.4343 33.3715 30.3082C33.5945 31.2868 33.7766 32.2699 33.9677 33.253C34.0041 33.4624 34.0679 33.5443 34.2636 33.558C35.3787 33.649 36.4756 33.9312 37.5407 34.4C37.7091 34.4728 37.7955 34.4455 37.8866 34.2817C38.319 33.5261 38.765 32.7797 39.2065 32.0332C39.2884 31.8921 39.3931 31.7693 39.4978 31.6509C39.8437 31.2822 40.2033 31.2276 40.6493 31.4871C40.8041 31.5781 40.9543 31.6782 41.0999 31.792C41.8509 32.3883 42.6065 32.9845 43.3529 33.5853C44.1267 34.2134 44.245 34.8051 43.7716 35.6608C43.3575 36.4072 42.9387 37.1537 42.5063 37.8819C42.388 38.0822 42.388 38.2051 42.5427 38.4053C43.2937 39.3793 43.9082 40.4581 44.3861 41.6232C44.468 41.8235 44.5454 41.8781 44.732 41.8417C45.5422 41.6869 46.3569 41.5413 47.1762 41.4093C47.3673 41.382 47.5676 41.3911 47.7633 41.4184C48.1092 41.473 48.3732 41.6961 48.5234 42.0693C48.6099 42.2878 48.6781 42.5199 48.7282 42.7474C48.933 43.7943 49.1424 44.8366 49.3245 45.8834C49.4974 46.8756 49.2607 47.3035 48.4187 47.4992C47.5585 47.6904 46.6891 47.836 45.8244 47.9817C45.6241 48.0135 45.5695 48.1 45.5376 48.3276C45.3965 49.338 45.2372 50.3393 45.0506 51.3316C45.0051 51.5637 45.037 51.6729 45.2099 51.8095C45.9245 52.3738 46.6345 52.9428 47.3355 53.5254C47.9454 54.0351 48.091 54.5677 47.7269 55.264C47.1716 56.3063 46.5845 57.3259 45.9564 58.3135C45.5604 58.9417 45.0779 58.9826 44.4817 58.532C43.7443 57.9722 43.0161 57.3896 42.2879 56.8115C42.1331 56.6841 42.0375 56.675 41.8964 56.8161C41.0863 57.6172 40.1851 58.2635 39.1837 58.7277C39.0017 58.8142 38.9607 58.9143 39.0062 59.1374C39.2156 60.1614 39.4022 61.1855 39.5979 62.2096C39.6207 62.3189 39.6298 62.4326 39.6389 62.5464C39.6935 63.3202 39.4568 63.7025 38.8105 63.88C38.7422 63.8982 38.674 63.9164 38.6011 63.9255C37.7136 64.0894 36.8215 64.2532 35.9249 64.4125C35.7701 64.4399 35.6063 64.4535 35.447 64.449C35.01 64.4353 34.6823 64.1941 34.5048 63.7207C34.4092 63.4704 34.3319 63.2109 34.2818 62.9515C34.077 61.9365 33.8813 60.9261 33.6901 59.9111C33.6537 59.729 33.5991 59.6517 33.4307 59.6289C32.4885 59.5106 31.5645 59.242 30.6634 58.8461C30.504 58.7732 30.4267 58.8142 30.3402 58.9644C29.9033 59.7199 29.4618 60.4664 29.0157 61.2128C28.9292 61.3585 28.8246 61.495 28.7108 61.6179C28.3967 61.9684 28.0235 62.0184 27.6093 61.7863C27.4773 61.7135 27.3453 61.6361 27.2224 61.5405C26.4305 60.917 25.6431 60.2934 24.8557 59.6562C24.1047 59.0418 23.9818 58.4455 24.446 57.6035C24.8557 56.8525 25.2744 56.1106 25.7113 55.3778C25.8342 55.1639 25.8069 55.0456 25.6704 54.8271C25.1287 53.976 24.6053 53.1066 24.1047 52.2236C23.9863 52.0188 23.8998 51.9688 23.7041 52.0052C22.8667 52.1736 22.0292 52.3192 21.1872 52.4694C21.0142 52.4967 20.8321 52.5195 20.6592 52.5195C20.072 52.5149 19.6897 52.2373 19.5395 51.5773C19.2619 50.3075 19.0115 49.0285 18.7976 47.745C18.6838 47.0896 18.9251 46.7027 19.4621 46.4933C19.667 46.416 19.8854 46.3613 20.1039 46.3204C20.8822 46.1747 21.6605 46.0291 22.4388 45.8971C22.6027 45.8698 22.6527 45.8015 22.6573 45.6103C22.6618 44.3132 22.8348 43.057 23.1853 41.8508C23.2399 41.6596 23.1716 41.5732 23.0442 41.473C22.325 40.8995 21.6059 40.3261 20.8959 39.7344C20.2723 39.2155 20.1267 38.6921 20.5044 37.9775C21.0597 36.9215 21.6605 35.902 22.2886 34.9007C22.6482 34.3317 23.1579 34.2862 23.7087 34.7004C24.4369 35.2466 25.1515 35.811 25.857 36.3845C26.0618 36.5529 26.1756 36.5574 26.3804 36.389C27.095 35.8155 27.8369 35.2876 28.5742 34.7459C28.6288 34.7004 28.6926 34.6686 28.7608 34.623ZM58.3455 40.8267C58.2272 40.2168 58.1043 39.616 57.995 39.0107C57.9632 38.8332 57.945 38.6466 57.945 38.4691C57.945 38.2051 58.0633 38.0276 58.2727 37.9365C58.3683 37.8956 58.4729 37.8592 58.5776 37.8364C59.1557 37.7317 59.7292 37.6225 60.3072 37.5314C60.7669 37.4632 61.0263 37.668 61.1538 38.2005C61.2903 38.7922 61.3996 39.393 61.5133 39.9938C61.5407 40.1212 61.5771 40.1668 61.6954 40.1759C62.3736 40.235 63.0426 40.4034 63.689 40.6902C63.7936 40.7357 63.8437 40.7175 63.9029 40.6174C64.1669 40.1577 64.4354 39.7025 64.7039 39.2473C64.754 39.1654 64.8177 39.088 64.8814 39.0152C65.0954 38.7922 65.3093 38.7603 65.5824 38.9196C65.678 38.9743 65.769 39.0334 65.8555 39.1017C66.3152 39.4658 66.7703 39.8254 67.2255 40.1941C67.6988 40.5764 67.7716 40.936 67.4849 41.4548C67.23 41.9145 66.9751 42.3651 66.7111 42.8112C66.6429 42.9295 66.6429 43.0069 66.7339 43.1298C67.1936 43.7215 67.5668 44.3769 67.8581 45.0869C67.9082 45.2098 67.9537 45.2417 68.0675 45.2189C68.5636 45.1233 69.0597 45.0368 69.5558 44.9549C69.6696 44.9367 69.7925 44.9458 69.9108 44.964C70.1248 44.9959 70.2841 45.1324 70.3751 45.36C70.4252 45.492 70.4707 45.6331 70.498 45.7742C70.6254 46.4068 70.7529 47.044 70.8621 47.6813C70.9668 48.2821 70.8257 48.546 70.3114 48.6598C69.788 48.7827 69.26 48.8692 68.732 48.9557C68.6091 48.9784 68.5773 49.0285 68.559 49.1696C68.4726 49.7795 68.3724 50.3894 68.2632 50.9947C68.2359 51.1404 68.2541 51.2041 68.3588 51.286C68.7912 51.6274 69.2236 51.9779 69.6514 52.3329C70.0246 52.6424 70.1157 52.9655 69.8926 53.3888C69.5558 54.026 69.1963 54.645 68.8139 55.2458C68.5727 55.6282 68.2769 55.6555 67.9173 55.3778C67.4667 55.0365 67.0206 54.686 66.5792 54.331C66.4881 54.2536 66.429 54.2491 66.3425 54.3355C65.8509 54.8226 65.3002 55.214 64.6903 55.5007C64.581 55.5508 64.5537 55.6099 64.581 55.7465C64.7085 56.37 64.8268 56.9936 64.9452 57.6172C64.9543 57.6854 64.9634 57.7537 64.9679 57.822C64.9998 58.2953 64.8541 58.5275 64.4627 58.6321C64.4217 58.6458 64.3808 58.6549 64.3353 58.664C63.7936 58.7641 63.252 58.8643 62.7104 58.9598C62.6148 58.9781 62.5147 58.9826 62.4191 58.9781C62.1506 58.9735 61.9503 58.8279 61.8411 58.5366C61.7864 58.3864 61.7364 58.2271 61.7045 58.0678C61.5816 57.4533 61.4633 56.8343 61.3449 56.2153C61.3267 56.1106 61.2903 56.0606 61.1902 56.0469C60.6122 55.9741 60.0523 55.8102 59.5061 55.569C59.406 55.528 59.3605 55.5508 59.3059 55.6418C59.0419 56.1015 58.7733 56.5567 58.5048 57.0118C58.4502 57.0983 58.3865 57.1802 58.3182 57.2576C58.127 57.4715 57.8995 57.4988 57.6446 57.3577C57.5627 57.3168 57.4853 57.2667 57.4079 57.2075C56.93 56.8298 56.4475 56.452 55.9696 56.0651C55.5099 55.6919 55.4371 55.3232 55.7193 54.8134C55.9696 54.3583 56.2245 53.9031 56.4885 53.4571C56.5659 53.3297 56.5477 53.2568 56.4657 53.1248C56.1335 52.606 55.8194 52.078 55.5145 51.5409C55.4417 51.4135 55.387 51.3816 55.2687 51.4044C54.7589 51.5091 54.2492 51.5955 53.7348 51.6866C53.6302 51.7048 53.5209 51.7184 53.4117 51.7184C53.0567 51.7184 52.8246 51.5455 52.7335 51.1449C52.5651 50.3712 52.4149 49.5929 52.2829 48.8146C52.2147 48.414 52.3603 48.1774 52.6835 48.0499C52.8109 48.0044 52.9429 47.9726 53.0749 47.9453C53.5482 47.8542 54.0216 47.7677 54.4995 47.6904C54.5951 47.6722 54.6315 47.6266 54.6315 47.5129C54.636 46.7255 54.7407 45.9608 54.9547 45.2234C54.9865 45.1097 54.9455 45.0596 54.8682 44.9959C54.4312 44.6454 53.9897 44.2995 53.5573 43.9354C53.1796 43.6213 53.0885 43.3027 53.3207 42.8658C53.6575 42.224 54.0261 41.605 54.4085 40.9951C54.6224 40.6492 54.9364 40.6219 55.2733 40.8722C55.7147 41.2045 56.1471 41.5504 56.5795 41.9009C56.7024 42.001 56.7707 42.0055 56.8981 41.9009C57.3305 41.5504 57.7857 41.2318 58.2317 40.8995C58.2681 40.8722 58.3045 40.854 58.3455 40.8267ZM63.0062 45.7014C64.2306 46.6799 64.5993 48.5597 63.821 49.9024C63.0472 51.2451 61.4269 51.5409 60.198 50.5623C58.9736 49.5883 58.6095 47.704 59.3832 46.3613C60.157 45.0186 61.7819 44.7228 63.0062 45.7014ZM36.5666 42.3742C38.7104 44.081 39.3521 47.3718 37.9958 49.7249C36.6395 52.0734 33.7993 52.5923 31.6556 50.8809C29.5118 49.1696 28.8701 45.8789 30.2264 43.5303C31.5828 41.1817 34.4229 40.6629 36.5666 42.3742Z" fill="white"/>
</g>
<defs>
<filter id="filter0_dd_965_15964" x="-15.7745" y="-8.73218" width="118.527" height="126.727" filterUnits="userSpaceOnUse" color-interpolation-filters="sRGB">
<feFlood flood-opacity="0" result="BackgroundImageFix"/>
<feColorMatrix in="SourceAlpha" type="matrix" values="0 0 0 0 0 0 0 0 0 0 0 0 0 0 0 0 0 0 127 0" result="hardAlpha"/>
<feOffset/>
<feGaussianBlur stdDeviation="2"/>
<feColorMatrix type="matrix" values="0 0 0 0 0 0 0 0 0 0 0 0 0 0 0 0 0 0 0.05 0"/>
<feBlend mode="normal" in2="BackgroundImageFix" result="effect1_dropShadow_965_15964"/>
<feColorMatrix in="SourceAlpha" type="matrix" values="0 0 0 0 0 0 0 0 0 0 0 0 0 0 0 0 0 0 127 0" result="hardAlpha"/>
<feOffset dy="6"/>
<feGaussianBlur stdDeviation="8"/>
<feColorMatrix type="matrix" values="0 0 0 0 0 0 0 0 0 0 0 0 0 0 0 0 0 0 0.2 0"/>
<feBlend mode="normal" in2="effect1_dropShadow_965_15964" result="effect2_dropShadow_965_15964"/>
<feBlend mode="normal" in="SourceGraphic" in2="effect2_dropShadow_965_15964" result="shape"/>
</filter>
<linearGradient id="paint0_linear_965_15964" x1="62" y1="-13" x2="33" y2="79.5" gradientUnits="userSpaceOnUse">
<stop stop-color="#CE2127"/>
<stop offset="1" stop-color="#A61419"/>
</linearGradient>
<linearGradient id="paint1_linear_965_15964" x1="75.1999" y1="3.73345" x2="22.2035" y2="91.132" gradientUnits="userSpaceOnUse">
<stop stop-color="#CE191E"/>
<stop offset="0.4" stop-color="#FF4244"/>
<stop offset="1" stop-color="#FF8E3C"/>
</linearGradient>
<linearGradient id="paint2_linear_965_15964" x1="-6.93339" y1="60.8001" x2="97.2852" y2="16.1512" gradientUnits="userSpaceOnUse">
<stop stop-color="white" stop-opacity="0.35"/>
<stop offset="0.302759" stop-color="white" stop-opacity="0"/>
</linearGradient>
<clipPath id="clip0_965_15964">
<rect width="96" height="96" fill="white"/>
</clipPath>
</defs>
</svg>
