<svg width="60" height="60" viewBox="0 0 60 60" fill="none" xmlns="http://www.w3.org/2000/svg">
<g clip-path="url(#clip0_965_15965)">
<path fill-rule="evenodd" clip-rule="evenodd" d="M51.6768 55.5043L56.1848 50.9963C56.2768 50.9083 56.3689 50.8162 56.461 50.7241C58.8551 48.2339 60.0121 44.5988 59.3075 40.6033L54.0469 10.7695C53.0781 5.28471 47.7895 0.876894 42.2887 0.972977L16.126 1.42537C12.8912 1.48141 10.1248 2.69846 8.14713 4.66817L3.94348 8.87982L5.02442 8.68367C6.79395 7.30247 9.07193 6.46974 11.6942 6.4257L37.8529 5.97331C43.1254 5.88123 48.1418 10.1409 49.0546 15.3094L54.3151 45.1433C54.9757 48.9065 53.9108 52.3575 51.6568 54.7396L51.6768 55.5043Z" fill="url(#paint0_linear_965_15965)"/>
<path fill-rule="evenodd" clip-rule="evenodd" d="M11.6821 5.86921L37.8448 5.41682C43.3416 5.32074 48.6342 9.72856 49.599 15.2133L54.8596 45.0472C56.1487 52.3615 51.2044 58.4468 43.874 58.5749L17.7114 59.0273C12.2146 59.1234 6.922 54.7116 5.95717 49.2308L0.696609 19.3969C-0.592509 12.0826 4.35178 5.99732 11.6821 5.86921Z" fill="url(#paint1_linear_965_15965)"/>
<path d="M37.8621 6.41668L37.8623 6.41667C42.8582 6.32934 47.733 10.3776 48.6141 15.3866L48.6142 15.387L53.8747 45.2208C53.8747 45.2208 53.8747 45.2208 53.8747 45.2208C55.0597 51.9446 50.5574 57.4579 43.8566 57.5751L17.6941 58.0274L17.6939 58.0274C12.6983 58.1148 7.82317 54.0628 6.94202 49.0574L6.94197 49.0572L1.68143 19.2234C1.68143 19.2233 1.68142 19.2233 1.68142 19.2233C0.496435 12.4996 4.99866 6.98627 11.6994 6.86906C11.6995 6.86906 11.6995 6.86906 11.6996 6.86906L37.8621 6.41668ZM37.845 5.42692V5.42692V5.42692Z" stroke="url(#paint2_linear_965_15965)" stroke-width="2"/>
<path d="M27.5359 17.3431C34.0535 17.171 40.3029 22.2274 41.4239 28.5809L41.6281 29.7339L28.5888 30.0742L26.3509 17.3712L27.5359 17.3431ZM24.7935 22.0552L26.6271 32.4482L37.2963 32.168L37.4965 33.321C38.6175 39.6745 34.2017 45.0111 27.684 45.1833C21.1624 45.3514 14.9129 40.295 13.792 33.9455C12.675 27.592 17.0908 22.2554 23.6085 22.0873L24.7935 22.0552Z" fill="white"/>
</g>
<defs>
<linearGradient id="paint0_linear_965_15965" x1="35.5" y1="21.5" x2="40" y2="-10.5" gradientUnits="userSpaceOnUse">
<stop stop-color="#004FB8"/>
<stop offset="1" stop-color="#0088FF"/>
</linearGradient>
<linearGradient id="paint1_linear_965_15965" x1="16.6666" y1="53.3333" x2="42.3664" y2="13.2261" gradientUnits="userSpaceOnUse">
<stop stop-color="#025CD5"/>
<stop offset="1" stop-color="#33A0FF"/>
</linearGradient>
<linearGradient id="paint2_linear_965_15965" x1="50" y1="3.88886" x2="7.89815" y2="59.8096" gradientUnits="userSpaceOnUse">
<stop stop-color="white" stop-opacity="0.35"/>
<stop offset="0.233123" stop-color="white" stop-opacity="0"/>
</linearGradient>
<clipPath id="clip0_965_15965">
<rect width="60" height="60" fill="white"/>
</clipPath>
</defs>
</svg>
