<svg width="72" height="78" viewBox="0 0 72 78" fill="none" xmlns="http://www.w3.org/2000/svg">
<path fill-rule="evenodd" clip-rule="evenodd" d="M40.9157 0.61314L40.9865 0.626609L41.0134 0.629977L48.3044 1.99787L48.2673 2.46956C45.1609 1.91027 41.7782 2.52347 38.591 4.51467L13.9856 19.8918C11.425 21.4921 9.60565 24.11 8.68586 26.9604C7.75933 29.841 7.71553 33.0586 8.83073 35.8955L21.7314 68.7385C23.3385 72.8254 26.445 75.5309 30.0568 76.4203L30.4779 76.9897L23.0589 75.6016L23.0319 75.5949C19.063 74.8368 15.5826 72.0033 13.8172 67.5088L0.913093 34.6624C-1.38134 28.8201 1.02091 21.3641 6.25666 18.0926L30.862 2.71553C34.147 0.66368 37.6745 0.0235284 40.9157 0.61314Z" fill="url(#paint0_linear_965_15968)"/>
<path fill-rule="evenodd" clip-rule="evenodd" d="M13.7363 19.4975L38.345 4.1204C46.1952 -0.785172 55.4336 2.37178 58.8769 11.1351L71.0869 42.2093C73.3814 48.0515 70.9758 55.5076 65.7434 58.7791L39.5478 75.1467C32.5701 79.5064 24.3594 76.6999 21.2968 68.9103L8.3927 36.0639C6.09827 30.2216 8.50388 22.7656 13.7363 19.4975Z" fill="url(#paint1_linear_965_15968)"/>
<path d="M14.266 20.3456L14.2662 20.3455L38.8749 4.96845L38.8749 4.96844C42.5596 2.66587 46.5197 2.27952 49.9402 3.4482C53.3627 4.61757 56.3236 7.37122 57.9462 11.5008L70.1562 42.5749C72.2789 47.98 70.0273 54.921 65.2135 57.931C65.2134 57.9311 65.2133 57.9311 65.2132 57.9312L39.0179 74.2986C35.7695 76.3283 32.2845 76.6658 29.2775 75.6382C26.2686 74.61 23.6598 72.1874 22.2275 68.5446C22.2275 68.5445 22.2275 68.5445 22.2274 68.5444L9.32349 35.6983C7.20063 30.293 9.45256 23.3521 14.266 20.3456Z" fill="url(#paint2_linear_965_15968)" stroke="url(#paint3_linear_965_15968)" stroke-width="2"/>
<path d="M50.0933 27.1324C48.3851 22.7828 41.4715 28.2072 41.4715 28.2072C41.4715 28.2072 39.2007 19.8684 35.1711 22.3953L25.5015 28.4666C25.0567 28.7463 24.8479 29.3628 25.0365 29.8446L35.9797 57.6945C36.1684 58.173 36.6805 58.338 37.1253 58.0584L47.6776 51.4345C47.5226 51.1785 47.4216 50.882 47.3778 50.5518L47.3744 50.508L46.997 46.0269C46.9735 45.7743 46.9903 45.5148 47.0442 45.2554L47.0274 45.252L47.1217 44.9724C47.1217 44.9657 47.1251 44.9589 47.1251 44.9522C47.1284 44.9454 47.1318 44.9387 47.1352 44.932L51.1277 33.0858C51.3029 32.5636 51.5691 32.102 51.8925 31.7145L50.0933 27.1324ZM52.7516 33.6013L52.2564 35.0602L56.2152 36.3169L56.7071 34.858C56.9766 34.0528 56.6498 33.224 55.9827 33.0117L54.4598 32.5265C53.7894 32.3143 53.0212 32.7994 52.7516 33.6013ZM52.7078 46.7244C52.7415 46.6233 52.7011 46.5189 52.6169 46.4919L50.7908 45.9124L48.9647 45.3329C48.8804 45.3059 48.7827 45.3666 48.749 45.4677C48.7389 45.498 48.7355 45.5283 48.7389 45.5586L49.1129 50.0228C49.1297 50.1509 49.2005 50.2519 49.3151 50.2856C49.4262 50.3227 49.5509 50.2823 49.6385 50.1879L52.6573 46.8052L52.6607 46.8019C52.6809 46.7817 52.6944 46.7547 52.7078 46.7244ZM51.7645 36.5224L49.3049 43.8201L53.2604 45.0768L55.7233 37.7758L51.7645 36.5224ZM35.8079 39.3559L45.4775 33.2846C45.9223 33.0083 46.4377 33.1701 46.6264 33.6519C46.8151 34.1303 46.6062 34.7468 46.1615 35.0265L36.4918 41.0978C36.0471 41.3774 35.5316 41.2123 35.3429 40.7339C35.1543 40.2521 35.3632 39.6356 35.8079 39.3559ZM37.5161 43.7089L41.5457 41.1787C41.9904 40.899 42.5059 41.0607 42.6946 41.5425C42.8832 42.0243 42.6743 42.6409 42.2296 42.9172L38.2 45.4508C37.7553 45.7271 37.2432 45.5654 37.0545 45.0836C36.8658 44.6051 37.0713 43.9886 37.5161 43.7089Z" fill="white"/>
<defs>
<linearGradient id="paint0_linear_965_15968" x1="5.5" y1="13" x2="24" y2="42" gradientUnits="userSpaceOnUse">
<stop stop-color="#008DCE"/>
<stop offset="1" stop-color="#017BB4"/>
</linearGradient>
<linearGradient id="paint1_linear_965_15968" x1="60.4484" y1="68.3825" x2="11.246" y2="18.271" gradientUnits="userSpaceOnUse">
<stop stop-color="#00A0EA"/>
<stop offset="0.4" stop-color="#19C6FF"/>
<stop offset="1" stop-color="#52D4FF"/>
</linearGradient>
<linearGradient id="paint2_linear_965_15968" x1="60.4484" y1="68.3825" x2="11.246" y2="18.271" gradientUnits="userSpaceOnUse">
<stop stop-color="#00A0EA"/>
<stop offset="0.4" stop-color="#19C6FF"/>
<stop offset="1" stop-color="#52D4FF"/>
</linearGradient>
<linearGradient id="paint3_linear_965_15968" x1="2.5" y1="23.5" x2="64.7372" y2="37.6818" gradientUnits="userSpaceOnUse">
<stop stop-color="white" stop-opacity="0.35"/>
<stop offset="0.401042" stop-color="white" stop-opacity="0"/>
</linearGradient>
</defs>
</svg>
