<svg width="90" height="100" viewBox="0 0 90 100" fill="none" xmlns="http://www.w3.org/2000/svg">
<path fill-rule="evenodd" clip-rule="evenodd" d="M79.9294 90.0134L72.0977 95.4507C68.4906 97.9605 63.804 98.9334 58.7976 97.8006L13.9486 87.6412C6.01479 85.8421 -0.11552 77.6284 0.324262 69.3835L2.86967 21.9981C3.19396 16.0143 6.05032 11.2078 10.2927 8.45363L18.4087 2.83862L18.7907 3.32727C18.4087 3.56715 18.0355 3.82925 17.6713 4.10911C13.7843 7.0943 11.7586 11.652 11.501 16.4852L8.95556 63.8663C8.74233 67.8554 10.1328 71.8312 12.5049 75.0119C14.8549 78.1614 18.2354 80.6135 22.1002 81.4887L66.9491 91.6525C71.3292 92.6432 75.8781 92.0212 79.5918 89.5114C79.8006 89.8046 79.9294 90.0134 79.9294 90.0134Z" fill="url(#paint0_linear_965_15963)"/>
<path fill-rule="evenodd" clip-rule="evenodd" d="M31.1979 0.826132L76.0468 10.99C83.9807 12.7891 90.111 21.0028 89.6668 29.2432L87.1214 76.6287C86.535 87.6188 77.3928 94.6509 66.8114 92.2521L21.9624 82.0927C14.0286 80.2936 7.89827 72.0798 8.33806 63.835L10.8835 16.4495C11.4743 5.4594 20.6164 -1.56824 31.1979 0.826132Z" fill="url(#paint1_linear_965_15963)"/>
<path d="M88.1689 29.1628L88.169 29.1625C88.5747 21.6366 82.9211 14.0869 75.7151 12.4529L30.8668 2.28914C30.8667 2.28911 30.8665 2.28907 30.8663 2.28904C21.2162 0.105674 12.9236 6.44223 12.3813 16.53L88.1689 29.1628ZM88.1689 29.1628L85.6235 76.5482L85.6235 76.5488C85.0853 86.6368 76.7925 92.9767 67.143 90.7892L67.1428 90.7892L22.2942 80.6298C22.2941 80.6298 22.2939 80.6298 22.2938 80.6297C15.0885 78.9956 9.43449 71.4465 9.8359 63.9155C9.83591 63.9153 9.83592 63.9151 9.83593 63.9149L12.3813 16.5301L88.1689 29.1628Z" stroke="url(#paint2_linear_965_15963)" stroke-width="3"/>
<path fill-rule="evenodd" clip-rule="evenodd" d="M72.462 31.0958L72.3864 32.1664L72.0755 32.5395L63.8395 30.6604L52.8183 45.4087L51.2946 42.0193L61.3563 28.5637C65.0567 29.4077 68.7571 30.2518 72.462 31.0958ZM74.0612 29.9275L60.6011 26.8579L50.535 40.3268L44.187 26.1827L34.2986 23.9304L51.0814 58.1669L49.8598 59.6595L48.5138 59.3529L30.5093 22.62L30.5849 21.5494L33.4545 22.2024L43.423 24.4768L42.6544 22.7666L29.1944 19.7014L28.9812 22.7177L47.5853 60.6723L50.575 61.3564L73.8479 32.9438L74.0612 29.9275Z" fill="url(#paint3_linear_965_15963)"/>
<path fill-rule="evenodd" clip-rule="evenodd" d="M42.2015 50.3574C39.083 51.4857 36.5243 52.8362 36.4043 54.422C36.1644 59.082 46.0307 64.0351 69.7967 68.9127C63.502 70.192 27.4976 66.3761 26.889 54.8352C26.5825 48.9447 38.43 49.6777 42.2015 50.3574Z" fill="white"/>
<path fill-rule="evenodd" clip-rule="evenodd" d="M42.2013 50.3573C39.0829 51.4856 36.5241 52.8361 36.4042 54.4219C36.1643 59.0819 46.0305 64.035 69.7966 68.9126C58.6865 67.42 32.5483 62.84 32.7482 54.7151C32.8682 50.0996 38.4876 49.6909 42.2013 50.3573Z" fill="#99CFFF"/>
<defs>
<linearGradient id="paint0_linear_965_15963" x1="50.5" y1="62" x2="37.5" y2="103.5" gradientUnits="userSpaceOnUse">
<stop stop-color="#004FB8"/>
<stop offset="0.663516" stop-color="#0060DF"/>
<stop offset="1" stop-color="#0088FF"/>
</linearGradient>
<linearGradient id="paint1_linear_965_15963" x1="81" y1="21" x2="28.329" y2="79.5887" gradientUnits="userSpaceOnUse">
<stop stop-color="#0060DF"/>
<stop offset="0.51047" stop-color="#278DFF"/>
<stop offset="1" stop-color="#33A0FF"/>
</linearGradient>
<linearGradient id="paint2_linear_965_15963" x1="8" y1="80" x2="71.8565" y2="15.8889" gradientUnits="userSpaceOnUse">
<stop stop-color="white" stop-opacity="0.3"/>
<stop offset="0.401042" stop-color="white" stop-opacity="0"/>
</linearGradient>
<linearGradient id="paint3_linear_965_15963" x1="74" y1="44.5" x2="30.007" y2="31.5731" gradientUnits="userSpaceOnUse">
<stop offset="0.0161591" stop-color="#F39222"/>
<stop offset="1" stop-color="#FBCA17"/>
</linearGradient>
</defs>
</svg>
