<svg width="80" height="80" viewBox="0 0 80 80" fill="none" xmlns="http://www.w3.org/2000/svg">
<rect x="3.05176e-05" width="80" height="80" rx="16" fill="url(#paint0_linear_1244_7867)"/>
<rect x="1.50003" y="1.5" width="77" height="77" rx="14.5" stroke="url(#paint1_linear_1244_7867)" stroke-width="3"/>
<g clip-path="url(#clip0_1244_7867)" filter="url(#filter0_d_1244_7867)">
<path fill-rule="evenodd" clip-rule="evenodd" d="M56.7031 24.8963C56.6511 24.3849 56.2221 23.9993 55.7108 23.9993H50.5975C49.2238 19.38 44.9468 16 39.8899 16C34.8286 16 30.5516 19.38 29.1736 23.9993H23.7093C23.198 23.9993 22.769 24.3849 22.717 24.8963L18.7173 62.895C18.687 63.1767 18.778 63.4583 18.9643 63.6707C19.155 63.883 19.4237 64 19.7097 64H59.7104C59.9921 64 60.2651 63.8787 60.4557 63.6663C60.6421 63.454 60.7374 63.1767 60.7027 62.895L56.7031 24.8963ZM39.8899 31.6779C37.4069 31.6779 35.3876 29.6586 35.3876 27.1756C35.3876 24.6926 37.4069 22.6776 39.8899 22.6776C42.3729 22.6776 44.3878 24.6969 44.3878 27.1799C44.3878 29.6586 42.3729 31.6779 39.8899 31.6779ZM39.8899 28.6792C40.7175 28.6792 41.3892 28.0033 41.3892 27.1799C41.3892 26.3523 40.7175 25.6763 39.8899 25.6763C39.0622 25.6763 38.3905 26.3523 38.3905 27.1756C38.3905 28.0033 39.0622 28.6792 39.8899 28.6792ZM24.615 35.4999H29.9883L30.1313 33.2942C29.2386 31.5262 28.2116 29.1516 28.2116 27.1756V26.9979H25.512L24.615 35.4999ZM53.9081 26.9979H51.5638V27.1756C51.5638 29.1559 50.5368 31.5262 49.6441 33.2942L49.7871 35.4999H54.8051L53.9081 26.9979ZM24.2986 38.4985L23.1417 49.5008H29.0826L29.7933 38.4985H24.2986ZM22.8253 52.4994L21.9327 61.0014H28.3373L28.8876 52.4994H22.8253ZM31.3403 61.0014H48.4351L47.8848 52.4994H31.8906L31.3403 61.0014ZM51.4381 61.0014H57.4874L56.5948 52.4994H50.8878L51.4381 61.0014ZM56.2784 49.5008L55.1171 38.4985H49.9821L50.6971 49.5008H56.2784ZM32.0856 49.5008H47.6855L46.9748 38.4985H46.5675C44.8818 41.0422 42.9925 43.6031 41.0425 45.9475C40.7565 46.2898 40.3362 46.4891 39.8899 46.4891C39.4479 46.4891 39.0275 46.2898 38.7415 45.9475C36.7916 43.6291 34.8849 41.0292 33.2079 38.4985H32.8006L32.0856 49.5008ZM39.8899 41.7875C42.7065 38.1432 48.0668 30.6076 48.0668 27.1756C48.0668 22.669 44.3965 18.9986 39.8899 18.9986C35.3789 18.9986 31.7086 22.6646 31.7086 27.1756C31.7086 30.6076 37.0689 38.1432 39.8899 41.7875Z" fill="white"/>
</g>
<defs>
<filter id="filter0_d_1244_7867" x="15.71" y="16" width="48" height="49" filterUnits="userSpaceOnUse" color-interpolation-filters="sRGB">
<feFlood flood-opacity="0" result="BackgroundImageFix"/>
<feColorMatrix in="SourceAlpha" type="matrix" values="0 0 0 0 0 0 0 0 0 0 0 0 0 0 0 0 0 0 127 0" result="hardAlpha"/>
<feOffset dy="1"/>
<feColorMatrix type="matrix" values="0 0 0 0 0 0 0 0 0 0 0 0 0 0 0 0 0 0 0.08 0"/>
<feBlend mode="normal" in2="BackgroundImageFix" result="effect1_dropShadow_1244_7867"/>
<feBlend mode="normal" in="SourceGraphic" in2="effect1_dropShadow_1244_7867" result="shape"/>
</filter>
<linearGradient id="paint0_linear_1244_7867" x1="3.05176e-05" y1="0" x2="80" y2="83.5" gradientUnits="userSpaceOnUse">
<stop stop-color="#FA5242"/>
<stop offset="0.338542" stop-color="#F32916"/>
<stop offset="0.661458" stop-color="#E62311"/>
<stop offset="1" stop-color="#E62311"/>
</linearGradient>
<linearGradient id="paint1_linear_1244_7867" x1="3.05176e-05" y1="0" x2="80" y2="80" gradientUnits="userSpaceOnUse">
<stop stop-color="white" stop-opacity="0.35"/>
<stop offset="0.401042" stop-color="white" stop-opacity="0"/>
</linearGradient>
<clipPath id="clip0_1244_7867">
<rect width="48" height="48" fill="white" transform="translate(15.71 16)"/>
</clipPath>
</defs>
</svg>
