<svg width="80" height="80" viewBox="0 0 80 80" fill="none" xmlns="http://www.w3.org/2000/svg">
<g clip-path="url(#clip0_1245_7966)">
<rect x="3.05176e-05" width="80" height="80" rx="16" fill="url(#paint0_linear_1245_7966)"/>
<rect x="1.50003" y="1.5" width="77" height="77" rx="14.5" stroke="url(#paint1_linear_1245_7966)" stroke-width="3"/>
<g clip-path="url(#clip1_1245_7966)">
<path d="M50.629 20.5H59.501V32.27" stroke="white" stroke-width="3" stroke-miterlimit="2.61313" stroke-linecap="square" stroke-linejoin="round"/>
<path fill-rule="evenodd" clip-rule="evenodd" d="M55 31L59.497 38L64 31H55Z" fill="white"/>
<path d="M48 23C49.3807 23 50.5 21.8807 50.5 20.5C50.5 19.1193 49.3807 18 48 18C46.6193 18 45.5 19.1193 45.5 20.5C45.5 21.8807 46.6193 23 48 23Z" stroke="white" stroke-width="3" stroke-miterlimit="2.61313" stroke-linecap="square"/>
<path d="M31.371 59.501H22.5V51.23" stroke="white" stroke-width="3" stroke-miterlimit="2.61313" stroke-linecap="square" stroke-linejoin="round"/>
<path fill-rule="evenodd" clip-rule="evenodd" d="M27 52L22.504 45L18 52H27Z" fill="white"/>
<path d="M34 62C35.3807 62 36.5 60.8807 36.5 59.5C36.5 58.1193 35.3807 57 34 57C32.6193 57 31.5 58.1193 31.5 59.5C31.5 60.8807 32.6193 62 34 62Z" stroke="white" stroke-width="3" stroke-miterlimit="2.61313" stroke-linecap="square"/>
<path d="M29.677 17.526L27.36 17.5C27.054 17.501 26.79 17.718 26.729 18.018L26.212 21.31C25.453 21.617 24.734 22.026 24.08 22.516L20.994 21.221C20.92 21.193 20.842 21.178 20.762 21.178C20.542 21.178 20.338 21.293 20.223 21.481L17.661 25.771C17.603 25.868 17.573 25.979 17.573 26.092C17.573 26.277 17.654 26.453 17.795 26.573L20.383 28.67C20.323 29.07 20.286 29.477 20.28 29.881C20.28 29.899 20.28 29.92 20.28 29.939C20.28 30.33 20.304 30.725 20.352 31.113L17.733 33.126C17.586 33.246 17.5 33.426 17.5 33.616C17.5 33.725 17.529 33.833 17.583 33.928L20.026 38.302C20.18 38.554 20.487 38.665 20.766 38.571L23.872 37.36C24.502 37.865 25.201 38.29 25.942 38.613L26.419 41.926C26.479 42.221 26.734 42.435 27.035 42.443L29.677 42.473L32.319 42.443C32.619 42.435 32.875 42.221 32.935 41.926L33.411 38.613C34.152 38.29 34.851 37.865 35.482 37.36L38.587 38.571C38.867 38.665 39.173 38.554 39.327 38.302L41.77 33.928C41.824 33.833 41.853 33.725 41.853 33.616C41.853 33.426 41.767 33.246 41.62 33.126L39.002 31.113C39.049 30.725 39.074 30.33 39.074 29.939C39.074 29.92 39.074 29.899 39.074 29.881C39.067 29.477 39.031 29.07 38.97 28.67L41.558 26.573C41.699 26.453 41.78 26.277 41.78 26.092C41.78 25.979 41.75 25.868 41.693 25.771L39.131 21.481C39.016 21.293 38.811 21.178 38.591 21.178C38.512 21.178 38.433 21.193 38.36 21.221L35.274 22.516C34.619 22.026 33.9 21.617 33.142 21.31L32.624 18.018C32.563 17.718 32.299 17.501 31.993 17.5L29.677 17.526Z" stroke="white" stroke-width="3" stroke-miterlimit="2.61313" stroke-linecap="round"/>
<path d="M29.637 33.4871C27.72 33.4651 26.177 31.9041 26.177 29.9871C26.177 28.0541 27.744 26.4871 29.677 26.4871C29.69 26.4871 29.704 26.4871 29.716 26.4871C31.633 26.5091 33.177 28.0701 33.177 29.9871C33.177 31.9191 31.609 33.4871 29.677 33.4871C29.664 33.4871 29.649 33.4871 29.637 33.4871Z" stroke="white" stroke-width="3" stroke-miterlimit="2.61313" stroke-linecap="round" stroke-linejoin="round"/>
<path d="M52.264 43.52L50.502 43.5C50.269 43.501 50.068 43.665 50.021 43.893L49.628 46.398C49.051 46.632 48.503 46.943 48.006 47.316L45.658 46.331C45.602 46.309 45.542 46.297 45.482 46.297C45.314 46.297 45.159 46.385 45.071 46.528L43.122 49.792C43.078 49.866 43.055 49.951 43.055 50.037C43.055 50.178 43.117 50.311 43.224 50.403L45.193 51.997C45.147 52.302 45.119 52.612 45.115 52.92C45.115 52.933 45.115 52.949 45.115 52.963C45.115 53.261 45.133 53.561 45.169 53.857L43.177 55.388C43.065 55.479 43 55.616 43 55.761C43 55.844 43.022 55.926 43.063 55.999L44.922 59.326C45.039 59.518 45.272 59.603 45.485 59.531L47.847 58.61C48.327 58.994 48.859 59.317 49.423 59.563L49.785 62.083C49.831 62.308 50.025 62.471 50.254 62.477L52.264 62.5L54.274 62.477C54.502 62.471 54.697 62.308 54.743 62.083L55.105 59.563C55.669 59.317 56.201 58.994 56.68 58.61L59.043 59.531C59.256 59.603 59.489 59.518 59.606 59.326L61.465 55.999C61.506 55.926 61.528 55.844 61.528 55.761C61.528 55.616 61.463 55.479 61.351 55.388L59.359 53.857C59.395 53.561 59.413 53.261 59.413 52.963C59.413 52.949 59.413 52.933 59.413 52.92C59.408 52.612 59.381 52.302 59.334 51.997L61.303 50.403C61.411 50.311 61.473 50.178 61.473 50.037C61.473 49.951 61.45 49.866 61.406 49.792L59.457 46.528C59.369 46.385 59.214 46.297 59.046 46.297C58.986 46.297 58.926 46.309 58.87 46.331L56.522 47.316C56.024 46.943 55.477 46.632 54.9 46.398L54.506 43.893C54.46 43.665 54.259 43.501 54.026 43.5L52.264 43.52Z" stroke="white" stroke-width="3" stroke-miterlimit="2.61313" stroke-linecap="round"/>
<path d="M52.235 55.5C50.866 55.484 49.764 54.369 49.764 53C49.764 51.619 50.883 50.5 52.264 50.5C52.273 50.5 52.283 50.5 52.292 50.5C53.661 50.515 54.764 51.63 54.764 53C54.764 54.38 53.644 55.5 52.264 55.5C52.255 55.5 52.243 55.5 52.235 55.5Z" stroke="white" stroke-width="3" stroke-miterlimit="2.61313" stroke-linecap="round" stroke-linejoin="round"/>
</g>
</g>
<defs>
<linearGradient id="paint0_linear_1245_7966" x1="3.05176e-05" y1="0" x2="80" y2="83.5" gradientUnits="userSpaceOnUse">
<stop stop-color="#FA5242"/>
<stop offset="0.338542" stop-color="#F32916"/>
<stop offset="0.661458" stop-color="#E62311"/>
<stop offset="1" stop-color="#DA2110"/>
</linearGradient>
<linearGradient id="paint1_linear_1245_7966" x1="3.05176e-05" y1="0" x2="80" y2="80" gradientUnits="userSpaceOnUse">
<stop stop-color="white" stop-opacity="0.4"/>
<stop offset="0.401042" stop-color="white" stop-opacity="0"/>
</linearGradient>
<clipPath id="clip0_1245_7966">
<rect width="80" height="80" fill="white"/>
</clipPath>
<clipPath id="clip1_1245_7966">
<rect width="48" height="48" fill="white" transform="translate(16 16)"/>
</clipPath>
</defs>
</svg>
