<svg width="80" height="80" viewBox="0 0 80 80" fill="none" xmlns="http://www.w3.org/2000/svg">
<g clip-path="url(#clip0_1245_7966)">
<rect x="3.05176e-05" width="80" height="80" rx="16" fill="url(#paint0_linear_1245_7966)"/>
<rect x="1.50003" y="1.5" width="77" height="77" rx="14.5" stroke="url(#paint1_linear_1245_7966)" stroke-width="3"/>
<path d="M22.534 46.978L34.649 34.74L41.04 37.666L54.666 24.131" stroke="white" stroke-width="3" stroke-miterlimit="2.61313" stroke-linecap="round" stroke-linejoin="round"/>
<path d="M24.568 38.307C24.522 37.873 24.499 37.436 24.499 37C24.499 30.096 30.096 24.5 37 24.5C39.789 24.5 42.498 25.432 44.696 27.15" stroke="white" stroke-width="3" stroke-miterlimit="2.61313" stroke-linecap="round" stroke-linejoin="round"/>
<path d="M20.264 42.116C19.758 40.458 19.5 38.734 19.5 37C19.5 27.335 27.335 19.5 37 19.5C41.114 19.5 45.097 20.949 48.249 23.594" stroke="white" stroke-width="3" stroke-miterlimit="2.61313" stroke-linecap="round" stroke-linejoin="round"/>
<path d="M49.469 36.1281C49.49 36.4181 49.5 36.7091 49.5 37.0001C49.5 43.9031 43.903 49.5001 37 49.5001C32.689 49.5001 28.683 47.2791 26.399 43.6241" stroke="white" stroke-width="3" stroke-miterlimit="2.61313" stroke-linecap="round" stroke-linejoin="round"/>
<path d="M51.024 47.468L59.803 56.245C60.258 56.7 60.509 57.323 60.5 57.976C60.49 58.629 60.221 59.259 59.753 59.727C59.284 60.196 58.654 60.465 58.001 60.474C57.349 60.484 56.725 60.232 56.271 59.778L47.492 51.006" stroke="white" stroke-width="3" stroke-miterlimit="2.61313" stroke-linecap="round" stroke-linejoin="round"/>
<path fill-rule="evenodd" clip-rule="evenodd" d="M57.216 26.701L59 20L52.286 21.732L57.216 26.701Z" fill="white"/>
<path d="M53.822 32.176C54.271 33.745 54.5 35.368 54.5 37C54.5 46.665 46.665 54.5 37 54.5C31.398 54.5 26.135 51.818 22.842 47.286" stroke="white" stroke-width="3" stroke-miterlimit="2.61313" stroke-linecap="round" stroke-linejoin="round"/>
</g>
<defs>
<linearGradient id="paint0_linear_1245_7966" x1="3.05176e-05" y1="0" x2="80" y2="83.5" gradientUnits="userSpaceOnUse">
<stop stop-color="#FA5242"/>
<stop offset="0.338542" stop-color="#F32916"/>
<stop offset="0.661458" stop-color="#E62311"/>
<stop offset="1" stop-color="#DA2110"/>
</linearGradient>
<linearGradient id="paint1_linear_1245_7966" x1="3.05176e-05" y1="0" x2="80" y2="80" gradientUnits="userSpaceOnUse">
<stop stop-color="white" stop-opacity="0.4"/>
<stop offset="0.401042" stop-color="white" stop-opacity="0"/>
</linearGradient>
<clipPath id="clip0_1245_7966">
<rect width="80" height="80" fill="white"/>
</clipPath>
</defs>
</svg>
