<svg width="80" height="80" viewBox="0 0 80 80" fill="none" xmlns="http://www.w3.org/2000/svg">
<g clip-path="url(#clip0_1245_7966)">
<rect x="3.05176e-05" width="80" height="80" rx="16" fill="url(#paint0_linear_1245_7966)"/>
<rect x="1.50003" y="1.5" width="77" height="77" rx="14.5" stroke="url(#paint1_linear_1245_7966)" stroke-width="3"/>
<g clip-path="url(#clip1_1245_7966)">
<path d="M47.5015 25.0979V17.5034H19.5027V53.4995H38.4966" stroke="white" stroke-width="2.99903" stroke-miterlimit="2.61313" stroke-linejoin="round"/>
<path d="M19.5027 29.4995H47.5015V39.1011" stroke="white" stroke-width="2.99903" stroke-miterlimit="2.61313" stroke-linejoin="round"/>
<path d="M19.5027 41.4956H42.4953" stroke="white" stroke-width="2.99903" stroke-miterlimit="2.61313"/>
<path d="M23.9974 23.5015H30.0032" stroke="white" stroke-width="2.99903" stroke-miterlimit="2.61313"/>
<path d="M37.001 23.5014C37.001 24.6018 36.102 25.5008 35.0016 25.5008C33.8934 25.5008 33.0023 24.6018 33.0023 23.5014C33.0023 22.3933 33.8934 21.5021 35.0016 21.5021C36.102 21.5021 37.001 22.3933 37.001 23.5014Z" fill="white"/>
<path d="M42.999 23.5014C42.999 24.6018 42.1079 25.5008 40.9997 25.5008C39.8915 25.5008 39.0003 24.6018 39.0003 23.5014C39.0003 22.3933 39.8915 21.5021 40.9997 21.5021C42.1079 21.5021 42.999 22.3933 42.999 23.5014Z" fill="white"/>
<path d="M23.9974 35.4976H30.0032" stroke="white" stroke-width="2.99903" stroke-miterlimit="2.61313"/>
<path d="M37.001 35.4975C37.001 36.6057 36.102 37.4969 35.0016 37.4969C33.8934 37.4969 33.0023 36.6057 33.0023 35.4975C33.0023 34.3971 33.8934 33.4982 35.0016 33.4982C36.102 33.4982 37.001 34.3971 37.001 35.4975Z" fill="white"/>
<path d="M42.999 35.4975C42.999 36.6057 42.1079 37.4969 40.9997 37.4969C39.8915 37.4969 39.0003 36.6057 39.0003 35.4975C39.0003 34.3971 39.8915 33.4982 40.9997 33.4982C42.1079 33.4982 42.999 34.3971 42.999 35.4975Z" fill="white"/>
<path d="M23.9974 47.5015H30.0032" stroke="white" stroke-width="2.99903" stroke-miterlimit="2.61313"/>
<path d="M37.001 47.5014C37.001 48.6019 36.102 49.5008 35.0016 49.5008C33.8934 49.5008 33.0023 48.6019 33.0023 47.5014C33.0023 46.3933 33.8934 45.5021 35.0016 45.5021C36.102 45.5021 37.001 46.3933 37.001 47.5014Z" fill="white"/>
<path d="M53.2367 43.5182L51.4698 43.495C51.2373 43.495 51.0358 43.6655 50.9893 43.8902L50.5941 46.3933C50.0207 46.6335 49.4705 46.9435 48.9745 47.3155L46.6264 46.3313C46.5722 46.308 46.5102 46.2925 46.4482 46.2925C46.2854 46.2925 46.1304 46.3855 46.0375 46.525L44.0923 49.7875C44.0458 49.865 44.0226 49.9503 44.0226 50.0355C44.0226 50.175 44.0846 50.3067 44.1931 50.3997L46.1614 51.9961C46.1149 52.2984 46.0917 52.6083 46.0839 52.9183C46.0839 52.9338 46.0839 52.9493 46.0839 52.9571C46.0839 53.2593 46.0994 53.5615 46.1382 53.856L44.1466 55.3826C44.0381 55.4756 43.9684 55.6151 43.9684 55.7546C43.9684 55.8398 43.9916 55.9251 44.0303 55.9948L45.8902 59.3271C46.0065 59.5131 46.2389 59.5983 46.4559 59.5286L48.8195 58.6064C49.3 58.9939 49.8269 59.3116 50.3926 59.5596L50.7569 62.0781C50.8034 62.3029 50.9971 62.4656 51.2218 62.4734L53.2367 62.4966L55.2438 62.4734C55.4685 62.4656 55.67 62.3029 55.7087 62.0781L56.073 59.5596C56.6387 59.3116 57.1734 58.9939 57.6461 58.6064L60.0097 59.5286C60.2267 59.5983 60.4592 59.5131 60.5754 59.3271L62.4353 55.9948C62.474 55.9251 62.4973 55.8398 62.4973 55.7546C62.4973 55.6151 62.4353 55.4756 62.319 55.3826L60.3274 53.856C60.3662 53.5615 60.3817 53.2593 60.3817 52.9571C60.3817 52.9493 60.3817 52.9338 60.3817 52.9183C60.3739 52.6083 60.3507 52.2984 60.3042 51.9961L62.2725 50.3997C62.381 50.3067 62.443 50.175 62.443 50.0355C62.443 49.9503 62.4198 49.865 62.3733 49.7875L60.4282 46.525C60.3352 46.3855 60.1802 46.2925 60.0174 46.2925C59.9554 46.2925 59.8934 46.308 59.8392 46.3313L57.4911 47.3155C56.9952 46.9435 56.4449 46.6335 55.8715 46.3933L55.4763 43.8902C55.4298 43.6655 55.2283 43.495 54.9958 43.495L53.2367 43.5182Z" stroke="white" stroke-width="2.99903" stroke-miterlimit="2.61313" stroke-linecap="round"/>
<path d="M53.2057 55.4989C51.834 55.4834 50.7336 54.3675 50.7336 52.9958C50.7336 51.6164 51.8495 50.5005 53.2367 50.5005C53.2444 50.5005 53.2522 50.5005 53.2599 50.5005C54.6316 50.516 55.732 51.6242 55.732 52.9958C55.732 54.3752 54.6161 55.4989 53.2367 55.4989C53.2212 55.4989 53.2134 55.4989 53.2057 55.4989Z" stroke="white" stroke-width="2.99903" stroke-miterlimit="2.61313" stroke-linecap="round" stroke-linejoin="round"/>
</g>
</g>
<defs>
<linearGradient id="paint0_linear_1245_7966" x1="3.05176e-05" y1="0" x2="80" y2="83.5" gradientUnits="userSpaceOnUse">
<stop stop-color="#FA5242"/>
<stop offset="0.338542" stop-color="#F32916"/>
<stop offset="0.661458" stop-color="#E62311"/>
<stop offset="1" stop-color="#DA2110"/>
</linearGradient>
<linearGradient id="paint1_linear_1245_7966" x1="3.05176e-05" y1="0" x2="80" y2="80" gradientUnits="userSpaceOnUse">
<stop stop-color="white" stop-opacity="0.4"/>
<stop offset="0.401042" stop-color="white" stop-opacity="0"/>
</linearGradient>
<clipPath id="clip0_1245_7966">
<rect width="80" height="80" fill="white"/>
</clipPath>
<clipPath id="clip1_1245_7966">
<rect width="48" height="48" fill="white" transform="translate(16 16)"/>
</clipPath>
</defs>
</svg>
