<svg width="80" height="80" viewBox="0 0 80 80" fill="none" xmlns="http://www.w3.org/2000/svg">
<g clip-path="url(#clip0_1245_7966)">
<rect x="3.05176e-05" width="80" height="80" rx="16" fill="url(#paint0_linear_1245_7966)"/>
<rect x="1.50003" y="1.5" width="77" height="77" rx="14.5" stroke="url(#paint1_linear_1245_7966)" stroke-width="3"/>
<g clip-path="url(#clip1_1245_7966)">
<path fill-rule="evenodd" clip-rule="evenodd" d="M56.0951 32.3868C56.3587 32.9188 56.5944 33.4636 56.7986 34.0207L62.6431 34.6058C63.4126 34.6834 63.9936 35.3251 63.9936 36.0986V43.9072C63.9936 44.6808 63.4126 45.3224 62.6431 45.4L56.7834 45.9857C56.5775 46.5393 56.3436 47.0824 56.0822 47.6127L59.8343 52.2013C60.3237 52.7998 60.2806 53.6643 59.7334 54.2109L54.2109 59.734C53.6631 60.2812 52.7986 60.3243 52.1995 59.8337L47.3338 55.8466C46.9086 56.0251 46.4763 56.1873 46.0382 56.3308L45.4059 62.649C45.3289 63.419 44.6866 63.9994 43.9131 63.9994H36.0793C35.3058 63.9994 34.6641 63.419 34.5871 62.649L33.9554 56.3313C33.5167 56.1873 33.0844 56.0251 32.6592 55.8466L27.7929 59.8337C27.1938 60.3243 26.3287 60.2812 25.7815 59.7334L20.2648 54.2103C19.7182 53.6631 19.6751 52.7998 20.1645 52.2013L23.9172 47.6127C23.6558 47.0824 23.4219 46.5393 23.216 45.9857L17.3569 45.4C16.5874 45.3224 16.0064 44.6808 16.0064 43.9072V36.0986C16.0064 35.3251 16.5868 34.6834 17.3569 34.6058L23.2119 34.0195C23.4207 33.463 23.657 32.917 23.9212 32.3844L20.1779 27.8052C19.6879 27.2066 19.7311 26.3433 20.2777 25.7961L25.7944 20.2718C26.3415 19.7247 27.2066 19.6809 27.8052 20.1709L32.6714 24.1534C33.0943 23.9755 33.5249 23.8145 33.9612 23.6698L34.593 17.3504C34.6705 16.581 35.3122 16 36.0857 16H43.9201C44.6936 16 45.3353 16.581 45.4123 17.3504L46.0446 23.6751C46.4827 23.8197 46.915 23.9813 47.3402 24.1598L52.2059 20.1721C52.8044 19.6815 53.6701 19.7241 54.2173 20.2713L59.7404 25.7955C60.287 26.3427 60.3302 27.2066 59.8407 27.8052L56.0951 32.3868ZM28.007 40L33.6643 45.6567L35.7853 43.5357L32.2491 40L35.7853 36.4643L33.6643 34.3427L28.007 40ZM51.9924 40L46.3357 45.6567L44.2147 43.5357L47.7503 40L44.2147 36.4643L46.3357 34.3427L51.9924 40ZM42.394 33.4222C41.6188 33.1399 40.7537 33.5429 40.4713 34.3188L36.7088 44.6551C36.427 45.4309 36.8301 46.2955 37.6054 46.5778C38.3806 46.8601 39.2457 46.4571 39.5281 45.6812L43.2901 35.3443C43.5724 34.5691 43.1693 33.7045 42.394 33.4222ZM56.6598 26.957L53.0564 23.3537L47.8437 27.6261L46.1765 26.9255C45.8247 26.7773 45.4671 26.6437 45.1048 26.5241L43.2533 25.9134L42.5626 19.0001H37.4432L36.7525 25.9064L34.9033 26.5183C34.5422 26.6373 34.1852 26.7715 33.8346 26.9185L32.1692 27.6191L26.957 23.3531L23.3583 26.9564L27.4686 31.9842L26.6081 33.718C26.39 34.159 26.194 34.6105 26.0219 35.0707L25.3679 36.8184L19.0066 37.4554V42.5498L25.3761 43.1874L26.0283 44.9404C26.198 45.3983 26.3917 45.8475 26.6075 46.2855L27.4616 48.0169L23.3455 53.05L26.9436 56.6516L32.1557 52.3809L33.8212 53.0809C34.173 53.2285 34.5311 53.3627 34.8934 53.4817L36.7461 54.0919L37.4368 60.9999H42.5562L43.2481 54.0907L45.1013 53.4811C45.4636 53.3621 45.8206 53.2279 46.1718 53.0809L47.8378 52.3809L53.05 56.6522L56.6528 53.0494L52.5378 48.0169L53.3919 46.2855C53.6077 45.8475 53.8014 45.3983 53.9717 44.9404L54.6233 43.1874L60.9934 42.5498V37.4554L54.6297 36.8184L53.9822 35.0538C53.8154 34.5982 53.6217 34.152 53.4064 33.7168L52.5489 31.9842L56.6598 26.957Z" fill="white"/>
</g>
</g>
<defs>
<linearGradient id="paint0_linear_1245_7966" x1="3.05176e-05" y1="0" x2="80" y2="83.5" gradientUnits="userSpaceOnUse">
<stop stop-color="#FA5242"/>
<stop offset="0.338542" stop-color="#F32916"/>
<stop offset="0.661458" stop-color="#E62311"/>
<stop offset="1" stop-color="#DA2110"/>
</linearGradient>
<linearGradient id="paint1_linear_1245_7966" x1="3.05176e-05" y1="0" x2="80" y2="80" gradientUnits="userSpaceOnUse">
<stop stop-color="white" stop-opacity="0.4"/>
<stop offset="0.401042" stop-color="white" stop-opacity="0"/>
</linearGradient>
<clipPath id="clip0_1245_7966">
<rect width="80" height="80" fill="white"/>
</clipPath>
<clipPath id="clip1_1245_7966">
<rect width="48" height="48" fill="white" transform="translate(16 16)"/>
</clipPath>
</defs>
</svg>
