<svg width="80" height="80" viewBox="0 0 80 80" fill="none" xmlns="http://www.w3.org/2000/svg">
<g clip-path="url(#clip0_1245_7966)">
<rect x="3.05176e-05" width="80" height="80" rx="16" fill="url(#paint0_linear_1245_7966)"/>
<rect x="1.50003" y="1.5" width="77" height="77" rx="14.5" stroke="url(#paint1_linear_1245_7966)" stroke-width="3"/>
<g clip-path="url(#clip1_1245_7966)">
<path fill-rule="evenodd" clip-rule="evenodd" d="M56.095 32.386C56.358 32.919 56.594 33.464 56.799 34.021L62.643 34.606C63.413 34.683 63.993 35.325 63.993 36.098V43.907C63.993 44.681 63.412 45.323 62.643 45.4L56.783 45.986C56.578 46.54 56.343 47.083 56.082 47.612L59.834 52.201C60.324 52.8 60.281 53.664 59.734 54.211L54.211 59.734C53.663 60.281 52.798 60.324 52.2 59.834L47.333 55.846C46.908 56.025 46.476 56.187 46.038 56.331L45.406 62.649C45.329 63.419 44.687 63.999 43.913 63.999H36.079C35.306 63.999 34.664 63.419 34.587 62.649L33.955 56.331C33.517 56.187 33.085 56.025 32.659 55.846L27.793 59.834C27.194 60.324 26.329 60.281 25.781 59.733L20.265 54.21C19.718 53.663 19.675 52.8 20.165 52.201L23.917 47.612C23.656 47.083 23.422 46.54 23.216 45.986L17.357 45.4C16.587 45.323 16.007 44.681 16.007 43.907V36.098C16.007 35.325 16.587 34.683 17.357 34.606L23.212 34.019C23.421 33.463 23.657 32.917 23.921 32.384L20.178 27.805C19.688 27.207 19.731 26.343 20.277 25.796L25.794 20.272C26.341 19.724 27.206 19.681 27.805 20.171L32.671 24.154C33.095 23.976 33.525 23.814 33.961 23.67L34.593 17.35C34.67 16.581 35.312 16 36.086 16H43.92C44.694 16 45.335 16.581 45.412 17.351L46.044 23.675C46.483 23.82 46.915 23.981 47.34 24.16L52.206 20.172C52.804 19.681 53.67 19.724 54.217 20.272L59.74 25.796C60.287 26.342 60.33 27.207 59.841 27.805L56.095 32.386ZM36.507 32C36.798 32 37.069 32.082 37.298 32.225L48.506 38.696L48.515 38.701L48.531 38.71C48.97 38.972 49.265 39.451 49.265 40C49.265 40.564 48.954 41.055 48.494 41.311L37.298 47.775C37.068 47.917 36.798 48 36.507 48C35.679 48 35.008 47.328 35.008 46.5V33.5C35.008 32.671 35.679 32 36.507 32ZM56.659 26.957L53.056 23.354L47.843 27.626L46.177 26.925C45.825 26.777 45.467 26.643 45.105 26.524L43.253 25.913L42.563 19H37.443L36.752 25.906L34.903 26.518C34.542 26.638 34.185 26.771 33.834 26.919L32.169 27.619L26.957 23.353L23.358 26.956L27.469 31.984L26.608 33.718C26.39 34.159 26.194 34.611 26.022 35.071L25.368 36.818L19.006 37.456V42.55L25.376 43.187L26.028 44.94C26.198 45.398 26.391 45.847 26.607 46.285L27.462 48.017L23.346 53.05L26.943 56.651L32.155 52.381L33.821 53.081C34.173 53.228 34.531 53.362 34.893 53.482L36.746 54.092L37.437 61H42.556L43.248 54.09L45.101 53.481C45.463 53.362 45.82 53.228 46.172 53.081L47.837 52.381L53.05 56.652L56.653 53.049L52.538 48.017L53.392 46.285C53.608 45.847 53.801 45.398 53.971 44.94L54.623 43.187L60.993 42.55V37.456L54.63 36.818L53.982 35.054C53.815 34.598 53.622 34.152 53.406 33.717L52.549 31.984L56.659 26.957Z" fill="white"/>
</g>
</g>
<defs>
<linearGradient id="paint0_linear_1245_7966" x1="3.05176e-05" y1="0" x2="80" y2="83.5" gradientUnits="userSpaceOnUse">
<stop stop-color="#FA5242"/>
<stop offset="0.338542" stop-color="#F32916"/>
<stop offset="0.661458" stop-color="#E62311"/>
<stop offset="1" stop-color="#DA2110"/>
</linearGradient>
<linearGradient id="paint1_linear_1245_7966" x1="3.05176e-05" y1="0" x2="80" y2="80" gradientUnits="userSpaceOnUse">
<stop stop-color="white" stop-opacity="0.4"/>
<stop offset="0.401042" stop-color="white" stop-opacity="0"/>
</linearGradient>
<clipPath id="clip0_1245_7966">
<rect width="80" height="80" fill="white"/>
</clipPath>
<clipPath id="clip1_1245_7966">
<rect width="48" height="48" fill="white" transform="translate(16 16)"/>
</clipPath>
</defs>
</svg>
