<svg width="80" height="80" viewBox="0 0 80 80" fill="none" xmlns="http://www.w3.org/2000/svg">
<g clip-path="url(#clip0_1245_7966)">
<rect x="3.05176e-05" width="80" height="80" rx="16" fill="url(#paint0_linear_1245_7966)"/>
<rect x="1.50003" y="1.5" width="77" height="77" rx="14.5" stroke="url(#paint1_linear_1245_7966)" stroke-width="3"/>
<path fill-rule="evenodd" clip-rule="evenodd" d="M47.8743 20.0012C50.5082 20.0012 52.8197 21.7105 53.5983 24.1984L53.6956 24.539L55.0582 29.9954H58.5011C59.3283 29.9954 59.9975 30.6706 59.9975 31.4979C59.9975 32.3251 59.3283 32.9942 58.5011 32.9942H56.1835C56.5485 33.6086 57.0108 34.1804 57.6556 34.8252C59.0364 36.2121 59.8636 38.0491 59.9853 39.9956C58.5558 38.2377 56.6945 36.8447 54.5655 35.9809L54.462 35.8775C54.3039 35.7194 54.1457 35.5491 54.0058 35.3727L53.7017 35.0016H49.6322L49.4984 34.9955L49.3707 35.0016H22.3079L21.7666 35.6281L21.5233 35.8897L20.4648 36.9481C19.6315 37.7754 19.1205 38.8764 19.0171 40.0443V40.0626L18.9989 40.4579V48.9983H28.9991V44.9958C28.9991 43.8948 29.8994 43.0006 31.0004 43.0006H37.1684C36.7487 43.9434 36.4324 44.9471 36.2317 45.9994H31.998V48.9983H36.0127C36.0492 50.0324 36.2012 51.0361 36.4628 51.9972H23.999V52.9948C23.999 54.0958 23.0987 54.996 21.9977 54.996H18.0013C16.9003 54.996 16 54.0958 16 52.9948L16.0061 40.4823L16.0182 40.0261C16.1277 38.0735 16.955 36.2182 18.348 34.8252C18.9928 34.1804 19.4551 33.6086 19.82 32.9942H17.5025C16.6752 32.9942 16 32.3251 16 31.4979C16 30.6706 16.6752 29.9954 17.5025 29.9954H20.9454L22.3079 24.539L22.4053 24.1984C23.1839 21.7105 25.4954 20.0012 28.1293 20.0012H47.8743ZM46.0373 43.0006H51.9985C53.0995 43.0006 53.9997 43.8948 53.9997 44.9958V51.9972C53.9997 53.0982 53.0995 53.9984 51.9985 53.9984H46.0373C44.9119 53.2867 44.0177 52.2405 43.5007 50.9996H51.0009V45.9994H43.5007C44.0177 44.7585 44.9119 43.7062 46.0373 43.0006ZM58.1726 56.0484L63.562 61.4378C64.146 62.0217 64.146 62.9768 63.562 63.5607C62.9781 64.1447 62.0231 64.1447 61.4391 63.5607L55.9219 58.0375C54.0849 59.2784 51.8768 59.9961 49.4984 59.9961C43.1479 59.9961 38.0018 54.85 38.0018 48.4995C38.0018 42.149 43.1479 36.9968 49.4984 36.9968C55.8489 36.9968 61.0011 42.149 61.0011 48.4995C61.0011 51.3889 59.9306 54.0288 58.1726 56.0484ZM49.4984 39.9956C54.1944 39.9956 58.0023 43.8035 58.0023 48.4995C58.0023 53.1894 54.1944 56.9973 49.4984 56.9973C44.8085 56.9973 41.0006 53.1894 41.0006 48.4995C41.0006 43.8035 44.8085 39.9956 49.4984 39.9956ZM23.5063 39.9956H26.5051C27.3324 39.9956 28.0015 40.6708 28.0015 41.4981C28.0015 42.3254 27.3324 42.9945 26.5051 42.9945H23.5063C22.679 42.9945 22.0038 42.3254 22.0038 41.4981C22.0038 40.6708 22.679 39.9956 23.5063 39.9956ZM47.9047 23.0001L48.1906 23.0183H48.2149C49.4558 23.1582 50.4838 24.0585 50.788 25.269L52.4669 31.9967H23.5306L25.2216 25.2386L25.3068 24.9709L25.3129 24.9466C25.7509 23.7726 26.8701 23.0001 28.1232 23.0001H47.9047Z" fill="white"/>
</g>
<defs>
<linearGradient id="paint0_linear_1245_7966" x1="3.05176e-05" y1="0" x2="80" y2="83.5" gradientUnits="userSpaceOnUse">
<stop stop-color="#FA5242"/>
<stop offset="0.338542" stop-color="#F32916"/>
<stop offset="0.661458" stop-color="#E62311"/>
<stop offset="1" stop-color="#DA2110"/>
</linearGradient>
<linearGradient id="paint1_linear_1245_7966" x1="3.05176e-05" y1="0" x2="80" y2="80" gradientUnits="userSpaceOnUse">
<stop stop-color="white" stop-opacity="0.4"/>
<stop offset="0.401042" stop-color="white" stop-opacity="0"/>
</linearGradient>
<clipPath id="clip0_1245_7966">
<rect width="80" height="80" fill="white"/>
</clipPath>
</defs>
</svg>
