<svg width="80" height="80" viewBox="0 0 80 80" fill="none" xmlns="http://www.w3.org/2000/svg">
<g clip-path="url(#clip0_1245_7966)">
<rect x="3.05176e-05" width="80" height="80" rx="16" fill="url(#paint0_linear_1245_7966)"/>
<rect x="1.50003" y="1.5" width="77" height="77" rx="14.5" stroke="url(#paint1_linear_1245_7966)" stroke-width="3"/>
<g clip-path="url(#clip1_1245_7966)">
<path fill-rule="evenodd" clip-rule="evenodd" d="M49.873 28.999C52.508 28.999 54.818 30.712 55.597 33.199L55.695 33.543L57.057 38.998H60.5C61.325 38.998 62 39.673 62 40.498V40.499C62 41.324 61.325 41.998 60.5 41.998H58.184C58.546 42.611 59.009 43.182 59.653 43.827C61.047 45.221 61.873 47.075 61.985 49.03L61.997 49.485V56.999C61.997 58.479 61.193 59.771 59.999 60.464L59.997 61H59.999V62C59.999 63.1 59.1 64 58 64H53.999C52.899 64 51.999 63.1 51.999 62V61.088L51.997 61H28.001C28.001 61.043 28 61.085 27.997 61.128V62C27.997 63.1 27.097 64 25.997 64H21.997C20.897 64 19.997 63.1 19.997 62V61H20.002L19.999 60.464C18.806 59.771 18.002 58.479 18.002 56.999V49.485L18.014 49.03C18.125 47.075 18.952 45.221 20.346 43.827C20.99 43.182 21.452 42.611 21.815 41.998H19.497C18.672 41.998 17.997 41.324 17.997 40.499V40.498C17.997 39.673 18.672 38.998 19.497 38.998H22.942L22.966 38.899C19.679 34.64 18 30.658 18 26.904C18 20.907 22.676 16 28.501 16C34.324 16 39 20.907 39 26.904C39 27.594 38.943 28.293 38.83 28.999H49.873ZM32.302 40.999H54.466L52.785 34.271C52.482 33.057 51.455 32.158 50.212 32.02L50.188 32.017L49.904 31.999H38.029C36.97 34.863 35.052 37.857 32.302 40.999ZM28.501 22C30.984 22 33 24.016 33 26.5C33 28.985 30.984 31 28.501 31C26.016 31 24 28.985 24 26.5C24 24.016 26.016 22 28.501 22ZM30 26.5C30 25.672 29.329 25 28.501 25C27.672 25 27 25.671 27 26.5C27 27.329 27.672 28 28.501 28C29.329 28 30 27.328 30 26.5ZM28.5 40.709C31.912 37.146 36 31.966 36 26.904C36 22.71 32.799 19 28.501 19C24.202 19 21 22.709 21 26.904C21 31.969 25.085 37.145 28.5 40.709ZM51.499 49.999H54.5C55.325 49.999 55.999 50.674 55.999 51.499C55.999 52.325 55.325 52.999 54.5 52.999H51.499C50.674 52.999 49.999 52.325 49.999 51.499C49.999 50.674 50.674 49.999 51.499 49.999ZM25.497 49.999H28.498C29.323 49.999 29.998 50.674 29.998 51.499C29.998 52.325 29.323 52.999 28.498 52.999H25.497C24.672 52.999 23.997 52.325 23.997 51.499C23.997 50.674 24.672 49.999 25.497 49.999ZM32.028 55.999L31.855 56.01C31.364 56.077 30.997 56.502 30.997 56.999V57.999H20.997V49.462L21.015 49.066L21.017 49.046C21.12 47.875 21.63 46.779 22.463 45.948L23.521 44.893L23.766 44.632L24.308 44.002H55.704L56.004 44.372C56.148 44.55 56.301 44.72 56.463 44.882L57.547 45.964L57.816 46.256L57.829 46.273C58.585 47.173 58.998 48.31 58.998 49.486V57.999H48.997V56.999C48.997 56.447 48.549 55.999 47.997 55.999H32.028Z" fill="white"/>
</g>
</g>
<defs>
<linearGradient id="paint0_linear_1245_7966" x1="3.05176e-05" y1="0" x2="80" y2="83.5" gradientUnits="userSpaceOnUse">
<stop stop-color="#FA5242"/>
<stop offset="0.338542" stop-color="#F32916"/>
<stop offset="0.661458" stop-color="#E62311"/>
<stop offset="1" stop-color="#DA2110"/>
</linearGradient>
<linearGradient id="paint1_linear_1245_7966" x1="3.05176e-05" y1="0" x2="80" y2="80" gradientUnits="userSpaceOnUse">
<stop stop-color="white" stop-opacity="0.4"/>
<stop offset="0.401042" stop-color="white" stop-opacity="0"/>
</linearGradient>
<clipPath id="clip0_1245_7966">
<rect width="80" height="80" fill="white"/>
</clipPath>
<clipPath id="clip1_1245_7966">
<rect width="48" height="48" fill="white" transform="translate(16 16)"/>
</clipPath>
</defs>
</svg>
