<svg width="80" height="80" viewBox="0 0 80 80" fill="none" xmlns="http://www.w3.org/2000/svg">
<g clip-path="url(#clip0_1245_7966)">
<rect x="3.05176e-05" width="80" height="80" rx="16" fill="url(#paint0_linear_1245_7966)"/>
<rect x="1.50003" y="1.5" width="77" height="77" rx="14.5" stroke="url(#paint1_linear_1245_7966)" stroke-width="3"/>
<g clip-path="url(#clip1_1245_7966)">
<path d="M29.739 28.62L36.035 34.916L33.913 37.037L27.617 30.741L29.739 28.62Z" fill="white"/>
<path d="M39.535 34.339L44.277 25.379L46.929 26.782L42.188 35.742L39.535 34.339Z" fill="white"/>
<path d="M43.654 39.0021L54.644 41.1991L54.056 44.1421L43.065 41.9441L43.654 39.0021Z" fill="white"/>
<path fill-rule="evenodd" clip-rule="evenodd" d="M48.922 17.189C45.989 16.403 42.974 18.143 42.188 21.077C41.402 24.01 43.143 27.025 46.076 27.811C49.009 28.597 52.025 26.856 52.811 23.923C53.597 20.99 51.856 17.975 48.922 17.189ZM48.146 20.086C46.818 19.731 45.442 20.526 45.086 21.854C44.73 23.181 45.525 24.558 46.853 24.914C48.18 25.269 49.557 24.475 49.913 23.147C50.269 21.819 49.474 20.442 48.146 20.086Z" fill="white"/>
<path fill-rule="evenodd" clip-rule="evenodd" d="M57.077 38.188C54.144 38.974 52.403 41.989 53.189 44.922C53.975 47.856 56.99 49.596 59.923 48.81C62.857 48.024 64.598 45.009 63.811 42.076C63.025 39.143 60.01 37.402 57.077 38.188ZM57.853 41.085C56.526 41.441 55.731 42.818 56.086 44.145C56.442 45.473 57.819 46.268 59.147 45.913C60.475 45.557 61.269 44.18 60.914 42.852C60.558 41.524 59.181 40.73 57.853 41.085Z" fill="white"/>
<path d="M33.307 40.552L34.711 43.204L26.027 47.8L24.623 45.148L33.307 40.552Z" fill="white"/>
<path d="M38.086 44.8221L41.012 44.1591L43.069 53.2291L40.143 53.8921L38.086 44.8221Z" fill="white"/>
<path fill-rule="evenodd" clip-rule="evenodd" d="M16.189 49.922C15.403 46.989 17.144 43.974 20.077 43.188C23.01 42.402 26.025 44.143 26.811 47.076C27.597 50.009 25.856 53.025 22.923 53.811C19.99 54.597 16.975 52.856 16.189 49.922ZM19.086 49.146C19.442 50.474 20.819 51.269 22.147 50.913C23.474 50.557 24.269 49.18 23.914 47.853C23.558 46.525 22.181 45.73 20.854 46.086C19.525 46.442 18.731 47.818 19.086 49.146Z" fill="white"/>
<path fill-rule="evenodd" clip-rule="evenodd" d="M43.095 34.9051C40.557 32.3671 36.441 32.3671 33.903 34.9051C31.364 37.4431 31.364 41.5591 33.903 44.0971C36.441 46.6361 40.557 46.6361 43.095 44.0971C45.633 41.5591 45.634 37.4431 43.095 34.9051ZM40.974 37.0261C39.607 35.6581 37.391 35.6581 36.024 37.0261C34.656 38.3931 34.656 40.6091 36.024 41.9761C37.391 43.3441 39.607 43.3431 40.974 41.9761C42.342 40.6091 42.341 38.3941 40.974 37.0261Z" fill="white"/>
<path fill-rule="evenodd" clip-rule="evenodd" d="M26.921 21.1891C23.988 20.4031 20.973 22.1441 20.187 25.0771C19.4 28.0101 21.141 31.0261 24.075 31.8111C27.008 32.5981 30.023 30.8571 30.809 27.9231C31.595 24.9901 29.854 21.9751 26.921 21.1891ZM26.144 24.0871C24.816 23.7311 23.44 24.5261 23.084 25.8541C22.728 27.1821 23.523 28.5581 24.851 28.9141C26.179 29.2701 27.556 28.4751 27.911 27.1471C28.267 25.8191 27.472 24.4431 26.144 24.0871Z" fill="white"/>
<path fill-rule="evenodd" clip-rule="evenodd" d="M41.076 52.1891C38.142 52.9751 36.402 55.9901 37.188 58.9231C37.974 61.8571 40.989 63.5971 43.922 62.8111C46.856 62.0251 48.596 59.0101 47.81 56.0771C47.024 53.1441 44.009 51.4031 41.076 52.1891ZM41.852 55.0861C40.524 55.4421 39.73 56.8191 40.085 58.1461C40.441 59.4741 41.818 60.2691 43.146 59.9141C44.473 59.5581 45.268 58.1811 44.912 56.8531C44.556 55.5251 43.18 54.7311 41.852 55.0861Z" fill="white"/>
</g>
</g>
<defs>
<linearGradient id="paint0_linear_1245_7966" x1="3.05176e-05" y1="0" x2="80" y2="83.5" gradientUnits="userSpaceOnUse">
<stop stop-color="#FA5242"/>
<stop offset="0.338542" stop-color="#F32916"/>
<stop offset="0.661458" stop-color="#E62311"/>
<stop offset="1" stop-color="#DA2110"/>
</linearGradient>
<linearGradient id="paint1_linear_1245_7966" x1="3.05176e-05" y1="0" x2="80" y2="80" gradientUnits="userSpaceOnUse">
<stop stop-color="white" stop-opacity="0.4"/>
<stop offset="0.401042" stop-color="white" stop-opacity="0"/>
</linearGradient>
<clipPath id="clip0_1245_7966">
<rect width="80" height="80" fill="white"/>
</clipPath>
<clipPath id="clip1_1245_7966">
<rect width="48" height="48" fill="white" transform="translate(16 16)"/>
</clipPath>
</defs>
</svg>
