<svg width="80" height="80" viewBox="0 0 80 80" fill="none" xmlns="http://www.w3.org/2000/svg">
<g clip-path="url(#clip0_1245_7966)">
<rect x="3.05176e-05" width="80" height="80" rx="16" fill="url(#paint0_linear_1245_7966)"/>
<rect x="1.50003" y="1.5" width="77" height="77" rx="14.5" stroke="url(#paint1_linear_1245_7966)" stroke-width="3"/>
<path d="M40 66C54.3594 66 66 54.3594 66 40C66 25.6406 54.3594 14 40 14C25.6406 14 14 25.6406 14 40C14 54.3594 25.6406 66 40 66Z" fill="white"/>
<path fill-rule="evenodd" clip-rule="evenodd" d="M25.4386 20.3319C25.4386 20.3319 14.2478 29.8002 16.2736 44.1327C16.813 47.299 18.1391 50.2791 20.1303 52.7994C23.6414 54.9162 27.7364 55.8574 31.8194 55.4861C31.8194 55.4861 19.3286 50.2427 19.2311 36.3219C19.6991 40.8618 21.6817 45.1121 24.8594 48.388C28.0371 51.664 32.225 53.775 36.7486 54.3811C39.0845 53.4984 41.2754 52.2715 43.2486 50.7411C43.2486 50.7411 32.5561 50.7411 26.9986 43.5044C26.9986 43.5044 17.6169 33.0827 25.4386 20.3319Z" fill="url(#paint2_linear_1245_7966)"/>
<path fill-rule="evenodd" clip-rule="evenodd" d="M54.5586 59.6352C57.991 56.7731 60.6348 53.0811 62.2389 48.9097C63.8429 44.7384 64.354 40.2263 63.7236 35.8018C63.1832 32.6338 61.8531 29.6531 59.8561 27.1352C56.3417 25.0395 52.2513 24.1175 48.1778 24.5027C48.1778 24.5027 60.6686 29.7135 60.7553 43.6452C60.2896 39.1062 58.3092 34.8561 55.1333 31.58C51.9574 28.3039 47.7709 26.1925 43.2486 25.586C40.9118 26.4667 38.7206 27.6938 36.7486 29.226C36.7486 29.226 47.4411 29.226 52.9986 36.4518C52.9986 36.4518 62.3803 46.8735 54.5586 59.6352Z" fill="url(#paint3_linear_1245_7966)"/>
<path fill-rule="evenodd" clip-rule="evenodd" d="M59.6178 25.6403C59.6178 25.6403 50.832 14.1353 35.8061 16.4753C32.6402 17.0223 29.6611 18.3518 27.1395 20.3428C25.0363 23.8546 24.1066 27.9452 24.4853 32.0211C24.4853 32.0211 29.707 19.5303 43.6278 19.4111C39.0824 19.8788 34.8274 21.8654 31.5505 25.05C28.2735 28.2345 26.1661 32.4309 25.5686 36.9611C26.4494 39.298 27.6764 41.4891 29.2086 43.4611C29.2086 43.4611 29.2086 32.7686 36.4453 27.2111C36.4453 27.1678 46.867 17.8295 59.6178 25.6403Z" fill="url(#paint4_linear_1245_7966)"/>
<path fill-rule="evenodd" clip-rule="evenodd" d="M20.6828 54.4136C23.5462 57.8444 27.2384 60.487 31.4093 62.0909C35.5803 63.6949 40.0918 64.2069 44.5161 63.5786C47.6821 63.0316 50.6612 61.7021 53.1828 59.7111C55.2784 56.1968 56.2005 52.1063 55.8153 48.0328C55.8153 48.0328 50.5936 60.5128 36.6728 60.5778C41.2079 60.1112 45.4544 58.1334 48.7298 54.9621C52.0052 51.7909 54.1192 47.6105 54.7319 43.0928C53.8501 40.7564 52.6232 38.5654 51.0919 36.5928C51.0919 36.5928 51.0919 47.2853 43.8553 52.8428C43.8553 52.8861 33.4986 62.2244 20.6828 54.4136Z" fill="url(#paint5_linear_1245_7966)"/>
<path fill-rule="evenodd" clip-rule="evenodd" d="M33.4986 36.4953C33.9121 36.527 34.2986 36.7126 34.582 37.0153C34.9531 37.3975 35.2768 37.8231 35.5461 38.2828L40.6486 47.5778L40.9845 47.5236H41.082L46.1845 38.727V38.6403C46.3803 38.3535 46.5976 38.0819 46.8345 37.8278C47.2502 37.328 47.7671 36.9218 48.3511 36.6361H48.4486C48.5768 36.5878 48.7125 36.5621 48.8495 36.5603H49.0228V35.997H44.007V36.5603H44.1695C44.5992 36.5396 45.0233 36.6656 45.372 36.9178C45.5105 37.0242 45.6213 37.1625 45.6949 37.321C45.7685 37.4794 45.8026 37.6533 45.7945 37.8278C45.7953 38.0828 45.728 38.3334 45.5995 38.5536L41.927 44.837L38.4061 38.5536C38.2978 38.3695 38.222 38.2178 38.1678 38.1095C38.1366 38.0545 38.1112 37.9964 38.092 37.9361C38.1958 37.5545 38.4246 37.2188 38.742 36.9828C39.087 36.6705 39.5333 36.4935 39.9986 36.4845H40.172V35.9211H33.2928V36.4628H33.412L33.4986 36.4953ZM35.297 36.9286C35.1619 36.7645 35.0093 36.6156 34.842 36.4845H37.7345C37.3113 36.8253 37.0078 37.292 36.8678 37.817V37.882C36.9075 38.1975 37.0068 38.5026 37.1603 38.7811L41.1903 45.877V45.9961V46.1045L40.8761 46.6461L36.012 37.9795C35.8172 37.6353 35.5925 37.309 35.3403 37.0045L35.297 36.9286ZM45.8595 36.4845H46.8886C46.6611 36.8203 46.4878 37.0911 46.3578 37.297C46.2512 36.9939 46.0813 36.7169 45.8595 36.4845Z" fill="#A5A7AA"/>
<path fill-rule="evenodd" clip-rule="evenodd" d="M33.1844 36.4952C33.5577 36.5568 33.9004 36.7395 34.1594 37.0152C34.5301 37.4005 34.8571 37.8256 35.1344 38.2827L40.3128 47.5777L40.7244 47.5127L45.8378 38.6944C45.8399 38.6728 45.8399 38.651 45.8378 38.6294C46.0395 38.3474 46.2603 38.0795 46.4986 37.8277C46.9233 37.3299 47.4425 36.9212 48.0261 36.6252C48.1858 36.5659 48.3541 36.533 48.5244 36.5277H48.6869V35.9644H43.6711V36.5277H43.8444C44.2707 36.5086 44.6908 36.6346 45.0361 36.8852C45.1747 36.9916 45.2855 37.1299 45.3591 37.2884C45.4326 37.4468 45.4668 37.6207 45.4586 37.7952C45.4595 38.0503 45.3922 38.3009 45.2636 38.5211L41.6019 44.8044L38.0703 38.5211C37.9619 38.3369 37.8861 38.1852 37.8319 38.0769L37.7561 37.8277C37.8614 37.4469 38.09 37.1116 38.4061 36.8744C38.7667 36.5918 39.2157 36.4459 39.6736 36.4627H39.8361V35.8994H32.9569V36.4411H33.1844V36.4952ZM34.9286 36.9177C34.7905 36.7597 34.6382 36.6146 34.4736 36.4844H37.3661C36.943 36.8252 36.6394 37.2919 36.4994 37.8169V37.8819C36.5378 38.1993 36.641 38.5053 36.8028 38.7811L40.8219 45.8769V45.9961V46.1044L40.5078 46.6461L35.6436 37.9794C35.4515 37.6336 35.2266 37.3071 34.9719 37.0044V36.9394L34.9286 36.9177ZM45.5019 36.4844H46.4986L45.9678 37.2969C45.8653 36.9943 45.6991 36.7172 45.4803 36.4844H45.5019Z" fill="#404040"/>
</g>
<defs>
<linearGradient id="paint0_linear_1245_7966" x1="3.05176e-05" y1="0" x2="80" y2="83.5" gradientUnits="userSpaceOnUse">
<stop stop-color="#FA5242"/>
<stop offset="0.338542" stop-color="#F32916"/>
<stop offset="0.661458" stop-color="#E62311"/>
<stop offset="1" stop-color="#DA2110"/>
</linearGradient>
<linearGradient id="paint1_linear_1245_7966" x1="3.05176e-05" y1="0" x2="80" y2="80" gradientUnits="userSpaceOnUse">
<stop stop-color="white" stop-opacity="0.4"/>
<stop offset="0.401042" stop-color="white" stop-opacity="0"/>
</linearGradient>
<linearGradient id="paint2_linear_1245_7966" x1="31.6569" y1="52.1386" x2="17.7903" y2="23.9827" gradientUnits="userSpaceOnUse">
<stop stop-color="#4D4C4C"/>
<stop offset="1" stop-color="#000002"/>
</linearGradient>
<linearGradient id="paint3_linear_1245_7966" x1="49.6186" y1="30.1143" x2="60.2136" y2="67.5435" gradientUnits="userSpaceOnUse">
<stop stop-color="#4D4C4C"/>
<stop offset="1" stop-color="#000002"/>
</linearGradient>
<linearGradient id="paint4_linear_1245_7966" x1="24.8428" y1="29.8003" x2="59.6178" y2="29.8003" gradientUnits="userSpaceOnUse">
<stop stop-color="#E62311"/>
<stop offset="1" stop-color="#C41D0E"/>
</linearGradient>
<linearGradient id="paint5_linear_1245_7966" x1="57.8411" y1="47.5236" x2="23.6078" y2="56.4394" gradientUnits="userSpaceOnUse">
<stop stop-color="#E62311"/>
<stop offset="1" stop-color="#C41D0E"/>
</linearGradient>
<clipPath id="clip0_1245_7966">
<rect width="80" height="80" fill="white"/>
</clipPath>
</defs>
</svg>
