<svg width="80" height="80" viewBox="0 0 80 80" fill="none" xmlns="http://www.w3.org/2000/svg">
<g clip-path="url(#clip0_1242_7814)">
<rect x="3.05176e-05" width="80" height="80" rx="16" fill="url(#paint0_linear_1242_7814)"/>
<rect x="1.50003" y="1.5" width="77" height="77" rx="14.5" stroke="url(#paint1_linear_1242_7814)" stroke-width="3"/>
<path fill-rule="evenodd" clip-rule="evenodd" d="M43.2181 14.4394C48.1553 15.3809 52.4578 18.1097 55.4284 21.9266C53.7631 22.6369 51.5506 23.2309 48.9663 23.6575C47.675 19.4387 45.6459 16.1491 43.2181 14.4394ZM20.9281 72.0756V62.8647H24.1244V60.485H14.7928V62.8647H17.9891V72.0756H20.9281ZM33.2316 72.0756V62.8647H36.4281V60.485H27.0962V62.8647H30.2928V72.0756H33.2316ZM44.6113 72.2759C47.5997 72.2759 49.735 70.4609 49.8722 67.7059H47.0375C46.8512 69.0628 45.9109 69.9156 44.6197 69.9156C42.9966 69.9156 41.9853 68.5422 41.9853 66.2694C41.9853 64.0216 43.005 62.6481 44.6113 62.6481C45.9053 62.6481 46.8759 63.5472 47.0213 64.9125H49.8556C49.7678 62.1738 47.5419 60.285 44.6113 60.285C41.1572 60.285 38.9806 62.4944 38.9806 66.2775C38.9806 70.0691 41.1409 72.2759 44.6113 72.2759ZM63.9878 72.0756V60.485H61.0491V65.0331H56.4325V60.485H53.4828V72.0756H56.4325V67.41H61.0491V72.0756H63.9878ZM64.8125 25.5278C66.0019 25.7397 66.7941 26.8759 66.5822 28.065C66.37 29.2544 65.2341 30.0469 64.0447 29.8347C62.8553 29.6228 62.0631 28.4869 62.275 27.2975C62.4872 26.1081 63.6231 25.3159 64.8125 25.5278ZM21.8053 54.7766C20.6694 55.1875 19.4153 54.6 19.0041 53.4641C18.5928 52.3278 19.1806 51.0738 20.3166 50.6628C21.4525 50.2516 22.7069 50.8391 23.1178 51.975C23.5291 53.1113 22.9412 54.3653 21.8053 54.7766ZM15.1475 22.6809C14.4563 21.69 14.6994 20.3266 15.6903 19.6353C16.6813 18.9441 18.0447 19.1872 18.7359 20.1781C19.4269 21.1691 19.1838 22.5325 18.1931 23.2237C17.2022 23.9147 15.8388 23.6719 15.1475 22.6809ZM45.4659 8.69687L46.9753 9.10125C47.2244 9.16813 47.3734 9.42625 47.3066 9.67531C47.24 9.92406 46.9819 10.0737 46.7328 10.0069L45.2234 9.6025C44.9741 9.53563 44.825 9.2775 44.8919 9.02844C44.9588 8.77937 45.2169 8.63 45.4659 8.69687ZM51.9088 11.145L53.2622 11.9263C53.4853 12.055 53.5625 12.3431 53.4338 12.5666C53.3047 12.7897 53.0169 12.8669 52.7934 12.7381L51.44 11.9569C51.2169 11.8278 51.1397 11.5397 51.2684 11.3166C51.3975 11.0931 51.6856 11.0159 51.9088 11.145ZM57.4984 15.1772L58.6034 16.2819C58.7859 16.4644 58.7859 16.7625 58.6034 16.9447C58.4212 17.1272 58.1231 17.1272 57.9406 16.9447L56.8356 15.84C56.6534 15.6575 56.6534 15.3594 56.8356 15.1772L56.8359 15.1769C57.0181 14.9947 57.3163 14.9947 57.4984 15.1772ZM65.7806 33.6091V35.1716C65.7806 35.4294 65.5697 35.6403 65.3119 35.6403C65.0541 35.6403 64.8431 35.4294 64.8431 35.1716V33.6091C64.8431 33.3509 65.0541 33.1403 65.3119 33.1403C65.5697 33.1403 65.7806 33.3509 65.7806 33.6091ZM65.0837 40.4659L64.6794 41.9753C64.6125 42.2244 64.3544 42.3734 64.1053 42.3066C63.8563 42.24 63.7069 41.9819 63.7737 41.7328L64.1781 40.2234C64.245 39.9741 64.5031 39.825 64.7522 39.8919C65.0013 39.9588 65.1503 40.2169 65.0837 40.4659ZM62.6356 46.9088L61.8544 48.2622C61.7256 48.4853 61.4375 48.5625 61.2141 48.4334C60.9909 48.3047 60.9138 48.0169 61.0425 47.7934L61.8238 46.44C61.9528 46.2166 62.2406 46.1397 62.4641 46.2684C62.6875 46.3975 62.7647 46.6856 62.6356 46.9088ZM58.6034 52.4984L57.4988 53.6034C57.3163 53.7859 57.0181 53.7859 56.8359 53.6034C56.6534 53.4212 56.6534 53.1231 56.8359 52.9406L57.9406 51.8356C58.1231 51.6534 58.4212 51.6534 58.6034 51.8356L58.6038 51.8359C58.7859 52.0181 58.7859 52.3163 58.6034 52.4984ZM53.2622 56.8544L51.9091 57.6356C51.6856 57.7647 51.3975 57.6875 51.2688 57.4641C51.1397 57.2406 51.2169 56.9528 51.44 56.8238L52.7934 56.0425C53.0169 55.9134 53.3047 55.9906 53.4338 56.2141C53.5625 56.4375 53.4856 56.7253 53.2622 56.8544ZM14.1016 41.9753L13.6969 40.4659C13.6303 40.2169 13.7794 39.9588 14.0284 39.8919C14.2775 39.8253 14.5356 39.9741 14.6025 40.2234L15.0069 41.7328C15.0738 41.9819 14.9247 42.24 14.6756 42.3069C14.4266 42.3734 14.1681 42.2244 14.1016 41.9753ZM13 35.1716V33.6091C13 33.3512 13.2109 33.1403 13.4688 33.1403C13.7266 33.1403 13.9375 33.3512 13.9375 33.6091V35.1716C13.9375 35.4297 13.7266 35.6403 13.4688 35.6403C13.2109 35.6403 13 35.4297 13 35.1716ZM20.1772 16.2819L21.2819 15.1772C21.4644 14.9947 21.7625 14.9947 21.9447 15.1772C22.1272 15.3594 22.1272 15.6575 21.9447 15.84L20.84 16.945C20.6575 17.1272 20.3594 17.1272 20.1772 16.945L20.1769 16.9447C19.9947 16.7625 19.9947 16.4644 20.1772 16.2819ZM25.5184 11.9263L26.8716 11.145C27.095 11.0159 27.3831 11.0931 27.5119 11.3166C27.6409 11.5397 27.5638 11.8278 27.3406 11.9569L25.9872 12.7381C25.7638 12.8672 25.4759 12.7897 25.3469 12.5666C25.2181 12.3431 25.295 12.0553 25.5184 11.9263ZM31.8053 9.10156L33.3147 8.69687C33.5638 8.63031 33.8219 8.77937 33.8887 9.02844C33.9553 9.2775 33.8066 9.53563 33.5572 9.6025L32.0478 10.0069C31.7987 10.0737 31.5406 9.92437 31.4738 9.67562C31.4072 9.42656 31.5562 9.16812 31.8053 9.10156ZM13.6969 28.3147L14.1013 26.8053C14.1681 26.5562 14.4263 26.4072 14.6753 26.4741C14.9244 26.5406 15.0738 26.7987 15.0069 27.0478L14.6025 28.5572C14.5356 28.8066 14.2775 28.9556 14.0284 28.8887C13.7794 28.8219 13.6303 28.5637 13.6969 28.3147ZM61.8544 20.5184L62.6356 21.8716C62.7647 22.095 62.6875 22.3831 62.4641 22.5119C62.2406 22.6409 61.9528 22.5637 61.8238 22.3403L61.0425 20.9872C60.9134 20.7637 60.9909 20.4759 61.2141 20.3469C61.4375 20.2181 61.7253 20.295 61.8544 20.5184ZM38.6091 8H40.1716C40.4294 8 40.6403 8.21094 40.6403 8.46844V8.46875C40.6403 8.72656 40.4294 8.9375 40.1716 8.9375H38.6091C38.3509 8.9375 38.1403 8.72656 38.1403 8.46875V8.46844C38.1403 8.21094 38.3509 8 38.6091 8ZM39.3903 29.2337C41.1163 29.2337 42.5153 30.6331 42.5153 32.3591C42.5153 34.0847 41.1163 35.4841 39.3903 35.4841C37.6644 35.4841 36.2653 34.0847 36.2653 32.3591C36.2653 30.6331 37.6644 29.2337 39.3903 29.2337ZM43.2181 54.3413C48.1553 53.3997 52.4578 50.6706 55.4284 46.8541C53.7631 46.1438 51.5506 45.5497 48.9663 45.1231C47.675 49.3419 45.6459 52.6316 43.2181 54.3413ZM55.9197 46.1966C58.2159 42.9878 59.6013 39.0828 59.6969 34.8591H50.4809C50.4425 38.2512 49.9891 41.4475 49.2141 44.2694C51.87 44.7438 54.1619 45.4041 55.9197 46.1966ZM49.5438 34.8591H45.12C44.9094 35.3412 44.6394 35.7919 44.3197 36.2016L39.8591 42.0563V43.4547C42.8853 43.4769 45.7475 43.7128 48.3075 44.1169C49.0619 41.3566 49.5056 38.2081 49.5438 34.8591ZM33.6606 34.8591H29.2369C29.275 38.2081 29.7187 41.3566 30.4731 44.1169C33.0331 43.7128 35.8956 43.4769 38.9216 43.4547V42.0566L34.4609 36.2019L34.4606 36.2009C34.1409 35.7916 33.8712 35.3409 33.6606 34.8591ZM30.7234 44.9825C32.4319 50.5625 35.4494 54.3656 38.9216 54.6809V44.3919C35.9794 44.4122 33.2003 44.6228 30.7234 44.9825ZM39.8591 54.6809C43.3313 54.3653 46.3487 50.5625 48.0572 44.9825C45.5803 44.6228 42.8013 44.4122 39.8591 44.3919V54.6809ZM28.2997 34.8591H19.0838C19.1794 39.0828 20.5647 42.9878 22.8609 46.1966C24.6188 45.4041 26.9106 44.7434 29.5666 44.2694C28.7916 41.4475 28.3381 38.2512 28.2997 34.8591ZM23.3522 46.8541C26.3228 50.6706 30.6253 53.3997 35.5625 54.3413C33.1347 52.6316 31.1059 49.3419 29.8144 45.1231C27.23 45.5497 25.0175 46.1438 23.3522 46.8541ZM55.9197 22.5841C58.2159 25.7928 59.6013 29.6978 59.6969 33.9216H50.4809C50.4425 30.5294 49.9891 27.3331 49.2141 24.5112C51.87 24.0369 54.1619 23.3766 55.9197 22.5841ZM49.5438 33.9216H45.4431C45.5719 33.4222 45.6403 32.8984 45.6403 32.3591C45.6403 29.065 43.0919 26.3662 39.8591 26.1266V25.3259C42.8853 25.3038 45.7475 25.0678 48.3075 24.6637C49.0619 27.4241 49.5056 30.5725 49.5438 33.9216ZM33.3375 33.9216H29.2369C29.275 30.5725 29.7187 27.4241 30.4731 24.6637C33.0331 25.0678 35.8956 25.3038 38.9216 25.3259V26.1266C35.6888 26.3662 33.1403 29.065 33.1403 32.3591C33.1403 32.8984 33.2088 33.4222 33.3375 33.9216ZM30.7234 23.7981C32.4319 18.2181 35.4494 14.415 38.9216 14.0994V24.3884C35.9794 24.3684 33.2003 24.1578 30.7234 23.7981ZM39.8591 14.0994C43.3313 14.415 46.3487 18.2181 48.0572 23.7981C45.5803 24.1578 42.8013 24.3684 39.8591 24.3884V14.0994ZM28.2997 33.9216H19.0838C19.1794 29.6978 20.5647 25.7928 22.8609 22.5841C24.6188 23.3766 26.9106 24.0369 29.5666 24.5112C28.7916 27.3331 28.3381 30.5294 28.2997 33.9216ZM23.3522 21.9266C26.3228 18.1097 30.6253 15.3809 35.5625 14.4394C33.1347 16.1491 31.1059 19.4387 29.8144 23.6575C27.23 23.2309 25.0175 22.6369 23.3522 21.9266Z" fill="white"/>
</g>
<defs>
<linearGradient id="paint0_linear_1242_7814" x1="3.05176e-05" y1="0" x2="80" y2="83.5" gradientUnits="userSpaceOnUse">
<stop stop-color="#FA5242"/>
<stop offset="0.338542" stop-color="#F32916"/>
<stop offset="0.661458" stop-color="#E62311"/>
<stop offset="1" stop-color="#DA2110"/>
</linearGradient>
<linearGradient id="paint1_linear_1242_7814" x1="3.05176e-05" y1="0" x2="80" y2="80" gradientUnits="userSpaceOnUse">
<stop stop-color="white" stop-opacity="0.4"/>
<stop offset="0.401042" stop-color="white" stop-opacity="0"/>
</linearGradient>
<clipPath id="clip0_1242_7814">
<rect width="80" height="80" fill="white"/>
</clipPath>
</defs>
</svg>
