<svg width="80" height="80" viewBox="0 0 80 80" fill="none" xmlns="http://www.w3.org/2000/svg">
<g clip-path="url(#clip0_1245_7966)">
<rect x="3.05176e-05" width="80" height="80" rx="16" fill="url(#paint0_linear_1245_7966)"/>
<rect x="1.50003" y="1.5" width="77" height="77" rx="14.5" stroke="url(#paint1_linear_1245_7966)" stroke-width="3"/>
<path fill-rule="evenodd" clip-rule="evenodd" d="M18.001 61.998C18.001 62.57 18.4343 62.9166 18.963 62.7736L32.9985 58.9517L47.7361 62.9643C47.8184 62.986 47.9094 62.999 48.0004 62.999C48.0914 62.999 48.1824 62.986 48.2648 62.9643L62.036 59.216C62.5647 59.0687 62.998 58.4837 62.998 57.916V26.9979C62.998 26.4302 62.5647 26.0792 62.036 26.2266L52.4941 28.8222C52.4117 25.8279 51.2461 22.8596 48.9928 20.5716C44.3041 15.8093 36.6948 15.8093 32.0062 20.5716C30.1776 22.4263 29.0639 24.7359 28.6652 27.1452L18.963 29.7842C18.4343 29.9272 18.001 30.5122 18.001 31.0842V61.998ZM40.4995 24.5019C42.9868 24.5019 45.0018 26.5126 45.0018 28.9999C45.0018 31.4872 42.9868 33.4978 40.4995 33.4978C38.0165 33.4978 36.0015 31.4872 36.0015 28.9999C36.0015 26.5126 38.0165 24.5019 40.4995 24.5019ZM40.4995 27.5006C41.3271 27.5006 41.9988 28.1722 41.9988 28.9999C41.9988 29.8275 41.3271 30.4992 40.4995 30.4992C39.6718 30.4992 39.0002 29.8275 39.0002 28.9999C39.0002 28.1722 39.6718 27.5006 40.4995 27.5006ZM47.0038 39.6295V59.6537L33.9995 56.1134V39.6338L40.4995 45.7611L47.0038 39.6295ZM31.0009 36.5962V56.3864L20.9996 59.112V32.3409L28.5526 30.2825C28.7562 32.5272 29.5709 34.7242 31.0009 36.5962ZM52.1647 32.0245C51.7791 33.6495 51.0554 35.2095 50.0024 36.5918V59.3807L59.9994 56.6594V29.8882L52.1647 32.0245ZM46.8738 35.6298C50.3838 32.0462 50.3751 26.2482 46.8564 22.6733C43.3421 19.1069 37.6568 19.1069 34.1425 22.6733C30.6239 26.2482 30.6196 32.0462 34.1252 35.6298L40.4995 41.6401L46.8738 35.6298Z" fill="white"/>
</g>
<defs>
<linearGradient id="paint0_linear_1245_7966" x1="3.05176e-05" y1="0" x2="80" y2="83.5" gradientUnits="userSpaceOnUse">
<stop stop-color="#FA5242"/>
<stop offset="0.338542" stop-color="#F32916"/>
<stop offset="0.661458" stop-color="#E62311"/>
<stop offset="1" stop-color="#DA2110"/>
</linearGradient>
<linearGradient id="paint1_linear_1245_7966" x1="3.05176e-05" y1="0" x2="80" y2="80" gradientUnits="userSpaceOnUse">
<stop stop-color="white" stop-opacity="0.4"/>
<stop offset="0.401042" stop-color="white" stop-opacity="0"/>
</linearGradient>
<clipPath id="clip0_1245_7966">
<rect width="80" height="80" fill="white"/>
</clipPath>
</defs>
</svg>
