<svg width="80" height="80" viewBox="0 0 80 80" fill="none" xmlns="http://www.w3.org/2000/svg">
<g clip-path="url(#clip0_1245_7966)">
<rect x="3.05176e-05" width="80" height="80" rx="16" fill="url(#paint0_linear_1245_7966)"/>
<rect x="1.50003" y="1.5" width="77" height="77" rx="14.5" stroke="url(#paint1_linear_1245_7966)" stroke-width="3"/>
<path fill-rule="evenodd" clip-rule="evenodd" d="M55.0072 17.9966H19.0031C17.353 17.9966 16 19.3496 16 20.9997V50.9976C16 52.6477 17.353 54.0007 19.0031 54.0007H41.0973C41.8398 59.6439 46.658 64 52.4991 64C58.8518 64 64 58.8519 64 52.4992C64 48.143 61.5744 44.3479 57.9938 42.4008V20.9997C57.9938 19.3496 56.6573 17.9966 55.0072 17.9966ZM41.0973 50.9976H19.0031V27.0059H55.0072V41.2788C54.1987 41.0973 53.3572 40.9983 52.4991 40.9983C46.658 40.9983 41.8398 45.3544 41.0973 50.9976ZM56.0303 49.2651L58.1588 51.3771L53.9182 55.6178L51.7896 57.7463L49.6775 55.6178L46.8395 52.7962L48.968 50.6676L51.7896 53.5057L56.0303 49.2651ZM52.4991 44.0014C57.2018 44.0014 60.9969 47.813 60.9969 52.4992C60.9969 57.2018 57.2018 60.9969 52.4991 60.9969C47.813 60.9969 44.0014 57.2018 44.0014 52.4992C44.0014 47.813 47.813 44.0014 52.4991 44.0014ZM42.7308 37.5827C43.8199 38.2097 43.8199 39.7938 42.7308 40.4208L34.0021 45.4534C32.913 46.0805 31.5435 45.3049 31.5435 44.0344V33.9691C31.5435 32.6985 32.913 31.9065 34.0021 32.55L42.7308 37.5827ZM49.001 20.9997V24.0028H55.0072V20.9997H49.001ZM45.0079 24.0028V20.9997H39.0017V24.0028H45.0079ZM35.0086 24.0028V20.9997H29.0024V24.0028H35.0086ZM24.9928 24.0028V20.9997H19.0031V24.0028H24.9928Z" fill="white"/>
</g>
<defs>
<linearGradient id="paint0_linear_1245_7966" x1="3.05176e-05" y1="0" x2="80" y2="83.5" gradientUnits="userSpaceOnUse">
<stop stop-color="#FA5242"/>
<stop offset="0.338542" stop-color="#F32916"/>
<stop offset="0.661458" stop-color="#E62311"/>
<stop offset="1" stop-color="#DA2110"/>
</linearGradient>
<linearGradient id="paint1_linear_1245_7966" x1="3.05176e-05" y1="0" x2="80" y2="80" gradientUnits="userSpaceOnUse">
<stop stop-color="white" stop-opacity="0.4"/>
<stop offset="0.401042" stop-color="white" stop-opacity="0"/>
</linearGradient>
<clipPath id="clip0_1245_7966">
<rect width="80" height="80" fill="white"/>
</clipPath>
</defs>
</svg>
