<svg width="80" height="80" viewBox="0 0 80 80" fill="none" xmlns="http://www.w3.org/2000/svg">
<g clip-path="url(#clip0_1245_7966)">
<rect x="3.05176e-05" width="80" height="80" rx="16" fill="url(#paint0_linear_1245_7966)"/>
<rect x="1.50003" y="1.5" width="77" height="77" rx="14.5" stroke="url(#paint1_linear_1245_7966)" stroke-width="3"/>
<g clip-path="url(#clip1_1245_7966)">
<path d="M18.9948 24.4954C18.9948 25.334 18.3289 26 17.5025 26C16.6762 26 15.9979 25.334 15.9979 24.4954H18.9948ZM18.9948 17.5025V24.4954H15.9979V17.5025L17.5025 15.9979L18.9948 17.5025ZM15.9979 17.5025C15.9979 16.6762 16.6762 15.9979 17.5025 15.9979C18.3289 15.9979 18.9948 16.6762 18.9948 17.5025H15.9979ZM24.4954 18.9948H17.5025V15.9979H24.4954V18.9948ZM24.4954 15.9979C25.334 15.9979 26 16.6762 26 17.5025C26 18.3289 25.334 18.9948 24.4954 18.9948V15.9979Z" fill="white"/>
<path d="M32.5015 42.7626C31.6752 42.7626 30.9969 42.1953 30.9969 41.5047C30.9969 40.8017 31.6752 40.2467 32.5015 40.2467V42.7626ZM36.4974 42.7626H32.5015V40.2467H36.4974V42.7626ZM36.4974 40.2467C37.3237 40.2467 38.0021 40.8017 38.0021 41.5047C38.0021 42.1953 37.3237 42.7626 36.4974 42.7626V40.2467ZM36.0041 42.997C36.0041 43.6876 35.3258 44.2549 34.4995 44.2549C33.6732 44.2549 32.9949 43.6876 32.9949 42.997H36.0041ZM36.0041 41.5047V42.997H32.9949V41.5047H36.0041ZM32.9949 41.5047C32.9949 40.8017 33.6732 40.2467 34.4995 40.2467C35.3258 40.2467 36.0041 40.8017 36.0041 41.5047H32.9949Z" fill="white"/>
<path d="M49.2497 36.6331C49.2497 36.6331 45.8828 33.2785 45.8828 29.9116C44.1685 32.7728 34.1172 33.2785 30.7502 33.2785C30.7502 34.9558 29.9116 38.3227 29.073 40C27.3957 40 27.3957 38.3227 27.3957 38.3227C26.4584 38.3227 25.7184 39.075 25.7061 40V43.3669C25.7184 44.2919 26.4584 45.0442 27.3957 45.0442C28.3206 45.0442 29.9116 51.7656 31.5889 54.2816C32.6372 55.8479 34.1172 58.4871 40 58.4871C45.8828 58.4871 47.3628 55.8479 48.3988 54.2816C50.0884 51.7656 52.6043 45.0442 52.6043 45.0442C53.5293 45.0442 54.2939 44.2919 54.2939 43.3669V40C54.2939 39.075 53.5293 38.3227 52.6043 38.3227V33.2785C52.6043 33.2785 52.6043 24.0287 44.2055 24.0287C45.0442 22.3515 43.0586 21.5128 40 21.5128C25.7061 21.5128 25.7061 34.9558 25.7061 34.9558" stroke="white" stroke-width="2.99692" stroke-miterlimit="2.61313" stroke-linecap="round" stroke-linejoin="round"/>
<path d="M60.9928 24.4954H64.0021C64.0021 25.334 63.3237 26 62.4974 26C61.6711 26 60.9928 25.334 60.9928 24.4954ZM60.9928 17.5025L62.4974 15.9979L64.0021 17.5025V24.4954H60.9928V17.5025ZM64.0021 17.5025H60.9928C60.9928 16.6762 61.6711 15.9979 62.4974 15.9979C63.3237 15.9979 64.0021 16.6762 64.0021 17.5025ZM55.5046 18.9948V15.9979H62.4974V18.9948H55.5046ZM55.5046 15.9979V18.9948C54.666 18.9948 54 18.3289 54 17.5025C54 16.6762 54.666 15.9979 55.5046 15.9979Z" fill="white"/>
<path d="M18.9948 55.4923H15.9979C15.9979 54.666 16.6762 54 17.5025 54C18.3289 54 18.9948 54.666 18.9948 55.4923ZM18.9948 62.4974L17.5025 64.0021L15.9979 62.4974V55.4923H18.9948V62.4974ZM15.9979 62.4974H18.9948C18.9948 63.3237 18.3289 64.0021 17.5025 64.0021C16.6762 64.0021 15.9979 63.3237 15.9979 62.4974ZM24.4954 60.9928V64.0021H17.5025V60.9928H24.4954ZM24.4954 64.0021V60.9928C25.334 60.9928 26 61.6711 26 62.4974C26 63.3237 25.334 64.0021 24.4954 64.0021Z" fill="white"/>
<path d="M60.9928 55.4923C60.9928 54.666 61.6711 54 62.4974 54C63.3237 54 64.0021 54.666 64.0021 55.4923H60.9928ZM60.9928 62.4974V55.4923H64.0021V62.4974L62.4974 64.0021L60.9928 62.4974ZM64.0021 62.4974C64.0021 63.3237 63.3237 64.0021 62.4974 64.0021C61.6711 64.0021 60.9928 63.3237 60.9928 62.4974H64.0021ZM55.5046 60.9928H62.4974V64.0021H55.5046V60.9928ZM55.5046 64.0021C54.666 64.0021 54 63.3237 54 62.4974C54 61.6711 54.666 60.9928 55.5046 60.9928V64.0021Z" fill="white"/>
<path d="M43.5026 42.7626C42.6763 42.7626 41.998 42.1953 41.998 41.5047C41.998 40.8017 42.6763 40.2467 43.5026 40.2467V42.7626ZM47.4985 42.7626H43.5026V40.2467H47.4985V42.7626ZM47.4985 40.2467C48.3248 40.2467 49.0031 40.8017 49.0031 41.5047C49.0031 42.1953 48.3248 42.7626 47.4985 42.7626V40.2467ZM47.0051 42.997C47.0051 43.6876 46.3268 44.2549 45.5005 44.2549C44.6742 44.2549 43.9959 43.6876 43.9959 42.997H47.0051ZM47.0051 41.5047V42.997H43.9959V41.5047H47.0051ZM43.9959 41.5047C43.9959 40.8017 44.6742 40.2467 45.5005 40.2467C46.3268 40.2467 47.0051 40.8017 47.0051 41.5047H43.9959Z" fill="white"/>
</g>
</g>
<defs>
<linearGradient id="paint0_linear_1245_7966" x1="3.05176e-05" y1="0" x2="80" y2="83.5" gradientUnits="userSpaceOnUse">
<stop stop-color="#FA5242"/>
<stop offset="0.338542" stop-color="#F32916"/>
<stop offset="0.661458" stop-color="#E62311"/>
<stop offset="1" stop-color="#DA2110"/>
</linearGradient>
<linearGradient id="paint1_linear_1245_7966" x1="3.05176e-05" y1="0" x2="80" y2="80" gradientUnits="userSpaceOnUse">
<stop stop-color="white" stop-opacity="0.4"/>
<stop offset="0.401042" stop-color="white" stop-opacity="0"/>
</linearGradient>
<clipPath id="clip0_1245_7966">
<rect width="80" height="80" fill="white"/>
</clipPath>
<clipPath id="clip1_1245_7966">
<rect width="48" height="48" fill="white" transform="translate(16 16)"/>
</clipPath>
</defs>
</svg>
