<svg id="ee84zaoaxb2n1" xmlns="http://www.w3.org/2000/svg" xmlns:xlink="http://www.w3.org/1999/xlink" viewBox="0 0 400 360" shape-rendering="geometricPrecision" text-rendering="geometricPrecision"><style><![CDATA[#ee84zaoaxb2n5_to {animation: ee84zaoaxb2n5_to__to 6000ms linear infinite normal forwards}@keyframes ee84zaoaxb2n5_to__to { 0% {transform: translate(0px,0px)} 50% {transform: translate(0px,-10px)} 100% {transform: translate(0px,0px)} }#ee84zaoaxb2n12_to {animation: ee84zaoaxb2n12_to__to 6000ms linear infinite normal forwards}@keyframes ee84zaoaxb2n12_to__to { 0% {transform: translate(0px,0px)} 50% {transform: translate(0px,-5px)} 100% {transform: translate(0px,0px)} }#ee84zaoaxb2n39_to {animation: ee84zaoaxb2n39_to__to 6000ms linear infinite normal forwards}@keyframes ee84zaoaxb2n39_to__to { 0% {transform: translate(0px,10px)} 50% {transform: translate(0px,44px)} 100% {transform: translate(0px,10px)} }]]></style><defs><filter id="ee84zaoaxb2n13-filter" x="-400%" width="600%" y="-400%" height="600%"><feGaussianBlur id="ee84zaoaxb2n13-filter-blur-0" stdDeviation="6,6" result="result"/><feComponentTransfer id="ee84zaoaxb2n13-filter-opacity-0" result="result"><feFuncA id="ee84zaoaxb2n13-filter-opacity-0-A" type="table" tableValues="0 0.600000"/></feComponentTransfer></filter></defs><line id="ee84zaoaxb2n2" x1="244.600000" y1="268.400000" x2="301.600000" y2="301.300000" fill="none" stroke="rgb(206,70,53)" stroke-width="1.000100" stroke-miterlimit="2.613100" stroke-dasharray="1.000100,3.000200"/><g id="ee84zaoaxb2n3"><path id="ee84zaoaxb2n4" d="M345.600000,313.400000C346.600000,314,346.600000,314.900000,345.600000,315.500000L344.200000,316.300000C343.400000,316.800000,343.200000,317.500000,343.800000,318.100000C345.200000,319.500000,346.200000,320.900000,347,322.500000C347.100000,322.800000,347.400000,323,347.700000,323.200000C348.200000,323.500000,348.800000,323.600000,349.500000,323.600000L351.400000,323.600000C352.100000,323.600000,352.700000,323.800000,353.200000,324C353.700000,324.300000,353.900000,324.600000,354,325L354,328.600000C354,329.400000,352.900000,330.100000,351.500000,330.100000L349.600000,330.100000C348.600000,330.100000,347.600000,330.500000,347.300000,331C347.200000,331.100000,347,331.500000,347,331.600000C346.300000,333,345.300000,334.400000,344.100000,335.600000C343.500000,336.200000,343.700000,336.900000,344.500000,337.400000L345.900000,338.200000C346.900000,338.800000,346.900000,339.700000,345.900000,340.300000L341.500000,342.900000C340.500000,343.500000,338.900000,343.500000,337.900000,342.900000L336.500000,342.100000C335.700000,341.600000,334.400000,341.500000,333.400000,341.900000C331.100000,342.700000,328.500000,343.300000,325.900000,343.700000C324.800000,343.900000,324,344.500000,324,345.100000L324,346.200000C324,347,322.900000,347.700000,321.500000,347.700000L315,347.700000C314.300000,347.700000,313.700000,347.500000,313.200000,347.300000C312.700000,347,312.500000,346.700000,312.400000,346.300000L312.400000,345.200000C312.400000,344.800000,312.100000,344.400000,311.600000,344.200000C311.300000,344,310.900000,343.900000,310.400000,343.800000C307.700000,343.400000,305.200000,342.800000,302.800000,342C301.800000,341.700000,300.500000,341.700000,299.700000,342.200000L298.300000,343C297.300000,343.600000,295.700000,343.600000,294.700000,343L292.500000,341.700000L292.500000,341.700000L292.500000,341.700000L290.300000,340.400000C289.300000,339.800000,289.300000,338.900000,290.300000,338.300000L291.700000,337.500000C292.500000,337,292.700000,336.300000,292.100000,335.700000C290.700000,334.300000,289.700000,332.900000,288.900000,331.300000C288.800000,331,288.500000,330.800000,288.200000,330.600000C287.700000,330.300000,287.100000,330.200000,286.400000,330.200000L284.500000,330.200000C283.800000,330.200000,283.200000,330,282.700000,329.800000C282.200000,329.500000,282,329.200000,281.900000,328.800000L281.900000,325.200000C281.900000,324.400000,283,323.700000,284.400000,323.700000L286.300000,323.700000C287.500000,323.700000,288.500000,323.200000,288.800000,322.600000C289.500000,321,290.500000,319.600000,291.900000,318.200000C292.500000,317.600000,292.300000,316.900000,291.500000,316.400000L290.100000,315.600000C289.100000,315,289.100000,314.100000,290.100000,313.500000L294.500000,310.900000C295.500000,310.300000,297.100000,310.300000,298.100000,310.900000L299.500000,311.700000C300.300000,312.200000,301.600000,312.300000,302.600000,311.900000C304.900000,311.100000,307.400000,310.500000,310,310.100000L310,310.100000L310.200000,310.100000C311.300000,309.900000,312.100000,309.300000,312.100000,308.700000L312.100000,307.600000C312.100000,306.800000,313.200000,306.100000,314.600000,306.100000L320.900000,306.100000C321.600000,306.100000,322.200000,306.300000,322.700000,306.500000C323.200000,306.800000,323.400000,307.100000,323.500000,307.500000L323.500000,308.600000C323.500000,309,323.800000,309.400000,324.300000,309.600000C324.600000,309.800000,325,309.900000,325.500000,310C328.200000,310.400000,330.700000,311,333.100000,311.800000C334.100000,312.100000,335.400000,312.100000,336.200000,311.600000L337.600000,310.800000C338.600000,310.200000,340.200000,310.200000,341.200000,310.800000L345.600000,313.400000L345.600000,313.400000ZM307.400000,333.200000L307.400000,333.200000C310.100000,334.800000,313.900000,335.800000,318,335.800000C324.900000,335.800000,330.800000,332.900000,332.500000,329L332.500000,329C332.800000,328.300000,333,327.500000,332.900000,326.800000C332.900000,324.300000,331.200000,322.100000,328.500000,320.400000C325.800000,318.800000,322,317.800000,317.900000,317.800000C316.600000,317.800000,315.300000,317.900000,314,318.100000L314,318.100000C307.600000,319.100000,302.900000,322.600000,302.900000,326.800000C303,329.300000,304.700000,331.600000,307.400000,333.200000L307.400000,333.200000Z" opacity="0.14" clip-rule="evenodd" fill="rgb(153,153,153)" fill-rule="evenodd" stroke="none" stroke-width="1"/><g id="ee84zaoaxb2n5_to" transform="translate(0,0)"><g id="ee84zaoaxb2n5" transform="translate(0,0)"><path id="ee84zaoaxb2n6" d="M345.600000,297.400000C346.600000,298,346.600000,298.900000,345.600000,299.500000L344.200000,300.300000C343.400000,300.800000,343.200000,301.500000,343.800000,302.100000C345.200000,303.500000,346.200000,304.900000,347,306.500000C347.100000,306.800000,347.400000,307,347.700000,307.200000C348.200000,307.500000,348.800000,307.600000,349.500000,307.600000L351.400000,307.600000C352.100000,307.600000,352.700000,307.800000,353.200000,308C353.700000,308.300000,353.900000,308.600000,354,309L354,312.600000C354,313.400000,352.900000,314.100000,351.500000,314.100000L349.600000,314.100000C348.600000,314.100000,347.600000,314.500000,347.300000,315C347.200000,315.100000,347,315.500000,347,315.600000C346.300000,317,345.300000,318.400000,344.100000,319.600000C343.500000,320.200000,343.700000,320.900000,344.500000,321.400000L345.900000,322.200000C346.900000,322.800000,346.900000,323.700000,345.900000,324.300000L341.500000,326.900000C340.500000,327.500000,338.900000,327.500000,337.900000,326.900000L336.500000,326.100000C335.700000,325.600000,334.400000,325.500000,333.400000,325.900000C331.100000,326.700000,328.500000,327.300000,325.900000,327.700000C324.800000,327.900000,324,328.500000,324,329.100000L324,330.200000C324,331,322.900000,331.700000,321.500000,331.700000L315,331.700000C314.300000,331.700000,313.700000,331.500000,313.200000,331.300000C312.700000,331,312.500000,330.700000,312.400000,330.300000L312.400000,329.200000C312.400000,328.800000,312.100000,328.400000,311.600000,328.200000C311.300000,328,310.900000,327.900000,310.400000,327.800000C307.700000,327.400000,305.200000,326.800000,302.800000,326C301.800000,325.700000,300.500000,325.700000,299.700000,326.200000L298.300000,327C297.300000,327.600000,295.700000,327.600000,294.700000,327L292.500000,325.700000L292.500000,325.700000L292.500000,325.700000L290.300000,324.400000C289.300000,323.800000,289.300000,322.900000,290.300000,322.300000L291.700000,321.500000C292.500000,321,292.700000,320.300000,292.100000,319.700000C290.700000,318.300000,289.700000,316.900000,288.900000,315.300000C288.800000,315,288.500000,314.800000,288.200000,314.600000C287.700000,314.300000,287.100000,314.200000,286.400000,314.200000L284.500000,314.200000C283.800000,314.200000,283.200000,314,282.700000,313.800000C282.200000,313.500000,282,313.200000,281.900000,312.800000L281.900000,309.200000C281.900000,308.400000,283,307.700000,284.400000,307.700000L286.300000,307.700000C287.500000,307.700000,288.500000,307.200000,288.800000,306.600000C289.500000,305,290.500000,303.600000,291.900000,302.200000C292.500000,301.600000,292.300000,300.900000,291.500000,300.400000L290.100000,299.600000C289.100000,299,289.100000,298.100000,290.100000,297.500000L294.500000,294.900000C295.500000,294.300000,297.100000,294.300000,298.100000,294.900000L299.500000,295.700000C300.300000,296.200000,301.600000,296.300000,302.600000,295.900000C304.900000,295.100000,307.400000,294.500000,310,294.100000L310,294.100000L310.200000,294.100000C311.300000,293.900000,312.100000,293.300000,312.100000,292.700000L312.100000,291.600000C312.100000,290.800000,313.200000,290.100000,314.600000,290.100000L320.900000,290.100000C321.600000,290.100000,322.200000,290.300000,322.700000,290.500000C323.200000,290.800000,323.400000,291.100000,323.500000,291.500000L323.500000,292.600000C323.500000,293,323.800000,293.400000,324.300000,293.600000C324.600000,293.800000,325,293.900000,325.500000,294C328.200000,294.400000,330.700000,295,333.100000,295.800000C334.100000,296.100000,335.400000,296.100000,336.200000,295.600000L337.600000,294.800000C338.600000,294.200000,340.200000,294.200000,341.200000,294.800000L345.600000,297.400000L345.600000,297.400000ZM307.400000,317.200000L307.400000,317.200000C310.100000,318.800000,313.900000,319.800000,318,319.800000C324.900000,319.800000,330.800000,316.900000,332.500000,313L332.500000,313C332.800000,312.300000,333,311.500000,332.900000,310.800000C332.900000,308.300000,331.200000,306.100000,328.500000,304.400000C325.800000,302.800000,322,301.800000,317.900000,301.800000C316.600000,301.800000,315.300000,301.900000,314,302.100000L314,302.100000C307.600000,303.100000,302.900000,306.600000,302.900000,310.800000C303,313.300000,304.700000,315.600000,307.400000,317.200000L307.400000,317.200000Z" clip-rule="evenodd" fill="rgb(255,99,66)" fill-rule="evenodd" stroke="none" stroke-width="1"/><path id="ee84zaoaxb2n7" d="M336.100000,326C336.200000,326,336.200000,326.100000,336.300000,326.100000L337.700000,326.900000C338.700000,327.500000,340.300000,327.500000,341.300000,326.900000L345.700000,324.300000C346.200000,324,346.400000,323.600000,346.400000,323.300000L346.400000,324.300000L346.400000,331.200000L346.400000,331.200000L346.400000,331.200000L346.400000,331.200000C346.400000,331.600000,346.100000,331.900000,345.700000,332.200000L341.300000,334.800000C340.300000,335.400000,338.700000,335.400000,337.700000,334.800000L336.300000,334C336.200000,334,336.200000,333.900000,336.100000,333.900000L336.100000,326L336.100000,326ZM346.500000,323.300000C346.500000,323.200000,346.500000,323.200000,346.500000,323.100000L346.500000,323.100000L346.500000,323.300000Z" clip-rule="evenodd" fill="rgb(206,70,53)" fill-rule="evenodd" stroke="none" stroke-width="1"/><path id="ee84zaoaxb2n8" d="M289.700000,331.200000L289.700000,324.600000L289.700000,323.400000C289.700000,323.700000,290,324.100000,290.400000,324.300000L292.600000,325.600000L292.600000,325.600000L292.600000,325.600000L294.800000,326.900000C295.800000,327.500000,297.400000,327.500000,298.400000,326.900000L299.800000,326.100000C299.900000,326.100000,299.900000,326,300,326L300,334C299.900000,334,299.900000,334.100000,299.800000,334.100000L298.400000,334.900000C297.400000,335.500000,295.800000,335.500000,294.800000,334.900000L292.600000,333.600000L292.600000,333.600000L292.600000,333.600000L290.400000,332.300000C289.900000,332,289.700000,331.700000,289.700000,331.400000L289.700000,331.200000L289.700000,331.200000ZM350,322.100000L351.400000,322.100000C352.100000,322.100000,352.700000,321.900000,353.200000,321.700000C353.700000,321.400000,353.900000,321.100000,354,320.700000L354,320L354,320L354,317.500000L354,317.100000C354,317.100000,354,317.100000,354,317L354,312.400000L354,312.400000L354,312.600000C354,313,353.700000,313.400000,353.200000,313.600000C352.700000,313.900000,352.100000,314,351.400000,314L350,314L350,322.100000L350,322.100000ZM346.500000,331.200000L346.500000,324.600000L346.500000,323.400000C346.500000,323.700000,346.200000,324.100000,345.800000,324.300000L343.600000,325.600000L343.600000,325.600000L343.600000,325.600000L341.400000,326.900000C340.400000,327.500000,338.800000,327.500000,337.800000,326.900000L336.400000,326.100000C336.300000,326.100000,336.300000,326,336.200000,326L336.200000,334C336.300000,334,336.300000,334.100000,336.400000,334.100000L337.800000,334.900000C338.800000,335.500000,340.400000,335.500000,341.400000,334.900000L343.600000,333.600000L343.600000,333.600000L343.600000,333.600000L345.800000,332.300000C346.300000,332,346.500000,331.700000,346.500000,331.400000L346.500000,331.200000L346.500000,331.200000ZM286,322.100000L284.600000,322.100000C283.900000,322.100000,283.300000,321.900000,282.800000,321.700000C282.300000,321.400000,282.100000,321.100000,282,320.700000L282,320L282,320L282,317.500000L282,317.100000C282,317.100000,282,317.100000,282,317L282,312.400000L282,312.400000L282,312.600000C282,313,282.300000,313.400000,282.800000,313.600000C283.300000,313.900000,283.900000,314,284.600000,314L286,314L286,322.100000L286,322.100000ZM312.400000,329.700000L312.400000,330.300000C312.400000,330.700000,312.700000,331.100000,313.200000,331.300000C313.700000,331.600000,314.300000,331.700000,315,331.700000L321.300000,331.700000C322.700000,331.700000,323.800000,331.100000,323.800000,330.300000L323.800000,337C323.800000,337,323.800000,337.100000,323.800000,337.100000L323.800000,337.800000L323.800000,338.300000C323.700000,339.100000,322.600000,339.700000,321.300000,339.700000L315,339.700000C314.300000,339.700000,313.700000,339.500000,313.200000,339.300000C312.700000,339,312.500000,338.700000,312.400000,338.300000L312.400000,337.700000L312.400000,329.700000L312.400000,329.700000ZM323.800000,329.800000L323.800000,329.600000L323.800000,329.600000L323.800000,329.800000Z" clip-rule="evenodd" fill="rgb(240,82,62)" fill-rule="evenodd" stroke="none" stroke-width="1"/><path id="ee84zaoaxb2n9" d="M289.700000,331.200000L289.700000,324.600000L289.700000,323.400000C289.700000,323.700000,290,324.100000,290.400000,324.300000L292.600000,325.600000L292.600000,325.600000L292.600000,325.600000L294.800000,326.900000C295.800000,327.500000,297.400000,327.500000,298.400000,326.900000L299.800000,326.100000C299.900000,326.100000,299.900000,326,300,326L300,334C299.900000,334,299.900000,334.100000,299.800000,334.100000L298.400000,334.900000C297.400000,335.500000,295.800000,335.500000,294.800000,334.900000L292.600000,333.600000L292.600000,333.600000L292.600000,333.600000L290.400000,332.300000C289.900000,332,289.700000,331.700000,289.700000,331.400000L289.700000,331.200000Z" clip-rule="evenodd" fill="rgb(206,70,53)" fill-rule="evenodd" stroke="none" stroke-width="1"/><path id="ee84zaoaxb2n10" d="M289.700000,331.200000L289.700000,324.600000C289.500000,324.200000,289.200000,323.800000,289,323.300000C288.900000,323,288.600000,322.800000,288.300000,322.600000C287.800000,322.300000,287.200000,322.200000,286.500000,322.200000L284.600000,322.200000C283.900000,322.200000,283.300000,322,282.800000,321.800000C282.300000,321.500000,282.100000,321.200000,282,320.800000L282,320.100000L282,320.100000L282,317.600000L282,317.200000C282,317.200000,282,317.200000,282,317.100000L282,312.100000L282,312.100000L282,312.800000C282,313.200000,282.300000,313.600000,282.800000,313.800000C283.300000,314.100000,283.900000,314.200000,284.600000,314.200000L286.500000,314.200000C287.200000,314.200000,287.800000,314.400000,288.300000,314.600000C288.600000,314.800000,288.900000,315,289,315.300000C289.700000,316.900000,290.800000,318.300000,292.200000,319.700000C292.800000,320.300000,292.600000,321,291.800000,321.500000L290.400000,322.300000C289.400000,322.900000,289.400000,323.800000,290.400000,324.400000L292.600000,325.700000L292.600000,325.700000L292.600000,325.700000L294.800000,327C295.800000,327.600000,297.400000,327.600000,298.400000,327L299.800000,326.200000C300.600000,325.700000,301.900000,325.600000,302.900000,326C305.200000,326.800000,307.800000,327.400000,310.500000,327.800000C311,327.900000,311.400000,328,311.700000,328.200000C312.200000,328.500000,312.400000,328.800000,312.500000,329.200000L312.500000,330.300000C312.500000,330.700000,312.800000,331.100000,313.300000,331.300000C313.800000,331.600000,314.400000,331.700000,315.100000,331.700000L321.400000,331.700000C322.800000,331.700000,323.900000,331,323.900000,330.200000L323.900000,329.100000C323.900000,328.400000,324.700000,327.800000,325.800000,327.700000C328.500000,327.300000,331,326.700000,333.300000,325.900000C334.300000,325.600000,335.600000,325.600000,336.400000,326.100000L337.800000,326.900000C338.800000,327.500000,340.400000,327.500000,341.400000,326.900000L345.800000,324.300000C346.800000,323.700000,346.800000,322.800000,345.800000,322.200000L344.400000,321.400000C343.600000,320.900000,343.400000,320.200000,344,319.600000C345.200000,318.400000,346.200000,317,346.900000,315.600000C347,315.500000,347.100000,315.100000,347.200000,315C347.600000,314.500000,348.500000,314.100000,349.500000,314.100000L351.400000,314.100000C352.700000,314.100000,353.800000,313.500000,353.900000,312.700000L353.900000,319.300000L353.900000,319.300000L353.900000,320.600000C353.900000,321.400000,352.800000,322.100000,351.400000,322.100000L349.500000,322.100000C348.500000,322.100000,347.500000,322.500000,347.200000,323C347.100000,323.100000,346.900000,323.500000,346.900000,323.600000C346.800000,323.800000,346.700000,324,346.600000,324.200000L346.600000,331.100000L346.600000,331.100000C346.600000,331.500000,346.400000,331.900000,345.900000,332.200000L341.500000,334.800000C340.500000,335.400000,338.900000,335.400000,337.900000,334.800000L336.500000,334C335.700000,333.500000,334.400000,333.400000,333.400000,333.800000C331.100000,334.600000,328.500000,335.200000,325.900000,335.600000C324.800000,335.800000,324,336.400000,324,337L324,338.100000C324,338.900000,322.900000,339.600000,321.500000,339.600000L315,339.600000C314.300000,339.600000,313.700000,339.400000,313.200000,339.200000C312.700000,338.900000,312.500000,338.600000,312.400000,338.200000L312.400000,337.100000C312.400000,336.700000,312.100000,336.300000,311.600000,336.100000C311.300000,335.900000,310.900000,335.800000,310.400000,335.700000C307.700000,335.300000,305.200000,334.700000,302.800000,333.900000C301.800000,333.600000,300.500000,333.600000,299.700000,334.100000L298.300000,334.900000C297.300000,335.500000,295.700000,335.500000,294.700000,334.900000L292.500000,333.600000L292.500000,333.600000L292.500000,333.600000L290.300000,332.300000C289.900000,332,289.600000,331.600000,289.700000,331.200000L289.700000,331.200000ZM289.500000,305.300000L289.500000,298.400000C289.500000,298.800000,289.800000,299.100000,290.300000,299.400000L291.700000,300.200000C292.500000,300.700000,292.700000,301.400000,292.100000,302C291,303.100000,290.200000,304.200000,289.500000,305.300000L289.500000,305.300000ZM346.300000,298.400000L346.300000,305.200000C345.600000,304.100000,344.800000,303.100000,343.800000,302.100000C343.200000,301.500000,343.400000,300.800000,344.200000,300.300000L345.600000,299.500000C346.100000,299.200000,346.300000,298.800000,346.300000,298.400000L346.300000,298.400000ZM331.400000,314.800000C331.900000,314.200000,332.200000,313.700000,332.500000,313.100000L332.500000,313.100000C332.800000,312.400000,333,311.600000,332.900000,310.900000C332.900000,308.400000,331.200000,306.200000,328.500000,304.500000C325.800000,302.900000,322,301.900000,317.900000,301.900000C316.600000,301.900000,315.300000,302,314,302.200000L314,302.200000C307.600000,303.200000,302.900000,306.700000,302.900000,310.900000C302.900000,312.300000,303.500000,313.700000,304.500000,314.900000C306.400000,312.600000,309.800000,310.900000,314,310.200000L314,310.200000C315.200000,310,316.500000,309.900000,317.900000,309.900000C322,309.900000,325.800000,310.900000,328.500000,312.500000C329.700000,313.200000,330.700000,314,331.400000,314.800000Z" clip-rule="evenodd" fill="rgb(206,70,53)" fill-rule="evenodd" stroke="none" stroke-width="1"/></g></g></g><path id="ee84zaoaxb2n11" d="M297.200000,282.400000L190.900000,343.800000C186.100000,346.500000,177.700000,346.200000,172.200000,343L69.100000,283.500000C63.600000,280.300000,63,275.500000,67.800000,272.700000L174,211.400000C178.800000,208.700000,187.200000,209,192.700000,212.200000L295.800000,271.700000C301.300000,274.900000,301.900000,279.700000,297.200000,282.400000Z" opacity="0.1" clip-rule="evenodd" fill="rgb(153,153,153)" fill-rule="evenodd" stroke="none" stroke-width="1"/><g id="ee84zaoaxb2n12_to" transform="translate(0,0)"><g id="ee84zaoaxb2n12" transform="translate(0,0)"><path id="ee84zaoaxb2n13" d="M285.289506,244.008598L187.063904,187.389159L151.464130,196.572336L117.743016,236.353771L84.477768,245.525718C80.377768,246.825718,70.600000,248.500000,74.400000,251.800000C107.900000,273.700000,138.700000,293,175.300000,312.400000C176.200000,312.900000,177.300000,313.100000,178.300000,312.800000C192.400000,308.900000,206.500000,305,220.600000,301.100000C221.400000,300.900000,222,300.500000,222.500000,299.900000L257,261.200000C267.700000,258.400000,278.600000,255.200000,290,250.700000C294.500000,248.700000,291.089506,247.508598,285.289506,244.008598Z" clip-rule="evenodd" filter="url(#ee84zaoaxb2n13-filter)" fill="rgb(0,0,0)" fill-rule="evenodd" stroke="none" stroke-width="1"/><g id="ee84zaoaxb2n14"><path id="ee84zaoaxb2n15" d="M256.100000,259.600000L221.400000,298.300000C220.900000,298.900000,220.200000,299.300000,219.500000,299.500000L178.500000,310.500000C177.500000,310.800000,176.400000,310.600000,175.500000,310.100000L68,248C66.600000,247.200000,65.800000,245.600000,66,244C66.200000,242.400000,67.400000,241.100000,68.900000,240.700000L108.700000,230L143.400000,191.300000C143.900000,190.700000,144.600000,190.300000,145.300000,190.100000L186.300000,179.100000C187.300000,178.800000,188.400000,179,189.300000,179.500000L296.700000,241.500000C298.100000,242.300000,298.900000,243.900000,298.700000,245.500000C298.500000,247.100000,297.300000,248.400000,295.800000,248.800000L256.100000,259.600000Z" clip-rule="evenodd" fill="rgb(255,255,255)" fill-rule="evenodd" stroke="none" stroke-width="1"/><g id="ee84zaoaxb2n16"><polygon id="ee84zaoaxb2n17" points="253.900000,256 218.400000,295.500000 111,233.500000 146.500000,194" clip-rule="evenodd" fill="rgb(110,160,252)" fill-rule="evenodd" stroke="none" stroke-width="1"/><path id="ee84zaoaxb2n18" d="M171.300000,222.300000C172.500000,220.400000,171.400000,221.400000,172.500000,221.600000C172.500000,221.900000,173.500000,221.700000,172.200000,222.400000C171.400000,222.800000,172.100000,222.400000,171.300000,222.300000L171.300000,222.300000ZM129.800000,212.600000C129.900000,212.700000,129.900000,212.700000,129.900000,212.800000C133.200000,214.900000,135.400000,211.100000,136.300000,210.400000C137.600000,212.400000,135.500000,213.200000,135.200000,217.300000C135.100000,218.200000,135.500000,217.700000,134.800000,218.600000C133.800000,220,134.700000,219.200000,133.700000,221C132.900000,222.500000,131,224.200000,130.100000,226.400000C128.200000,231,126.400000,231,128,232.600000C127.400000,237.200000,125.300000,238.200000,123.700000,240.200000C123.600000,240.300000,123.400000,240.600000,123.200000,240.800000L130.300000,244.900000C130.500000,244.900000,130.600000,244.900000,130.800000,244.800000C131.700000,243.500000,132.400000,242.300000,133.500000,241.700000C136.100000,240.100000,134.500000,240.900000,135.500000,239.300000C137.500000,238.800000,139.500000,240.300000,141.300000,241.600000C140.400000,242.400000,137.800000,244.100000,137.500000,245.300000C139.200000,246.400000,140.500000,247,142.400000,247.700000C142.800000,249.400000,143.300000,249.800000,143.100000,251.500000L142.400000,251.900000L144.200000,253L144.500000,253.200000L150,256.400000L171.900000,269L188.500000,252.300000C188.500000,248.700000,185.500000,234.100000,187.700000,227.400000C188.800000,223.800000,192.600000,223.900000,194.400000,222L190.100000,219.500000L146.500000,194L129.800000,212.600000L129.800000,212.600000ZM155.900000,257C155.100000,255.400000,155,256.800000,154.700000,254.500000C154.400000,252.300000,153.200000,253.300000,154.700000,250.600000C156.100000,251.400000,156.200000,251.600000,155.900000,252.900000C155.500000,255,155.400000,254,156.400000,255.500000L155.900000,257Z" clip-rule="evenodd" fill="rgb(230,230,230)" fill-rule="evenodd" stroke="none" stroke-width="1"/><polygon id="ee84zaoaxb2n19" points="294.900000,245 253.900000,256 146.500000,194 187.500000,183" clip-rule="evenodd" fill="rgb(149,186,253)" fill-rule="evenodd" stroke="none" stroke-width="1"/><path id="ee84zaoaxb2n20" d="M294.900000,245L279.500000,249.100000L279.500000,249.100000C277.500000,248.400000,277.800000,249.200000,276.500000,249.100000C276.100000,249.100000,274.600000,248.400000,273.600000,248.200000C270.900000,247.600000,271.300000,247.100000,271.100000,246.900000C269.900000,245.800000,270.400000,246.700000,268.700000,246.800000L268.100000,245.600000C267.300000,244.700000,265.100000,245.500000,263.700000,244.700000C264.700000,243.900000,263.800000,244.300000,265.200000,244.100000C263.800000,243.500000,263.200000,243.900000,262.200000,244.300000C261.500000,243.200000,261.800000,243.100000,260.600000,243.600000C259.800000,243.900000,260,244,258.900000,244C257,244,258,243.900000,256.700000,243.200000C256.400000,243.100000,255.900000,243,255.800000,242.800000C257.700000,242.700000,257.100000,243.400000,258.700000,242.100000L261.100000,239.900000C260,240.200000,259.100000,240.400000,258,240.700000C256.900000,241.100000,256.200000,241.600000,254.900000,241.900000C251.800000,242.700000,254.300000,241.500000,252.400000,241.600000C251.600000,241.700000,251.900000,242.400000,250.900000,241.500000C250.100000,240.700000,251.500000,241.500000,250.800000,240.600000C246.100000,241.500000,250.800000,241.200000,245.700000,240.200000C242.600000,239.600000,242.800000,238.600000,242.100000,237.800000C239.300000,239.900000,238.200000,236.200000,229.500000,235.500000C227.100000,235.300000,229.400000,235.100000,227.800000,235C226.800000,234.900000,227.600000,235.300000,227,235.800000C225.700000,234.800000,225.900000,234.900000,224.600000,234.800000C224.600000,235.600000,224.900000,235.700000,224.200000,236C221.900000,236.800000,224.300000,237.200000,220.100000,234.500000C221.300000,233.900000,221.400000,233.600000,222.300000,233C224.700000,231.500000,224.600000,232.600000,227.800000,233.100000C227.600000,232.500000,227.300000,232.100000,227.100000,231.600000C225.600000,231.800000,224.900000,231.300000,223.200000,230.700000C223.700000,230.500000,224.400000,230.300000,224.900000,230.100000L223.300000,229C223.700000,228.500000,224,228.200000,224.400000,227.600000C221,227.400000,222.600000,228.100000,218.300000,227L215.900000,225.200000L195,219.700000C194.800000,220.600000,194.500000,221.200000,194,221.700000L189.700000,219.200000L146.500000,194L187.500000,183L294.900000,245Z" clip-rule="evenodd" fill="rgb(242,242,242)" fill-rule="evenodd" stroke="none" stroke-width="1"/><polygon id="ee84zaoaxb2n21" points="70,244.500000 111,233.500000 218.400000,295.500000 177.400000,306.500000" clip-rule="evenodd" fill="rgb(149,186,253)" fill-rule="evenodd" stroke="none" stroke-width="1"/><path id="ee84zaoaxb2n22" d="M203.600000,240.700000L207.100000,244.900000C208.400000,244.900000,208,244.600000,208.800000,244.700000C209.700000,244.700000,209.700000,245.100000,210.800000,245C211.500000,244.900000,211.200000,244.800000,212.500000,244.800000C214.300000,244.900000,212.900000,245.400000,214.400000,244.600000C217.400000,243.100000,215.900000,242.600000,221,242.100000C221.900000,240.700000,222.500000,239.500000,220.800000,238.800000L219.600000,238.400000C219.500000,238.400000,219.400000,238.300000,219.300000,238.300000L213.200000,236C213.100000,236,213,235.900000,212.900000,235.900000C212.800000,235.900000,212.700000,235.800000,212.600000,235.800000C211.300000,235.600000,212.800000,235.600000,211.900000,235.800000C211.100000,236,212,235.800000,211.300000,236.200000C208.600000,237.400000,207.900000,235,205.500000,237.800000C204.800000,238.900000,204.800000,239.500000,203.600000,240.700000Z" clip-rule="evenodd" fill="rgb(230,230,230)" fill-rule="evenodd" stroke="none" stroke-width="1"/><path id="ee84zaoaxb2n23" d="M123.200000,240.600000L130.300000,244.700000C128.200000,244.900000,125.600000,244.900000,123.400000,245C120.800000,245.200000,118.700000,246,116.400000,246L112.500000,246.200000C105.800000,247.100000,107.400000,247.400000,103.200000,248.700000C102.400000,248.900000,103.200000,248.500000,102.500000,249C103.200000,249.900000,104.400000,249.800000,105.900000,250.400000C104.700000,251.600000,103.600000,251.600000,102.400000,252C98.900000,253.200000,100.500000,253.300000,100.200000,253.800000C99.900000,254.300000,98,254.800000,97.100000,255.200000C95,256.100000,95.300000,256.400000,93.800000,256.100000L94.800000,255.700000C95.200000,255.500000,95.100000,255.600000,95.300000,255.400000C93.800000,254.900000,92.500000,255.400000,91.600000,257L87.100000,254.400000L86.900000,253.700000C87,253.700000,86.900000,253.500000,86.900000,253.500000C88.700000,252.900000,88.600000,252.300000,88.800000,252L89,251.700000C89,251.700000,89.100000,251.600000,89.100000,251.500000C89.100000,251.500000,89.200000,251.400000,89.300000,251.300000L89.600000,251C91.600000,248.200000,88.900000,251.400000,90.100000,250C90.400000,249.600000,90.800000,249.700000,91.400000,248.900000C89.800000,248.300000,90.100000,249,88.300000,248.600000C89.700000,247.200000,94.800000,246.300000,96.600000,246.100000C98.200000,246,99.400000,246,100.900000,245.700000L108.900000,243.600000C110.300000,243,111.400000,243.200000,112.900000,243.200000C115.100000,243.200000,117.600000,242,121.100000,241.800000C119.100000,241.400000,120.200000,241.300000,120.100000,241C120.900000,240.700000,120.600000,239.900000,121.600000,240.600000C122,240.900000,121.700000,241,122.300000,240.900000C122.600000,240.900000,122.900000,240.800000,123.200000,240.600000L123.200000,240.600000ZM142.200000,251.600000L144.300000,252.800000C142.200000,251.700000,142.400000,252.800000,141.400000,252L142.200000,251.600000L142.200000,251.600000ZM144.300000,252.800000C143.800000,253.400000,141.100000,255.500000,140.600000,255.700000C140,255.900000,138.200000,256.300000,136.500000,257.100000C140,258.600000,138.400000,257.200000,141,257.700000C140.300000,258.500000,139.800000,258.800000,138.800000,258.900000C137.200000,259,137.400000,258.300000,136.100000,259.200000C136.400000,259.500000,136.500000,259.600000,136.800000,259.800000C137,259.900000,139.300000,260.100000,139.500000,261.800000L140,262.200000C146,263.500000,152.400000,271.700000,162.100000,267.100000L168.300000,272L171.800000,268.500000L144.300000,252.800000Z" clip-rule="evenodd" fill="rgb(242,242,242)" fill-rule="evenodd" stroke="none" stroke-width="1"/><path id="ee84zaoaxb2n24" d="M189.600000,211.700000C189.500000,212.600000,189.600000,211.900000,188.500000,213C187.800000,213.700000,188.400000,213.100000,188,213.700000C188.800000,214.200000,188.900000,214.500000,189.400000,215.500000C189.400000,215.500000,189.500000,215.600000,189.500000,215.700000L193,216.400000L192.400000,218.400000C191.500000,218.400000,191.500000,218.200000,190.800000,218.100000C189,217.900000,189.700000,217.900000,189.900000,219.300000C190.200000,221.300000,190.400000,220.400000,190.500000,221.400000C189.500000,221.800000,188.100000,222.400000,187.200000,222.700000C187.200000,222.700000,186.100000,223,186.400000,222.100000C186.200000,221.500000,185.200000,221,184.500000,220.800000C183.900000,220.700000,183.700000,220.800000,184,221.400000C183.600000,222,183.400000,222.200000,182.500000,222.100000C181.800000,221.800000,181.100000,222.100000,182.200000,223C182.600000,223.800000,183,224.800000,183.400000,225.600000C183.700000,226.600000,184,227.700000,185.300000,228.900000C184.400000,230.100000,184.200000,229.100000,184,230.900000C183.800000,232.500000,184.400000,231.900000,184.900000,233.200000C184.900000,233.700000,183.800000,234.500000,184.700000,238.600000C185.400000,241.600000,184.900000,241.500000,183.900000,244.500000C183.900000,244.600000,184,244.600000,184,244.700000L183.900000,244.700000C184.700000,245.600000,184.700000,244.800000,184.800000,246.600000L184.800000,246.400000C184.800000,246.400000,184.900000,246.300000,184.900000,246.200000L184.900000,246.200000C184.900000,246.600000,184.900000,247,184.900000,247.300000C184.800000,247.600000,184.700000,248,184.600000,248.300000C184.400000,248.400000,184.200000,248.500000,184.100000,248.600000C182.400000,248.800000,183.900000,252.100000,183.700000,253.200000C182.200000,254,182.900000,252.900000,181.800000,253.800000C181.400000,254.100000,181.200000,255,180.300000,255.700000C178.700000,256.900000,177.800000,256,176.900000,258.600000C176.100000,261.100000,176.700000,261.200000,174.300000,262.500000C172.200000,263.600000,172.900000,264.900000,170.900000,266.300000C169.300000,266.300000,170.500000,265.900000,169,265.700000C168.300000,265.600000,167.600000,265.800000,166.800000,265.700000C164.900000,265.500000,163.700000,264.400000,162.100000,264.700000C158.500000,265.400000,161.500000,263.700000,157.400000,263.500000C155.600000,263.400000,157.800000,263.400000,156.900000,263.500000C155.500000,263.600000,155.900000,264,153.900000,264.200000C153.600000,264.600000,152.600000,267.500000,151.400000,265.700000C151.200000,265.200000,151.200000,265,151.100000,264.500000C149,264.100000,147.200000,262.900000,146.900000,262.800000C145.500000,262.400000,146.200000,262.800000,145.600000,263C145.300000,263.100000,144.800000,263.500000,143,263C141.400000,262.600000,141.800000,261.900000,139.900000,262.300000L139.400000,261.900000L137.900000,263.400000L139.200000,263.700000C138.800000,264.900000,138.800000,263.900000,139.300000,264.900000C138.800000,265,138.100000,265,137.500000,265C136.100000,264.700000,133.600000,265.200000,132.700000,265.600000C131,266.200000,128.700000,266.900000,127,267.200000C125.700000,267,126.400000,267,125.400000,267.400000C126.700000,268.200000,127.800000,268.400000,129.300000,268.700000C132.400000,269.100000,130.900000,267.800000,137.300000,269.500000C141.400000,270.500000,139.100000,270.300000,141.200000,269.800000C144.200000,270.900000,142.200000,270.800000,145.300000,270.400000C146.500000,270.300000,147.600000,270.100000,148.400000,270.200000C149.700000,270.700000,148.800000,270.400000,149.300000,270.200000C149.900000,270.100000,150.600000,269.800000,151.100000,269.700000C151.700000,269.800000,152.600000,269.800000,153.100000,270.100000C154.100000,271.200000,153.700000,271.100000,154.900000,271.200000C157.400000,271.600000,162.700000,272.800000,165.100000,273.100000C168.300000,273.500000,173.500000,274.800000,175.900000,273.900000C177.100000,273.500000,176.300000,274,177.500000,273.800000C178.300000,273.700000,179.500000,272.800000,180.200000,272.400000C181.500000,271.100000,180.600000,272.200000,181.300000,270.700000L182,270.600000C181.200000,272,181.700000,271,181.900000,271.600000C182.900000,271.400000,182.100000,271.800000,182.700000,270.900000C183.600000,269.800000,183.200000,271,183.700000,269.800000C184.200000,268.700000,183.400000,269.500000,184.300000,268.200000C185,267.300000,185.700000,266.500000,186.400000,265.600000C186.900000,265,186.500000,265.600000,187.200000,264.700000L190.900000,256.900000C191,255.700000,191,256.300000,190.600000,255.100000L191.100000,252.800000L190.600000,252.400000L190.600000,252.300000C190.700000,251.700000,190.700000,251.100000,190.800000,250.500000C190.800000,250.500000,190.800000,250,190.800000,249.300000C190.800000,248.600000,189.600000,248.700000,189.600000,248.700000C189.900000,248,189.900000,247.900000,189.700000,247.400000C189.700000,247.300000,189.800000,247.300000,189.800000,247.300000C189.800000,247.300000,189.700000,247.300000,189.700000,247.300000C189.700000,247.200000,189.600000,247.100000,189.600000,246.900000L188.800000,246.300000C189.400000,245,188.800000,246,189.600000,245.900000C189.500000,244.900000,189.300000,245,189.200000,244C189.100000,242.900000,189.500000,243.200000,189.100000,241.800000C188.500000,239.600000,188.500000,240.400000,188.700000,237.800000C188.400000,237.900000,188.400000,239.700000,187.700000,237.300000C188.600000,237.200000,188.400000,237.300000,188.800000,237.600000C192.300000,235.300000,187.700000,236.200000,189.700000,229.200000C191.100000,228.900000,191.600000,228.400000,192.700000,227.600000L194.400000,226.600000C196.600000,225.300000,195.100000,226.200000,197.700000,226.100000C201.400000,225.900000,200.600000,225.400000,203,225C204.100000,224.700000,204.100000,225.200000,205.100000,224.900000C206,224.700000,206.200000,224.300000,207,224C208.800000,225.200000,207.600000,224.700000,209.800000,225.400000C209.200000,225.900000,209.600000,226,209.100000,226L209.600000,226.200000C210.100000,226.400000,210.500000,226.700000,211,226.600000C212.600000,226.200000,209.800000,226.200000,211.200000,226.300000C212.200000,225.600000,213.400000,225.500000,214.700000,226.300000L214.200000,226.600000C215.400000,227.100000,216.100000,227.400000,217.300000,227.200000C217.100000,226.900000,216.900000,226.800000,216.600000,226.400000C217.500000,225.900000,216.900000,225.900000,218.300000,226.300000L217.800000,227.100000L218.400000,227.100000L218.900000,226.100000C214.700000,224.200000,217,224.200000,216.700000,222.300000C216.700000,222.200000,216.700000,222.100000,216.700000,222C216.700000,221.900000,216.600000,221.800000,216.600000,221.700000C221.400000,220,216.500000,220.400000,221.900000,220.500000C223.800000,220.500000,222.800000,220.900000,223.800000,220C222.900000,218.100000,224,220,222.100000,218.400000C222.100000,218.400000,222,218.300000,221.900000,218.200000C219.200000,215.600000,219.300000,217.100000,220.900000,214.200000C213.900000,212.400000,214.200000,214.500000,210.600000,212.900000C209.600000,212.500000,210.100000,211.700000,208.600000,211.700000C207.900000,211.700000,207.200000,212,206.800000,212.100000C206.300000,210.500000,206.800000,212.100000,206.900000,210.500000C205.300000,209.900000,206.500000,210.500000,204.900000,210.500000C205.100000,209.700000,205.100000,210.600000,205.200000,209.500000C203.700000,209.300000,202.200000,209.600000,200.700000,209.300000C200.700000,209.200000,200.800000,209.200000,200.700000,209.100000L200.800000,208.400000C200.800000,207.900000,200.800000,207.500000,200.700000,207.200000C198.800000,206.600000,198.500000,207.100000,196.300000,206.900000L195,206.900000C194.900000,206.900000,194.800000,206.900000,194.700000,206.900000C193.200000,207.100000,194.100000,208.900000,191,210.200000L192,210.800000C192.700000,211.300000,192.100000,210.700000,192.500000,211.200000C190.200000,211.100000,191.900000,210.800000,189.600000,211.700000Z" clip-rule="evenodd" fill="rgb(204,226,149)" fill-rule="evenodd" stroke="none" stroke-width="1"/><path id="ee84zaoaxb2n25" d="M133.700000,261.700000C135.100000,262.100000,136.400000,261.600000,137.700000,260.700000C135,260.100000,136,260.200000,133.700000,261.700000Z" clip-rule="evenodd" fill="rgb(220,230,162)" fill-rule="evenodd" stroke="none" stroke-width="1"/><path id="ee84zaoaxb2n26" d="M209.800000,225.800000L209.300000,225.600000L208,224.800000C207.200000,225.300000,207.400000,224.700000,207.600000,225.600000C208.300000,225.300000,207.900000,225.600000,208.800000,225.700000L208.600000,227L210.100000,226.900000L208.700000,226.300000C210.800000,225.300000,208.100000,225.600000,209.500000,225.800000C209.700000,226,209.700000,225.900000,209.800000,225.800000Z" clip-rule="evenodd" fill="rgb(204,228,195)" fill-rule="evenodd" stroke="none" stroke-width="1"/><path id="ee84zaoaxb2n27" d="M217.500000,227L218,226.900000L218.500000,226.100000C217.100000,225.700000,217.800000,225.800000,216.800000,226.200000C217.100000,226.600000,217.300000,226.700000,217.500000,227L217.500000,227ZM203.100000,224.700000C203.800000,224.800000,204.500000,224.800000,205.100000,224.900000C207.400000,225.300000,205.200000,225,206.900000,225.900000C207.600000,225.900000,207.100000,226,207.600000,225.600000C207.400000,224.700000,207.200000,225.300000,208,224.800000L209.300000,225.600000C209.800000,225.600000,209.400000,225.500000,210,225C207.700000,224.300000,208.900000,224.800000,207.200000,223.600000C206.400000,223.900000,206.200000,224.400000,205.300000,224.500000C204.100000,224.900000,204.200000,224.500000,203.100000,224.700000L203.100000,224.700000ZM209.800000,225.800000C210.300000,226,210.700000,226.300000,211.200000,226.200000C212.800000,225.800000,210,225.800000,211.400000,225.900000C212.400000,225.200000,213.600000,225.100000,214.900000,225.900000L214.400000,226.200000C214,226.300000,213.700000,226.400000,213.300000,226.500000C212.100000,226.800000,213.200000,226.600000,212.100000,226.700000C211.500000,226.800000,210.700000,226.800000,210.100000,226.900000L208.700000,226.300000C210.800000,225.300000,208.100000,225.600000,209.500000,225.800000C209.700000,226,209.700000,225.900000,209.800000,225.800000Z" clip-rule="evenodd" fill="rgb(176,207,149)" fill-rule="evenodd" stroke="none" stroke-width="1"/><path id="ee84zaoaxb2n28" d="M152.900000,269.700000L153.200000,269.800000L154.200000,270.800000L154.600000,270.900000C154.700000,269.700000,155.600000,270.700000,154.400000,269.700000L155.200000,269.300000C154.200000,268.700000,154.400000,268.500000,153.500000,268.400000C152,268.600000,152.100000,268.200000,151.100000,268.400000L151.200000,269C151.300000,269.100000,151.200000,269.200000,151.200000,269.300000L149.200000,268.200000C149.100000,269.100000,149.200000,268.700000,149.500000,269.800000C150.100000,269.700000,150.800000,269.400000,151.300000,269.300000L152.900000,269.700000L152.900000,269.700000ZM140,262.200000L139.500000,261.800000L138,263.300000L139.300000,263.600000C138.900000,264.800000,138.900000,263.800000,139.400000,264.800000C138.900000,264.900000,138.200000,264.900000,137.600000,264.900000C138.700000,265.700000,139.700000,266,140,264.300000C140,264.200000,139.900000,263.700000,139.900000,263.600000C139.700000,262.700000,139.700000,263.700000,139.800000,263.100000C139.800000,262.300000,139.800000,263.300000,140,262.600000L140,262.200000L140,262.200000ZM141.300000,269.600000L142,269.900000C144.400000,269.600000,139.900000,270.500000,142.800000,269.600000C143.100000,268.900000,143.800000,267.900000,143.400000,267.200000L141.300000,269.600000L141.300000,269.600000ZM145.400000,270.200000C145,269.400000,144.300000,270.800000,145.600000,268.500000C146.600000,266.800000,147.100000,268,147.800000,268.200000C147.900000,268.200000,148.100000,268.200000,148.400000,268.400000L147.400000,269.400000L148.500000,269.900000C147.700000,269.900000,146.600000,270.100000,145.400000,270.200000Z" clip-rule="evenodd" fill="rgb(176,207,149)" fill-rule="evenodd" stroke="none" stroke-width="1"/><path id="ee84zaoaxb2n29" d="M127.900000,266.900000L127,267.100000C127.400000,267.900000,126,266.900000,127.600000,268L128.300000,267.500000C128.300000,266.900000,129.200000,267.200000,127.900000,266.900000Z" clip-rule="evenodd" fill="rgb(212,225,131)" fill-rule="evenodd" stroke="none" stroke-width="1"/><path id="ee84zaoaxb2n30" d="M189.600000,211.700000L188.800000,211.300000L186.700000,213.500000C187,213.900000,187.200000,214.200000,187.500000,214.500000C188.100000,215.300000,187.700000,215,188.300000,215.800000L189.600000,215.700000C189.600000,215.600000,189.500000,215.500000,189.500000,215.500000C188.900000,214.400000,188.900000,214.200000,188.100000,213.700000C188.500000,213.100000,187.900000,213.700000,188.600000,213C189.500000,211.900000,189.500000,212.700000,189.600000,211.700000Z" clip-rule="evenodd" fill="rgb(176,207,149)" fill-rule="evenodd" stroke="none" stroke-width="1"/><path id="ee84zaoaxb2n31" d="M123.900000,237.100000C123.600000,237.200000,123.800000,236.500000,123.100000,237.500000C121.900000,239.400000,122.800000,237.800000,122.900000,238.800000C124.400000,238.500000,124.500000,237.500000,123.900000,237.100000Z" clip-rule="evenodd" fill="rgb(245,246,248)" fill-rule="evenodd" stroke="none" stroke-width="1"/><path id="ee84zaoaxb2n32" d="M117.500000,241.300000C118.900000,241.500000,118.700000,241.600000,119.700000,240.800000C118.200000,240.400000,118.600000,240.300000,117.500000,241.300000Z" clip-rule="evenodd" fill="rgb(245,249,249)" fill-rule="evenodd" stroke="none" stroke-width="1"/><path id="ee84zaoaxb2n33" d="M179.100000,272.900000L166.600000,265.700000C166.700000,265.700000,166.800000,265.700000,166.900000,265.700000C167.700000,265.800000,168.400000,265.600000,169.100000,265.700000C170.500000,265.900000,169.300000,266.200000,171,266.300000C173,264.900000,172.300000,263.700000,174.400000,262.500000C176.800000,261.200000,176.100000,261.100000,177,258.600000C177.900000,256,178.800000,256.900000,180.400000,255.700000C181.300000,255,181.600000,254.100000,181.900000,253.800000C183,252.900000,182.300000,254.100000,183.800000,253.200000C184,252.100000,182.500000,248.800000,184.200000,248.600000C184.300000,248.500000,184.500000,248.400000,184.700000,248.300000C184.800000,248,184.900000,247.600000,185,247.300000C185,246.900000,185,246.500000,185,246.200000L185,246.200000C184.900000,246.300000,184.900000,246.400000,184.900000,246.400000L184.900000,246.600000C184.800000,244.700000,184.800000,245.500000,184,244.700000L184.100000,244.700000C184.100000,244.600000,184,244.600000,184,244.500000C184.900000,241.500000,185.500000,241.600000,184.800000,238.600000C183.800000,234.500000,185,233.700000,185,233.200000C184.600000,231.900000,184,232.600000,184.100000,230.900000C184.300000,229.200000,184.500000,230.100000,185.400000,228.900000C184.100000,227.700000,183.800000,226.600000,183.500000,225.600000C183,224.700000,182.700000,223.800000,182.300000,223C181.200000,222.100000,182,221.800000,182.600000,222.100000C183.500000,222.300000,183.700000,222.100000,184.100000,221.400000C183.900000,220.800000,184.100000,220.700000,184.600000,220.800000C185.300000,221,186.300000,221.500000,186.500000,222.100000C186.200000,223,187.300000,222.700000,187.300000,222.700000C188.200000,222.500000,189.600000,221.800000,190.600000,221.400000C190.500000,220.400000,190.300000,221.300000,190,219.300000C190,219.200000,190,219.100000,189.900000,219L200.900000,225.400000C200.300000,225.600000,199.600000,225.800000,197.800000,225.900000C195.200000,226,196.700000,225.200000,194.500000,226.400000L192.800000,227.400000C191.600000,228.300000,191.200000,228.700000,189.800000,229C187.900000,236,192.400000,235.100000,188.900000,237.400000C188.500000,237.200000,188.700000,237,187.800000,237.100000C188.500000,239.500000,188.500000,237.700000,188.800000,237.600000C188.600000,240.300000,188.600000,239.400000,189.200000,241.600000C189.600000,243,189.200000,242.600000,189.300000,243.800000C189.400000,244.800000,189.600000,244.700000,189.700000,245.700000C188.900000,245.700000,189.500000,244.700000,188.900000,246.100000L189.700000,246.700000C189.700000,246.900000,189.800000,247,189.800000,247.100000C189.800000,247.100000,189.900000,247.100000,189.900000,247.100000C189.900000,247.100000,189.900000,247.200000,189.800000,247.200000C189.900000,247.700000,189.900000,247.800000,189.700000,248.500000C189.700000,248.500000,190.800000,248.400000,190.900000,249.100000C190.900000,249.800000,190.900000,250.300000,190.900000,250.300000C190.800000,250.900000,190.800000,251.500000,190.700000,252.100000L190.700000,252.200000L191.200000,252.600000L190.700000,254.900000C191.100000,256.100000,191.100000,255.500000,191,256.700000L187.300000,264.500000C186.700000,265.500000,187,264.800000,186.500000,265.400000C185.800000,266.300000,185.100000,267.100000,184.400000,268C183.500000,269.300000,184.300000,268.500000,183.800000,269.600000C183.300000,270.800000,183.700000,269.600000,182.800000,270.700000C182.200000,271.600000,182.900000,271.100000,182,271.400000C181.800000,270.800000,181.300000,271.800000,182.100000,270.400000L181.400000,270.500000C180.700000,272,181.700000,270.900000,180.300000,272.200000C180,272.300000,179.600000,272.600000,179.100000,272.900000Z" clip-rule="evenodd" fill="rgb(168,201,139)" fill-rule="evenodd" stroke="none" stroke-width="1"/><path id="ee84zaoaxb2n34" d="M181.400000,270.400000C180.400000,269.800000,180.400000,271.500000,178.300000,272.400000L177,273C176.200000,273.200000,176.500000,273.100000,176,273L176,273.600000C177.200000,273.200000,176.400000,273.700000,177.600000,273.500000C178.200000,273.400000,177.900000,273.400000,178.500000,273.200000L180.300000,272.100000C181.600000,270.900000,180.700000,271.900000,181.400000,270.400000L181.400000,270.400000ZM182,270.400000L182.800000,270.700000C182.200000,271.600000,182.900000,271.100000,182,271.400000C181.700000,270.800000,181.200000,271.700000,182,270.400000Z" clip-rule="evenodd" fill="rgb(176,207,149)" fill-rule="evenodd" stroke="none" stroke-width="1"/><path id="ee84zaoaxb2n35" d="M190.600000,254.800000C189.800000,254.800000,190.600000,253.700000,189.700000,255.300000C189.800000,255.400000,190,255.600000,189.900000,255.600000L190.900000,256.700000C191.100000,255.500000,191,256.100000,190.600000,254.800000L190.600000,254.800000ZM188.800000,237.600000L188.900000,237.400000C188.500000,237.200000,188.700000,237,187.800000,237.100000C188.500000,239.500000,188.500000,237.700000,188.800000,237.600000L188.800000,237.600000ZM189.600000,245.700000C188.800000,245.700000,189.400000,244.700000,188.700000,246.100000C189.400000,246.900000,188.500000,246.100000,189.100000,246.700000C189.700000,247.300000,189,247.100000,189.700000,247L189.600000,245.700000Z" clip-rule="evenodd" fill="rgb(136,183,118)" fill-rule="evenodd" stroke="none" stroke-width="1"/></g><path id="ee84zaoaxb2n36" d="M199,263.200000C199.500000,262.600000,199.500000,262.400000,199.400000,262C199.300000,262.100000,199.200000,262.100000,199.100000,262.200000C198.800000,262.300000,198.300000,262.300000,198.100000,262.900000C197.900000,263.300000,198.800000,263.200000,199,263.200000L199,263.200000ZM200.700000,262.300000C200.900000,262.200000,200.600000,262.600000,201,262.100000C201.200000,261.900000,201.100000,261.900000,201.200000,261.700000C201.100000,261.800000,201.300000,261.400000,200.900000,261.900000C200.500000,262.300000,200.700000,262,200.700000,262.300000L200.700000,262.300000ZM199.700000,263.600000C200.200000,263.100000,200.200000,263,200,262.700000C199.600000,263.200000,199.600000,263.300000,199.700000,263.600000L199.700000,263.600000ZM196.500000,263.600000C196.800000,264,197.400000,263.300000,197.100000,263L196.500000,263.600000L196.500000,263.600000ZM196.400000,264.500000C196.800000,264.100000,197.200000,264,197.300000,264.200000C196.800000,264.800000,196.500000,265,196.400000,264.500000L196.400000,264.500000ZM200.100000,264.300000C199.800000,264.600000,199.700000,264.800000,199.600000,265.100000C199.500000,265.400000,199.400000,265.700000,199.800000,265.600000C200.100000,265.500000,200.600000,264.700000,200.100000,264.300000L200.100000,264.300000ZM197.500000,265.100000C197.500000,265.400000,197.600000,265.600000,198,265.400000C198.200000,265.300000,198.700000,264.700000,198.900000,264.400000C198.600000,263.900000,197.900000,264.400000,197.500000,265.100000L197.500000,265.100000ZM201.700000,264C201.200000,264,201.800000,262.500000,202.200000,262.400000C202.500000,262.300000,202.400000,262.400000,202.400000,262.600000C202.400000,263.400000,202.400000,263.500000,201.700000,264L201.700000,264ZM199.300000,260.500000C199.900000,260,199.400000,260.400000,199.800000,260.300000C200,260.300000,199.800000,260.300000,200,260.300000C201.600000,259.900000,200.100000,261.600000,199.700000,261.200000C199.300000,260.700000,199.300000,260.800000,199.300000,260.500000Z" clip-rule="evenodd" fill="rgb(242,242,242)" fill-rule="evenodd" stroke="none" stroke-width="1"/><path id="ee84zaoaxb2n37" d="M173.600000,281.100000C173.700000,281.500000,174.200000,281.100000,174.600000,280.600000C174.400000,280.400000,174.100000,280.500000,173.600000,281.100000L173.600000,281.100000ZM173.400000,280.100000C173.400000,280.300000,173.200000,280.100000,173.400000,280.300000C173.500000,280.400000,173.500000,280.300000,173.700000,280.300000C174.200000,280.100000,174.600000,279.500000,173.900000,279.700000C173.600000,279.800000,173.600000,279.800000,173.400000,280.100000L173.400000,280.100000ZM171.100000,286.500000C171.200000,286.600000,171.200000,286.700000,171.500000,286.600000C172,286.300000,172,286.100000,172,286.100000C172,286,172.300000,286,171.900000,285.900000C171.700000,285.900000,171.400000,286.100000,171.100000,286.500000L171.100000,286.500000ZM175.900000,283.200000C175.800000,283.500000,175.900000,283.700000,176.200000,283.700000C176.700000,283.300000,176.800000,283,176.600000,282.700000C176.200000,282.900000,176.300000,282.800000,175.900000,283.200000L175.900000,283.200000ZM172.500000,280.100000C172.900000,279.700000,172.900000,279.700000,173.200000,279.700000C173.300000,280,173.300000,280.100000,172.800000,280.600000L172.400000,280.700000L172.500000,280.100000L172.500000,280.100000ZM172.300000,278.400000C171.500000,278.600000,171.400000,279.400000,171.500000,279.500000C171.700000,279.700000,172.400000,279.100000,172.300000,278.400000L172.300000,278.400000ZM173.600000,283.200000C173.400000,283.600000,173.400000,283.600000,173.400000,283.900000C174.500000,283.900000,174.700000,282.600000,173.600000,283.200000L173.600000,283.200000ZM173,284.100000C172.400000,284.500000,172,285.300000,172.400000,285.300000C172.900000,285.300000,173.300000,284.400000,173,284.100000L173,284.100000ZM170.400000,281.500000C170.500000,281.800000,171.100000,281.900000,171.600000,281.300000C171.600000,280.900000,171.600000,280.900000,171.200000,281C170.900000,281.100000,170.800000,281.100000,170.400000,281.500000L170.400000,281.500000ZM174.900000,283.900000C175.500000,283.400000,175.400000,283.600000,175.600000,283.800000C175.800000,284,176.100000,284,175.400000,284.600000C175,284.500000,174.900000,284.300000,174.900000,283.900000L174.900000,283.900000ZM171.400000,283.800000C171.700000,284,172.500000,283.300000,173,282.700000C172.700000,282.500000,171.800000,283.100000,171.400000,283.800000L171.400000,283.800000ZM174,285.500000C173.600000,286.100000,173.900000,286.600000,174.500000,286.200000C174.900000,285.500000,174.600000,285.700000,174.500000,285.600000C174.400000,285.500000,174.600000,285.200000,174,285.500000L174,285.500000ZM170.100000,286.100000C170.500000,285.500000,171.400000,285,171.500000,285.400000C171.300000,285.800000,170.100000,286.700000,170.100000,286.100000L170.100000,286.100000ZM169.700000,282.500000C170.100000,282.100000,171,281.700000,171.100000,282.300000C170.600000,282.900000,169.900000,282.800000,169.700000,282.500000L169.700000,282.500000ZM175.200000,281.800000C175.700000,281.300000,175.900000,281.100000,176.200000,281.100000C176.100000,282,174.800000,282.900000,175.200000,281.800000L175.200000,281.800000ZM173.400000,285.900000C173.200000,286.300000,173.300000,286.300000,172.900000,286.700000C172.500000,286.700000,172.400000,286.400000,172.400000,286C172.700000,285.700000,172.800000,285.600000,173.100000,285.700000C173.100000,285.600000,173.300000,285.800000,173.400000,285.900000L173.400000,285.900000ZM172.400000,281.500000C172.700000,281.400000,172.900000,281.900000,173,282.100000C172,283.100000,172,282,172,282C172.200000,281.400000,172.400000,281.500000,172.400000,281.500000L172.400000,281.500000ZM172.700000,287.600000C172.800000,288.200000,173.800000,288.300000,174.500000,287.400000C174.500000,287.100000,174.200000,286.900000,173.900000,286.800000C173.600000,286.700000,173.200000,287,172.700000,287.600000Z" clip-rule="evenodd" fill="rgb(242,242,242)" fill-rule="evenodd" stroke="none" stroke-width="1"/></g></g></g><line id="ee84zaoaxb2n38" x1="176" y1="134.900000" x2="176" y2="196.400000" clip-rule="evenodd" fill="none" fill-rule="evenodd" stroke="rgb(206,70,53)" stroke-width="1.000100" stroke-miterlimit="2.613100" stroke-dasharray="1.000100,3.000200"/><g id="ee84zaoaxb2n39_to" transform="translate(0,10)"><g id="ee84zaoaxb2n39" transform="translate(0,0)"><path id="ee84zaoaxb2n40" d="M153.700000,5L208,36.300000L208,36.300000C208.600000,36.700000,209.200000,37.200000,209.500000,37.900000L209.500000,37.900000L225.400000,65.700000C225.800000,66.300000,226,66.900000,226,67.400000L226,67.400000L226,149.400000C226,154.500000,223.500000,157.400000,220.100000,156.900000C220.700000,155.700000,221,154.100000,221,152.300000L221,70.300000L203,39.100000L203,39.100000L148.700000,7.900000C146.600000,6.700000,144.600000,6.600000,143.100000,7.400000L148.100000,4.500000L148.100000,4.500000L148.100000,4.500000L148.100000,4.500000C149.500000,3.700000,151.500000,3.700000,153.700000,5L153.700000,5ZM142.900000,7.500000L142.900000,7.500000L142.900000,7.500000L142.900000,7.500000Z" clip-rule="evenodd" fill="rgb(207,207,207)" fill-rule="evenodd" stroke="none" stroke-width="1"/><path id="ee84zaoaxb2n41" d="M208,36.300000C208.600000,36.700000,209.200000,37.200000,209.500000,37.900000L209.500000,37.900000L225.400000,65.700000C225.800000,66.300000,226,66.900000,226,67.400000L226,67.400000L226,67.400000L221,70.300000L203,39.100000L208,36.300000Z" clip-rule="evenodd" fill="rgb(207,207,207)" fill-rule="evenodd" stroke="none" stroke-width="1"/><path id="ee84zaoaxb2n42" d="M226,129.900000L226,149.500000C226,153,224.800000,155.500000,223,156.500000L223,156.500000L218.100000,159.300000L218.100000,159.300000C219.900000,158.200000,221,155.800000,221,152.300000L221,132.700000L221,132.700000L226,129.900000Z" clip-rule="evenodd" fill="rgb(206,70,53)" fill-rule="evenodd" stroke="none" stroke-width="1"/><path id="ee84zaoaxb2n43" d="M148.700000,7.900000L203,39.200000L203,39.200000L221,70.400000L221,152.400000C221,158.800000,217.100000,161.700000,212.300000,158.900000L148.600000,122.100000C143.800000,119.400000,139.900000,111.900000,139.900000,105.600000L139.900000,14.400000C140,8.100000,143.900000,5.100000,148.700000,7.900000Z" clip-rule="evenodd" fill="rgb(255,255,255)" fill-rule="evenodd" stroke="none" stroke-width="1"/><path id="ee84zaoaxb2n44" d="M221,132.800000L221,152.400000C221,158.800000,217.100000,161.700000,212.300000,158.900000L148.600000,122.100000C143.800000,119.400000,139.900000,111.900000,139.900000,105.600000L139.900000,86L221,132.800000Z" clip-rule="evenodd" fill="rgb(240,82,62)" fill-rule="evenodd" stroke="none" stroke-width="1"/><path id="ee84zaoaxb2n45" d="M221,70.400000L217,68.100000L209,63.500000C205.700000,61.600000,203,57.300000,203,54L203,43.200000L203,39.200000C203.600000,39.600000,204.200000,40.100000,204.500000,40.800000L204.500000,40.800000L220.400000,68.600000C220.800000,69.200000,221,69.900000,221,70.400000L221,70.400000Z" clip-rule="evenodd" fill="rgb(230,230,230)" fill-rule="evenodd" stroke="none" stroke-width="1"/><path id="ee84zaoaxb2n46" d="M167,79.500000C165.900000,78.900000,165,77.400000,165,76.300000L165,68.300000C165,68.300000,165,68.300000,165,68.300000C165,66.800000,164.500000,65.100000,163.500000,63.400000C164.500000,62.900000,165,61.800000,165,60.300000C165,60.300000,165,60.300000,165,60.300000L165,52.600000C163.900000,52,163,52.300000,163,53.400000L163,61.400000C163,61.400000,163,61.400000,163,61.400000C163,62.900000,162.500000,64,161.500000,64.500000C162.500000,66.200000,163,67.900000,163,69.400000C163,69.400000,163,69.400000,163,69.400000L163,77.400000C163,78.500000,163.900000,79.900000,165,80.600000L165,80.600000C166.100000,81.200000,167,82.700000,167,83.800000C167,84.300000,166.800000,84.700000,166.500000,84.800000L166.500000,84.800000L168.500000,83.600000L168.500000,83.600000C168.800000,83.400000,169,83.100000,169,82.600000C169,81.600000,168.100000,80.200000,167,79.500000L167,79.500000L167,79.500000ZM166.500000,52.800000C166.800000,52.600000,167,52.300000,167,51.800000C167,50.700000,166.100000,49.300000,165,48.600000C163.200000,47.600000,161.600000,47.400000,160.500000,48L162.500000,46.900000L162.500000,46.900000C163.600000,46.300000,165.200000,46.400000,167,47.400000C168.100000,48,169,49.500000,169,50.600000C169,51.100000,168.800000,51.400000,168.500000,51.600000L168.500000,51.600000L168.500000,51.600000L168.500000,51.600000L166.500000,52.800000L166.500000,52.800000ZM160.400000,48.100000L160.400000,48.100000L160.400000,48.100000L160.400000,48.100000L160.400000,48.100000ZM159,58.900000C158.400000,58.600000,157.900000,58.500000,157.500000,58.700000L157.500000,58.700000L157.500000,58.700000L155.500000,59.800000C155.900000,59.600000,156.400000,59.700000,157,60C158.100000,60.600000,159,60.300000,159,59.200000L159,58.900000L159,58.900000ZM203.700000,102.500000L203.700000,102.500000C203.600000,102.600000,203.500000,102.600000,203.500000,102.600000L201.700000,103.600000C202.500000,103.100000,203.100000,102,203.100000,100.600000L203.100000,92.600000C203.100000,91.500000,204,91.100000,205.100000,91.800000L205.100000,99.500000C205,100.900000,204.500000,101.900000,203.700000,102.500000L203.700000,102.500000L203.700000,102.500000ZM195.500000,98.900000L197.400000,97.800000C197.400000,97.800000,197.500000,97.800000,197.500000,97.800000L197.500000,97.800000L197.500000,97.800000C197.900000,97.600000,198.400000,97.700000,198.900000,98L198.900000,98.300000C198.900000,99.400000,198,99.800000,196.900000,99.100000L196.900000,99.100000C196.400000,98.800000,195.900000,98.800000,195.500000,98.900000L195.500000,98.900000ZM195.500000,67L195.500000,67L195.500000,67L195.500000,67L195.500000,67ZM195.500000,67C195.900000,66.800000,196.400000,66.800000,197,67.200000C200.300000,69.100000,203,73.300000,203,76.700000L203,84.700000C203,85.800000,203.900000,87.200000,205,87.900000C206.100000,88.500000,207,90,207,91.100000C207,91.600000,206.800000,91.900000,206.500000,92.100000L206.500000,92.100000L208.500000,90.900000L208.500000,90.900000C208.800000,90.700000,209,90.400000,209,89.900000C209,88.800000,208.100000,87.400000,207,86.700000C205.900000,86.100000,205,84.600000,205,83.500000L205,75.500000C205,72.200000,202.300000,68,199,66C198.400000,65.700000,197.900000,65.600000,197.500000,65.800000L197.500000,65.800000L195.500000,67L195.500000,67ZM192.500000,81.600000L190.500000,82.800000L190.500000,82.800000C190.800000,82.600000,191,82.300000,191,81.800000C191,80.700000,190.100000,79.300000,189,78.600000C188.400000,78.300000,187.900000,78.200000,187.500000,78.400000L189.500000,77.300000C189.900000,77.100000,190.400000,77.100000,191,77.500000C192.100000,78.100000,193,79.500000,193,80.700000C193,81,192.800000,81.400000,192.500000,81.600000L192.500000,81.600000L192.500000,81.600000ZM184.500000,76.900000L182.500000,78.100000L182.500000,78.100000C182.800000,77.900000,183,77.600000,183,77.100000C183,76,182.100000,74.600000,181,73.900000C180.400000,73.600000,179.900000,73.500000,179.500000,73.700000L179.500000,73.700000L181.500000,72.500000L181.500000,72.500000C181.900000,72.300000,182.400000,72.400000,183,72.700000C184.100000,73.300000,185,74.800000,185,75.900000C185,76.400000,184.800000,76.700000,184.500000,76.900000L184.500000,76.900000L184.500000,76.900000ZM176.500000,72.300000L174.500000,73.500000L174.500000,73.500000C174.800000,73.300000,175,73,175,72.500000C175,71.400000,174.100000,70,173,69.300000C172.400000,69,171.900000,68.900000,171.500000,69.100000L173.500000,67.900000L173.500000,67.900000C173.900000,67.700000,174.400000,67.800000,175,68.100000C176.100000,68.700000,177,70.200000,177,71.300000C177,71.800000,176.800000,72.100000,176.500000,72.300000L176.500000,72.300000Z" clip-rule="evenodd" fill="rgb(253,231,228)" fill-rule="evenodd" stroke="none" stroke-width="1"/><path id="ee84zaoaxb2n47" d="M165,80.700000C163.900000,80.100000,163,78.600000,163,77.500000L163,69.500000C163,69.500000,163,69.500000,163,69.500000C163,68,162.500000,66.300000,161.500000,64.600000C162.500000,64.100000,163,63,163,61.500000C163,61.500000,163,61.500000,163,61.500000L163,53.500000C163,52.400000,163.900000,52,165,52.700000C166.100000,53.300000,167,53,167,51.900000C167,50.800000,166.100000,49.400000,165,48.700000C161.700000,46.800000,159,47.900000,159,51.200000L159,59.200000C159,60.300000,158.100000,60.700000,157,60C155.900000,59.400000,155,59.700000,155,60.800000C155,61.900000,155.900000,63.300000,157,64C158.100000,64.600000,159,66.100000,159,67.200000L159,75.200000C159,78.500000,161.700000,82.700000,165,84.700000C166.100000,85.300000,167,85,167,83.900000C167,82.700000,166.100000,81.300000,165,80.700000L165,80.700000L165,80.700000ZM197,99.100000C198.100000,99.700000,199,99.400000,199,98.300000L199,90.300000C199,90.300000,199,90.300000,199,90.300000C199,88.800000,199.500000,87.700000,200.500000,87.200000C199.500000,85.500000,199,83.800000,199,82.300000C199,82.300000,199,82.300000,199,82.300000L199,74.300000C199,73.200000,198.100000,71.800000,197,71.100000C195.900000,70.500000,195,69,195,67.900000C195,66.800000,195.900000,66.400000,197,67.100000C200.300000,69,203,73.200000,203,76.600000L203,84.600000C203,85.700000,203.900000,87.100000,205,87.800000C206.100000,88.400000,207,89.900000,207,91C207,92.100000,206.100000,92.500000,205,91.800000C203.900000,91.200000,203,91.500000,203,92.600000L203,100.600000C203,103.900000,200.300000,105,197,103.100000C195.900000,102.500000,195,101,195,99.900000C195,98.800000,195.900000,98.500000,197,99.100000L197,99.100000L197,99.100000ZM189,78.500000C190.100000,79.100000,191,80.600000,191,81.700000C191,82.800000,190.100000,83.200000,189,82.500000C187.900000,81.900000,187,80.500000,187,79.300000C187,78.300000,187.900000,77.900000,189,78.500000L189,78.500000ZM181,73.900000C182.100000,74.500000,183,76,183,77.100000C183,78.200000,182.100000,78.600000,181,77.900000C179.900000,77.300000,179,75.900000,179,74.700000C179,73.600000,179.900000,73.300000,181,73.900000L181,73.900000ZM173,69.300000C174.100000,69.900000,175,71.400000,175,72.500000C175,73.600000,174.100000,74,173,73.300000C171.900000,72.700000,171,71.200000,171,70.100000C171,69,171.900000,68.700000,173,69.300000Z" clip-rule="evenodd" fill="rgb(240,82,62)" fill-rule="evenodd" stroke="none" stroke-width="1"/><path id="ee84zaoaxb2n48" d="M176,109.500000C175.400000,109.100000,174.800000,109.100000,174.500000,109.300000L174.500000,109.300000L172.500000,110.400000L172.500000,110.400000C172.900000,110.200000,173.400000,110.200000,174,110.600000L174,110.600000C175.100000,111.200000,176,112.700000,176,113.800000L176,125.800000C176,127.300000,175.500000,128.300000,174.600000,128.900000L174.600000,128.900000L176.500000,127.800000L176.500000,127.800000C177.400000,127.300000,178,126.200000,178,124.700000L178,112.700000C178,111.600000,177.100000,110.100000,176,109.500000L176,109.500000L176,109.500000ZM172,123.200000C170.900000,122.600000,170,121.100000,170,120C170,118.900000,169.100000,117.500000,168,116.800000C167.400000,116.400000,166.800000,116.400000,166.500000,116.600000L164.600000,117.700000C165,117.500000,165.500000,117.600000,166.100000,117.900000C167.200000,118.500000,168.100000,120,168.100000,121.100000C168.100000,122.200000,169,123.600000,170.100000,124.300000C171.200000,124.900000,172.100000,124.600000,172.100000,123.500000L172.100000,123.200000L172,123.200000ZM192.600000,139.200000L194.500000,138.100000L194.500000,138.100000C195.400000,137.600000,196,136.500000,196,135C196,131.700000,193.300000,127.400000,190,125.500000C189,124.900000,188.200000,123.700000,188,122.600000L188,122.600000L188,122.600000C186.900000,122,186,122.300000,186,123.400000C186,124.500000,186.900000,125.900000,188,126.600000C191.300000,128.500000,194,132.800000,194,136.100000C194,137.700000,193.500000,138.700000,192.600000,139.200000L192.600000,139.200000L192.600000,139.200000ZM193.500000,125.200000C193.800000,125,194,124.700000,194,124.200000C194,123.100000,193.100000,121.700000,192,121L188,118.700000C186.200000,117.700000,184.600000,117.500000,183.500000,118.100000L183.500000,118.100000L185.400000,117L185.400000,117L185.400000,117C186.500000,116.400000,188.100000,116.500000,189.900000,117.600000L193.900000,119.900000C195,120.500000,195.900000,122,195.900000,123.100000C195.900000,123.600000,195.700000,123.900000,195.400000,124.100000L195.400000,124.100000L195.400000,124.100000L195.400000,124.100000L193.500000,125.200000L193.500000,125.200000ZM190,133.600000C190,133.700000,190,133.800000,190,133.900000C190,135,189.100000,135.400000,188,134.700000L184,132.400000C183.400000,132.100000,182.900000,132,182.500000,132.200000L184.500000,131.100000C184.900000,130.900000,185.400000,130.900000,186,131.300000L190,133.600000Z" clip-rule="evenodd" fill="rgb(206,70,53)" fill-rule="evenodd" stroke="none" stroke-width="1"/><path id="ee84zaoaxb2n49" d="M174,110.600000C172.900000,110,172,110.300000,172,111.400000L172,123.400000C172,124.500000,171.100000,124.900000,170,124.200000C168.900000,123.600000,168,122.100000,168,121C168,119.900000,167.100000,118.500000,166,117.800000C164.900000,117.200000,164,117.500000,164,118.600000C164,121.900000,166.700000,126.200000,170,128.100000C173.300000,130,176,128.900000,176,125.600000L176,113.600000C176,112.700000,175.100000,111.300000,174,110.600000L174,110.600000L174,110.600000ZM188,122.700000L192,125C193.100000,125.600000,194,125.300000,194,124.200000C194,123.100000,193.100000,121.700000,192,121L188,118.700000C184.700000,116.800000,182,117.900000,182,121.200000C182,124.500000,184.700000,128.800000,188,130.700000C189.100000,131.300000,190,132.800000,190,133.900000C190,135,189.100000,135.400000,188,134.700000L184,132.400000C182.900000,131.800000,182,132.100000,182,133.200000C182,134.300000,182.900000,135.700000,184,136.400000L188,138.700000C191.300000,140.600000,194,139.500000,194,136.200000C194,132.900000,191.300000,128.600000,188,126.700000C186.900000,126.100000,186,124.600000,186,123.500000C186,122.500000,186.900000,122.100000,188,122.700000L188,122.700000Z" clip-rule="evenodd" fill="rgb(255,255,255)" fill-rule="evenodd" stroke="none" stroke-width="1"/><path id="ee84zaoaxb2n50" d="M140,86L140,14.400000C140,10.300000,141.600000,7.600000,144.100000,7C144,7.100000,143.900000,7.100000,143.800000,7.200000C141.600000,8.200000,141,11.300000,141,13.500000L141,14.500000L141,86.700000L140,86Z" clip-rule="evenodd" fill="rgb(230,230,230)" fill-rule="evenodd" stroke="none" stroke-width="1"/><path id="ee84zaoaxb2n51" d="M218.300000,159.200000C216.700000,160.300000,214.700000,160.300000,212.400000,158.900000L148.700000,122.100000C143.900000,119.400000,140,111.900000,140,105.600000L140,86L141,86.600000L141,104.700000L141,105.700000C141,111.200000,144.300000,118.600000,149.200000,121.400000L212.900000,158.200000C213,158.200000,213.100000,158.300000,213.200000,158.300000L213.900000,158.700000C215.100000,159.400000,216.800000,159.900000,218.300000,159.200000L218.300000,159.200000Z" clip-rule="evenodd" fill="rgb(206,70,53)" fill-rule="evenodd" stroke="none" stroke-width="1"/></g></g></svg>