<svg id="ebftlbhvhmv81" xmlns="http://www.w3.org/2000/svg" xmlns:xlink="http://www.w3.org/1999/xlink" viewBox="0 0 500 460" shape-rendering="geometricPrecision" text-rendering="geometricPrecision"><style><![CDATA[#ebftlbhvhmv84_to {animation: ebftlbhvhmv84_to__to 6000ms linear infinite normal forwards}@keyframes ebftlbhvhmv84_to__to { 0% {transform: translate(0px,0px)} 50% {transform: translate(0px,10px)} 100% {transform: translate(0px,0px)} }#ebftlbhvhmv89_to {animation: ebftlbhvhmv89_to__to 6000ms linear infinite normal forwards}@keyframes ebftlbhvhmv89_to__to { 0% {transform: translate(0px,85px)} 83.333333% {transform: translate(0px,-120px)} 100% {transform: translate(0px,-120px)} }#ebftlbhvhmv89 {animation: ebftlbhvhmv89_c_o 6000ms linear infinite normal forwards}@keyframes ebftlbhvhmv89_c_o { 0% {opacity: 0} 8.333333% {opacity: 1} 66.666667% {opacity: 1} 75% {opacity: 0} 100% {opacity: 0} }#ebftlbhvhmv822_to {animation: ebftlbhvhmv822_to__to 6000ms linear infinite normal forwards}@keyframes ebftlbhvhmv822_to__to { 0% {transform: translate(0px,0px)} 50% {transform: translate(0px,10px)} 100% {transform: translate(0px,0px)} }#ebftlbhvhmv837_to {animation: ebftlbhvhmv837_to__to 6000ms linear infinite normal forwards}@keyframes ebftlbhvhmv837_to__to { 0% {transform: translate(0px,0px)} 50% {transform: translate(0px,-20px)} 100% {transform: translate(0px,0px)} }]]></style><defs><filter id="ebftlbhvhmv818-filter" x="-400%" width="600%" y="-400%" height="600%"><feGaussianBlur id="ebftlbhvhmv818-filter-blur-0" stdDeviation="5,5" result="result"/><feComponentTransfer id="ebftlbhvhmv818-filter-opacity-0" result="result"><feFuncA id="ebftlbhvhmv818-filter-opacity-0-A" type="table" tableValues="0 0.600000"/></feComponentTransfer></filter><filter id="ebftlbhvhmv819-filter" x="-400%" width="600%" y="-400%" height="600%"><feGaussianBlur id="ebftlbhvhmv819-filter-blur-0" stdDeviation="5,5" result="result"/><feComponentTransfer id="ebftlbhvhmv819-filter-opacity-0" result="result"><feFuncA id="ebftlbhvhmv819-filter-opacity-0-A" type="table" tableValues="0 0.500000"/></feComponentTransfer></filter></defs><path id="ebftlbhvhmv82" d="M245.800000,342.700000L183,378.900000C178.300000,381.600000,169.900000,381.300000,164.400000,378.100000L104.600000,343.600000C99.100000,340.400000,98.500000,335.600000,103.300000,332.900000L166.100000,296.600000C170.800000,293.900000,179.200000,294.200000,184.700000,297.400000L244.500000,331.900000C249.900000,335.100000,250.500000,339.900000,245.800000,342.700000Z" opacity="0.1" clip-rule="evenodd" fill="rgb(153,153,153)" fill-rule="evenodd" stroke="none" stroke-width="1"/><path id="ebftlbhvhmv83" d="M391.500000,312L457.400000,350.100000C460.800000,352,460.800000,356.900000,457.400000,358.800000L304,447.300000L304,447.300000C297.800000,450.900000,289.900000,450.900000,283.700000,447.100000L217.500000,409C214.200000,407.100000,214,402.400000,217.200000,400.300000C217.300000,400.300000,217.300000,400.200000,217.400000,400.200000L370.300000,312C376.700000,307.900000,385.100000,307.900000,391.500000,312Z" opacity="0.1" clip-rule="evenodd" fill="rgb(153,153,153)" fill-rule="evenodd" stroke="none" stroke-width="1"/><g id="ebftlbhvhmv84_to" transform="translate(0,0)"><g id="ebftlbhvhmv84" transform="translate(0,0)"><polygon id="ebftlbhvhmv85" points="246.500000,229.800000 174.500000,271.300000 174.500000,188.200000" clip-rule="evenodd" fill="rgb(239,239,239)" fill-rule="evenodd" stroke="none" stroke-width="1"/><polygon id="ebftlbhvhmv86" points="174.500000,271.300000 102.500000,229.800000 174.500000,188.200000" clip-rule="evenodd" fill="rgb(185,187,192)" fill-rule="evenodd" stroke="none" stroke-width="1"/><polygon id="ebftlbhvhmv87" points="145.100000,163.600000 73.100000,205.100000 102.500000,229.800000 174.500000,188.200000" clip-rule="evenodd" fill="rgb(245,245,245)" fill-rule="evenodd" stroke="none" stroke-width="1"/><rect id="ebftlbhvhmv88" width="36" height="83.100000" rx="0" ry="0" transform="matrix(0.50000000000000 -0.86600000000000 0.86600000000000 0.50000000000000 174.45889999999997 188.17900000000000)" clip-rule="evenodd" fill="rgb(224,225,227)" fill-rule="evenodd" stroke="none" stroke-width="1"/><g id="ebftlbhvhmv89_to" transform="translate(0,85)"><g id="ebftlbhvhmv89" transform="translate(0,0)" opacity="0"><path id="ebftlbhvhmv810" d="M129,141.700000L129,141.700000L129,141.700000L129,141.700000L129,141.700000ZM129,141.700000L136,137.700000L136,137.700000C137.500000,136.800000,139.500000,136.900000,141.600000,138.100000L196.300000,169.700000C201.100000,172.500000,205,179.900000,205,186.200000L205,235.900000C205,239.400000,203.800000,241.900000,202,242.900000L202,242.900000L195.200000,246.800000C196.900000,245.700000,198,243.300000,198,239.900000L198,190.200000C198,183.800000,194.100000,176.400000,189.300000,173.700000L134.600000,142.100000C132.500000,140.900000,130.500000,140.800000,129,141.700000L129,141.700000ZM194.800000,247L194.800000,247L194.800000,247L194.800000,247Z" clip-rule="evenodd" fill="rgb(206,70,53)" fill-rule="evenodd" stroke="none" stroke-width="1"/><path id="ebftlbhvhmv811" d="M189.300000,246.400000L134.600000,214.800000C129.800000,212,125.900000,204.600000,125.900000,198.300000L125.900000,148.600000C125.900000,142.200000,129.800000,139.300000,134.600000,142.100000L189.300000,173.700000C194.100000,176.500000,198,183.900000,198,190.200000L198,239.900000C198,246.200000,194.100000,249.200000,189.300000,246.400000Z" clip-rule="evenodd" fill="rgb(243,117,100)" fill-rule="evenodd" stroke="none" stroke-width="1"/><path id="ebftlbhvhmv812" d="M189.800000,245.600000C191.100000,246.300000,192.700000,246.800000,194.200000,246.200000C196.400000,245.200000,197,242.100000,197,239.900000L197,190.200000C197,184.700000,193.700000,177.300000,188.800000,174.500000L134.200000,143C132.900000,142.300000,131.300000,141.800000,129.800000,142.400000C127.600000,143.400000,127,146.500000,127,148.700000L127,198.400000C127,203.900000,130.300000,211.300000,135.200000,214.100000L189.800000,245.600000Z" clip-rule="evenodd" fill="rgb(240,82,62)" fill-rule="evenodd" stroke="none" stroke-width="1"/><g id="ebftlbhvhmv813"><path id="ebftlbhvhmv814" d="M161.800000,180.700000C164.300000,182.200000,166.300000,183.800000,167.800000,185.500000C169.200000,187.200000,170.200000,189,171,191C171.700000,192.900000,172.100000,194.700000,172.100000,196.300000C172.100000,199.200000,171.300000,201.200000,169.800000,202.100000L169.800000,202.100000L166.800000,203.800000L166.800000,203.800000C168.400000,202.900000,169.200000,201,169.200000,198C169.200000,196.300000,168.800000,194.500000,168.100000,192.700000C167.400000,190.700000,166.300000,188.900000,164.900000,187.200000C163.400000,185.400000,161.500000,183.800000,158.900000,182.400000L158.900000,182.400000L155.300000,180.300000C154.100000,179.600000,153.300000,179.400000,152.800000,179.600000L152.800000,179.600000L155.800000,177.900000L155.800000,177.900000L155.800000,177.900000L155.800000,177.900000L155.800000,177.900000C156.300000,177.700000,157.100000,177.900000,158.300000,178.600000L161.800000,180.700000L161.800000,180.700000L161.800000,180.700000ZM152.600000,179.600000L152.600000,179.600000L152.600000,179.600000L152.600000,179.600000L152.600000,179.600000ZM150.300000,177.900000L150.300000,177.900000C150.300000,177.900000,150.300000,178,150.300000,177.900000L147.300000,179.600000C147.600000,179.400000,147.700000,179.100000,147.700000,178.500000C147.700000,177.700000,147.200000,176.800000,146.300000,175.700000C145.300000,174.600000,144,173.500000,142.400000,172.600000C140.400000,171.500000,138.800000,171,137.400000,171.300000C137.200000,171.400000,136.900000,171.400000,136.700000,171.500000L139.400000,169.900000C139.700000,169.700000,140,169.600000,140.300000,169.500000C141.600000,169.200000,143.300000,169.600000,145.300000,170.800000C147,171.800000,148.300000,172.800000,149.200000,173.900000C150.200000,175,150.600000,176,150.600000,176.700000C150.700000,177.400000,150.600000,177.800000,150.300000,177.900000L150.300000,177.900000L150.300000,177.900000ZM146.600000,179.700000C146.300000,179.600000,146,179.500000,145.700000,179.300000C145.300000,179.100000,144.700000,178.600000,144,178C143.300000,177.300000,142.700000,176.900000,142.200000,176.600000C141.600000,176.300000,141.100000,176.100000,140.700000,176.100000C140.200000,176.100000,140,176.400000,140,177C140,177.300000,140.100000,177.700000,140.300000,178C140.500000,178.400000,141,179,141.800000,179.800000C142.400000,180.300000,143,180.900000,143.600000,181.400000C144.400000,182.200000,145.200000,182.900000,145.800000,183.600000C146,183.800000,146.200000,184,146.400000,184.200000C146.600000,184.400000,146.700000,184.600000,146.800000,184.800000C147,185.100000,147.200000,185.400000,147.400000,185.700000C148.500000,187.300000,149,188.900000,149,190.500000C149,192.100000,148.500000,193.200000,147.600000,193.700000L150.600000,192L150.600000,192C151.500000,191.500000,152,190.400000,152,188.800000C152,187.200000,151.500000,185.600000,150.400000,184C149.500000,182.700000,148.300000,181.300000,146.600000,179.700000L146.600000,179.700000ZM135.400000,184.800000L139.600000,182.400000C140,182.700000,140.300000,183.100000,140.800000,183.400000C142,184.400000,142.800000,185.200000,143.300000,185.900000C143.900000,186.600000,144.200000,187.400000,144.200000,188.100000C144.200000,188.700000,144,189.100000,143.600000,189.200000C143.200000,189.300000,142.600000,189.200000,142,188.800000C141.400000,188.400000,140.500000,187.700000,139.300000,186.800000C138.200000,185.900000,137.500000,185.300000,137.200000,185.100000C136.600000,184.700000,136.100000,184.600000,135.600000,184.700000C135.600000,184.800000,135.500000,184.800000,135.400000,184.800000L135.400000,184.800000ZM136.400000,171.700000L136.400000,171.700000L136.400000,171.700000L136.400000,171.700000L136.400000,171.700000ZM175.600000,189.600000L172.800000,191.200000C173.200000,191,173.900000,191.100000,174.500000,191.500000L174.500000,191.500000C175.900000,192.300000,177,194.100000,177,195.400000L177,199.400000L182.700000,197C183.700000,196.600000,185.300000,197.500000,186.200000,199L186.200000,199C186.900000,200,187.100000,201.100000,186.800000,201.800000L189.200000,200.800000C190.200000,200.400000,190.200000,198.800000,189.200000,197.300000L189.200000,197.300000C188.200000,195.800000,186.600000,194.800000,185.700000,195.300000L180,197.700000L180,193.700000C180,192.300000,178.900000,190.600000,177.500000,189.800000L177.500000,189.800000C176.700000,189.300000,176.100000,189.300000,175.600000,189.600000L175.600000,189.600000L175.600000,189.600000L175.600000,189.600000ZM176.400000,211.700000L179.300000,210C179.300000,210,179.400000,210,179.400000,209.900000L179.700000,209.700000L177.500000,206.200000L177,206.400000L177,210.400000C177,211.100000,176.800000,211.500000,176.400000,211.700000L176.400000,211.700000ZM187.400000,218L187.400000,218L190.300000,216.300000L190.300000,216.300000C191.200000,215.800000,191.100000,214.300000,190.200000,212.800000L184.200000,203.300000L181,204.700000L187.200000,214.500000C188.200000,216,188.200000,217.500000,187.400000,218L187.400000,218ZM159.500000,195.200000L159.500000,195.200000L159.500000,187.200000C159.200000,187,158.900000,186.800000,158.500000,186.600000L156.500000,185.400000L156.500000,196.900000L156.500000,196.900000L158.600000,198.100000C161.400000,199.700000,163.200000,199.500000,163.800000,197.300000C163.200000,197.100000,162.400000,196.800000,161.600000,196.400000L159.500000,195.200000Z" clip-rule="evenodd" fill="rgb(206,70,53)" fill-rule="evenodd" stroke="none" stroke-width="1"/><path id="ebftlbhvhmv815" d="M158.800000,182.400000C161.300000,183.900000,163.300000,185.500000,164.800000,187.200000C166.200000,188.900000,167.200000,190.700000,168,192.700000C168.700000,194.600000,169.100000,196.400000,169.100000,198C169.100000,201.100000,168.300000,203,166.600000,203.900000C164.800000,204.800000,162.500000,204.400000,159.400000,202.600000L155.200000,200.200000C154.100000,199.500000,153.300000,198.900000,152.800000,198.200000C152.300000,197.500000,152.100000,196.600000,152.100000,195.500000L152.100000,181.600000C152.100000,180.400000,152.300000,179.700000,152.800000,179.500000C153.300000,179.300000,154.100000,179.500000,155.300000,180.200000L158.800000,182.400000L158.800000,182.400000L158.800000,182.400000ZM149,190.500000C149,192.600000,148.200000,193.800000,146.700000,194.100000C145.300000,194.400000,143.500000,193.900000,141.400000,192.700000C140.300000,192.100000,139.200000,191.300000,138.200000,190.400000C137,189.300000,136,188.300000,135.500000,187.300000C135.200000,186.700000,135,186.300000,135,185.900000C135,185.300000,135.200000,184.900000,135.600000,184.800000C136,184.700000,136.500000,184.800000,137.200000,185.200000C137.500000,185.400000,138.200000,185.900000,139.300000,186.900000C140.400000,187.900000,141.300000,188.600000,142,188.900000C142.600000,189.300000,143.200000,189.400000,143.600000,189.300000C144,189.200000,144.200000,188.800000,144.200000,188.200000C144.200000,187.400000,143.900000,186.700000,143.300000,186C142.800000,185.400000,141.900000,184.600000,140.800000,183.500000C139,181.900000,137.700000,180.600000,136.900000,179.400000C135.800000,177.800000,135.200000,176.200000,135.200000,174.700000C135.200000,172.800000,135.900000,171.600000,137.400000,171.300000C138.700000,171,140.400000,171.400000,142.400000,172.600000C144.100000,173.600000,145.400000,174.600000,146.300000,175.700000C147.300000,176.800000,147.700000,177.800000,147.700000,178.500000C147.700000,179.800000,147,180,145.700000,179.200000C145.300000,179,144.700000,178.500000,144,177.900000C143.300000,177.200000,142.700000,176.800000,142.200000,176.500000C141.600000,176.200000,141.100000,176,140.700000,176C140.200000,176,140,176.300000,140,176.900000C140,177.200000,140.100000,177.600000,140.300000,177.900000C140.500000,178.300000,141,178.900000,141.800000,179.700000C142.400000,180.200000,143,180.800000,143.600000,181.300000C145.300000,182.900000,146.600000,184.300000,147.400000,185.600000C148.500000,187.300000,149,188.900000,149,190.500000L149,190.500000ZM174.500000,191.500000L174.500000,191.500000C175.900000,192.300000,177,194.100000,177,195.400000L177,199.400000L182.700000,197C183.700000,196.600000,185.300000,197.500000,186.200000,199L186.200000,199C187.200000,200.500000,187.200000,202.100000,186.200000,202.500000L181,204.700000L187.200000,214.500000C188.200000,216,188.200000,217.600000,187.200000,218L187.200000,218C186.200000,218.400000,184.600000,217.500000,183.700000,216L177.500000,206.200000L177,206.400000L177,210.400000C177,211.800000,175.900000,212.300000,174.500000,211.500000L174.500000,211.500000C173.100000,210.700000,172,208.900000,172,207.600000L172,192.600000C172,191.200000,173.100000,190.700000,174.500000,191.500000L174.500000,191.500000ZM156.500000,196.900000L158.600000,198.100000C162.200000,200.200000,164,199.200000,164,195.200000C164,191.500000,162.200000,188.600000,158.500000,186.500000L156.500000,185.300000L156.500000,196.900000L156.500000,196.900000Z" clip-rule="evenodd" fill="rgb(255,255,255)" fill-rule="evenodd" stroke="none" stroke-width="1"/></g></g></g><path id="ebftlbhvhmv816" d="M246.500000,229.800000L174.500000,271.400000L174.500000,343.800000C174.900000,343.800000,175.200000,343.700000,175.500000,343.500000L244.900000,303.400000C245.700000,302.900000,246.400000,301.600000,246.400000,300.500000L246.400000,229.800000Z" clip-rule="evenodd" fill="rgb(185,187,192)" fill-rule="evenodd" stroke="none" stroke-width="1"/><path id="ebftlbhvhmv817" d="M102.500000,229.800000L174.500000,271.400000L174.500000,343.800000C174.100000,343.800000,173.800000,343.700000,173.500000,343.500000L104,303.400000C103.200000,302.900000,102.500000,301.600000,102.500000,300.500000L102.500000,229.800000Z" clip-rule="evenodd" fill="rgb(225,225,225)" fill-rule="evenodd" stroke="none" stroke-width="1"/><path id="ebftlbhvhmv818" d="M178.600000,274.800000C184.900000,282.500000,191.500000,289,202.300000,294.700000L268.300000,257.200000L178.600000,274.800000Z" clip-rule="evenodd" filter="url(#ebftlbhvhmv818-filter)" fill="rgb(0,0,0)" fill-rule="evenodd" stroke="none" stroke-width="1"/><path id="ebftlbhvhmv819" d="M170.400000,274.800000C164.100000,282.500000,157.500000,289,146.700000,294.700000L80.700000,257.200000L170.400000,274.800000Z" clip-rule="evenodd" filter="url(#ebftlbhvhmv819-filter)" fill="rgb(0,0,0)" fill-rule="evenodd" stroke="none" stroke-width="1"/><polygon id="ebftlbhvhmv820" points="246.500000,229.800000 174.500000,271.300000 203.800000,296 275.800000,254.400000" clip-rule="evenodd" fill="rgb(224,225,227)" fill-rule="evenodd" stroke="none" stroke-width="1"/><polygon id="ebftlbhvhmv821" points="102.500000,229.800000 174.500000,271.300000 145.100000,296 73.100000,254.400000" clip-rule="evenodd" fill="rgb(245,245,245)" fill-rule="evenodd" stroke="none" stroke-width="1"/></g></g><g id="ebftlbhvhmv822_to" transform="translate(0,0)"><g id="ebftlbhvhmv822" transform="translate(0,0)"><g id="ebftlbhvhmv823"><path id="ebftlbhvhmv824" d="M460,307.600000L460,307.600000L460,314.200000C460.100000,316,459.200000,317.800000,457.500000,318.800000L304,407.300000L304,407.300000C300.900000,409.100000,297.400000,410,293.900000,410L293.900000,403C297.400000,403,300.900000,402.100000,304,400.300000L304,400.300000L457.400000,311.700000C459.100000,310.800000,459.900000,309.200000,460,307.600000Z" clip-rule="evenodd" fill="rgb(161,161,161)" fill-rule="evenodd" stroke="none" stroke-width="1"/><path id="ebftlbhvhmv825" d="M293.900000,410C290.400000,410,286.900000,409,283.800000,407.200000L217.500000,369C215.800000,368,214.900000,366.300000,214.900000,364.600000L214.900000,364.600000L214.900000,357.600000L214.900000,357.600000C214.900000,359.300000,215.800000,361,217.500000,362L283.700000,400.200000C286.800000,402.100000,290.300000,403,293.800000,403L293.800000,410Z" clip-rule="evenodd" fill="rgb(186,186,186)" fill-rule="evenodd" stroke="none" stroke-width="1"/><path id="ebftlbhvhmv826" d="M460,306.900000C460.200000,308.800000,459.300000,310.700000,457.500000,311.800000L304,400.300000L304,400.300000C297.800000,403.900000,289.900000,403.900000,283.700000,400.100000L217.500000,362C215.600000,360.900000,214.700000,358.900000,214.900000,357C215.100000,358.600000,215.900000,360.100000,217.500000,361L283.700000,399.200000C289.900000,402.900000,297.700000,403,304,399.400000L304,399.400000L457.400000,310.800000C459,309.900000,459.800000,308.400000,460,306.900000Z" clip-rule="evenodd" fill="rgb(237,237,237)" fill-rule="evenodd" stroke="none" stroke-width="1"/><g id="ebftlbhvhmv827"><path id="ebftlbhvhmv828" d="M223.700000,359.700000C222.900000,359.300000,222.400000,358.500000,222.400000,357.500000C222.400000,356.500000,223,355.600000,223.900000,355.200000L372.800000,269.200000C372.900000,269.200000,372.900000,269.100000,373,269.100000C377.800000,266.100000,384.100000,266.100000,389,269.100000C389.100000,269.100000,389.100000,269.200000,389.200000,269.200000L451.400000,305.100000C452.200000,305.500000,452.700000,306.300000,452.700000,307.300000C452.700000,308.200000,452.200000,309,451.500000,309.400000L451.500000,309.400000L451.500000,309.400000L451.500000,309.400000L302,395.700000C301.900000,395.700000,301.800000,395.800000,301.700000,395.900000C297,398.600000,291.100000,398.600000,286.500000,395.800000C286.500000,395.800000,286.500000,395.800000,286.400000,395.800000L223.700000,359.700000L223.700000,359.700000Z" clip-rule="evenodd" fill="rgb(255,255,255)" fill-rule="evenodd" stroke="none" stroke-width="1"/><path id="ebftlbhvhmv829" d="M223.700000,359.700000C222.900000,359.300000,222.400000,358.500000,222.400000,357.500000C222.400000,356.500000,223,355.600000,223.900000,355.200000L372.800000,269.200000C372.900000,269.200000,372.900000,269.100000,373,269.100000C377.800000,266.100000,384.100000,266.100000,389,269.100000C389.100000,269.100000,389.100000,269.200000,389.200000,269.200000L451.400000,305.100000C452.200000,305.500000,452.700000,306.300000,452.700000,307.300000C452.700000,308.200000,452.200000,309,451.500000,309.400000L451.500000,309.400000L451.500000,309.400000L451.500000,309.400000L302,395.700000C301.900000,395.700000,301.800000,395.800000,301.700000,395.900000C297,398.600000,291.100000,398.600000,286.500000,395.800000C286.500000,395.800000,286.500000,395.800000,286.400000,395.800000L223.700000,359.700000L223.700000,359.700000Z" clip-rule="evenodd" fill="rgb(229,229,229)" fill-rule="evenodd" stroke="none" stroke-width="1"/><path id="ebftlbhvhmv830" d="M347.500000,349.100000L331.900000,344.700000L330.700000,344.400000L328.300000,343.700000L327.300000,343.400000L326.800000,343.100000L313.600000,334.800000L312.700000,334.200000L311.400000,333.400000L310.500000,332.800000L308.100000,331.300000L307.100000,329.700000L313.500000,331.200000L314.900000,331.500000L316.900000,331.900000L318.300000,332.200000L328.800000,334.600000L328.900000,334.600000L336.100000,335.800000L337.400000,336L356,339L347.500000,349.100000L347.500000,349.100000ZM349.900000,349.800000L358.300000,352.100000L367.900000,341L358.600000,339.500000L349.900000,349.800000L349.900000,349.800000ZM260.600000,381.100000L309.300000,367.400000L311.500000,367L319.900000,367.500000C320.200000,367.500000,320.500000,367.500000,320.700000,367.400000L333.300000,362.900000L334.900000,362.300000L338.700000,360.900000L340.200000,360.400000L341.600000,359.800000L343.400000,357.600000L344.600000,356.100000L348.700000,351.200000L357.100000,353.500000L353.200000,357.900000L352,359.300000L351.100000,360.400000L350.500000,361.100000L349.300000,362.700000L349.300000,363.200000L349.200000,364.700000L349,367.900000L349,368.600000L351.800000,367L351.900000,364.600000L352,362.900000L354.300000,360.200000L355.500000,358.800000L367.200000,345.300000L368.200000,344.200000L375.400000,335.900000L385.500000,334L388.100000,333.500000L389.500000,333.200000L390.800000,333L396.200000,331.900000L430.900000,317.400000L433.400000,316.900000L434.700000,316.700000L440.800000,315.500000L445,313.100000L441.800000,313.700000L440.500000,313.900000L433.700000,315.200000L432.400000,315.400000L429.300000,316L425.800000,317.500000L424.700000,318L416.400000,321.500000L415.200000,322L408.800000,324.700000L407.700000,325.200000L394.700000,330.700000L389.800000,331.600000L388.500000,331.800000L373.900000,334.500000C373.600000,334.600000,373.400000,334.700000,373.100000,334.900000L369,339.600000L366.200000,339.100000L364,338.700000L338.200000,334.500000L336.900000,334.300000L329.600000,333.100000L320.300000,331L318.900000,330.700000L316.900000,330.200000L315.500000,329.900000L305.200000,327.500000L297.900000,325.100000L296.700000,324.700000L283.800000,320.500000L281.900000,321.600000L303.600000,328.700000L305.800000,332.100000L308.300000,333.700000L309.200000,334.300000L310.500000,335.100000L311.400000,335.700000L325.700000,344.700000L326.500000,344.900000L346.200000,350.400000L341.800000,355.600000L340.600000,357.100000L339.200000,358.700000L336.700000,359.600000L335.200000,360.100000L331.300000,361.500000L329.700000,362.100000L319.600000,365.700000L312.200000,365.300000L310,365.300000L307.400000,366.100000L278.300000,374.300000L275.900000,375L258.700000,379.900000L260.600000,381.100000Z" clip-rule="evenodd" fill="rgb(255,200,110)" fill-rule="evenodd" stroke="none" stroke-width="1"/><path id="ebftlbhvhmv831" d="M261.700000,333.400000L263.900000,332.100000C264.200000,332.700000,264.600000,333.300000,265.100000,334C265.700000,334.700000,266.400000,335.300000,267.200000,335.700000C269.200000,336.900000,271.900000,337.500000,274.900000,338C277.900000,338.500000,281.100000,338.800000,284,339.500000C285.800000,339.800000,287.600000,340.400000,289.200000,341.300000C289.500000,341.400000,289.700000,341.600000,290,341.800000C290.300000,342,290.500000,342.200000,290.800000,342.500000L288.100000,343L287.900000,342.800000C287.700000,342.700000,287.600000,342.600000,287.400000,342.500000C286.100000,341.800000,284.700000,341.300000,283.200000,341.100000C281.500000,340.700000,279.500000,340.500000,277.400000,340.200000C273.300000,339.600000,268.800000,338.900000,265.400000,337C264.400000,336.400000,263.500000,335.700000,262.700000,334.900000C262.300000,334.300000,262,333.900000,261.700000,333.400000L261.700000,333.400000ZM360.900000,361.800000L359,362.900000C358.400000,362.500000,357.700000,362.100000,357,361.600000C356.200000,361.200000,355.300000,360.700000,354.400000,360.300000L354.400000,360.300000L355.600000,358.900000C356.700000,359.400000,357.800000,360,358.900000,360.600000C359.600000,360.900000,360.200000,361.400000,360.900000,361.800000L360.900000,361.800000ZM343.400000,357.500000L344.600000,356L346,356.200000C348.500000,356.500000,350.900000,357.100000,353.200000,357.900000L352,359.300000C349.900000,358.500000,347.600000,358,345.400000,357.700000L343.400000,357.500000L343.400000,357.500000ZM288.500000,354.700000C289.300000,355.100000,290.200000,355.500000,291.200000,355.600000C292.400000,355.900000,293.500000,356,294.700000,356C295.400000,356,296.100000,355.800000,296.700000,355.400000C297.400000,355,298,354.400000,298.400000,353.700000C298.900000,352.900000,299.300000,352.100000,299.700000,351.200000C300.500000,349.400000,301.300000,347.500000,303.400000,346.300000C304,346,304.500000,345.700000,305.200000,345.500000C306.900000,345.100000,308.700000,345.100000,310.500000,345.400000C312.300000,345.800000,314,346.300000,315.700000,347C317.400000,347.800000,319.100000,348.600000,320.800000,349.400000L319.600000,350.900000C317.600000,349.800000,315.500000,348.800000,313.400000,347.900000C311.800000,347.200000,310.200000,346.800000,308.500000,346.700000C307.800000,346.600000,307.100000,346.700000,306.500000,346.900000C306.100000,347,305.800000,347.100000,305.500000,347.300000C304.400000,348,303.600000,349,303.100000,350.200000C302.500000,351.500000,301.900000,352.900000,301.100000,354.100000C300.500000,355,299.800000,355.800000,298.800000,356.400000C297.700000,357,296.500000,357.300000,295.200000,357.400000C293.600000,357.500000,291.900000,357.300000,290.400000,356.900000C289.200000,356.600000,288,356.200000,286.800000,355.600000C285.800000,355.200000,285.100000,354.300000,284.800000,353.300000C284.700000,352.500000,284.800000,351.600000,285.200000,350.800000C286,349.200000,287.300000,347.600000,288.100000,346.100000C288.600000,345.400000,288.800000,344.600000,288.800000,343.800000L291.500000,344C291.500000,344.800000,291.300000,345.700000,290.800000,346.400000C289.900000,348,288.500000,349.600000,287.900000,351.100000C287.400000,351.800000,287.300000,352.700000,287.600000,353.500000C287.800000,354.100000,288.100000,354.500000,288.500000,354.700000L288.500000,354.700000L288.500000,354.700000ZM329.200000,354.100000C331.100000,354.700000,333.100000,355.100000,335.100000,355.100000C336.800000,355.200000,339,355.400000,342,355.700000L340.800000,357.200000C338.300000,356.900000,336.400000,356.800000,334.800000,356.700000C332.500000,356.600000,330.200000,356.200000,327.900000,355.500000C326.900000,355.100000,325.900000,354.700000,324.900000,354.100000C323.800000,353.500000,322.600000,352.800000,321.300000,352.100000L320.800000,351.800000L322,350.300000L324.900000,351.900000C326.300000,352.800000,327.700000,353.500000,329.200000,354.100000L329.200000,354.100000Z" clip-rule="evenodd" fill="rgb(110,160,252)" fill-rule="evenodd" stroke="none" stroke-width="1"/><path id="ebftlbhvhmv832" d="M223.700000,359.700000C222.900000,359.300000,222.400000,358.500000,222.400000,357.500000C222.400000,356.500000,223,355.600000,223.900000,355.200000L227.300000,353.200000L230,354.900000L255.800000,359.300000L251.800000,367.900000L231.400000,364L223.700000,359.700000L223.700000,359.700000L223.700000,359.700000ZM400,339.100000L374,354.100000L374,354.100000L370.100000,344L376.500000,336.800000L384.900000,334.900000L400,339.100000L400,339.100000L400,339.100000ZM305.700000,308L309.200000,306L311.600000,304.600000L321.200000,310.700000L315.100000,314L305.700000,308L305.700000,308ZM439.100000,316.600000L436.900000,317.900000L436.400000,317.100000L439.100000,316.600000L439.100000,316.600000ZM433,320.100000L431.600000,318.200000L397.300000,332.600000L393.900000,333.500000L404.200000,336.600000L433,320.100000L433,320.100000ZM370.500000,356.200000L369.600000,355.900000L366.500000,348.200000L357.500000,358.600000L361.800000,361.300000L370.500000,356.200000L370.500000,356.200000ZM346.900000,369.800000L325.500000,382.100000C324.600000,381.700000,323.800000,381.200000,323.100000,380.800000C317.900000,377.800000,316.600000,374.900000,326.500000,372.100000C333.200000,370.200000,346.100000,369.300000,346.800000,369.200000L346.900000,369.800000L346.900000,369.800000ZM392.900000,288.900000L371.100000,293.200000L368.100000,288.200000L389.800000,283.900000L392.900000,288.900000L392.900000,288.900000L392.900000,288.900000ZM323.900000,312.200000L317.800000,315.400000L328.500000,322.200000L334.700000,319L323.900000,312.200000Z" clip-rule="evenodd" fill="rgb(208,232,185)" fill-rule="evenodd" stroke="none" stroke-width="1"/><path id="ebftlbhvhmv833" d="M237.700000,367.800000L252.100000,370.500000L249.800000,374.800000L250.900000,375.400000L253.400000,370.700000L257.600000,371.500000L254.500000,377.500000L255.600000,378.100000L258.900000,371.700000L275.800000,374.900000L278.200000,374.200000L259.300000,370.700000L265.300000,359.200000L307.200000,366.100000L309.800000,365.300000L265.800000,358.100000L273.400000,343.400000L282.100000,344.600000L282.900000,344.500000C282,345.900000,281.400000,347.500000,280.900000,349.100000C280.500000,350.500000,280.500000,352.100000,280.800000,353.500000C281.300000,355.200000,282.500000,356.600000,284.100000,357.500000C285.300000,358.200000,286.700000,358.700000,288,358.900000C290.500000,359.500000,293.200000,359.700000,295.700000,359.400000C297.500000,359.200000,299.200000,358.600000,300.800000,357.800000C301,357.700000,301.300000,357.500000,301.500000,357.400000L313.300000,359.400000L310.200000,365.300000C310.300000,365.300000,310.500000,365.300000,310.700000,365.300000L312.200000,365.400000L315.200000,359.800000L329.700000,362.200000L331.300000,361.600000L315.700000,359L316.900000,356.700000L335.300000,360.200000L336.800000,359.700000L317.300000,356L320.800000,351.900000L322,350.400000L326.600000,345L325.800000,344.800000C325.700000,344.800000,325.500000,344.700000,325.400000,344.600000L325.100000,344.400000L320.700000,349.700000L319.500000,351.200000L315.600000,355.800000L304.400000,353.700000C304.200000,353.700000,304,353.700000,303.900000,353.700000C303.700000,353.700000,303.600000,353.900000,303.500000,354C302.700000,355.400000,301.600000,356.600000,300.100000,357.400000C298.700000,358.200000,297.200000,358.700000,295.700000,358.800000C293.400000,359,291,358.900000,288.700000,358.400000C287.500000,358.200000,286.300000,357.700000,285.200000,357.100000C283.800000,356.400000,282.800000,355.100000,282.300000,353.600000C281.700000,351.600000,282.300000,349.300000,283.100000,347.500000C283.400000,346.700000,283.800000,346,284.200000,345.300000C284.400000,345,284.500000,344.800000,284.600000,344.700000L284.800000,344.500000L287.200000,344.100000L288.800000,344.200000L291.500000,344.400000L294.900000,344.600000C295.100000,344.600000,295.300000,344.600000,295.400000,344.500000L311.500000,335.900000L310.600000,335.300000L294.700000,343.800000L291.300000,343.600000L290.500000,343.500000L291.300000,343.400000L293.600000,342.900000L309.300000,334.500000L308.400000,333.900000L292.800000,342.200000L290.800000,342.600000L288.100000,343.100000L282.100000,344.100000L262.400000,341.100000L255.900000,336.900000L255,337.400000L261.900000,341.800000L267.300000,342.600000L259.400000,357.200000L232.600000,352.800000L230.500000,351.400000L229.200000,352.200000L231.500000,353.700000C231.600000,353.800000,231.800000,353.800000,231.900000,353.800000L258.900000,358.200000L252.800000,369.500000L234.700000,366.100000L237.700000,367.800000L237.700000,367.800000ZM258.100000,370.500000L254,369.700000L260.100000,358.400000L264.100000,359L258.100000,370.500000L258.100000,370.500000ZM264.700000,358L260.700000,357.400000L268.600000,342.800000L272.300000,343.400000L264.700000,358L264.700000,358ZM302.500000,356.800000C303.300000,356.100000,304,355.300000,304.500000,354.400000L315,356.400000L313.800000,358.700000L302.500000,356.800000L302.500000,356.800000ZM372.700000,354.900000L372.100000,354.700000L368.200000,344.200000L367.200000,345.300000L370.800000,355.100000C370.800000,355.200000,370.900000,355.200000,371.200000,355.400000L371.700000,355.500000L372.700000,354.900000Z" clip-rule="evenodd" fill="rgb(255,255,255)" fill-rule="evenodd" stroke="none" stroke-width="1"/><path id="ebftlbhvhmv834" d="M310.300000,332.800000L313.400000,331.100000L314.800000,331.400000L311.200000,333.300000L310.300000,332.800000L310.300000,332.800000L310.300000,332.800000ZM318.200000,332.200000L318.200000,332.200000L316.800000,331.900000L312.500000,334.200000L313.400000,334.800000L318.200000,332.200000L318.200000,332.200000ZM435.800000,318.500000L434.700000,316.700000L433.400000,316.900000L434.700000,319L435.800000,318.500000L435.800000,318.500000ZM402.800000,337.600000L391.700000,334.600000L390.900000,333.100000L389.600000,333.300000L388.200000,333.600000L385.600000,334.100000L401.400000,338.400000L402.800000,337.600000L402.800000,337.600000ZM293.100000,398L309.200000,367.400000L310.900000,366.900000L311.400000,366.900000L295.100000,398L293.100000,398Z" clip-rule="evenodd" fill="rgb(255,255,255)" fill-rule="evenodd" stroke="none" stroke-width="1"/><path id="ebftlbhvhmv835" d="M291.200000,343.200000L291.300000,343.400000L290.500000,343.300000L291.200000,343.200000L291.200000,343.200000L291.200000,343.200000ZM349.300000,362.700000L349.300000,363.200000L340.400000,363.900000C340.300000,363.900000,340.200000,363.900000,340.100000,363.900000L333.300000,362.800000L334.900000,362.200000L339.900000,363L341.400000,361.300000L338.700000,360.800000L340.200000,360.300000L342,360.600000L343.200000,359.200000C343.400000,359,343.700000,358.900000,344,359L351.200000,360.300000L350.600000,361L344.200000,359.800000L341.500000,362.900000L349.500000,362.300000C349.300000,362.500000,349.300000,362.600000,349.300000,362.700000L349.300000,362.700000L349.300000,362.700000ZM327.200000,343.400000L326.700000,343.100000L334.800000,338L336.200000,335.900000L337.500000,336.100000L332,344.800000L330.800000,344.500000L333.200000,340.700000L328.400000,343.800000L327.200000,343.400000L327.200000,343.400000L327.200000,343.400000ZM435.300000,305.100000L428.500000,306.400000L422.900000,297L429.800000,295.700000L435.300000,305.100000L435.300000,305.100000ZM429.300000,295L422.400000,296.400000L416.700000,286.900000L418.600000,286.500000L417.400000,285.800000L408.400000,287.600000L402.400000,277.200000L400.200000,276L407.100000,288L397.500000,289.900000L387.500000,273L391.400000,271L390,270.200000L386.800000,271.900000L384.300000,267.600000L382.700000,267.300000L385.700000,272.400000L362,284.500000L358.100000,277.900000L357,278.500000L360.900000,285.100000L340.400000,295.600000L337.100000,290L335.600000,290.900000L341.600000,301.100000L323.800000,310.500000L313.200000,303.800000L312.300000,304.300000L322.900000,311L315.200000,315.100000L304.900000,308.600000L303.900000,309.200000L314.200000,315.700000L296.600000,325.100000L297.800000,325.500000L315.100000,316.300000L327.300000,323.900000L315.500000,330.200000L316.900000,330.500000L328.200000,324.500000L329.500000,325.300000L318.800000,331L320.200000,331.300000L330.400000,325.900000L339,331.300000L336.900000,334.700000L338.200000,334.900000L340.400000,331.500000L363.400000,338L364.100000,339.200000L366.300000,339.600000L356.800000,323.400000L380.300000,318L388.600000,332.200000L389.900000,332L381.600000,317.800000L400.400000,313.500000L407.800000,325.700000L408.900000,325.200000L401.600000,313.200000L407,312L408.800000,311.600000L415.300000,322.500000L416.400000,322L410.100000,311.300000L419.500000,309.400000L424.800000,318.400000L426,317.900000L420.900000,309.100000L427.700000,307.700000L432.600000,315.800000L433.900000,315.600000L429,307.500000L435.800000,306.200000L440.600000,314.400000L441.900000,314.200000L437.100000,306L448.200000,303.800000L447.100000,303.200000L436.700000,305.300000L431.200000,295.900000L433.600000,295.400000L432.500000,294.800000L430.700000,295.100000L429.500000,293L427.300000,291.700000L429.300000,295L429.300000,295ZM415.400000,287L421.100000,296.500000L414.500000,297.800000L408.900000,288.200000L415.400000,287L415.400000,287ZM413.200000,298.100000L403.700000,300L398.100000,290.500000L407.700000,288.600000L413.200000,298.100000L413.200000,298.100000ZM396.300000,289.900000L368.600000,295.300000L362.800000,285.400000L386.500000,273.300000L396.300000,289.900000L396.300000,289.900000ZM367.400000,295.700000L343.500000,300.400000L341.200000,296.500000L361.700000,286L367.400000,295.700000L367.400000,295.700000ZM342.400000,301.700000L348.700000,312.400000L337.100000,318.500000L325,310.800000L342.400000,301.700000L342.400000,301.700000ZM336.100000,319.100000L328.400000,323.100000L316.200000,315.500000L323.900000,311.400000L336.100000,319.100000L336.100000,319.100000ZM329.300000,323.700000L337,319.600000L338.300000,320.400000L330.700000,324.400000L329.300000,323.700000L329.300000,323.700000ZM331.600000,325.100000L339.200000,321L347.600000,326.300000L339.900000,330.300000L331.600000,325.100000L331.600000,325.100000ZM341.500000,330.600000L355.200000,323.500000L362.900000,336.600000L341.500000,330.600000L341.500000,330.600000ZM356.400000,322.200000L351.900000,314.600000L376,310.200000L379.900000,316.900000L356.400000,322.200000L356.400000,322.200000ZM344,301L367.900000,296.300000L375.600000,309.400000L351.500000,313.800000L344,301L344,301ZM350.300000,315.100000L354.700000,322.700000L348.600000,325.800000L340.200000,320.500000L350.300000,315.100000L350.300000,315.100000ZM339.300000,319.900000L338,319.100000L349.100000,313.200000L349.800000,314.400000L339.300000,319.900000L339.300000,319.900000ZM369.100000,296.100000L387.800000,292.400000L399.900000,312.300000L381.100000,316.600000L369.100000,296.100000L369.100000,296.100000ZM394.900000,301.600000L389.100000,292.100000L396.800000,290.600000L402.400000,300.100000L394.900000,301.600000L394.900000,301.600000ZM395.300000,302.400000L402.800000,300.900000L408.400000,310.400000L406.600000,310.800000L401.200000,312L395.300000,302.400000L395.300000,302.400000ZM404.100000,300.600000L413.600000,298.700000L419.100000,308.200000L409.700000,310.100000L404.100000,300.600000L404.100000,300.600000ZM414.900000,298.500000L420.400000,308L427.200000,306.700000L421.500000,297.300000L414.900000,298.500000Z" clip-rule="evenodd" fill="rgb(255,255,255)" fill-rule="evenodd" stroke="none" stroke-width="1"/></g><path id="ebftlbhvhmv836" d="M391.500000,265L457.400000,303.100000C460.800000,305,460.800000,309.900000,457.400000,311.800000L304,400.300000L304,400.300000C297.800000,403.900000,289.900000,403.900000,283.700000,400.100000L217.500000,362C214.200000,360.100000,214,355.400000,217.200000,353.300000C217.300000,353.300000,217.300000,353.200000,217.400000,353.200000L370.300000,265C376.700000,260.900000,385.100000,260.900000,391.500000,265L391.500000,265ZM399,275.100000L389,269.300000C388.900000,269.300000,388.900000,269.200000,388.800000,269.200000C384,266.200000,377.700000,266.200000,372.800000,269.200000C372.700000,269.200000,372.700000,269.300000,372.600000,269.300000L223.700000,355.300000C222.800000,355.700000,222.200000,356.600000,222.200000,357.600000C222.200000,358.500000,222.700000,359.300000,223.500000,359.800000L223.500000,359.800000L286.100000,395.900000C286.100000,395.900000,286.100000,395.900000,286.200000,395.900000C290.800000,398.700000,296.700000,398.700000,301.400000,396C301.500000,395.900000,301.600000,395.900000,301.700000,395.800000L451.200000,309.500000L451.200000,309.500000L451.200000,309.500000L451.200000,309.500000C451.900000,309.100000,452.400000,308.300000,452.400000,307.400000C452.400000,306.500000,451.900000,305.600000,451.100000,305.200000L436.300000,296.600000L434,298C432.400000,298.900000,430.400000,298.900000,428.900000,298L428.900000,298L397.200000,279.700000C395.700000,279,395.700000,276.900000,397.200000,276.100000L399,275.100000L399,275.100000Z" clip-rule="evenodd" fill="rgb(24,24,24)" fill-rule="evenodd" stroke="none" stroke-width="1"/></g><g id="ebftlbhvhmv837_to" transform="translate(0,0)"><g id="ebftlbhvhmv837" transform="translate(0,0)"><path id="ebftlbhvhmv838" d="M315,237.500000L319.700000,234.700000L319.700000,234.700000C325,231.500000,332.300000,231.800000,340.500000,236.500000C356.500000,245.800000,369.500000,268.300000,369.500000,286.800000C369.500000,294,367.500000,299.600000,364.200000,303.100000L342,329.400000C341.100000,330.600000,340.200000,330.300000,339.500000,328.800000L317.300000,276.900000C313.600000,269.200000,311.500000,260.900000,311.500000,253.400000C311.500000,247.800000,312.700000,243.200000,314.800000,239.800000L315,237.500000L315,237.500000ZM340.200000,286.700000C348.400000,291.500000,355.100000,287.600000,355.100000,278.100000C355.100000,268.600000,348.400000,257,340.200000,252.200000C332,247.400000,325.300000,251.300000,325.300000,260.800000C325.300000,270.400000,332,282,340.200000,286.700000Z" clip-rule="evenodd" fill="rgb(206,70,53)" fill-rule="evenodd" stroke="none" stroke-width="1"/><path id="ebftlbhvhmv839" d="M317.600000,236L319.700000,234.700000L319.700000,234.700000C325,231.500000,332.300000,231.800000,340.500000,236.500000C348.400000,241,355.500000,248.800000,360.700000,257.700000L350.700000,263.500000C348,258.800000,344.300000,254.700000,340.100000,252.300000C338.700000,251.500000,337.300000,250.900000,336,250.600000L336,250.600000L317.600000,236Z" clip-rule="evenodd" fill="rgb(243,117,100)" fill-rule="evenodd" stroke="none" stroke-width="1"/><polygon id="ebftlbhvhmv840" points="336.300000,333 341.400000,330 341.300000,327.400000 339.500000,326.800000 336,330.500000" clip-rule="evenodd" fill="rgb(206,70,53)" fill-rule="evenodd" stroke="none" stroke-width="1"/><path id="ebftlbhvhmv841" d="M335.600000,239.600000C319.600000,230.300000,306.600000,237.800000,306.600000,256.400000C306.600000,264,308.800000,272.200000,312.400000,279.900000L334.600000,331.800000C335.300000,333.300000,336.200000,333.600000,337.100000,332.400000L359.300000,306.200000C362.700000,302.700000,364.600000,297.100000,364.600000,289.900000C364.600000,271.400000,351.600000,248.800000,335.600000,239.600000L335.600000,239.600000ZM335.200000,289.700000C327,284.900000,320.300000,273.400000,320.300000,263.800000C320.300000,254.300000,327,250.400000,335.200000,255.200000C343.400000,260,350.100000,271.500000,350.100000,281.100000C350.100000,290.600000,343.400000,294.500000,335.200000,289.700000Z" clip-rule="evenodd" fill="rgb(240,82,62)" fill-rule="evenodd" stroke="none" stroke-width="1"/><path id="ebftlbhvhmv842" d="M335.600000,239.600000C330.800000,236.800000,326.200000,235.500000,322.200000,235.600000C326,235.700000,330.200000,237,334.600000,239.600000C350.600000,248.900000,363.600000,271.400000,363.600000,289.900000C363.600000,297.100000,361.600000,302.700000,358.300000,306.200000L336,332.400000C335.800000,332.700000,335.600000,332.900000,335.400000,333C335.900000,333.300000,336.500000,333.100000,337,332.400000L359.200000,306.200000C362.600000,302.700000,364.500000,297.100000,364.500000,289.900000C364.600000,271.400000,351.600000,248.800000,335.600000,239.600000L335.600000,239.600000ZM335.200000,289.700000C337.400000,291,339.500000,291.600000,341.300000,291.700000C339.200000,291.800000,336.700000,291.200000,334.200000,289.700000C326,284.900000,319.300000,273.400000,319.300000,263.800000C319.300000,256.800000,322.900000,252.900000,328.100000,253.200000C323.500000,253.500000,320.300000,257.300000,320.300000,263.800000C320.300000,273.400000,327,285,335.200000,289.700000Z" clip-rule="evenodd" fill="rgb(243,117,100)" fill-rule="evenodd" stroke="none" stroke-width="1"/></g></g></g></g></svg>