<svg id="ea9x4vfizjoe1" xmlns="http://www.w3.org/2000/svg" xmlns:xlink="http://www.w3.org/1999/xlink" viewBox="0 0 560 340" shape-rendering="geometricPrecision" text-rendering="geometricPrecision"><style><![CDATA[#ea9x4vfizjoe83_ts {animation: ea9x4vfizjoe83_ts__ts 5000ms linear infinite alternate forwards}@keyframes ea9x4vfizjoe83_ts__ts { 0% {transform: translate(329px,196px) scale(1,1)} 60% {transform: translate(329px,196px) scale(1,1);animation-timing-function: cubic-bezier(0.420000,0,1,1)} 80% {transform: translate(329px,196px) scale(2.670000,2.670000);animation-timing-function: cubic-bezier(0.420000,0,1,1)} 100% {transform: translate(329px,196px) scale(1,1)} }#ea9x4vfizjoe87_ts {animation: ea9x4vfizjoe87_ts__ts 5000ms linear infinite alternate forwards}@keyframes ea9x4vfizjoe87_ts__ts { 0% {transform: translate(391px,231px) scale(1,1)} 40% {transform: translate(391px,231px) scale(1,1);animation-timing-function: cubic-bezier(0.420000,0,1,1)} 60% {transform: translate(391px,231px) scale(2.670000,2.670000);animation-timing-function: cubic-bezier(0.420000,0,1,1)} 80% {transform: translate(391px,231px) scale(1,1)} 100% {transform: translate(391px,231px) scale(1,1)} }#ea9x4vfizjoe91_ts {animation: ea9x4vfizjoe91_ts__ts 5000ms linear infinite alternate forwards}@keyframes ea9x4vfizjoe91_ts__ts { 0% {transform: translate(391px,152px) scale(1,1)} 20% {transform: translate(391px,152px) scale(1,1);animation-timing-function: cubic-bezier(0.420000,0,1,1)} 40% {transform: translate(391px,152px) scale(2.650000,2.650000);animation-timing-function: cubic-bezier(0.420000,0,1,1)} 60% {transform: translate(391px,152px) scale(1,1)} 100% {transform: translate(391px,152px) scale(1,1)} }#ea9x4vfizjoe95_ts {animation: ea9x4vfizjoe95_ts__ts 5000ms linear infinite alternate forwards}@keyframes ea9x4vfizjoe95_ts__ts { 0% {transform: translate(339px,128px) scale(1,1);animation-timing-function: cubic-bezier(0.420000,0,1,1)} 20% {transform: translate(339px,128px) scale(2.653835,2.653835);animation-timing-function: cubic-bezier(0.420000,0,1,1)} 40% {transform: translate(339px,128px) scale(1,1)} 100% {transform: translate(339px,128px) scale(1,1)} }]]></style><defs><filter id="ea9x4vfizjoe22-filter" x="-400%" width="600%" y="-400%" height="600%"><feGaussianBlur id="ea9x4vfizjoe22-filter-blur-0" stdDeviation="5,6" result="result"/><feComponentTransfer id="ea9x4vfizjoe22-filter-opacity-0" result="result"><feFuncA id="ea9x4vfizjoe22-filter-opacity-0-A" type="table" tableValues="0 0.500000"/></feComponentTransfer></filter><filter id="ea9x4vfizjoe28-filter" x="-400%" width="600%" y="-400%" height="600%"><feGaussianBlur id="ea9x4vfizjoe28-filter-blur-0" stdDeviation="3,5" result="result"/><feComponentTransfer id="ea9x4vfizjoe28-filter-opacity-0" result="result"><feFuncA id="ea9x4vfizjoe28-filter-opacity-0-A" type="table" tableValues="0 0.500000"/></feComponentTransfer></filter></defs><g id="ea9x4vfizjoe2"><rect id="ea9x4vfizjoe3" width="480" height="288" rx="0" ry="0" transform="matrix(1 0 0 1 80 36)" clip-rule="evenodd" fill="rgb(229,229,229)" fill-rule="evenodd" stroke="none" stroke-width="1"/><rect id="ea9x4vfizjoe4" width="480" height="24" rx="0" ry="0" transform="matrix(1 0 0 1 80 306)" clip-rule="evenodd" fill="rgb(206,206,206)" fill-rule="evenodd" stroke="none" stroke-width="1"/><path id="ea9x4vfizjoe5" d="M90,8L550,8C555.500000,8,560,12.500000,560,18L560,36L80,36L80,18C80,12.500000,84.500000,8,90,8Z" clip-rule="evenodd" fill="rgb(206,206,206)" fill-rule="evenodd" stroke="none" stroke-width="1"/><circle id="ea9x4vfizjoe6" r="5" transform="matrix(1 0 0 1 101 22)" clip-rule="evenodd" fill="rgb(254,85,78)" fill-rule="evenodd" stroke="none" stroke-width="1"/><circle id="ea9x4vfizjoe7" r="5" transform="matrix(1 0 0 1 119 22)" clip-rule="evenodd" fill="rgb(254,189,46)" fill-rule="evenodd" stroke="none" stroke-width="1"/><circle id="ea9x4vfizjoe8" r="5" transform="matrix(1 0 0 1 137 22)" clip-rule="evenodd" fill="rgb(40,201,64)" fill-rule="evenodd" stroke="none" stroke-width="1"/><g id="ea9x4vfizjoe9"><rect id="ea9x4vfizjoe10" width="480" height="270" rx="0" ry="0" transform="matrix(1 0 0 1 80 36)" clip-rule="evenodd" fill="rgb(229,229,229)" fill-rule="evenodd" stroke="none" stroke-width="1"/><path id="ea9x4vfizjoe11" d="M501.200000,159.200000C500,157.800000,497.800000,155.800000,496.600000,154.900000C492.800000,152.100000,485.100000,144.200000,481.300000,140.200000C470.800000,129.100000,461.400000,114.700000,452.300000,102.300000C444.500000,91.500000,434.600000,81.900000,425.400000,72.300000C420.800000,68.300000,418.100000,65.400000,414.600000,59.900000C412.600000,56.700000,411.300000,54.800000,409.800000,51.300000C406.900000,44.600000,406.200000,42.200000,405.100000,36.100000L387.700000,36.100000C389.800000,42.800000,393.900000,56.700000,396,60C397.300000,62.100000,402.700000,71.100000,403.700000,72.100000L414.100000,81.800000C416.500000,84.200000,418.100000,85.300000,419.500000,86.600000C425.300000,92.100000,425,91,431,98.300000C438.700000,107.700000,441.300000,114,447.300000,122.200000L452.700000,130.100000C454.500000,133.200000,458.600000,138.100000,461.200000,141.800000C463.100000,144.500000,468.200000,150.900000,470.300000,152.500000C473.800000,155.200000,472.700000,155.400000,477.600000,158.500000C480.200000,160.200000,483.200000,161.800000,485.400000,163.700000C485.400000,163.700000,485.500000,163.800000,485.500000,163.800000L496.200000,171.700000C504,177.700000,507.500000,183.800000,513.300000,191.500000C513.400000,191.700000,513.500000,191.800000,513.600000,192C514.300000,192.900000,515,193.700000,515.600000,194.700000C516.700000,196.300000,517.400000,199.100000,518.200000,201C520,205.200000,521.600000,209.700000,523.400000,214.100000C526.900000,222.900000,527.200000,225.200000,531.700000,233.300000C537.400000,243.500000,542.500000,254.100000,544.600000,265.800000L549.400000,288.200000C550.900000,296,552.700000,302.400000,554.400000,306L554.600000,306L555.400000,306L557.800000,306L558,306L559.100000,306L560,306L560,222.100000L559.100000,222.100000C554.600000,220.600000,550.800000,218.700000,546.500000,216.300000C544.900000,215.400000,535.800000,204.200000,533.900000,201.600000L523.500000,185.100000L523.500000,185.100000C515.800000,173.700000,512.100000,169,501.200000,159.200000L501.200000,159.200000ZM80,276.300000L80,283.800000L80,306L96.600000,306C108.100000,302.300000,119.400000,298.800000,131.700000,296.900000C141.900000,295.300000,152.200000,293.800000,162.400000,292.400000C176,290.500000,188.900000,295.300000,201.400000,299.500000C206,301.100000,210.100000,303.300000,213.800000,306L257.900000,306C256.900000,303.900000,247,292.900000,244.800000,290.400000C241.700000,286.800000,241.700000,287.400000,236.400000,284.300000C219.100000,274.100000,225.900000,277.500000,206.900000,270.800000L185.500000,263.300000C183.900000,262.800000,174.800000,261,173.100000,261.100000L144.600000,261.600000C142.300000,261.600000,113.800000,269.300000,110.300000,270.200000C104,271.900000,98.900000,272.700000,92.700000,274C91.100000,274.300000,87.600000,275.500000,87,274.700000C86.500000,273.700000,86,269.500000,86,268.100000C86,265.200000,86.700000,264.100000,88.400000,262.700000C91.200000,260.400000,94.100000,258.700000,97.400000,256.500000C104.300000,251.800000,105.100000,252.500000,109.800000,246C110.800000,244.700000,112.100000,243,112.800000,241.700000C114.700000,238.300000,113.500000,234.600000,112.700000,231C111.700000,226.500000,107.400000,206.400000,105.600000,201C105,199.200000,103.400000,200,103,200.800000C102.600000,201.600000,103.200000,202.900000,103.500000,204.300000C105.100000,210,108.500000,221.600000,109.100000,227.200000C109.700000,232,111.100000,236.500000,109.500000,239.500000C107.700000,242.800000,106.700000,245.500000,104.100000,248.300000L91.100000,256.700000C88.400000,258.400000,84,259.900000,83.200000,263.100000C82.100000,267.300000,84,271.800000,83.500000,275.800000L80,276.300000L80,276.300000ZM179.700000,70.600000C184.500000,72.300000,193.500000,74.400000,198.600000,75.600000C204.100000,76.900000,205.900000,78,205.800000,84.300000C205.700000,90.400000,203.400000,96.700000,201.600000,102.500000C200.400000,106,193.600000,124.900000,192.700000,126C192.500000,128.600000,190.500000,133.800000,189.500000,135.700000C185.600000,142.600000,178.500000,152.400000,170.200000,153.500000L170.700000,156C173.900000,155.200000,179.700000,151.100000,181.800000,148.700000C189.100000,140.200000,190.100000,139.200000,194.200000,127.700000C198.300000,116.800000,204.200000,102.900000,206.500000,91.500000C207.300000,87.600000,208,79,204.900000,76.200000C203.100000,74.500000,186.200000,70.900000,180.900000,69.200000C175.800000,67.600000,180.200000,63.800000,178.800000,54.600000C178.500000,52.800000,176.200000,47.400000,175.400000,45.600000C173.900000,42.300000,173.200000,39.600000,172.100000,36.100000L165.300000,36.100000C165.700000,38.100000,166.900000,41.800000,167.600000,43.500000L173.200000,57.800000C173.900000,59.600000,174.100000,63.100000,174.100000,65.600000C174.100000,66.500000,174,66.200000,174.500000,66.800000C176.200000,68.400000,175.800000,69.500000,179.700000,70.600000Z" clip-rule="evenodd" fill="rgb(110,160,252)" fill-rule="evenodd" stroke="none" stroke-width="1"/><path id="ea9x4vfizjoe12" d="M502.800000,148.300000C489.600000,130.800000,481.700000,112.100000,472,92.400000C468.700000,85.400000,467.900000,82.900000,462.900000,76.700000C455.600000,67.600000,446.500000,60.100000,437.700000,52.400000C437.100000,51.800000,427,40.100000,426.700000,38.700000L411.200000,45C414.200000,57.200000,423.500000,64.700000,432.500000,72.200000C441.400000,79.900000,444.500000,85,451.800000,94.700000C453.700000,97.200000,455.400000,99.500000,457.200000,102C460.400000,106.300000,464.300000,112.600000,467.600000,117.300000C474.100000,126.300000,482.300000,138.800000,490.500000,145.800000C496.200000,150.700000,497.200000,151.300000,504.200000,155.800000C506.900000,157.800000,507,158.900000,508.200000,161.500000L510.200000,160.100000C507.600000,155.400000,506.100000,152.600000,502.800000,148.300000L502.800000,148.300000ZM495,192.900000C494.300000,200.200000,495,213,495.100000,220.600000C498.700000,221,505.400000,220.500000,509.300000,220.400000C517.200000,220.200000,517.600000,219.700000,519.900000,223.600000C522.200000,227.300000,529.100000,238.300000,530.400000,241.600000C531.400000,244,531.400000,250.700000,532.300000,254C532.800000,255.900000,534.100000,256.700000,535.400000,258C539.800000,262.200000,540.200000,266.600000,541.800000,273C542.700000,276.600000,544.700000,281.300000,542.700000,284.500000C540.100000,284.500000,539.900000,283.300000,538.400000,280.700000C535.800000,276.300000,532.200000,268.800000,529.300000,265.600000C528.100000,266.100000,528.100000,266.200000,527.300000,267.100000C528,268.700000,528.600000,269.200000,529.600000,270.200000C533,273.600000,530.200000,277.800000,534.300000,281.500000L535.100000,279.700000C535.100000,279.600000,535.200000,279.600000,535.200000,279.500000C536.400000,281.300000,533.100000,283.900000,535.400000,287C536.900000,289,537.800000,291.200000,540.200000,292.100000C542.500000,290.900000,546.600000,288.400000,548.500000,286.900000C548.400000,284.800000,541.400000,260,540.700000,257.300000C540,254.800000,539.200000,253.100000,538.100000,250.600000C530.200000,233.700000,525.600000,226.700000,516.600000,211.500000C515,208.800000,512.800000,210,511,207.800000C504.700000,200.200000,512.800000,199.400000,511.300000,194.500000C510.500000,191.900000,507.800000,190.900000,505.300000,191.200000C502.200000,191.600000,496.300000,192.900000,495,192.900000L495,192.900000ZM524.100000,266.400000C526.400000,266.400000,527.800000,268.600000,527.800000,271.300000C527.800000,274,526.600000,276.200000,524.300000,276.200000C522,276.200000,519.400000,274,519.400000,271.300000C519.400000,268.600000,521.800000,266.400000,524.100000,266.400000L524.100000,266.400000ZM494.400000,306L494.300000,304.500000C494,303.700000,493.900000,279.700000,493.900000,276.600000L494.900000,249.300000C499.500000,248.800000,506.500000,248.900000,511.400000,248.900000C514.200000,248.900000,516.700000,248.800000,517.400000,251.300000C517.800000,252.600000,518.300000,257.700000,517.900000,258.600000C515.400000,260.400000,506.900000,257.700000,506.100000,263.600000L504.200000,287.100000C504,291.600000,498.700000,301.300000,497.500000,306L494.400000,306L494.400000,306ZM494.800000,247.400000L495,222.700000L514.200000,222C517.800000,222,517.800000,222.300000,519.900000,226.300000C520.900000,228.100000,520.400000,228.500000,519.300000,229.700000C518.600000,230.400000,518.800000,230.400000,518.200000,231.100000C517.700000,231.700000,517.500000,231.700000,517,232.400000C514.700000,235.400000,515.100000,240.800000,515.800000,244.500000C516.200000,246.700000,516.700000,247.800000,514.500000,247.800000C511.100000,247.700000,497.100000,247.900000,494.800000,247.400000L494.800000,247.400000ZM521.600000,229.900000C522.300000,230.400000,529.300000,240.700000,529.600000,244C529.800000,245.500000,530.600000,253,530.100000,253.800000C529.800000,254.300000,524.900000,258,523.900000,258.700000C518.200000,263.200000,519,254.900000,517.400000,245.700000C516.800000,242.400000,515.400000,236,518.600000,232.400000C519.500000,231.600000,520.600000,230.400000,521.600000,229.900000L521.600000,229.900000ZM498.800000,306C500,302.200000,503.300000,294.800000,505,290.300000C506,287.600000,505.400000,286.300000,505.900000,283.800000C509.700000,282.700000,511.700000,283.300000,513.200000,285.800000C514.200000,287.400000,518.100000,288.200000,520,289.200000C519.700000,290.800000,519.200000,292.800000,519.900000,294.200000C520.700000,295.900000,521.900000,295.500000,523.500000,296.300000C523.500000,297.600000,523.200000,298,523.200000,299.100000C523.200000,300.300000,523.600000,300.600000,523.500000,301.600000L524.600000,301.800000L524.900000,303.700000C524.900000,303.700000,524.900000,303.800000,524.900000,303.900000C525.400000,303.200000,525.100000,304.200000,524.500000,302.100000C522.900000,296.700000,525.200000,294.800000,527.500000,292C528.400000,291,529,289.600000,530.200000,288.800000C531.600000,289.400000,533,290.300000,534.700000,290.800000C537,291.500000,538.400000,290.500000,539.400000,292.800000C538.500000,293.800000,536.400000,294.600000,534.900000,295.600000L534.100000,296.200000C535,297.100000,534.400000,296.100000,534.700000,297.300000L535.200000,297.400000C537.300000,298,536.800000,298.300000,538.400000,300.900000C536.600000,302.900000,532.500000,304.200000,531.200000,305.900000L517.800000,305.900000L511.500000,305.900000L498.800000,305.900000L498.800000,306ZM517.300000,280.800000C516.100000,282.400000,515.500000,284.600000,514.100000,285.900000C513.200000,284.800000,512.800000,283.500000,511.200000,283.100000C509.400000,282.700000,507.300000,283.300000,505.700000,282.700000C505.400000,281.700000,506.700000,264.400000,507.200000,263.500000C507.800000,263.600000,509.600000,265.300000,512.300000,266.700000C512.400000,268.700000,512.700000,270.200000,513.600000,271.300000C515,272.900000,516.300000,272.300000,518.300000,272.200000C519.300000,274.600000,517.900000,274,516.600000,275.800000C515.100000,278.500000,516.800000,278.600000,517.300000,280.800000L517.300000,280.800000ZM530,255.400000C532.100000,255.800000,534.500000,258.500000,535.700000,259.700000C538.700000,262.700000,543.300000,280.600000,542.500000,282.900000C540.500000,283.200000,538.800000,278.400000,537.300000,275.700000C535.200000,271.800000,533.400000,266.500000,529.900000,264.300000C523.600000,260.200000,524.100000,260.100000,526.300000,258.300000C527.500000,257.300000,528.700000,256.200000,530,255.400000L530,255.400000ZM528.400000,270.500000C531.100000,270.200000,530.300000,273.300000,530.900000,275.400000C531.500000,277.800000,531.500000,279.300000,532.900000,280.800000C535.600000,283.900000,532.600000,283.700000,534.100000,286.400000C534.800000,287.700000,536.700000,289.400000,537,290.600000C535.300000,291,531.900000,289.300000,530.700000,288.300000C530.400000,285.200000,530.800000,284.500000,528.700000,282.900000C527.800000,282.200000,523.900000,281,523.500000,280.300000C523.100000,279.600000,523,277.600000,523.400000,277C523.900000,276.300000,525.600000,276.600000,526.600000,276.200000C528.800000,275.200000,527.800000,272.800000,528.400000,270.500000L528.400000,270.500000ZM529.700000,288.400000L524.600000,294.800000C523.100000,295.800000,521.600000,295.200000,520.900000,294.100000C519.800000,292.600000,522,281.900000,525,282.100000C526.300000,282.100000,531.700000,284.900000,529.700000,288.400000L529.700000,288.400000ZM508,262.300000C510,259,520.200000,259.600000,524.200000,261.900000C525.400000,262.500000,527.700000,264,528.100000,264.800000C526.900000,266.100000,526.800000,266.400000,524.800000,266C522.800000,265.600000,522.100000,266.300000,520.500000,266.700000C520,264.600000,519.200000,263.200000,516.900000,263C513.700000,262.700000,513.700000,263.700000,512.300000,265.700000C510.600000,265.600000,508.400000,263.700000,508,262.300000L508,262.300000ZM517,276.600000C517.600000,275.500000,518.600000,274.700000,519.500000,274.200000C520.900000,275.800000,520.800000,275.600000,522.700000,276.900000C522.700000,277.700000,522.600000,278.900000,522.600000,279.700000C522.700000,281.200000,523,280.600000,523.200000,281.900000C521.500000,283.200000,520.800000,285.600000,520.400000,288.100000C517.200000,288,517.200000,287.200000,515,286.600000C515.100000,284.400000,517,281.800000,517.800000,280C517,278.800000,516.100000,278.300000,517,276.600000L517,276.600000ZM516.600000,263.700000C518.400000,263.700000,519.900000,265,519.900000,267.200000C519.900000,269.400000,518.100000,271.600000,516.300000,271.600000C514.500000,271.600000,513.300000,269.100000,513.300000,266.900000C513.300000,264.800000,514.800000,263.700000,516.600000,263.700000L516.600000,263.700000ZM380.100000,63.100000C379.600000,61,377.700000,53.100000,377.700000,51.800000L388.200000,46.900000C388.800000,47.600000,391.400000,54.700000,391.900000,56.200000C394.800000,64.200000,396.200000,66.200000,400.900000,73.200000C402.200000,75.100000,416.300000,85.400000,419.100000,87.500000C421.900000,89.600000,429,99.400000,431.500000,102.600000C439.900000,113,446.500000,126.100000,453.300000,137.800000C456.800000,144.200000,468.600000,153.800000,474.300000,158.900000C475.200000,159.800000,478.800000,162.200000,479.400000,163.500000C472.900000,163.200000,470.200000,162.400000,464.500000,158.800000C451.900000,151,448.800000,149,439.200000,137.300000C434.200000,131.300000,427.200000,116.400000,423.900000,112.400000C412.200000,98,406.200000,95.400000,391.200000,85.400000C383.800000,79.200000,382.100000,72.300000,380.100000,63.100000L380.100000,63.100000ZM485.300000,107.500000C483.300000,102.500000,478.200000,92.800000,475.400000,86.800000C467.500000,70.100000,459.900000,58.300000,451.900000,43.100000C451.600000,42.500000,449.600000,39,448,36L477.600000,36C485.600000,49.200000,496.700000,67,504.100000,77.800000C505.600000,80,506.900000,81.700000,508.400000,84C509.500000,85.700000,512,88.600000,512.700000,90.400000L485.300000,107.500000Z" clip-rule="evenodd" fill="rgb(208,232,185)" fill-rule="evenodd" stroke="none" stroke-width="1"/><path id="ea9x4vfizjoe13" d="M560,169.600000L534.300000,181.600000C533.800000,183.200000,533.300000,184.700000,532.800000,186.300000C532.800000,187.100000,532.800000,187.900000,532.800000,188.600000C537.300000,194.400000,541.900000,200.100000,546.400000,205.900000C550.900000,208.800000,550,208.900000,555.300000,208.900000L559.900000,206.100000L559.900000,169.600000L560,169.600000ZM560,65.400000L523.300000,74.700000L519.500000,77.200000L521.600000,82L527.700000,92.600000L534,103L535.200000,104.300000C536.100000,105.500000,536.700000,105.600000,538.600000,104.500000L560,92.100000L560,65.400000L560,65.400000ZM541.900000,39.300000C541.900000,39.300000,542.600000,36,546.300000,39C550,42,556.200000,41.800000,556.200000,41.800000L560,41.600000L560,64.500000L549.200000,67L539.400000,48.200000L541.900000,39.300000Z" clip-rule="evenodd" fill="rgb(216,216,216)" fill-rule="evenodd" stroke="none" stroke-width="1"/><path id="ea9x4vfizjoe14" d="M519.300000,80.100000C517.700000,77.100000,519.500000,74.500000,522.700000,73.700000L560,64.100000L560,66.400000L523.200000,75.900000C520.600000,76.700000,520.600000,77.800000,521.800000,80L535.700000,103.800000C536,104.300000,535.800000,105,535.300000,105.300000C534.800000,105.600000,534.100000,105.400000,533.800000,104.900000L519.600000,80.600000C519.600000,80.600000,519.600000,80.600000,519.600000,80.600000L535.500000,107.700000L560,93.600000L560,96.200000L536.500000,109.700000L545.200000,124.600000L560,115.800000L560,118.400000L546.400000,126.500000L560,149.900000L560,154.400000L544.400000,127.700000L508.300000,149L514.800000,158.300000L512.600000,159.500000L503.200000,145.900000C501.100000,143.100000,499,140.300000,497.100000,137.400000C495.200000,134.400000,493.600000,131.400000,492.100000,128.200000L477.200000,99.600000L466.500000,78.800000C460.800000,68,449.700000,60,440.300000,52.600000C437.500000,50.400000,435.500000,48.700000,433.400000,45.800000C431.100000,42.800000,429.200000,39.500000,427.500000,36.200000L427.400000,36.100000L429.600000,36.100000C432,40.100000,434.700000,44.300000,437.800000,47.700000C440,49.600000,442.400000,51.400000,444.800000,53.200000C447.600000,55.300000,450.400000,57.400000,453.100000,59.700000C459.300000,64.900000,464.700000,70.600000,468.600000,77.700000L495.300000,129.300000C496.800000,132.800000,498.800000,135.700000,501,138.800000L507,147.300000L515.400000,142.300000L493,103.800000C492.700000,103.300000,492.900000,102.700000,493.400000,102.400000L520.400000,86.700000L490.900000,36L493.500000,36L519.300000,80.100000L519.300000,80.100000ZM287.500000,51C287.500000,43.300000,287.500000,39.600000,287.500000,36L285.300000,36C285.300000,40.600000,285.300000,37.300000,285.300000,51L236.900000,51.200000L236.800000,38.200000L236.800000,38.200000L235.600000,38.200000C235.400000,38.200000,235.100000,38.300000,234.900000,38.500000L233.600000,38.500000L233.600000,36L231.800000,36L231.800000,39.500000C231.800000,40,232.200000,40.500000,232.800000,40.500000L234.500000,40.500000L234.800000,79L211.400000,79L211.500000,73.500000C211.600000,69.500000,210.900000,69.300000,207,68.800000L188.800000,66.400000C188.500000,66.300000,186.400000,66.100000,186.200000,65.900000C186,65.700000,186.200000,64.100000,186.200000,63.800000L188.800000,52.600000L190,36L187.800000,36L186.800000,52.200000L184.100000,63.400000C183.700000,66.200000,183.900000,68,187.100000,68.400000C193.500000,69.200000,199.800000,70.100000,206.200000,70.900000C206.700000,71,208.700000,71.100000,209.100000,71.500000C209.400000,71.800000,209.300000,72.800000,209.300000,73.200000C209.300000,75.500000,209.200000,77.800000,209.200000,80.100000L207.600000,89.300000L193.600000,132.900000L191,139.400000L185.900000,145.800000C182.800000,148.700000,179.500000,151.400000,175.700000,153.200000C174.100000,154.100000,172.400000,155,170.800000,155.900000C169.200000,156.800000,167,158.100000,166.300000,159.900000C165.900000,160.900000,165.900000,162.100000,165.900000,163.200000L165.900000,173.600000L168.200000,173.600000L168.200000,173.400000C168.200000,169.800000,168.200000,166.100000,168.200000,162.500000C168.200000,160.100000,169.200000,159.400000,171.200000,158.300000C174.800000,156.400000,178.300000,154.400000,181.700000,152.200000L185,149.900000L188.900000,146.200000L188.900000,146.200000C189.900000,144.900000,190.800000,143.700000,191.800000,142.400000C192.800000,141,193.100000,140.500000,193.700000,138.900000L203,112.400000L210.400000,89.100000L211.600000,81.100000L235.200000,81.100000L235.900000,172.200000L236.500000,221.100000L214.600000,221.400000L214.600000,211L224.400000,211C225,211,225.500000,210.500000,225.500000,209.900000C225.500000,209.300000,225,208.800000,224.400000,208.800000L194.900000,208.800000C194.300000,208.800000,193.800000,209.300000,193.800000,209.900000C193.800000,210.500000,194.300000,211,194.900000,211L212.400000,211L212.400000,221.500000L189.700000,221.800000L189.400000,196.600000L187.200000,196.600000L187.500000,221.800000L140.800000,222.400000L140.500000,193.600000L138.300000,193.600000L138.800000,250.200000C138.800000,250.700000,139.300000,251.200000,139.800000,251.200000L141.100000,251.200000L141.100000,251.200000L237,250.400000L237.300000,278C237.300000,278.600000,237.800000,279,238.300000,279L238.800000,279L287.600000,279.300000L287.600000,306L289.800000,306C289.800000,297.100000,289.800000,288.200000,289.800000,279.300000L339,279L339.100000,289.300000L304.400000,289.200000C303.800000,289.200000,303.300000,289.700000,303.300000,290.300000C303.300000,290.900000,303.800000,291.400000,304.400000,291.400000L339.100000,291.500000C339.100000,296.300000,339.200000,301.100000,339.200000,305.900000L341.400000,305.900000C341.400000,301.100000,341.300000,296.300000,341.300000,291.500000L390.300000,291.600000C390.300000,296.400000,390.300000,301.100000,390.400000,305.900000L392.600000,305.900000C392.600000,296.700000,392.500000,287.400000,392.500000,278.200000L398.400000,278.200000L398.400000,295.200000C398.400000,295.800000,398.800000,296.200000,399.400000,296.200000L400.400000,296.200000L433.800000,296L434.600000,296C435.200000,296,435.600000,295.600000,435.600000,295L435.600000,288.100000L442.400000,289.700000C442.300000,301.200000,442.200000,303.200000,442.200000,306L444.400000,306C444.400000,302.800000,444.500000,300.700000,444.600000,290.300000L451.900000,290.300000L451.900000,294.800000C451.900000,295.400000,452.300000,295.800000,452.900000,295.800000L453.900000,295.800000L483.700000,295.600000L484.400000,295.600000C485,295.600000,485.400000,295.100000,485.400000,294.600000L485.200000,277.800000L491.500000,277.800000C491.700000,298,491.400000,298.200000,491.900000,306.100000L494.200000,306.100000L494,302.900000L493.600000,261.300000C493.500000,247.800000,493.300000,234.300000,493.300000,220.900000L493.300000,220.400000C493.300000,219.800000,492.900000,219.400000,492.300000,219.400000L444,219.900000L443.900000,208.900000L495.200000,207.700000C495.700000,207.700000,496.200000,207.200000,496.200000,206.700000L496.200000,206.400000C496.200000,205.800000,495.700000,205.400000,495.200000,205.400000L492.900000,205.500000L492.900000,198.900000C492.900000,197.400000,491.700000,196,490.100000,196.200000L471.800000,197.800000C470.300000,197.900000,469.100000,199,469.100000,200.500000L469.100000,206.100000L443.800000,206.700000L443.700000,195.500000L441,195.500000L441.100000,206.700000L391.800000,207.200000L391.800000,195.600000L392.800000,168.600000L392.800000,155.800000L432.600000,154.800000C435.300000,154.700000,437.900000,154.700000,440.600000,154.500000C442.900000,154.300000,445.600000,154.100000,447.800000,153.500000L473,168L474.100000,166.100000L453.400000,153.800000C448.600000,151.500000,446.200000,148.200000,442.700000,144.500000C441.800000,143.500000,440.800000,142.500000,440,141.500000C439.200000,140.400000,438.500000,139.300000,437.800000,138.200000L424.500000,115.800000C422,111.600000,418.300000,108.200000,415,104.700000L415,104.700000L415,104.700000C413.300000,103.400000,411.600000,102.200000,409.900000,100.900000C405,97.100000,400.200000,93.800000,394.800000,90.800000C392.500000,89.500000,390.900000,87.800000,389.100000,85.900000C386.600000,83.400000,384.100000,80.800000,381.700000,78.100000C380.800000,77.100000,379.900000,76.100000,379.200000,75C378.500000,73.900000,377.900000,72.600000,377.400000,71.400000C375.900000,67.900000,374.200000,63.800000,373.600000,60C372.800000,54.700000,372.800000,49.100000,372.900000,43.800000C375.100000,44.200000,377.300000,44.600000,379.500000,44.800000C383.200000,44.800000,386.900000,44.800000,390.600000,44.600000C394.200000,44.400000,397.800000,43.900000,401.400000,43.200000C407.700000,41.200000,413.800000,39.900000,419.600000,36.500000L420,36.300000L414,36.300000C409.900000,38.100000,405.800000,39.800000,401.500000,40.900000C399,41.500000,396.500000,42,394,42.300000C389.400000,42.500000,384.800000,42.800000,380.200000,42.600000C377.300000,42.500000,374.500000,42.100000,371.700000,41.500000C369.200000,40.600000,361,38.100000,358.800000,36.300000L354.400000,36.300000L354.600000,36.500000C358.100000,40.100000,365.500000,42.300000,370.400000,43.400000C369.900000,50.400000,370.300000,58.100000,372.200000,64.900000C372.800000,66.900000,373.800000,69.200000,374.600000,71.100000C375,71.900000,375.300000,72.800000,375.700000,73.600000C377.200000,78.500000,385,85.700000,389.100000,89.600000L339.700000,90L339.300000,38.600000C339.300000,38.100000,338.800000,37.600000,338.300000,37.600000L337,37.600000L337,37.600000L337,39.800000L337.100000,51.100000L287.500000,51L287.500000,51ZM106.200000,197.500000L108.100000,197L108.200000,197.200000C111.400000,209.700000,114.200000,222.300000,116.600000,235C117.100000,240.100000,116.200000,241.200000,113.700000,245.500000C113.400000,246,112.800000,246.100000,112.300000,245.900000C111.800000,245.600000,111.700000,245,111.900000,244.500000C114,240.900000,115.100000,239.800000,114.600000,235.500000C112.500000,222.800000,109.600000,210.200000,106.200000,197.800000L106.200000,197.500000L106.200000,197.500000ZM555.300000,213.200000C556.500000,214.600000,558.100000,215,559.900000,214.900000L559.900000,214.900000L559.900000,217.100000L559.900000,217.100000C557.200000,216.900000,554.900000,216.400000,553.100000,214.200000C548.800000,213.700000,545,210.300000,542.300000,207.100000C541.300000,205.700000,540.100000,204.400000,539,203.100000C537.500000,201.300000,536,199.600000,534.600000,197.700000C532.700000,195.200000,530.500000,192.200000,529.300000,189.300000L529.300000,189.300000L529.500000,185.400000L531.200000,179.900000L534,178.200000L533.800000,178.800000C533.200000,180.900000,532.600000,182.900000,532,185C531.200000,188.200000,531.500000,189.500000,533.300000,192.100000C535.600000,195.400000,538,198.600000,540.700000,201.700000C543,204.300000,545.500000,207.600000,548.300000,209.700000C549.800000,210.800000,551.600000,211.700000,553.500000,211.700000L560,207.600000L560,210.300000L555.300000,213.200000L555.300000,213.200000ZM163.100000,156.600000C164.400000,159.200000,162.500000,162.100000,160.200000,163.300000L160.200000,166.400000L160.500000,167.400000L162.300000,171.200000L160.200000,172.100000L158.300000,168L157.900000,166.800000L157.900000,164C157.300000,164.100000,156.600000,164.100000,156,164L156.600000,166.300000L156.600000,171.200000L154.400000,171.200000L154.400000,166.500000L153.300000,162.600000C153.100000,162.400000,152.900000,162.100000,152.800000,161.900000C151.400000,159.300000,153.300000,156.300000,155.700000,155.100000C157.400000,154.200000,159.500000,154,161.200000,154.900000C167.300000,153.300000,173,150.400000,178.200000,146.900000L182.700000,142.100000C186.600000,137.500000,189,132.900000,190.400000,127.100000C191.100000,123.800000,190.500000,119.500000,190,116.100000L101,131.600000C100.900000,131.600000,100.800000,131.600000,100.600000,131.600000L100.600000,131.600000C100.500000,131.600000,100.400000,131.500000,100.300000,131.500000L81.300000,123.600000L80,126.500000L80,120.600000L80.200000,120.700000L102.100000,72.700000L88.400000,66.400000L80,84.300000L80,79L94.800000,47L80,40.200000L80,37.700000L95.700000,45L99.800000,36L102.300000,36L89.300000,64.200000L103,70.500000L108.800000,57.700000C109,57.200000,109.600000,57,110.100000,57.200000L111.200000,57.700000L111.200000,57.700000L117.200000,60.500000L127.700000,37.400000L124.400000,35.900000L129.800000,35.900000L141.600000,41.300000L144.100000,35.900000L146.600000,35.900000L143.600000,42.600000L157.700000,65.200000L167.300000,59.700000L153.700000,36L156.300000,36L170.200000,60.300000C175.200000,68.700000,180.300000,77,185.300000,85.400000C186.100000,86.700000,186.900000,88,187.400000,89.300000C188,90.700000,188.400000,92.100000,188.700000,93.600000C189.700000,100.400000,191,107.200000,191.800000,114C192.600000,117.900000,193.100000,122.100000,192.800000,126L192.800000,126L192.800000,126C191.500000,131.500000,189.500000,136.600000,186.100000,141.200000C181.500000,147.500000,176.200000,151.800000,168.800000,154.400000L163.100000,156.600000L163.100000,156.600000ZM543.700000,293L539.400000,295.600000L541.900000,299.300000L542.400000,300.100000C542.700000,300.600000,542.500000,301.200000,542.100000,301.500000L534.800000,306.100000L530.600000,306.100000L539.800000,300.300000L537.500000,296.800000L521.800000,306.100000L517.400000,306.100000L543.300000,290.700000C543.600000,290.500000,544.100000,290.500000,544.400000,290.700000L551,295.600000L560,299.900000L560,302.400000L549.800000,297.600000L543.700000,293L543.700000,293ZM393,92.400000C398,95.400000,402.900000,98.600000,407.500000,102.200000C412.500000,106,417,110.200000,420.900000,115.200000L392.900000,115.200000L393,92.400000L393,92.400000ZM422.500000,117.500000L392.900000,117.500000L392.800000,141.300000L436.200000,140.600000C435.100000,138.900000,434.100000,137.100000,433.100000,135.400000L427,125.200000C425.700000,122.500000,424.200000,119.900000,422.500000,117.500000L422.500000,117.500000ZM437.900000,142.700000L392.800000,143.500000L392.800000,153.400000L435.900000,152.600000C439.200000,152.600000,443.300000,152.700000,446.600000,151.900000L440.700000,145.800000C439.700000,144.800000,438.800000,143.800000,437.900000,142.700000L437.900000,142.700000ZM400.300000,281L400.300000,276.600000C402.600000,274.400000,403.900000,272.900000,406.800000,271.500000C413,268.500000,420.600000,266.800000,427.500000,266.500000C432.400000,266.300000,437.200000,266.100000,442.100000,265.900000C442.700000,266.100000,443.900000,266.400000,444.200000,267C444.500000,267.800000,444.800000,268.600000,445.100000,269.400000L445.200000,269.600000L445.200000,273.100000L438.300000,279.400000L438.300000,279.400000C436.700000,281.400000,435.100000,283.600000,433.800000,285.800000C427.300000,286.800000,419.600000,287.400000,413.100000,286.800000C407.100000,286.200000,405,284.300000,400.300000,281L400.300000,281ZM433,288.200000L433,293.800000L400.300000,294L400.300000,284C406.300000,288.600000,410.200000,289.200000,418,289.200000C422.900000,289.200000,428,289,433,288.200000L433,288.200000ZM482.500000,275.600000C481.300000,275.800000,480.100000,276.100000,479.100000,276.600000C472.100000,280.200000,465.900000,285.700000,458,287.100000C454.300000,287.900000,450.800000,288,447,288C443.400000,288,439.800000,287.200000,436.400000,286C438.800000,281.500000,443.500000,277.500000,447.400000,274.200000L447.500000,274.100000L447.500000,270.500000L482.400000,270.300000L482.500000,275.600000L482.500000,275.600000ZM453.800000,290C458.200000,289.200000,461.600000,288.900000,465.800000,286.800000C468.800000,285.400000,471.700000,283.700000,474.500000,281.900000C477.500000,280.100000,479,278.400000,482.500000,277.900000L482.700000,293.300000L453.800000,293.500000L453.800000,290L453.800000,290ZM400.300000,273.200000L400.300000,260.200000L441.300000,259.500000L441.300000,263.600000L424.100000,264.400000L421.900000,264.600000C417.200000,265.400000,412.600000,266.600000,408.200000,268.200000C406.400000,269,404.700000,269.800000,403,270.900000L403,270.900000L400.300000,273.200000L400.300000,273.200000ZM443.500000,263.800000L443.500000,259.500000L455.300000,259.500000C455.900000,259.500000,456.400000,259,456.400000,258.400000C456.400000,257.800000,455.900000,257.300000,455.300000,257.300000L443.400000,257.300000L443.400000,251.800000L487.500000,251.100000L489.700000,249.400000L490.600000,249.400000L490.800000,275.600000L484.500000,275.600000L484.300000,256.200000C484.300000,255.600000,483.800000,255.100000,483.200000,255.100000C482.600000,255.100000,482.100000,255.600000,482.100000,256.200000L482.200000,268.100000L474.300000,268.200000L474.500000,257C474.500000,256.400000,474,255.900000,473.400000,255.900000C472.800000,255.900000,472.300000,256.400000,472.300000,257L472.100000,268.200000L464.600000,268.300000L464.400000,257.300000C464.400000,256.700000,463.900000,256.200000,463.300000,256.200000C462.700000,256.200000,462.200000,256.700000,462.200000,257.300000L462.400000,268.300000L447.300000,268.400000L446.500000,266.700000C445.800000,265.100000,445,264.200000,443.500000,263.800000L443.500000,263.800000ZM486.800000,248.700000L443.500000,249.400000L443.500000,247.900000L486.900000,247.700000L487.500000,248.100000L486.800000,248.700000L486.800000,248.700000ZM490,247L487.600000,245.500000L443.500000,245.700000L443.500000,234.900000L490.600000,234.500000L490.700000,247L490,247L490,247ZM292.200000,250L295.400000,252.500000L301,252.500000L301.200000,276.900000L289.200000,277L289.200000,250L292.200000,250L292.200000,250ZM289.300000,247.800000L289.300000,223.500000L319.500000,223.100000L319.500000,234.400000L307.100000,234.400000C306.500000,234.400000,306,234.900000,306,235.500000C306,236.100000,306.500000,236.600000,307.100000,236.600000L328.400000,236.600000C329,236.600000,329.500000,236.100000,329.500000,235.500000C329.500000,234.900000,329,234.400000,328.400000,234.400000L321.800000,234.400000L321.800000,223L338.100000,222.800000L338.300000,246.400000L295.500000,245.900000L292.700000,247.700000L289.300000,247.700000L289.300000,247.800000ZM296.200000,250.300000L294.700000,249.200000L296.100000,248.300000L338.300000,248.800000L338.300000,250.300000L296.200000,250.300000L296.200000,250.300000ZM443.500000,232.700000L443.500000,222L490.500000,221.500000L490.600000,232.200000L443.500000,232.700000L443.500000,232.700000ZM470.900000,205.800000L470.900000,200.300000C470.900000,200,471.100000,199.800000,471.400000,199.800000L489.700000,198.200000C490,198.200000,490.200000,198.400000,490.200000,198.700000L490.200000,205.400000L470.900000,205.800000L470.900000,205.800000ZM285.700000,103L237.200000,103.500000L237.100000,92.700000L285.500000,92.200000L285.700000,103L285.700000,103ZM237.200000,105.800000L285.700000,105.300000L285.900000,116.300000L237.200000,116.800000L237.200000,105.800000L237.200000,105.800000ZM392,250L392,248.500000L441.300000,248L441.300000,249.500000L392,250L392,250ZM441.300000,251.700000L441.300000,257.200000L399.600000,257.900000L399,257.900000C398.400000,257.900000,398,258.300000,398,258.900000L398,275.900000L392.100000,275.900000L392,252.100000L441.300000,251.700000L441.300000,251.700000ZM389.700000,250L340.500000,250.300000L340.500000,248.800000L389.700000,248.600000L389.700000,250L389.700000,250ZM340.600000,252.500000L363.800000,252.400000L363.800000,263.300000L349.900000,263.500000C349.300000,263.500000,348.800000,264,348.800000,264.600000C348.800000,265.200000,349.300000,265.700000,349.900000,265.700000L380.300000,265.200000C380.900000,265.200000,381.400000,264.700000,381.400000,264.100000C381.400000,263.500000,380.900000,263,380.300000,263L366.100000,263.200000L366.100000,252.300000L389.800000,252.200000L389.900000,276L340.800000,276.600000L340.600000,252.500000L340.600000,252.500000ZM391.900000,246.200000L391.800000,222.500000L404.700000,222.400000L404.700000,246.100000L391.900000,246.200000L391.900000,246.200000ZM407,246.100000L407,222.400000L426.300000,222.200000L426.800000,245.900000L407,246.100000L407,246.100000ZM429,245.900000L428.500000,222.200000L441.300000,222.100000L441.300000,245.900000L429,245.900000L429,245.900000ZM389.700000,246.300000L340.500000,246.500000L340.300000,222.900000L350.700000,222.800000L350.700000,233.300000C350.700000,234.800000,351.900000,236,353.500000,236L375.200000,236C376.700000,236,378,234.800000,378,233.300000L378,222.700000L389.600000,222.600000L389.700000,246.300000L389.700000,246.300000ZM389.500000,209.300000L389.500000,220.300000L356.200000,220.500000L356.300000,209.700000L389.500000,209.300000L389.500000,209.300000ZM356.400000,207.500000L356.500000,196.300000L354.300000,196.300000L354,220.500000L340.300000,220.600000L340.100000,196.100000L337.900000,196.100000L338,207.300000L301.500000,207.300000L301.500000,209.500000L338,209.500000L338.100000,220.600000L289.300000,221.200000L288.600000,175.400000L288.300000,144.500000L338,144.200000L338.200000,169.400000L340.400000,169.400000L339.600000,91.800000L390.600000,91.400000L390.300000,168.400000L389.300000,195.400000L389.300000,207L356.400000,207.500000L356.400000,207.500000ZM391.800000,209.300000L441.100000,208.800000L441.200000,219.800000L391.800000,220.400000L391.800000,209.300000L391.800000,209.300000ZM286,142.300000L237.500000,142.800000L237.400000,131.800000L286,131.600000L286,142.300000L286,142.300000ZM237.500000,145L286,144.500000L286.100000,155.700000L237.600000,155.900000L237.500000,145L237.500000,145ZM237.300000,119L286,118.500000L286,129.200000L237.400000,129.400000L237.300000,119L237.300000,119ZM340.800000,289.300000L340.700000,278.800000L389.800000,278.200000L389.900000,289.400000L340.800000,289.300000L340.800000,289.300000ZM338.300000,252.500000L338.500000,276.800000L303.500000,277L303.400000,266.100000L329.600000,266.100000C330.200000,266.100000,330.700000,265.600000,330.700000,265C330.700000,264.400000,330.200000,263.900000,329.600000,263.900000L303.300000,263.900000L303.200000,252.700000L338.300000,252.700000L338.300000,252.500000ZM337.500000,91.900000L337.600000,102.500000L288,103L287.800000,92.200000L337.500000,91.900000L337.500000,91.900000ZM337.600000,104.800000L337.700000,115.800000L288.200000,116.300000L288,105.300000L337.600000,104.800000L337.600000,104.800000ZM337.700000,118L337.900000,142L288.200000,142.300000L288.200000,118.500000L337.700000,118L337.700000,118ZM285.500000,90L237.100000,90.500000L237,79.500000L285.300000,79.300000L285.500000,90L285.500000,90ZM287,223.500000L287,247.800000L275.200000,247.900000L275,223.500000L287,223.500000L287,223.500000ZM287,250L287,277L238.900000,276.700000L238.600000,250.300000L287,250L287,250ZM287,221.200000L275,221.200000L274.900000,209.900000C275,209.700000,275.100000,209.500000,275.100000,209.300000C275.100000,209.100000,275,208.900000,274.900000,208.700000L274.800000,196.500000L272.600000,196.500000L272.700000,208.100000L244.500000,208.100000C243.900000,208.100000,243.400000,208.600000,243.400000,209.200000C243.400000,209.800000,243.900000,210.300000,244.500000,210.300000L272.800000,210.300000L272.900000,221L238.500000,221L237.900000,172.100000L237.800000,158L286.300000,157.800000L286.500000,175.500000L287,221.200000L287,221.200000ZM287.700000,90L287.500000,79.300000L337.300000,79.100000L337.400000,89.700000L287.700000,90L287.700000,90ZM238.600000,248.200000L238.300000,223.500000L272.700000,223.500000L272.800000,234.500000L244.600000,234.500000C244,234.500000,243.500000,235,243.500000,235.600000C243.500000,236.200000,244,236.700000,244.600000,236.700000L272.900000,236.700000L273,247.800000L238.600000,248.200000L238.600000,248.200000ZM211.900000,235.100000L198,235C197.400000,235,196.900000,235.500000,196.900000,236.100000C196.900000,236.700000,197.400000,237.200000,198,237.200000L227.600000,237.400000C228.200000,237.400000,228.700000,236.900000,228.700000,236.300000C228.700000,235.700000,228.200000,235.200000,227.600000,235.200000L214.100000,235.100000L214.100000,223.700000L236,223.400000L236.300000,248.100000L189.400000,248.500000L189.200000,224L211.800000,223.700000L211.800000,235.100000L211.900000,235.100000ZM237,77.200000L236.900000,66.700000L285.200000,66.200000L285.200000,77L237,77.200000L237,77.200000ZM236.900000,64.500000L236.800000,53.500000L285.200000,53.300000L285.200000,64L236.900000,64.500000L236.900000,64.500000ZM140.300000,224.700000L187,224.100000L187.200000,248.600000L140.500000,249L140.300000,224.700000L140.300000,224.700000ZM375.700000,222.600000L375.700000,233.200000C375.700000,233.500000,375.500000,233.700000,375.200000,233.700000L353.500000,233.700000C353.200000,233.700000,353,233.500000,353,233.200000L353,222.700000L375.700000,222.600000L375.700000,222.600000ZM287.500000,53.200000L337.100000,53L337.200000,63.500000L287.500000,64L287.500000,53.200000L287.500000,53.200000ZM287.500000,66.200000L337.200000,65.700000L337.300000,76.700000L287.500000,77L287.500000,66.200000L287.500000,66.200000ZM517.400000,141L543.200000,125.700000L521.500000,88.600000L495.600000,103.700000L517.400000,141L517.400000,141ZM156.900000,157C158.100000,156.400000,160.300000,156.100000,161.100000,157.500000C161.900000,158.900000,160.400000,160.600000,159.200000,161.200000C158,161.800000,155.800000,162.100000,155,160.700000C154.200000,159.300000,155.700000,157.700000,156.900000,157L156.900000,157ZM157.400000,84.300000L161.900000,92C162,92.400000,162,93.300000,161.900000,93.700000L161.900000,93.700000L161.900000,93.700000C161.500000,95.100000,160.900000,95.800000,159.400000,96L148.500000,97.600000L152.900000,88.300000C153.900000,86.200000,153.700000,86.500000,155.700000,85.300000L157.400000,84.300000L157.400000,84.300000ZM148.100000,99.900000L160.300000,98.100000C162.800000,97.700000,165,94,164.100000,91.600000L163.800000,90.800000L159.300000,83.100000L164,80.300000L170.300000,91C171,92.200000,171.800000,93.500000,172.300000,94.800000C172.800000,96.100000,173.200000,97.600000,173.500000,98.900000C173.700000,99.900000,173.900000,100.800000,174.100000,101.800000L148.500000,106.300000L148.100000,99.900000L148.100000,99.900000ZM134.700000,89L136.900000,84.400000L133,85.800000L134.700000,89L134.700000,89ZM130.500000,85.900000L104.100000,73.500000L98.200000,86.500000L113.400000,93.500000C116.500000,94.900000,117.700000,94.400000,118.600000,98.100000L121.500000,111L133,109L131,97.100000L133.700000,91.500000L130.500000,85.900000L130.500000,85.900000ZM131.500000,84L105,71.500000L110.300000,59.800000L141.500000,74.500000L141.500000,74.500000L138.100000,81.600000L131.500000,84L131.500000,84ZM163,78.300000L155.200000,83C152.200000,84.800000,152.400000,84.300000,150.900000,87.600000C149.600000,90.300000,148.300000,93.100000,147,95.800000C145.800000,98.300000,145.900000,98,146.100000,100.700000L146.600000,106.600000L135.100000,108.600000L133.200000,97.400000L143.300000,76L157,68.200000L163,78.300000L163,78.300000ZM135.400000,110.900000L174.700000,104C175.400000,108,175.900000,112.100000,176.200000,116.200000L137.400000,122.900000L135.400000,110.900000L135.400000,110.900000ZM135.200000,123.300000L133.200000,111.300000L102.600000,116.700000C102.400000,116.700000,102.200000,116.700000,102.100000,116.600000C102.100000,116.600000,102,116.600000,102,116.500000L87.800000,109.600000L82.400000,121.400000L101.100000,129.200000L135.200000,123.300000L135.200000,123.300000ZM158.900000,67.200000L168.500000,61.800000L183.800000,87.200000C184.500000,88.400000,185.300000,89.700000,185.800000,91C186.300000,92.300000,186.600000,93.800000,186.900000,95.200000C187.900000,101.400000,188.800000,107.700000,189.800000,113.900000L178.500000,115.900000C178,109.700000,177.200000,103.400000,175.800000,97.400000C174.900000,93.700000,174.100000,92.500000,172.200000,89.300000L158.900000,67.200000L158.900000,67.200000ZM155.800000,66.400000L144,73.100000L119.400000,61.600000L129.900000,38.500000L140.800000,43.500000L133.100000,60.400000C132.900000,60.900000,133.100000,61.500000,133.600000,61.700000L134.200000,62L139.400000,64.800000C140,65.100000,140.600000,64.800000,140.900000,64.300000C141.200000,63.700000,140.900000,63.100000,140.400000,62.800000L135.700000,60.300000L142.600000,45.200000L155.800000,66.400000L155.800000,66.400000ZM119.100000,111.500000L116.600000,100.100000C115.800000,96.600000,116.400000,97.400000,113.200000,96L108.400000,93.800000L99.600000,113L102.600000,114.400000L119.100000,111.500000L119.100000,111.500000ZM106.300000,92.800000L97.200000,88.600000L88.600000,107.500000L97.600000,111.900000L106.300000,92.800000Z" clip-rule="evenodd" fill="rgb(255,255,255)" fill-rule="evenodd" stroke="none" stroke-width="1"/><path id="ea9x4vfizjoe15" d="M80,169.500000C149.200000,169.200000,218.300000,168.900000,287.400000,167.900000L457.200000,166.400000C487.300000,165.400000,515.600000,158.700000,542.400000,145.200000C548.400000,142.200000,554.200000,138.800000,559.800000,135.100000L559.900000,135L559.900000,145.600000C528.500000,164.400000,492.500000,175.700000,457.100000,175.500000L236.700000,177.700000L80,178.800000L80,177.300000L80,169.500000L80,169.500000ZM80,189.500000L80,195L80.100000,196.100000L80,196.100000L80,199.100000L155.600000,198.800000L236.800000,198L287.400000,198L391.500000,196.700000L457.200000,195.800000C471.100000,195.600000,485,194.600000,498.700000,191.900000C508.300000,190,517.600000,187.300000,526.800000,183.900000L526.800000,183.900000L529.700000,181.100000L529.700000,180.900000C540.300000,176.700000,551,171.600000,560,166.600000L560,163.900000C549.900000,169.200000,539.700000,174.200000,529.200000,178.400000L522.500000,178.300000C524.900000,177.500000,527.200000,176.600000,529.500000,175.700000C540,171.700000,550.300000,166.800000,560,161.200000L560,158.100000L559.900000,158.200000C549.600000,164.300000,538.600000,169.400000,527.400000,173.700000C515.900000,178.100000,503.800000,181.700000,491.600000,184C480.100000,186.200000,468.900000,186.400000,457.200000,186.800000L391.500000,187.200000L287.400000,188.500000L236.700000,188.700000L155.500000,189.200000L80,189.500000Z" clip-rule="evenodd" fill="rgb(250,190,120)" fill-rule="evenodd" stroke="none" stroke-width="1"/><path id="ea9x4vfizjoe16" d="M155.600000,172L80,172.300000L80,169.800000L155.600000,169.500000L236.800000,169L287.500000,168.300000L391.600000,167.200000L457.300000,166.800000C472.300000,166.300000,485.800000,164.500000,498.200000,161.500000C516.200000,157.800000,540.900000,148.200000,560.100000,135.300000L560.100000,138.100000C545.200000,147.600000,528.800000,155.400000,513.800000,160C495.300000,165.800000,474.200000,169,457.300000,169.200000L391.600000,169.600000L287.500000,170.700000L236.800000,171.400000L155.600000,172Z" clip-rule="evenodd" fill="rgb(253,240,182)" fill-rule="evenodd" stroke="none" stroke-width="1"/><path id="ea9x4vfizjoe17" d="M155.600000,174.700000L80,175L80,172.500000L155.600000,172.200000L236.800000,171.700000L287.500000,171L391.600000,169.900000L457.300000,169.500000C472.300000,169,485.800000,167.400000,498.200000,164.500000C516.200000,160.800000,540.900000,151.200000,560.100000,138.300000L560.100000,141.400000C529.900000,160.500000,493,171.800000,457.300000,172L391.600000,172.400000L287.500000,173.500000L236.800000,174.200000L155.600000,174.700000Z" clip-rule="evenodd" fill="rgb(253,240,182)" fill-rule="evenodd" stroke="none" stroke-width="1"/><path id="ea9x4vfizjoe18" d="M155.600000,192L80,192.300000L80,189.800000L155.600000,189.500000L236.800000,189L287.500000,188.800000L391.600000,187.500000L457.300000,187.100000C468.100000,186.700000,479.300000,186.500000,491.700000,184.300000C514.200000,179.900000,540.200000,170.300000,560.100000,158.500000L560.100000,161C541,172.100000,516.600000,181.500000,495.100000,185.800000C481.700000,188.500000,468.300000,189.500000,457.300000,189.500000L391.600000,189.900000L287.500000,191.200000L236.800000,191.400000L155.600000,192Z" clip-rule="evenodd" fill="rgb(253,240,182)" fill-rule="evenodd" stroke="none" stroke-width="1"/><path id="ea9x4vfizjoe19" d="M155.600000,198.500000L80,198.800000L80,196.300000L155.600000,196L236.800000,195.200000L287.500000,195.200000L391.600000,193.900000L457.300000,193C468.100000,192.600000,479.300000,192.600000,491.700000,190.400000C503.800000,188.100000,516.900000,184.400000,529.500000,179.500000L529.500000,180.800000L526.800000,183.400000C503.900000,191.900000,483.200000,195.100000,457.300000,195.300000L391.600000,196.200000L287.500000,197.500000L236.800000,197.500000L155.600000,198.500000Z" clip-rule="evenodd" fill="rgb(253,240,182)" fill-rule="evenodd" stroke="none" stroke-width="1"/></g><path id="ea9x4vfizjoe20" d="M533.700000,17.700000L533.700000,17.700000C534.300000,17.100000,535.200000,17.100000,535.800000,17.700000L539,20.900000L542.200000,17.700000C542.800000,17.100000,543.700000,17.100000,544.300000,17.700000L544.300000,17.700000C544.900000,18.300000,544.900000,19.200000,544.300000,19.800000L541.100000,23L544.300000,26.200000C544.900000,26.800000,544.900000,27.700000,544.300000,28.300000L544.300000,28.300000C543.700000,28.900000,542.800000,28.900000,542.200000,28.300000L539,25.100000L535.800000,28.300000C535.200000,28.900000,534.300000,28.900000,533.700000,28.300000L533.700000,28.300000C533.100000,27.700000,533.100000,26.800000,533.700000,26.200000L536.900000,23L533.700000,19.800000C533.100000,19.200000,533.100000,18.300000,533.700000,17.700000Z" clip-rule="evenodd" fill="rgb(161,161,161)" fill-rule="evenodd" stroke="none" stroke-width="1"/></g><g id="ea9x4vfizjoe21"><path id="ea9x4vfizjoe22" d="M374,71.600000L374,71.600000C374,82.800000,364.800000,92,353.600000,92C247.600000,97.700000,146.400000,97.300000,47.400000,92C36.200000,92,27,82.800000,27,71.600000L27,71.600000L374,71.600000Z" clip-rule="evenodd" filter="url(#ea9x4vfizjoe22-filter)" fill="rgb(0,0,0)" fill-rule="evenodd" stroke="none" stroke-width="1"/><path id="ea9x4vfizjoe23" d="M42,49L358,49C370.100000,49,380,58.900000,380,71L380,71C380,83.100000,370.100000,93,358,93L42,93C29.900000,93,20,83.100000,20,71L20,71C20,58.900000,29.900000,49,42,49Z" opacity="0.1" clip-rule="evenodd" fill="rgb(0,0,0)" fill-rule="evenodd" stroke="none" stroke-width="1"/><path id="ea9x4vfizjoe24" d="M42,50L358,50C369.600000,50,379,59.400000,379,71L379,71C379,82.600000,369.600000,92,358,92L42,92C30.400000,92,21,82.600000,21,71L21,71C21,59.500000,30.500000,50,42,50Z" clip-rule="evenodd" fill="rgb(255,255,255)" fill-rule="evenodd" stroke="none" stroke-width="1"/><path id="ea9x4vfizjoe25" d="M44.500000,63C48.100000,63,51,65.900000,51,69.500000C51,70.900000,50.500000,72.300000,49.700000,73.300000L53.700000,77.300000C54.100000,77.700000,54.100000,78.300000,53.700000,78.700000C53.300000,79.100000,52.700000,79.100000,52.300000,78.700000L52.300000,78.700000L52.300000,78.700000L48.400000,74.800000C47.300000,75.600000,46,76.100000,44.600000,76.100000C41,76.100000,38.100000,73.200000,38.100000,69.600000C38,65.900000,40.900000,63,44.500000,63L44.500000,63ZM44.500000,65C42,65,40,67,40,69.500000C40,72,42,74,44.500000,74C47,74,49,72,49,69.500000C49,67,47,65,44.500000,65Z" clip-rule="evenodd" fill="rgb(102,102,102)" fill-rule="evenodd" stroke="none" stroke-width="1"/><path id="ea9x4vfizjoe26" d="M73,74L74.400000,73.900000C74.500000,74.500000,74.600000,74.900000,74.900000,75.300000C75.100000,75.700000,75.500000,76,76.100000,76.200000C76.600000,76.400000,77.200000,76.500000,77.900000,76.500000C78.500000,76.500000,79,76.400000,79.400000,76.200000C79.800000,76,80.200000,75.800000,80.400000,75.500000C80.600000,75.200000,80.700000,74.900000,80.700000,74.500000C80.700000,74.100000,80.600000,73.800000,80.400000,73.600000C80.200000,73.300000,79.800000,73.100000,79.400000,72.900000C79.100000,72.800000,78.400000,72.600000,77.400000,72.300000C76.300000,72,75.600000,71.800000,75.200000,71.600000C74.700000,71.300000,74.200000,71,74,70.500000C73.700000,70.100000,73.600000,69.600000,73.600000,69.100000C73.600000,68.500000,73.800000,68,74.100000,67.500000C74.400000,67,74.900000,66.600000,75.500000,66.400000C76.100000,66.100000,76.800000,66,77.600000,66C78.400000,66,79.200000,66.100000,79.800000,66.400000C80.400000,66.700000,80.900000,67.100000,81.300000,67.600000C81.600000,68.100000,81.800000,68.700000,81.900000,69.400000L80.400000,69.500000C80.300000,68.800000,80.100000,68.200000,79.600000,67.900000C79.100000,67.500000,78.500000,67.300000,77.600000,67.300000C76.700000,67.300000,76,67.500000,75.600000,67.800000C75.200000,68.100000,75,68.500000,75,69C75,69.400000,75.100000,69.700000,75.400000,70C75.700000,70.300000,76.500000,70.500000,77.700000,70.800000C78.900000,71.100000,79.800000,71.300000,80.200000,71.500000C80.900000,71.800000,81.400000,72.200000,81.700000,72.700000C82,73.200000,82.200000,73.700000,82.200000,74.300000C82.200000,74.900000,82,75.500000,81.700000,76C81.400000,76.500000,80.900000,77,80.200000,77.300000C79.500000,77.600000,78.800000,77.700000,78,77.700000C77,77.700000,76.100000,77.500000,75.400000,77.200000C74.700000,76.900000,74.200000,76.400000,73.800000,75.800000C73.200000,75.500000,73,74.800000,73,74L73,74ZM89.700000,75L91.200000,75.200000C91,76,90.500000,76.700000,89.900000,77.200000C89.300000,77.700000,88.500000,77.900000,87.500000,77.900000C86.300000,77.900000,85.300000,77.500000,84.600000,76.800000C83.900000,76.100000,83.500000,75,83.500000,73.700000C83.500000,72.300000,83.900000,71.200000,84.600000,70.500000C85.300000,69.700000,86.200000,69.300000,87.400000,69.300000C88.500000,69.300000,89.400000,69.700000,90.100000,70.400000C90.800000,71.200000,91.200000,72.200000,91.200000,73.600000C91.200000,73.700000,91.200000,73.800000,91.200000,74L85,74C85.100000,74.900000,85.300000,75.600000,85.800000,76.100000C86.300000,76.600000,86.800000,76.800000,87.500000,76.800000C88,76.800000,88.500000,76.700000,88.800000,76.400000C89.200000,76.100000,89.400000,75.600000,89.700000,75L89.700000,75ZM85.100000,72.800000L89.700000,72.800000C89.600000,72.100000,89.500000,71.600000,89.200000,71.200000C88.800000,70.700000,88.200000,70.400000,87.500000,70.400000C86.900000,70.400000,86.300000,70.600000,85.900000,71C85.300000,71.500000,85.100000,72.100000,85.100000,72.800000L85.100000,72.800000ZM98.300000,76.700000C97.800000,77.100000,97.300000,77.500000,96.800000,77.600000C96.300000,77.800000,95.800000,77.900000,95.200000,77.900000C94.300000,77.900000,93.600000,77.700000,93.100000,77.200000C92.600000,76.800000,92.400000,76.200000,92.400000,75.500000C92.400000,75.100000,92.500000,74.700000,92.700000,74.400000C92.900000,74.100000,93.100000,73.800000,93.400000,73.600000C93.700000,73.400000,94,73.200000,94.400000,73.100000C94.700000,73,95.100000,73,95.700000,72.900000C96.800000,72.800000,97.700000,72.600000,98.200000,72.400000C98.200000,72.200000,98.200000,72.100000,98.200000,72C98.200000,71.400000,98.100000,71,97.800000,70.800000C97.400000,70.500000,96.900000,70.300000,96.200000,70.300000C95.500000,70.300000,95,70.400000,94.700000,70.600000C94.400000,71,94.200000,71.400000,94,72L92.600000,71.800000C92.700000,71.200000,92.900000,70.700000,93.200000,70.400000C93.500000,70,93.900000,69.800000,94.400000,69.600000C94.900000,69.400000,95.600000,69.300000,96.300000,69.300000C97,69.300000,97.600000,69.400000,98,69.600000C98.400000,69.800000,98.800000,70,99,70.200000C99.200000,70.500000,99.400000,70.800000,99.400000,71.200000C99.400000,71.400000,99.500000,71.900000,99.500000,72.500000L99.500000,74.400000C99.500000,75.700000,99.500000,76.500000,99.600000,76.900000C99.700000,77.200000,99.800000,77.600000,99.900000,77.900000L98.400000,77.900000C98.400000,77.400000,98.400000,77.100000,98.300000,76.700000L98.300000,76.700000ZM98.200000,73.600000C97.700000,73.800000,96.900000,74,95.900000,74.100000C95.300000,74.200000,94.900000,74.300000,94.700000,74.400000C94.500000,74.500000,94.300000,74.700000,94.100000,74.900000C94,75.100000,93.900000,75.300000,93.900000,75.600000C93.900000,76,94,76.300000,94.300000,76.500000C94.600000,76.700000,95,76.900000,95.500000,76.900000C96,76.900000,96.500000,76.800000,96.900000,76.500000C97.300000,76.300000,97.600000,75.900000,97.800000,75.500000C98,75.200000,98,74.700000,98,74.100000L98.200000,73.600000L98.200000,73.600000ZM101.800000,77.700000L101.800000,69.400000L103.100000,69.400000L103.100000,70.700000C103.400000,70.100000,103.700000,69.700000,104,69.500000C104.300000,69.300000,104.600000,69.200000,104.900000,69.200000C105.400000,69.200000,105.900000,69.300000,106.300000,69.600000L105.800000,70.900000C105.500000,70.700000,105.100000,70.600000,104.800000,70.600000C104.500000,70.600000,104.200000,70.700000,104,70.900000C103.800000,71.100000,103.600000,71.300000,103.500000,71.700000C103.300000,72.200000,103.300000,72.700000,103.300000,73.300000L103.300000,77.600000L101.800000,77.600000L101.800000,77.700000ZM112.500000,74.700000L113.900000,74.900000C113.700000,75.800000,113.400000,76.600000,112.700000,77.100000C112.100000,77.600000,111.300000,77.900000,110.400000,77.900000C109.300000,77.900000,108.400000,77.500000,107.700000,76.800000C107,76.100000,106.700000,75,106.700000,73.600000C106.700000,72.700000,106.800000,71.900000,107.100000,71.300000C107.400000,70.600000,107.800000,70.100000,108.500000,69.800000C109.100000,69.500000,109.800000,69.300000,110.500000,69.300000C111.400000,69.300000,112.100000,69.500000,112.700000,70C113.300000,70.500000,113.600000,71.100000,113.800000,71.900000L112.400000,72.100000C112.300000,71.500000,112,71.100000,111.700000,70.800000C111.400000,70.500000,111,70.400000,110.500000,70.400000C109.800000,70.400000,109.200000,70.700000,108.800000,71.200000C108.400000,71.700000,108.100000,72.500000,108.100000,73.600000C108.100000,74.700000,108.300000,75.500000,108.700000,76C109.100000,76.500000,109.700000,76.800000,110.400000,76.800000C111,76.800000,111.400000,76.600000,111.800000,76.300000C112.200000,75.900000,112.400000,75.400000,112.500000,74.700000L112.500000,74.700000ZM115.100000,77.700000L115.100000,66.300000L116.500000,66.300000L116.500000,70.400000C117.200000,69.600000,118,69.300000,119,69.300000C119.600000,69.300000,120.100000,69.400000,120.600000,69.700000C121.100000,69.900000,121.400000,70.300000,121.600000,70.700000C121.800000,71.100000,121.900000,71.700000,121.900000,72.600000L121.900000,77.900000L120.500000,77.900000L120.500000,72.600000C120.500000,71.900000,120.300000,71.400000,120,71.100000C119.700000,70.800000,119.300000,70.600000,118.700000,70.600000C118.300000,70.600000,117.900000,70.700000,117.500000,70.900000C117.100000,71.100000,116.900000,71.400000,116.700000,71.800000C116.500000,72.200000,116.500000,72.700000,116.500000,73.300000L116.500000,77.800000L115.100000,77.800000L115.100000,77.700000ZM128.600000,77.700000L128.600000,66.300000L132.900000,66.300000C133.700000,66.300000,134.200000,66.300000,134.600000,66.400000C135.200000,66.500000,135.600000,66.700000,136,66.900000C136.400000,67.200000,136.700000,67.500000,136.900000,68C137.100000,68.500000,137.200000,69,137.200000,69.600000C137.200000,70.600000,136.900000,71.400000,136.300000,72.100000C135.700000,72.800000,134.600000,73.100000,132.900000,73.100000L130,73.100000L130,77.800000L128.600000,77.800000L128.600000,77.700000ZM130.200000,71.700000L133.200000,71.700000C134.200000,71.700000,134.900000,71.500000,135.300000,71.200000C135.700000,70.800000,135.900000,70.300000,135.900000,69.700000C135.900000,69.200000,135.800000,68.800000,135.500000,68.500000C135.300000,68.200000,134.900000,67.900000,134.500000,67.800000C134.200000,67.700000,133.800000,67.700000,133.100000,67.700000L130.200000,67.700000L130.200000,71.700000L130.200000,71.700000ZM139.100000,77.700000L139.100000,66.300000L140.500000,66.300000L140.500000,77.800000L139.100000,77.800000L139.100000,77.700000ZM148.100000,76.700000C147.600000,77.100000,147.100000,77.500000,146.600000,77.600000C146.100000,77.800000,145.600000,77.900000,145,77.900000C144.100000,77.900000,143.400000,77.700000,142.900000,77.200000C142.400000,76.800000,142.200000,76.200000,142.200000,75.500000C142.200000,75.100000,142.300000,74.700000,142.500000,74.400000C142.700000,74.100000,142.900000,73.800000,143.200000,73.600000C143.500000,73.400000,143.800000,73.200000,144.200000,73.100000C144.500000,73,144.900000,73,145.500000,72.900000C146.600000,72.800000,147.500000,72.600000,148,72.400000C148,72.200000,148,72.100000,148,72C148,71.400000,147.900000,71,147.600000,70.800000C147.200000,70.500000,146.700000,70.300000,146,70.300000C145.300000,70.300000,144.800000,70.400000,144.500000,70.600000C144.200000,70.800000,144,71.200000,143.800000,71.800000L142.400000,71.600000C142.500000,71,142.700000,70.500000,143,70.200000C143.300000,69.800000,143.700000,69.600000,144.200000,69.400000C144.700000,69.200000,145.400000,69.100000,146.100000,69.100000C146.800000,69.100000,147.400000,69.200000,147.800000,69.400000C148.200000,69.600000,148.600000,69.800000,148.800000,70C149,70.300000,149.200000,70.600000,149.200000,71C149.200000,71.200000,149.300000,71.700000,149.300000,72.300000L149.300000,74.200000C149.300000,75.500000,149.300000,76.300000,149.400000,76.700000C149.500000,77,149.600000,77.400000,149.700000,77.700000L148.200000,77.700000C148.200000,77.400000,148.200000,77.100000,148.100000,76.700000L148.100000,76.700000ZM148,73.600000C147.500000,73.800000,146.700000,74,145.700000,74.100000C145.100000,74.200000,144.700000,74.300000,144.500000,74.400000C144.300000,74.500000,144.100000,74.700000,143.900000,74.900000C143.800000,75.100000,143.700000,75.300000,143.700000,75.600000C143.700000,76,143.800000,76.300000,144.100000,76.500000C144.400000,76.700000,144.800000,76.900000,145.300000,76.900000C145.800000,76.900000,146.300000,76.800000,146.700000,76.500000C147.100000,76.300000,147.400000,75.900000,147.600000,75.500000C147.800000,75.200000,147.800000,74.700000,147.800000,74.100000L148,73.600000L148,73.600000ZM157,74.700000L158.400000,74.900000C158.200000,75.800000,157.900000,76.600000,157.200000,77.100000C156.600000,77.600000,155.800000,77.900000,154.900000,77.900000C153.800000,77.900000,152.900000,77.500000,152.200000,76.800000C151.500000,76.100000,151.200000,75,151.200000,73.600000C151.200000,72.700000,151.300000,71.900000,151.600000,71.300000C151.900000,70.600000,152.300000,70.100000,153,69.800000C153.600000,69.500000,154.300000,69.300000,155,69.300000C155.900000,69.300000,156.600000,69.500000,157.200000,70C157.800000,70.500000,158.100000,71.100000,158.300000,71.900000L156.900000,72.100000C156.800000,71.500000,156.500000,71.100000,156.200000,70.800000C155.900000,70.500000,155.500000,70.400000,155,70.400000C154.300000,70.400000,153.700000,70.700000,153.300000,71.200000C152.900000,71.700000,152.600000,72.500000,152.600000,73.600000C152.600000,74.700000,152.800000,75.500000,153.200000,76C153.600000,76.500000,154.200000,76.800000,154.900000,76.800000C155.500000,76.800000,155.900000,76.600000,156.300000,76.300000C156.700000,75.900000,156.900000,75.400000,157,74.700000L157,74.700000ZM165.300000,75L166.800000,75.200000C166.600000,76,166.100000,76.700000,165.500000,77.200000C164.900000,77.700000,164.100000,77.900000,163.100000,77.900000C161.900000,77.900000,160.900000,77.500000,160.200000,76.800000C159.500000,76.100000,159.100000,75,159.100000,73.700000C159.100000,72.300000,159.500000,71.200000,160.200000,70.500000C160.900000,69.700000,161.800000,69.300000,163,69.300000C164.100000,69.300000,165,69.700000,165.700000,70.400000C166.400000,71.200000,166.800000,72.200000,166.800000,73.600000C166.800000,73.700000,166.800000,73.800000,166.800000,74L160.600000,74C160.700000,74.900000,160.900000,75.600000,161.400000,76.100000C161.900000,76.600000,162.400000,76.800000,163.100000,76.800000C163.600000,76.800000,164.100000,76.700000,164.400000,76.400000C164.800000,76.100000,165,75.600000,165.300000,75L165.300000,75ZM160.600000,72.800000L165.200000,72.800000C165.100000,72.100000,165,71.600000,164.700000,71.200000C164.300000,70.700000,163.700000,70.400000,163,70.400000C162.400000,70.400000,161.800000,70.600000,161.400000,71C160.900000,71.500000,160.700000,72.100000,160.600000,72.800000L160.600000,72.800000ZM167.900000,75.200000L169.300000,75C169.400000,75.600000,169.600000,76,170,76.300000C170.400000,76.600000,170.900000,76.700000,171.500000,76.700000C172.100000,76.700000,172.600000,76.600000,172.900000,76.300000C173.200000,76,173.400000,75.700000,173.400000,75.400000C173.400000,75.100000,173.300000,74.800000,173,74.700000C172.800000,74.600000,172.300000,74.400000,171.600000,74.200000C170.600000,73.900000,169.900000,73.700000,169.500000,73.500000C169.100000,73.300000,168.800000,73,168.600000,72.700000C168.400000,72.400000,168.300000,72,168.300000,71.600000C168.300000,71.200000,168.400000,70.900000,168.600000,70.600000C168.800000,70.300000,169,70,169.300000,69.800000C169.500000,69.600000,169.800000,69.500000,170.200000,69.400000C170.600000,69.300000,171,69.200000,171.400000,69.200000C172.100000,69.200000,172.600000,69.300000,173.100000,69.500000C173.600000,69.700000,174,69.900000,174.200000,70.300000C174.400000,70.600000,174.600000,71.100000,174.700000,71.600000L173.300000,71.800000C173.200000,71.400000,173.100000,71,172.800000,70.800000C172.500000,70.600000,172.100000,70.400000,171.500000,70.400000C170.900000,70.400000,170.400000,70.500000,170.100000,70.700000C169.800000,70.900000,169.700000,71.200000,169.700000,71.400000C169.700000,71.600000,169.800000,71.700000,169.900000,71.900000C170,72,170.200000,72.200000,170.400000,72.300000C170.500000,72.400000,171,72.500000,171.600000,72.700000C172.600000,73,173.300000,73.200000,173.700000,73.400000C174.100000,73.600000,174.400000,73.800000,174.600000,74.100000C174.800000,74.400000,174.900000,74.800000,174.900000,75.300000C174.900000,75.800000,174.800000,76.200000,174.500000,76.600000C174.200000,77,173.800000,77.300000,173.300000,77.600000C172.800000,77.800000,172.200000,77.900000,171.500000,77.900000C170.400000,77.900000,169.600000,77.700000,169,77.200000C168.400000,76.800000,168.100000,76.100000,167.900000,75.200000Z" clip-rule="evenodd" fill="rgb(153,153,153)" fill-rule="evenodd" stroke="none" stroke-width="1"/></g><g id="ea9x4vfizjoe27"><path id="ea9x4vfizjoe28" d="M265.300000,139.800000C268.500000,139.800000,271.300000,140.300000,271.300000,142.300000L273.600000,302.800000C274.100000,314.600000,265.300000,312.500000,257.300000,311.800000C192.700000,306.100000,103.900000,306.100000,39.300000,311.800000C31.200000,312.500000,22.500000,314.600000,23,302.800000L25.300000,142.300000C25.300000,140.300000,28.100000,139.800000,31.300000,139.800000C109.300000,139.800000,187.300000,139.800000,265.300000,139.800000Z" transform="matrix(1 0 0 1 -2.97941852000002 0.19999999999999)" clip-rule="evenodd" filter="url(#ea9x4vfizjoe28-filter)" fill="rgb(0,0,0)" fill-rule="evenodd" stroke="none" stroke-width="1"/><rect id="ea9x4vfizjoe29" width="250" height="168" rx="0" ry="0" transform="matrix(1 0 0 1 20 138)" clip-rule="evenodd" fill="rgb(255,255,255)" fill-rule="evenodd" stroke="none" stroke-width="1"/><g id="ea9x4vfizjoe30"><rect id="ea9x4vfizjoe31" width="230" height="148" rx="0" ry="0" transform="matrix(1 0 0 1 30 148)" clip-rule="evenodd" fill="rgb(24,24,24)" fill-rule="evenodd" stroke="none" stroke-width="1"/><path id="ea9x4vfizjoe32" d="M41,176L201,176C201.600000,176,202,176.400000,202,177L202,177C202,177.600000,201.500000,178,201,178L41,178C40.500000,178,40,177.600000,40,177L40,177C40,176.500000,40.400000,176,41,176Z" clip-rule="evenodd" fill="rgb(62,207,142)" fill-rule="evenodd" stroke="none" stroke-width="1"/><path id="ea9x4vfizjoe33" d="M231,176L249,176C249.600000,176,250,176.400000,250,177L250,177C250,177.600000,249.600000,178,249,178L231,178C230.400000,178,230,177.600000,230,177L230,177C230,176.500000,230.400000,176,231,176Z" clip-rule="evenodd" fill="rgb(62,207,142)" fill-rule="evenodd" stroke="none" stroke-width="1"/><path id="ea9x4vfizjoe34" d="M209,176L223,176C223.600000,176,224,176.400000,224,177L224,177C224,177.600000,223.500000,178,223,178L209,178C208.500000,178,208,177.600000,208,177L208,177C208,176.500000,208.500000,176,209,176Z" clip-rule="evenodd" fill="rgb(62,207,142)" fill-rule="evenodd" stroke="none" stroke-width="1"/><path id="ea9x4vfizjoe35" d="M41,188L139,188C139.600000,188,140,188.400000,140,189L140,189C140,189.600000,139.500000,190,139,190L41,190C40.500000,190,40,189.600000,40,189L40,189C40,188.500000,40.400000,188,41,188Z" clip-rule="evenodd" fill="rgb(2,123,243)" fill-rule="evenodd" stroke="none" stroke-width="1"/><path id="ea9x4vfizjoe36" d="M157,188L179,188C179.600000,188,180,188.400000,180,189L180,189C180,189.600000,179.500000,190,179,190L157,190C156.500000,190,156,189.600000,156,189L156,189C156,188.500000,156.400000,188,157,188Z" clip-rule="evenodd" fill="rgb(2,123,243)" fill-rule="evenodd" stroke="none" stroke-width="1"/><path id="ea9x4vfizjoe37" d="M41,196L45,196C45.600000,196,46,196.400000,46,197L46,197C46,197.600000,45.500000,198,45,198L41,198C40.500000,198,40,197.600000,40,197L40,197C40,196.500000,40.400000,196,41,196Z" clip-rule="evenodd" fill="rgb(2,123,243)" fill-rule="evenodd" stroke="none" stroke-width="1"/><path id="ea9x4vfizjoe38" d="M121,196L179,196C179.600000,196,180,196.400000,180,197L180,197C180,197.600000,179.500000,198,179,198L121,198C120.500000,198,120,197.600000,120,197L120,197C120,196.500000,120.400000,196,121,196Z" clip-rule="evenodd" fill="rgb(2,123,243)" fill-rule="evenodd" stroke="none" stroke-width="1"/><path id="ea9x4vfizjoe39" d="M57,196L65,196C65.600000,196,66,196.400000,66,197L66,197C66,197.600000,65.500000,198,65,198L57,198C56.500000,198,56,197.600000,56,197L56,197C56,196.500000,56.500000,196,57,196Z" clip-rule="evenodd" fill="rgb(2,123,243)" fill-rule="evenodd" stroke="none" stroke-width="1"/><path id="ea9x4vfizjoe40" d="M73,196L81,196C81.600000,196,82,196.400000,82,197L82,197C82,197.600000,81.500000,198,81,198L73,198C72.500000,198,72,197.600000,72,197L72,197C72,196.500000,72.500000,196,73,196Z" clip-rule="evenodd" fill="rgb(2,123,243)" fill-rule="evenodd" stroke="none" stroke-width="1"/><path id="ea9x4vfizjoe41" d="M89,196L97,196C97.600000,196,98,196.400000,98,197L98,197C98,197.600000,97.500000,198,97,198L89,198C88.500000,198,88,197.600000,88,197L88,197C88,196.500000,88.500000,196,89,196Z" clip-rule="evenodd" fill="rgb(2,123,243)" fill-rule="evenodd" stroke="none" stroke-width="1"/><path id="ea9x4vfizjoe42" d="M105,196L113,196C113.600000,196,114,196.400000,114,197L114,197C114,197.600000,113.500000,198,113,198L105,198C104.500000,198,104,197.600000,104,197L104,197C104,196.500000,104.500000,196,105,196Z" clip-rule="evenodd" fill="rgb(2,123,243)" fill-rule="evenodd" stroke="none" stroke-width="1"/><path id="ea9x4vfizjoe43" d="M57,204L207,204C207.600000,204,208,204.400000,208,205L208,205C208,205.600000,207.500000,206,207,206L57,206C56.500000,206,56,205.600000,56,205L56,205C56,204.500000,56.500000,204,57,204Z" clip-rule="evenodd" fill="rgb(240,82,62)" fill-rule="evenodd" stroke="none" stroke-width="1"/><path id="ea9x4vfizjoe44" d="M215,204L249,204C249.600000,204,250,204.400000,250,205L250,205C250,205.600000,249.500000,206,249,206L215,206C214.500000,206,214,205.600000,214,205L214,205C214,204.500000,214.400000,204,215,204Z" clip-rule="evenodd" fill="rgb(240,82,62)" fill-rule="evenodd" stroke="none" stroke-width="1"/><path id="ea9x4vfizjoe45" d="M41,204L45,204C45.600000,204,46,204.400000,46,205L46,205C46,205.600000,45.500000,206,45,206L41,206C40.500000,206,40,205.600000,40,205L40,205C40,204.500000,40.400000,204,41,204Z" clip-rule="evenodd" fill="rgb(2,123,243)" fill-rule="evenodd" stroke="none" stroke-width="1"/><path id="ea9x4vfizjoe46" d="M41,212L45,212C45.600000,212,46,212.400000,46,213L46,213C46,213.600000,45.500000,214,45,214L41,214C40.500000,214,40,213.600000,40,213L40,213C40,212.500000,40.400000,212,41,212Z" clip-rule="evenodd" fill="rgb(2,123,243)" fill-rule="evenodd" stroke="none" stroke-width="1"/><path id="ea9x4vfizjoe47" d="M41,220L45,220C45.600000,220,46,220.400000,46,221L46,221C46,221.600000,45.500000,222,45,222L41,222C40.500000,222,40,221.600000,40,221L40,221C40,220.500000,40.400000,220,41,220Z" clip-rule="evenodd" fill="rgb(2,123,243)" fill-rule="evenodd" stroke="none" stroke-width="1"/><path id="ea9x4vfizjoe48" d="M41,228L45,228C45.600000,228,46,228.400000,46,229L46,229C46,229.600000,45.500000,230,45,230L41,230C40.500000,230,40,229.600000,40,229L40,229C40,228.500000,40.400000,228,41,228Z" clip-rule="evenodd" fill="rgb(2,123,243)" fill-rule="evenodd" stroke="none" stroke-width="1"/><path id="ea9x4vfizjoe49" d="M41,236L45,236C45.600000,236,46,236.400000,46,237L46,237C46,237.600000,45.500000,238,45,238L41,238C40.500000,238,40,237.600000,40,237L40,237C40,236.500000,40.400000,236,41,236Z" clip-rule="evenodd" fill="rgb(2,123,243)" fill-rule="evenodd" stroke="none" stroke-width="1"/><path id="ea9x4vfizjoe50" d="M41,252L45,252C45.600000,252,46,252.400000,46,253L46,253C46,253.600000,45.500000,254,45,254L41,254C40.500000,254,40,253.600000,40,253L40,253C40,252.500000,40.400000,252,41,252Z" clip-rule="evenodd" fill="rgb(2,123,243)" fill-rule="evenodd" stroke="none" stroke-width="1"/><path id="ea9x4vfizjoe51" d="M41,260L45,260C45.600000,260,46,260.400000,46,261L46,261C46,261.600000,45.500000,262,45,262L41,262C40.500000,262,40,261.600000,40,261L40,261C40,260.500000,40.400000,260,41,260Z" clip-rule="evenodd" fill="rgb(2,123,243)" fill-rule="evenodd" stroke="none" stroke-width="1"/><path id="ea9x4vfizjoe52" d="M41,268L45,268C45.600000,268,46,268.400000,46,269L46,269C46,269.600000,45.500000,270,45,270L41,270C40.500000,270,40,269.600000,40,269L40,269C40,268.500000,40.400000,268,41,268Z" clip-rule="evenodd" fill="rgb(2,123,243)" fill-rule="evenodd" stroke="none" stroke-width="1"/><path id="ea9x4vfizjoe53" d="M41,276L45,276C45.600000,276,46,276.400000,46,277L46,277C46,277.600000,45.500000,278,45,278L41,278C40.500000,278,40,277.600000,40,277L40,277C40,276.500000,40.400000,276,41,276Z" clip-rule="evenodd" fill="rgb(2,123,243)" fill-rule="evenodd" stroke="none" stroke-width="1"/><path id="ea9x4vfizjoe54" d="M57,212L113,212C113.600000,212,114,212.400000,114,213L114,213C114,213.600000,113.500000,214,113,214L57,214C56.500000,214,56,213.600000,56,213L56,213C56,212.500000,56.500000,212,57,212Z" clip-rule="evenodd" fill="rgb(240,82,62)" fill-rule="evenodd" stroke="none" stroke-width="1"/><path id="ea9x4vfizjoe55" d="M57,220L113,220C113.600000,220,114,220.400000,114,221L114,221C114,221.600000,113.500000,222,113,222L57,222C56.500000,222,56,221.600000,56,221L56,221C56,220.500000,56.500000,220,57,220Z" clip-rule="evenodd" fill="rgb(240,82,62)" fill-rule="evenodd" stroke="none" stroke-width="1"/><path id="ea9x4vfizjoe56" d="M57,228L113,228C113.600000,228,114,228.400000,114,229L114,229C114,229.600000,113.500000,230,113,230L57,230C56.500000,230,56,229.600000,56,229L56,229C56,228.500000,56.500000,228,57,228Z" clip-rule="evenodd" fill="rgb(240,82,62)" fill-rule="evenodd" stroke="none" stroke-width="1"/><path id="ea9x4vfizjoe57" d="M57,236L113,236C113.600000,236,114,236.400000,114,237L114,237C114,237.600000,113.500000,238,113,238L57,238C56.500000,238,56,237.600000,56,237L56,237C56,236.500000,56.500000,236,57,236Z" clip-rule="evenodd" fill="rgb(240,82,62)" fill-rule="evenodd" stroke="none" stroke-width="1"/><path id="ea9x4vfizjoe58" d="M185,220L207,220C207.600000,220,208,220.400000,208,221L208,221C208,221.600000,207.500000,222,207,222L185,222C184.500000,222,184,221.600000,184,221L184,221C184,220.500000,184.500000,220,185,220Z" clip-rule="evenodd" fill="rgb(252,189,0)" fill-rule="evenodd" stroke="none" stroke-width="1"/><path id="ea9x4vfizjoe59" d="M41,244L139,244C139.600000,244,140,244.400000,140,245L140,245C140,245.600000,139.500000,246,139,246L41,246C40.500000,246,40,245.600000,40,245L40,245C40,244.500000,40.400000,244,41,244Z" clip-rule="evenodd" fill="rgb(62,207,142)" fill-rule="evenodd" stroke="none" stroke-width="1"/><path id="ea9x4vfizjoe60" d="M157,244L179,244C179.600000,244,180,244.400000,180,245L180,245C180,245.600000,179.500000,246,179,246L157,246C156.500000,246,156,245.600000,156,245L156,245C156,244.500000,156.400000,244,157,244Z" clip-rule="evenodd" fill="rgb(62,207,142)" fill-rule="evenodd" stroke="none" stroke-width="1"/><path id="ea9x4vfizjoe61" d="M121,252L179,252C179.600000,252,180,252.400000,180,253L180,253C180,253.600000,179.500000,254,179,254L121,254C120.500000,254,120,253.600000,120,253L120,253C120,252.500000,120.400000,252,121,252Z" clip-rule="evenodd" fill="rgb(62,207,142)" fill-rule="evenodd" stroke="none" stroke-width="1"/><path id="ea9x4vfizjoe62" d="M57,252L65,252C65.600000,252,66,252.400000,66,253L66,253C66,253.600000,65.500000,254,65,254L57,254C56.500000,254,56,253.600000,56,253L56,253C56,252.500000,56.500000,252,57,252Z" clip-rule="evenodd" fill="rgb(62,207,142)" fill-rule="evenodd" stroke="none" stroke-width="1"/><path id="ea9x4vfizjoe63" d="M73,252L81,252C81.600000,252,82,252.400000,82,253L82,253C82,253.600000,81.500000,254,81,254L73,254C72.500000,254,72,253.600000,72,253L72,253C72,252.500000,72.500000,252,73,252Z" clip-rule="evenodd" fill="rgb(62,207,142)" fill-rule="evenodd" stroke="none" stroke-width="1"/><path id="ea9x4vfizjoe64" d="M89,252L97,252C97.600000,252,98,252.400000,98,253L98,253C98,253.600000,97.500000,254,97,254L89,254C88.500000,254,88,253.600000,88,253L88,253C88,252.500000,88.500000,252,89,252Z" clip-rule="evenodd" fill="rgb(62,207,142)" fill-rule="evenodd" stroke="none" stroke-width="1"/><path id="ea9x4vfizjoe65" d="M105,252L113,252C113.600000,252,114,252.400000,114,253L114,253C114,253.600000,113.500000,254,113,254L105,254C104.500000,254,104,253.600000,104,253L104,253C104,252.500000,104.500000,252,105,252Z" clip-rule="evenodd" fill="rgb(62,207,142)" fill-rule="evenodd" stroke="none" stroke-width="1"/><path id="ea9x4vfizjoe66" d="M57,260L207,260C207.600000,260,208,260.400000,208,261L208,261C208,261.600000,207.500000,262,207,262L57,262C56.500000,262,56,261.600000,56,261L56,261C56,260.500000,56.500000,260,57,260Z" clip-rule="evenodd" fill="rgb(2,123,243)" fill-rule="evenodd" stroke="none" stroke-width="1"/><path id="ea9x4vfizjoe67" d="M215,260L249,260C249.600000,260,250,260.400000,250,261L250,261C250,261.600000,249.500000,262,249,262L215,262C214.500000,262,214,261.600000,214,261L214,261C214,260.500000,214.400000,260,215,260Z" clip-rule="evenodd" fill="rgb(2,123,243)" fill-rule="evenodd" stroke="none" stroke-width="1"/><path id="ea9x4vfizjoe68" d="M57,268L113,268C113.600000,268,114,268.400000,114,269L114,269C114,269.600000,113.500000,270,113,270L57,270C56.500000,270,56,269.600000,56,269L56,269C56,268.500000,56.500000,268,57,268Z" clip-rule="evenodd" fill="rgb(2,123,243)" fill-rule="evenodd" stroke="none" stroke-width="1"/><path id="ea9x4vfizjoe69" d="M57,276L113,276C113.600000,276,114,276.400000,114,277L114,277C114,277.600000,113.500000,278,113,278L57,278C56.500000,278,56,277.600000,56,277L56,277C56,276.500000,56.500000,276,57,276Z" clip-rule="evenodd" fill="rgb(2,123,243)" fill-rule="evenodd" stroke="none" stroke-width="1"/><path id="ea9x4vfizjoe70" d="M157,228L207,228C207.600000,228,208,228.400000,208,229L208,229C208,229.600000,207.500000,230,207,230L157,230C156.500000,230,156,229.600000,156,229L156,229C156,228.500000,156.500000,228,157,228Z" clip-rule="evenodd" fill="rgb(252,189,0)" fill-rule="evenodd" stroke="none" stroke-width="1"/><path id="ea9x4vfizjoe71" d="M125,236L207,236C207.600000,236,208,236.400000,208,237L208,237C208,237.600000,207.500000,238,207,238L125,238C124.500000,238,124,237.600000,124,237L124,237C124,236.500000,124.500000,236,125,236Z" clip-rule="evenodd" fill="rgb(252,189,0)" fill-rule="evenodd" stroke="none" stroke-width="1"/><path id="ea9x4vfizjoe72" d="M185,268L207,268C207.600000,268,208,268.400000,208,269L208,269C208,269.600000,207.500000,270,207,270L185,270C184.500000,270,184,269.600000,184,269L184,269C184,268.500000,184.500000,268,185,268Z" clip-rule="evenodd" fill="rgb(240,82,62)" fill-rule="evenodd" stroke="none" stroke-width="1"/><path id="ea9x4vfizjoe73" d="M157,276L207,276C207.600000,276,208,276.400000,208,277L208,277C208,277.600000,207.500000,278,207,278L157,278C156.500000,278,156,277.600000,156,277L156,277C156,276.500000,156.500000,276,157,276Z" clip-rule="evenodd" fill="rgb(240,82,62)" fill-rule="evenodd" stroke="none" stroke-width="1"/><path id="ea9x4vfizjoe74" d="M47.400000,155.600000L47.400000,155.600000C47.800000,156,47.800000,156.600000,47.400000,157L42.400000,162L47.400000,166.900000C47.800000,167.300000,47.800000,167.900000,47.400000,168.300000L47.400000,168.300000C47,168.700000,46.400000,168.700000,46,168.300000L40.300000,162.600000L40.300000,162.600000L40.300000,162.600000C39.900000,162.200000,39.900000,161.600000,40.300000,161.200000L46,155.500000C46.300000,155.300000,47,155.300000,47.400000,155.600000Z" clip-rule="evenodd" fill="rgb(62,207,142)" fill-rule="evenodd" stroke="none" stroke-width="1"/><path id="ea9x4vfizjoe75" d="M55.300000,154.900000L55.300000,154.900000C54.800000,154.700000,54.200000,155,54,155.500000L50,167.900000C49.800000,168.400000,50.100000,169,50.600000,169.200000L50.600000,169.200000C51.100000,169.400000,51.700000,169.100000,51.900000,168.600000L55.900000,156.200000C56.100000,155.600000,55.900000,155,55.300000,154.900000Z" clip-rule="evenodd" fill="rgb(62,207,142)" fill-rule="evenodd" stroke="none" stroke-width="1"/><path id="ea9x4vfizjoe76" d="M58.600000,155.600000L58.600000,155.600000C58.200000,156,58.200000,156.600000,58.600000,157L63.600000,162L58.600000,166.900000C58.200000,167.300000,58.200000,167.900000,58.600000,168.300000L58.600000,168.300000C59,168.700000,59.600000,168.700000,60,168.300000L65.700000,162.600000L65.700000,162.600000L65.700000,162.600000C66.100000,162.200000,66.100000,161.600000,65.700000,161.200000L60,155.500000C59.700000,155.300000,59,155.300000,58.600000,155.600000Z" clip-rule="evenodd" fill="rgb(62,207,142)" fill-rule="evenodd" stroke="none" stroke-width="1"/><circle id="ea9x4vfizjoe77" r="1.500000" transform="matrix(1 0 0 1 71.50000000000000 167.50000000000000)" clip-rule="evenodd" fill="rgb(62,207,142)" fill-rule="evenodd" stroke="none" stroke-width="1"/><circle id="ea9x4vfizjoe78" r="1.500000" transform="matrix(1 0 0 1 77.50000000000000 167.50000000000000)" clip-rule="evenodd" fill="rgb(62,207,142)" fill-rule="evenodd" stroke="none" stroke-width="1"/><circle id="ea9x4vfizjoe79" r="1.500000" transform="matrix(1 0 0 1 83.50000000000000 167.50000000000000)" clip-rule="evenodd" fill="rgb(62,207,142)" fill-rule="evenodd" stroke="none" stroke-width="1"/><path id="ea9x4vfizjoe80" d="M41,284L45,284C45.600000,284,46,284.400000,46,285L46,285C46,285.600000,45.500000,286,45,286L41,286C40.500000,286,40,285.600000,40,285L40,285C40,284.500000,40.400000,284,41,284Z" clip-rule="evenodd" fill="rgb(2,123,243)" fill-rule="evenodd" stroke="none" stroke-width="1"/><path id="ea9x4vfizjoe81" d="M57,284L113,284C113.600000,284,114,284.400000,114,285L114,285C114,285.600000,113.500000,286,113,286L57,286C56.500000,286,56,285.600000,56,285L56,285C56,284.500000,56.500000,284,57,284Z" clip-rule="evenodd" fill="rgb(2,123,243)" fill-rule="evenodd" stroke="none" stroke-width="1"/><path id="ea9x4vfizjoe82" d="M125,284L207,284C207.600000,284,208,284.400000,208,285L208,285C208,285.600000,207.500000,286,207,286L125,286C124.500000,286,124,285.600000,124,285L124,285C124,284.500000,124.500000,284,125,284Z" clip-rule="evenodd" fill="rgb(240,82,62)" fill-rule="evenodd" stroke="none" stroke-width="1"/></g></g><g id="ea9x4vfizjoe83_ts" transform="translate(329,196) scale(1,1)"><g id="ea9x4vfizjoe83" transform="translate(-391,-231)"><circle id="ea9x4vfizjoe84" r="12" transform="matrix(1 0 0 1 391 231)" opacity="0.2" clip-rule="evenodd" fill="rgb(110,160,252)" fill-rule="evenodd" stroke="none" stroke-width="1"/><path id="ea9x4vfizjoe85" d="M391,237C394.300000,237,397,234.300000,397,231C397,227.700000,394.300000,225,391,225C387.700000,225,385,227.700000,385,231C385,234.300000,387.700000,237,391,237Z" clip-rule="evenodd" fill="rgb(252,253,253)" fill-rule="evenodd" stroke="none" stroke-width="1"/><circle id="ea9x4vfizjoe86" r="4.500000" transform="matrix(1 0 0 1 391 231.00000000499952)" clip-rule="evenodd" fill="rgb(2,123,243)" fill-rule="evenodd" stroke="none" stroke-width="1"/></g></g><g id="ea9x4vfizjoe87_ts" transform="translate(391,231) scale(1,1)"><g id="ea9x4vfizjoe87" transform="translate(-391,-231)"><circle id="ea9x4vfizjoe88" r="12" transform="matrix(1 0 0 1 391 231)" opacity="0.2" clip-rule="evenodd" fill="rgb(110,160,252)" fill-rule="evenodd" stroke="none" stroke-width="1"/><path id="ea9x4vfizjoe89" d="M391,237C394.300000,237,397,234.300000,397,231C397,227.700000,394.300000,225,391,225C387.700000,225,385,227.700000,385,231C385,234.300000,387.700000,237,391,237Z" clip-rule="evenodd" fill="rgb(252,253,253)" fill-rule="evenodd" stroke="none" stroke-width="1"/><circle id="ea9x4vfizjoe90" r="4.500000" transform="matrix(1 0 0 1 391 231.00000000499952)" clip-rule="evenodd" fill="rgb(2,123,243)" fill-rule="evenodd" stroke="none" stroke-width="1"/></g></g><g id="ea9x4vfizjoe91_ts" transform="translate(391,152) scale(1,1)"><g id="ea9x4vfizjoe91" transform="translate(-391,-152)"><circle id="ea9x4vfizjoe92" r="12" transform="matrix(1 0 0 1 391 152)" opacity="0.2" clip-rule="evenodd" fill="rgb(110,160,252)" fill-rule="evenodd" stroke="none" stroke-width="1"/><path id="ea9x4vfizjoe93" d="M391,158C394.300000,158,397,155.300000,397,152C397,148.700000,394.300000,146,391,146C387.700000,146,385,148.700000,385,152C385,155.300000,387.700000,158,391,158Z" clip-rule="evenodd" fill="rgb(252,253,253)" fill-rule="evenodd" stroke="none" stroke-width="1"/><circle id="ea9x4vfizjoe94" r="4.500000" transform="matrix(1 0 0 1 391 152)" clip-rule="evenodd" fill="rgb(2,123,243)" fill-rule="evenodd" stroke="none" stroke-width="1"/></g></g><g id="ea9x4vfizjoe95_ts" transform="translate(339,128) scale(1,1)"><g id="ea9x4vfizjoe95" transform="translate(-339,-128)"><circle id="ea9x4vfizjoe96" r="12" transform="matrix(1 0 0 1 339 128)" opacity="0.2" clip-rule="evenodd" fill="rgb(110,160,252)" fill-rule="evenodd" stroke="none" stroke-width="1"/><path id="ea9x4vfizjoe97" d="M339,134C342.300000,134,345,131.300000,345,128C345,124.700000,342.300000,122,339,122C335.700000,122,333,124.700000,333,128C333,131.300000,335.700000,134,339,134Z" transform="matrix(1 0 0 1 0 0.00000000000001)" clip-rule="evenodd" fill="rgb(252,253,253)" fill-rule="evenodd" stroke="none" stroke-width="1"/><circle id="ea9x4vfizjoe98" r="4.500000" transform="matrix(1 0 0 1 339 128)" clip-rule="evenodd" fill="rgb(2,123,243)" fill-rule="evenodd" stroke="none" stroke-width="1"/></g></g></svg>