<?xml version="1.0" encoding="UTF-8"?>
<!DOCTYPE svg PUBLIC "-//W3C//DTD SVG 1.1//EN" "http://www.w3.org/Graphics/SVG/1.1/DTD/svg11.dtd">
<!-- Creator: CorelDRAW 2017 -->
<svg xmlns="http://www.w3.org/2000/svg" xml:space="preserve" width="40px" height="40px" version="1.1" shape-rendering="geometricPrecision" text-rendering="geometricPrecision" image-rendering="optimizeQuality" fill-rule="evenodd" clip-rule="evenodd"
viewBox="0 0 40 40"
 xmlns:xlink="http://www.w3.org/1999/xlink">
 <g id="Layer_x0020_1">
  <metadata id="CorelCorpID_0Corel-Layer"/>
  <path fill="#FEEDEC" d="M30.653 20.183c-3.956,-3.315 -6.763,-4.073 -10.5,-8.013 -2.696,-2.844 -6.723,-3.727 -9.6,-2.839 -3.596,1.11 -8.813,6.268 -7.278,11.536 1.534,5.268 9.194,20.553 21.122,17.806 11.928,-2.747 13.463,-12.449 6.256,-18.49z"/>
  <path fill="#181818" d="M21 1c6.628,0 12,5.372 12,12 0,4.577 -2.562,8.554 -6.331,10.578 -2.291,1.224 -4.201,3.857 -5.026,6.272l0 0 -0.002 0c-0.079,0.279 -0.336,0.483 -0.641,0.483 -0.304,0 -0.562,-0.204 -0.641,-0.483l-0.002 0 0 0c-0.825,-2.415 -2.734,-5.048 -5.026,-6.272 -3.769,-2.024 -6.331,-6.001 -6.331,-10.578 0,-6.628 5.373,-12 12,-12zm0 7.5c2.485,0 4.5,2.015 4.5,4.5 0,2.485 -2.015,4.5 -4.5,4.5 -2.485,0 -4.5,-2.015 -4.5,-4.5 0,-2.485 2.015,-4.5 4.5,-4.5zm0 2c1.381,0 2.5,1.119 2.5,2.5 0,1.381 -1.119,2.5 -2.5,2.5 -1.381,0 -2.5,-1.119 -2.5,-2.5 0,-1.381 1.119,-2.5 2.5,-2.5zm0 16.039c1.172,-1.951 2.831,-3.709 4.725,-4.723 3.248,-1.741 5.275,-5.121 5.275,-8.816 0,-5.524 -4.476,-10.001 -10,-10.001 -5.524,0 -10,4.477 -10,10.001 0,3.695 2.027,7.075 5.275,8.816 1.894,1.014 3.554,2.772 4.725,4.723z"/>
 </g>
</svg>
