<svg height="520" viewBox="0 0 1520 520" width="1520" xmlns="http://www.w3.org/2000/svg" xmlns:xlink="http://www.w3.org/1999/xlink"><clipPath id="a"><path d="m200 3942h1520v520h-1520z"/></clipPath><linearGradient id="b" gradientUnits="objectBoundingBox" x1="-.014" x2=".975" y1=".024" y2="1.065"><stop offset="0" stop-color="#ff9cbb"/><stop offset="1" stop-color="#278dff"/></linearGradient><linearGradient id="c" x1="-.108" x2="1" xlink:href="#b" y1=".095" y2="1"/><linearGradient id="d" x1="-.064" x2="1.065" xlink:href="#b" y1=".177" y2=".739"/><g clip-path="url(#a)" transform="translate(-200 -3942)"><path d="m390.1 409.828c0-7.98-9.6-17.762-23.9-24.341l1.254-2.726c15.58 7.17 25.646 17.794 25.646 27.067 0 7.991-7.343 16.957-19.642 23.986-13.833 7.9-32.134 12.256-51.531 12.256s-37.7-4.353-51.531-12.256c-12.3-7.029-19.643-15.995-19.643-23.986 0-9.35 10.188-20.03 25.956-27.208l1.242 2.731c-14.474 6.588-24.2 16.425-24.2 24.477 0 6.8 6.948 14.99 18.131 21.381 13.387 7.649 31.16 11.861 50.043 11.861s36.656-4.212 50.041-11.861c11.185-6.391 18.132-14.583 18.132-21.381m-344.092-105.942c0-3.471 4.226-6.19 9.623-6.19s9.624 2.719 9.624 6.19a4.605 4.605 0 0 1 -1.139 2.965l96.5 55.72 59.3-34.378a1.5 1.5 0 0 1 1.5 0l56.665 32.719-1.5 2.6-55.913-32.285-59.3 34.378a1.5 1.5 0 0 1 -1.5 0l-98.356-56.794a13.442 13.442 0 0 1 -5.881 1.266c-5.4 0-9.623-2.719-9.623-6.191m3 0c0 1.507 2.832 3.191 6.623 3.191s6.624-1.684 6.624-3.191-2.833-3.19-6.624-3.19-6.623 1.684-6.623 3.19m467.524 260.365c0 3.471-4.227 6.19-9.623 6.19s-9.623-2.719-9.623-6.19a4.656 4.656 0 0 1 1.26-3.1l-94.475-54.549a1.5 1.5 0 0 1 .007-2.6l58.246-33.248-63.479-36.654.537-.93a62.163 62.163 0 0 1 -11.194 8.966l44.614 25.764a1.5 1.5 0 0 1 0 2.6l-72.717 41.987 80.962 46.747a13.574 13.574 0 0 1 5.688-1.173c5.4 0 9.624 2.719 9.624 6.19s-4.227 6.19-9.624 6.19-9.623-2.719-9.623-6.19a4.656 4.656 0 0 1 1.26-3.1l-82.037-47.368a1.5 1.5 0 0 1 0-2.6l72.72-41.983-43.793-25.286a95.012 95.012 0 0 1 -12.923 6.162l29.6 17.094a1.5 1.5 0 0 1 0 2.6l-87.8 50.939 66.852 38.591a13.482 13.482 0 0 1 5.825-1.238c5.4 0 9.623 2.719 9.623 6.19s-4.226 6.19-9.623 6.19-9.623-2.719-9.623-6.19a4.618 4.618 0 0 1 1.173-3l-67.96-39.24a1.5 1.5 0 0 1 0-2.6l87.8-50.939-29.522-17.043a126.009 126.009 0 0 1 -15.735 4.364l19.722 11.388a1.5 1.5 0 0 1 0 2.6l-103.444 59.727 57.92 33.443a1.5 1.5 0 0 1 0 2.6l-22.458 12.968a4.657 4.657 0 0 1 1.267 3.1c0 3.471-4.227 6.191-9.623 6.191s-9.624-2.72-9.624-6.191 4.227-6.19 9.624-6.19a13.588 13.588 0 0 1 5.678 1.168l21.386-12.349-57.92-33.443a1.5 1.5 0 0 1 0-2.6l103.444-59.728-20.463-11.816a151.115 151.115 0 0 1 -21.1 2.184l14.006 8.087a1.5 1.5 0 0 1 0 2.6l-117.721 68.4 29.077 16.789a1.5 1.5 0 0 1 0 2.6l-52.548 30.347a4.659 4.659 0 0 1 1.259 3.1c0 3.472-4.226 6.191-9.623 6.191s-9.623-2.719-9.623-6.191 4.227-6.19 9.623-6.19a13.564 13.564 0 0 1 5.689 1.174l51.481-29.726-29.069-16.785a1.5 1.5 0 0 1 0-2.6l117.72-68.4-16.1-9.3a154.994 154.994 0 0 1 -19.738-1.3l-162.75 94.72a4.663 4.663 0 0 1 1.281 3.119c0 3.472-4.227 6.19-9.624 6.19s-9.623-2.718-9.623-6.19 4.227-6.19 9.623-6.19a13.587 13.587 0 0 1 5.661 1.16l160.673-93.509c-13.656-2.25-25.941-6.3-35.966-11.655l-212.7 124.2a4.67 4.67 0 0 1 1.29 3.129c0 3.471-4.227 6.19-9.624 6.19s-9.623-2.719-9.623-6.19 4.227-6.191 9.623-6.191a13.608 13.608 0 0 1 5.65 1.155l212.35-123.996c-9.18-5.4-16.187-11.968-20.23-19.251l-159.282 93.079a4.67 4.67 0 0 1 1.292 3.131c0 3.471-4.226 6.19-9.623 6.19s-9.624-2.719-9.624-6.19 4.228-6.19 9.624-6.19a13.61 13.61 0 0 1 5.647 1.153l160.626-93.865a28.917 28.917 0 0 1 -2.58-11.813c0-.491.017-.979.042-1.467l-13.7-7.911-119.593 69.05a1.5 1.5 0 0 1 -1.5 0l-29.335-16.937-51.807 29.914a4.659 4.659 0 0 1 1.26 3.1c0 3.471-4.228 6.19-9.624 6.19s-9.623-2.722-9.623-6.193 4.226-6.191 9.623-6.191a13.567 13.567 0 0 1 5.689 1.174l53.732-31.025a1.5 1.5 0 0 1 1.5 0l29.335 16.938 119.59-69.052a1.5 1.5 0 0 1 1.5 0l13.308 7.684a31.931 31.931 0 0 1 4.578-11.72l-17.362-10.025-104.943 60.6a1.5 1.5 0 0 1 -1.5 0l-59.421-34.314-21.417 12.366a4.668 4.668 0 0 1 1.281 3.12c0 3.471-4.227 6.19-9.623 6.19s-9.623-2.719-9.623-6.19 4.226-6.19 9.623-6.19a13.59 13.59 0 0 1 5.655 1.157l23.354-13.485a1.5 1.5 0 0 1 1.5 0l59.421 34.309 104.943-60.594a1.5 1.5 0 0 1 1.5 0l18.305 10.569a49.277 49.277 0 0 1 8.331-8.64l-29.423-16.988-89.507 51.679a1.5 1.5 0 0 1 -1.5 0l-67.323-38.873a13.707 13.707 0 0 1 -5.5 1.082c-5.4 0-9.623-2.719-9.623-6.19s4.226-6.191 9.623-6.191 9.624 2.72 9.624 6.191a4.711 4.711 0 0 1 -1.384 3.229l65.33 37.721 89.507-51.68a1.5 1.5 0 0 1 1.5 0l31.216 18.024a77.4 77.4 0 0 1 11.52-6.984l-42.415-24.43-73.889 42.99a1.5 1.5 0 0 1 -1.5 0l-83.816-48.4a13.567 13.567 0 0 1 -5.689 1.174c-5.4 0-9.623-2.719-9.623-6.19s4.226-6.191 9.623-6.191 9.624 2.72 9.624 6.191a4.656 4.656 0 0 1 -1.26 3.1l81.888 47.281 73.887-42.99a1.5 1.5 0 0 1 1.5 0l44.973 25.9a109.7 109.7 0 0 1 10.614-4.128l.943 2.848c-25.239 8.37-40.919 23.47-40.919 39.398 0 25.429 38.152 46.117 85.048 46.117s85.05-20.688 85.05-46.117c0-16.034-15.1-30.694-40.389-39.215l.957-2.843a104.029 104.029 0 0 1 14.12 5.893l44.232-25.54 1.5 2.6-42.625 24.612c16.046 9.048 25.2 21.291 25.2 34.495 0 7.864-3.336 15.3-9.251 21.9l65.358 37.737a1.5 1.5 0 0 1 -.007 2.6l-58.246 33.248 93.386 53.921a13.579 13.579 0 0 1 5.689-1.173c5.4 0 9.623 2.719 9.623 6.19m-454.272-225.827c0-1.507-2.833-3.191-6.624-3.191s-6.623 1.684-6.623 3.191 2.832 3.19 6.623 3.19 6.624-1.684 6.624-3.19m0 34.539c0-1.506-2.833-3.191-6.624-3.191s-6.623 1.685-6.623 3.191 2.832 3.19 6.623 3.19 6.624-1.684 6.624-3.19m-29.76 52.164c0-1.506-2.832-3.19-6.623-3.19s-6.623 1.684-6.623 3.19 2.832 3.19 6.623 3.19 6.623-1.684 6.623-3.19m-16.246 60.445c0-1.506-2.833-3.191-6.624-3.191s-6.623 1.685-6.623 3.191 2.832 3.19 6.623 3.19 6.624-1.684 6.624-3.19m60.563 34.969c0-1.506-2.832-3.19-6.623-3.19s-6.624 1.684-6.624 3.19 2.833 3.19 6.624 3.19 6.623-1.684 6.623-3.19m-30.161 52.07c0-1.506-2.833-3.191-6.624-3.191s-6.623 1.685-6.623 3.191 2.832 3.19 6.623 3.19 6.624-1.684 6.624-3.19m90.671-17.132c0-1.506-2.833-3.19-6.624-3.19s-6.623 1.684-6.623 3.19 2.832 3.19 6.623 3.19 6.624-1.684 6.624-3.19m61.109 35.285c0-1.506-2.832-3.19-6.623-3.19s-6.623 1.684-6.623 3.19 2.832 3.191 6.623 3.191 6.623-1.685 6.623-3.191m104.525-9.144c0-1.506-2.832-3.19-6.623-3.19s-6.624 1.684-6.624 3.19 2.833 3.191 6.624 3.191 6.623-1.685 6.623-3.191m77.237-17.371c0 1.506 2.832 3.19 6.623 3.19s6.623-1.684 6.623-3.19-2.832-3.19-6.623-3.19-6.623 1.684-6.623 3.19m59.922 0c0 1.506 2.832 3.19 6.623 3.19s6.624-1.684 6.624-3.19-2.833-3.19-6.624-3.19-6.623 1.684-6.623 3.19m73.417 0c0-1.506-2.832-3.19-6.623-3.19s-6.623 1.684-6.623 3.19 2.832 3.19 6.623 3.19 6.623-1.684 6.623-3.19" fill="url(#b)" transform="translate(1040 3852)"/><path d="m368.3 352.951a11.663 11.663 0 0 0 -5.869-9.709l-6.973-4.026v-19.669a61.26 61.26 0 0 0 -30.543-52.9l-1.01-.583a24.659 24.659 0 0 0 -36.988 21.354v31.542l-5.313 3.068a11.688 11.688 0 0 0 -5.9 10.225v63.647a11.685 11.685 0 0 0 5.9 10.224l42.576 24.584a32.511 32.511 0 0 0 32.422 0l5.829-3.365a11.685 11.685 0 0 0 5.9-10.225v-63.856a1.512 1.512 0 0 0 -.033-.311m-78.383-65.538a21.659 21.659 0 0 1 32.485-18.756l1.01.584a58.25 58.25 0 0 1 29.043 50.306v35.911c0 1.539-2.8 3.26-6.544 3.26s-6.545-1.721-6.545-3.26v-36.75a45.5 45.5 0 0 0 -22.684-39.291l-.952-.55a8.484 8.484 0 0 0 -12.728 7.348v40.685c0 1.539-2.8 3.26-6.545 3.26s-6.544-1.721-6.544-3.26zm46.452 40.781-16.515-9.536a32.564 32.564 0 0 0 -13.852-4.245v-28.2a5.484 5.484 0 0 1 8.227-4.75l.952.55a42.487 42.487 0 0 1 21.184 36.693zm-53.267-3.573 3.813-2.2v4.479c0 3.51 4.192 6.26 9.544 6.26s9.543-2.746 9.543-6.26v-9.482a29.551 29.551 0 0 1 12.348 3.834l18.015 10.4v23.8c0 3.51 4.193 6.26 9.545 6.26s9.544-2.75 9.544-6.26v-12.772l5.473 3.16a8.807 8.807 0 0 1 0 15.253l-5.829 3.365a29.5 29.5 0 0 1 -29.422 0l-42.574-24.583a8.806 8.806 0 0 1 0-15.254m82.229 92.5a8.716 8.716 0 0 1 -4.4 7.626l-5.829 3.366a29.5 29.5 0 0 1 -29.422 0l-42.578-24.584a8.718 8.718 0 0 1 -4.4-7.626v-55.803a11.9 11.9 0 0 0 2.9 2.378l42.576 24.584a32.511 32.511 0 0 0 32.422 0l5.829-3.366a11.908 11.908 0 0 0 2.9-2.377z" fill="url(#c)" transform="translate(1040 3852)"/><path d="m381.406 291.546c-.447.257-1.393.258-2.718-.507-2.616-1.51-4.827-4.944-4.827-7.5 0-.453.079-1.259.609-1.565a1.377 1.377 0 0 1 .688-.154 4.214 4.214 0 0 1 2.03.661c2.616 1.511 4.827 4.944 4.827 7.5 0 .453-.079 1.259-.609 1.565m16.514 9.54c-.449.257-1.393.258-2.718-.508-2.616-1.51-4.827-4.944-4.827-7.5 0-.453.079-1.258.609-1.565a1.389 1.389 0 0 1 .689-.154 4.217 4.217 0 0 1 2.029.661c2.616 1.511 4.827 4.945 4.827 7.5 0 .454-.079 1.26-.609 1.566m16.513 9.539c-.447.257-1.392.258-2.718-.507-2.616-1.511-4.827-4.944-4.827-7.5 0-.453.079-1.259.61-1.565a1.373 1.373 0 0 1 .687-.154 4.211 4.211 0 0 1 2.03.661c2.617 1.511 4.828 4.944 4.828 7.5 0 .453-.079 1.259-.61 1.565m75.415 35.149-50.331-29.061a3.429 3.429 0 0 0 -5.143 2.969v2.518a5.371 5.371 0 0 0 2.678 4.64l50.331 29.062a3.4 3.4 0 0 0 3.43 0 3.392 3.392 0 0 0 1.714-2.969v-2.522a5.372 5.372 0 0 0 -2.679-4.64m-.321 7.162a.43.43 0 0 1 -.644.371l-50.331-29.061a2.365 2.365 0 0 1 -1.178-2.042v-2.522a.429.429 0 0 1 .643-.371l50.331 29.061a2.366 2.366 0 0 1 1.179 2.042zm-108.121-138.2c-.445.256-1.389.259-2.718-.508-2.616-1.51-4.827-4.944-4.827-7.5 0-.453.079-1.259.609-1.565a1.387 1.387 0 0 1 .688-.154 4.214 4.214 0 0 1 2.03.661c2.616 1.511 4.827 4.945 4.827 7.5 0 .454-.079 1.259-.609 1.566m16.514 9.539c-.449.257-1.393.258-2.718-.507-2.616-1.511-4.827-4.944-4.827-7.5 0-.453.079-1.259.609-1.565a1.376 1.376 0 0 1 .688-.155 4.22 4.22 0 0 1 2.03.662c2.616 1.51 4.827 4.944 4.827 7.5 0 .453-.079 1.259-.609 1.565m16.513 9.54c-.445.256-1.388.259-2.718-.507-2.616-1.511-4.827-4.945-4.827-7.5 0-.453.079-1.259.61-1.565a1.383 1.383 0 0 1 .687-.154 4.211 4.211 0 0 1 2.03.661c2.617 1.511 4.828 4.945 4.828 7.5 0 .454-.079 1.259-.61 1.566m75.415 35.149-50.331-29.062a3.429 3.429 0 0 0 -5.143 2.97v2.522a5.373 5.373 0 0 0 2.678 4.64l50.331 29.061a3.429 3.429 0 0 0 5.144-2.97v-2.523a5.37 5.37 0 0 0 -2.679-4.639m-.321 7.161a.43.43 0 0 1 -.644.372l-50.331-29.061a2.367 2.367 0 0 1 -1.178-2.042v-2.522a.429.429 0 0 1 .643-.372l50.331 29.061a2.366 2.366 0 0 1 1.179 2.042zm168.556-124.768a1.5 1.5 0 0 0 .75-1.3v-64.26a1.5 1.5 0 0 0 -.75-1.3l-145.989-84.294a1.5 1.5 0 0 0 -1.5 0l-152.78 88.217.036.063a5.931 5.931 0 0 0 -2.869 5.109v54.545a13.913 13.913 0 0 0 6.938 12.017l2.347 1.355-6.452 3.726.036.062a5.932 5.932 0 0 0 -2.869 5.11v54.545a13.912 13.912 0 0 0 6.938 12.016l2.347 1.356-6.452 3.725.036.063a5.932 5.932 0 0 0 -2.869 5.109v54.546a13.913 13.913 0 0 0 6.938 12.016l137.487 79.385a5.937 5.937 0 0 0 6 0c.107-.062.2-.136.3-.2l152.371-87.979a1.5 1.5 0 0 0 .75-1.3v-64.263a1.5 1.5 0 0 0 -.75-1.3l-8.621-4.978 8.622-4.978a1.5 1.5 0 0 0 .75-1.3v-64.26a1.5 1.5 0 0 0 -.75-1.3l-8.621-4.977zm-2.25-2.165-147.426 85.123v-54.517a13.831 13.831 0 0 0 -1.19-5.592l148.616-85.811zm-144.489-145.956 142.989 82.561-148.616 85.806a13.824 13.824 0 0 0 -4.248-3.826l-137.488-79.381c-.022-.013-.045-.021-.068-.034zm-153.363 144.9v-54.544a2.993 2.993 0 0 1 4.5-2.6l137.488 79.385a10.908 10.908 0 0 1 5.438 9.419v54.547a2.955 2.955 0 0 1 -1.355 2.487l-.25.144.005.008a2.957 2.957 0 0 1 -2.9-.041l-137.488-79.385a10.908 10.908 0 0 1 -5.438-9.419m0 76.815v-54.549a2.993 2.993 0 0 1 4.5-2.6l137.488 79.385a10.907 10.907 0 0 1 5.438 9.419v54.545a2.952 2.952 0 0 1 -1.355 2.486l-.25.145.005.008a2.962 2.962 0 0 1 -2.9-.041l-137.488-79.38a10.9 10.9 0 0 1 -5.438-9.418m142.925 165.618-137.487-79.385a10.906 10.906 0 0 1 -5.438-9.418v-54.546a2.993 2.993 0 0 1 4.5-2.6l137.488 79.386a10.9 10.9 0 0 1 5.438 9.418v54.545a2.955 2.955 0 0 1 -1.355 2.487l-.25.144.005.009a2.96 2.96 0 0 1 -2.9-.042m154.927-87.749-147.427 85.126v-54.518a13.835 13.835 0 0 0 -1.19-5.592l148.616-85.81zm-1.5-63.394-148.616 85.81a13.824 13.824 0 0 0 -4.248-3.826l-137.489-79.384c-.022-.012-.045-.021-.067-.033l3.352-1.936 132.14 76.3a5.943 5.943 0 0 0 6 0c.107-.062.2-.136.3-.2l140.75-81.269zm1.5-13.421-147.427 85.126v-54.517a13.839 13.839 0 0 0 -1.19-5.593l148.616-85.81zm-1.5-63.394-148.616 85.81a13.849 13.849 0 0 0 -4.248-3.826l-137.489-79.384c-.022-.012-.045-.02-.068-.033l3.353-1.936 132.14 76.3a5.943 5.943 0 0 0 6 0c.107-.062.2-.136.3-.2l140.75-81.268zm-272.928-24.69c-.447.257-1.393.258-2.718-.507-2.616-1.511-4.827-4.945-4.827-7.5 0-.453.079-1.258.609-1.565a1.387 1.387 0 0 1 .688-.154 4.206 4.206 0 0 1 2.03.662c2.616 1.51 4.827 4.944 4.827 7.5 0 .453-.079 1.259-.609 1.565m16.514 9.539c-.449.257-1.393.258-2.718-.507-2.616-1.511-4.827-4.944-4.827-7.5 0-.453.079-1.259.609-1.565a1.377 1.377 0 0 1 .688-.154 4.217 4.217 0 0 1 2.03.661c2.616 1.511 4.827 4.944 4.827 7.5 0 .453-.079 1.259-.609 1.565m16.513 9.543c-.447.257-1.392.258-2.718-.507-2.616-1.511-4.827-4.945-4.827-7.5 0-.454.079-1.259.61-1.566a1.383 1.383 0 0 1 .687-.154 4.222 4.222 0 0 1 2.03.661c2.617 1.511 4.828 4.945 4.828 7.5 0 .453-.079 1.259-.61 1.565m75.415 35.149-50.331-29.061a3.429 3.429 0 0 0 -5.143 2.969v2.523a5.372 5.372 0 0 0 2.678 4.639l50.331 29.061a3.429 3.429 0 0 0 5.144-2.969v-2.522a5.372 5.372 0 0 0 -2.679-4.64m-.321 7.162a.43.43 0 0 1 -.644.371l-50.331-29.061a2.366 2.366 0 0 1 -1.178-2.041v-2.523a.429.429 0 0 1 .643-.371l50.331 29.061a2.365 2.365 0 0 1 1.179 2.042z" fill="url(#d)" transform="translate(1040 3852)"/></g></svg>