<?xml version="1.0" encoding="UTF-8"?>
<!DOCTYPE svg PUBLIC "-//W3C//DTD SVG 1.1//EN" "http://www.w3.org/Graphics/SVG/1.1/DTD/svg11.dtd">
<!-- Creator: CorelDRAW 2017 -->
<svg xmlns="http://www.w3.org/2000/svg" xml:space="preserve" width="16px" height="16px" version="1.1" shape-rendering="geometricPrecision" text-rendering="geometricPrecision" image-rendering="optimizeQuality" fill-rule="evenodd" clip-rule="evenodd"
viewBox="0 0 16 16"
 xmlns:xlink="http://www.w3.org/1999/xlink">
 <g id="Layer_x0020_1">
  <metadata id="CorelCorpID_0Corel-Layer"/>
  <g id="_2060746672304">
   <g id="Artboard-2">
    <path id="Icon" fill="#E62311" d="M8 16c-4.418,0 -8,-3.582 -8,-8 0,-4.418 3.582,-8 8,-8 4.418,0 8,3.582 8,8 0,4.418 -3.582,8 -8,8zm3.862 -11.631l-5.081 5.2 -1.379 -1.56c-0.603,-0.52 -1.55,0.086 -1.12,0.867l1.637 2.773c0.258,0.346 0.862,0.692 1.464,0 0.259,-0.347 5.167,-6.5 5.167,-6.5 0.603,-0.693 -0.172,-1.3 -0.688,-0.78z"/>
   </g>
  </g>
 </g>
</svg>
