<svg width="24" height="24" viewBox="0 0 24 24" fill="none" xmlns="http://www.w3.org/2000/svg">
<path d="M4.5 9.001H5.5C5.775 9.001 6 9.225 6 9.5V10.501C6 10.776 5.775 11.001 5.5 11.001H4.5C4.225 11.001 4 10.776 4 10.501V9.5C4 9.225 4.225 9.001 4.5 9.001ZM20.266 13.734C19.866 13.334 19.266 13.334 18.866 13.734L16 16.6L14.936 15.536C14.536 15.136 13.936 15.136 13.536 15.536C13.136 15.936 13.136 16.536 13.536 16.936L15.3 18.7C15.7 19.1 16.3 19.1 16.7 18.7L20.266 15.134C20.666 14.734 20.666 14.134 20.266 13.734ZM17 9C20.867 9 24 12.134 24 16C24 19.866 20.867 23 17 23C13.134 23 10 19.866 10 16C10 12.134 13.134 9 17 9ZM17 11C14.238 11 12 13.238 12 16C12 18.762 14.238 21 17 21C19.763 21 22 18.762 22 16C22 13.238 19.763 11 17 11ZM7.5 5H15.501C15.776 5 16.001 5.225 16.001 5.5V6.501C16.001 6.776 15.776 7 15.501 7H7.5C7.225 7 7 6.776 7 6.501V5.5C7 5.225 7.225 5 7.5 5ZM3 1H17C18.65 1 20 2.35 20 4V5.998C20 6.548 19.55 6.999 19 6.999C18.45 6.999 18 6.549 18 5.998V4C18 3.45 17.55 3 17 3H3C2.449 3 2 3.45 2 4V16C2 16.55 2.449 17 2.999 17H6.999C7.549 17 7.999 17.449 7.999 18C7.999 18.55 7.549 19 6.999 19H3H2.999C1.349 18.999 0 17.65 0 16V4C0 2.35 1.35 1 3 1ZM4.5 5H5.5C5.775 5 6 5.225 6 5.5V6.501C6 6.776 5.775 7 5.5 7H4.5C4.225 7 4 6.776 4 6.501V5.5C4 5.225 4.225 5 4.5 5ZM4.5 13.001H5.5C5.775 13.001 6 13.226 6 13.501V14.501C6 14.776 5.775 15.001 5.5 15.001H4.5C4.225 15.001 4 14.776 4 14.501V13.501C4 13.226 4.225 13.001 4.5 13.001ZM7.5 9.001H9.5C9.775 9.001 10 9.225 10 9.5V10.501C10 10.776 9.775 11.001 9.5 11.001H7.5C7.225 11.001 7 10.776 7 10.501V9.5C7 9.225 7.225 9.001 7.5 9.001Z" fill="#0086ff"/>
</svg>
