<?xml version="1.0" encoding="utf-8"?>
<!-- Generator: Adobe Illustrator 26.0.2, SVG Export Plug-In . SVG Version: 6.00 Build 0)  -->
<svg version="1.1" id="Layer_1" xmlns:xodm="http://www.corel.com/coreldraw/odm/2003"
	 xmlns="http://www.w3.org/2000/svg" xmlns:xlink="http://www.w3.org/1999/xlink" x="0px" y="0px" viewBox="0 0 80 80"
	 style="enable-background:new 0 0 80 80;" xml:space="preserve">
<style type="text/css">
	.st0{fill-rule:evenodd;clip-rule:evenodd;fill:#0086FF;}
	.st1{fill:none;stroke:#FEFDF8;stroke-width:2.286;stroke-miterlimit:2.6131;}
	.st2{fill-rule:evenodd;clip-rule:evenodd;fill:#FEFDF8;}
	.st3{fill:none;stroke:#FEFDF8;stroke-width:2.286;stroke-linejoin:round;stroke-miterlimit:2.6131;}
</style>
<g id="Layer_x0020_1">
	<path class="st0" d="M20,0h40c11,0,20,9,20,20v40c0,11-9,20-20,20H20C9,80,0,71,0,60V20C0,9,9,0,20,0z"/>
	<g id="_2094458260512">
		<path id="Rectangle" class="st1" d="M35.4,22.9h16c1.3,0,2.3,1,2.3,2.3v29.7c0,1.3-1,2.3-2.3,2.3H28.6c-1.3,0-2.3-1-2.3-2.3V32
			l0,0L35.4,22.9z"/>
		<path class="st2" d="M34.9,35.4h10.3c0.3,0,0.6,0.3,0.6,0.6l0,1.1c0,0.3-0.3,0.6-0.6,0.6l-10.3,0c-0.3,0-0.6-0.3-0.6-0.6l0-1.1
			C34.3,35.7,34.5,35.4,34.9,35.4L34.9,35.4z"/>
		<path class="st2" d="M34.9,41.3h10.3c0.3,0,0.6,0.3,0.6,0.6l0,1.1c0,0.3-0.3,0.6-0.6,0.6H34.9c-0.3,0-0.6-0.3-0.6-0.6l0-1.1
			C34.3,41.6,34.5,41.3,34.9,41.3L34.9,41.3z"/>
		<path class="st2" d="M34.9,47.1h10.3c0.3,0,0.6,0.3,0.6,0.6l0,1.1c0,0.3-0.3,0.6-0.6,0.6H34.9c-0.3,0-0.6-0.3-0.6-0.6l0-1.1
			C34.3,47.3,34.5,47.1,34.9,47.1L34.9,47.1z"/>
		<path id="Path-3" class="st3" d="M26.3,32h6.9c1.3,0,2.3-1,2.3-2.3v-6.9l0,0C35.4,22.9,26.3,32,26.3,32z"/>
	</g>
</g>
</svg>
