<svg xmlns="http://www.w3.org/2000/svg" viewBox="0 0 24 24">
    <g fill="none" fill-rule="evenodd">
        <g fill="#FFF" fill-rule="nonzero">
            <g>
                <g>
                    <g>
                        <path d="M5.385 10c.552 0 1 .448 1 1 0 .513-.386.936-.884.993L5.385 12H2v6h16v-6h-3.385c-.512 0-.935-.386-.993-.883L13.615 11c0-.513.386-.936.884-.993l.116-.007h3.616c.937 0 1.69.735 1.763 1.654L20 11.8v6.4c0 .936-.707 1.718-1.623 1.794l-.146.006H1.769c-.937 0-1.69-.735-1.763-1.654L0 18.2v-6.4c0-.936.707-1.718 1.623-1.794L1.769 10h3.616zM10.003.25c.513 0 .936.386.993.883l.007.117v7.332l2.79-2.79c.36-.36.928-.387 1.32-.082l.094.083c.36.36.388.928.083 1.32l-.083.094-4.472 4.474c-.09.098-.201.177-.325.233-.005 0-.01.003-.016.005-.03.015-.062.026-.095.037l-.016.003c-.03.01-.06.017-.09.023l-.036.006c-.024.004-.049.007-.074.009l-.047.002-.033.001h-.032l-.06-.004.092.004c-.048 0-.095-.003-.142-.01l-.07-.012-.04-.01c-.025-.006-.05-.013-.075-.022l-.024-.01c-.094-.033-.183-.082-.265-.146l-.094-.083-4.5-4.5c-.39-.39-.39-1.024 0-1.414.36-.36.928-.388 1.32-.083l.094.083 2.796 2.795V1.25c0-.552.448-1 1-1z" transform="translate(-1174 -1070) translate(1174 1068) translate(0 2) translate(2 2)"/>
                    </g>
                </g>
            </g>
        </g>
    </g>
</svg>
