<svg id="Layer_1" data-name="Layer 1" xmlns="http://www.w3.org/2000/svg" viewBox="0 0 132.9 20"><defs><style>.cls-1{fill:#f5b93a;fill-rule:evenodd;}</style></defs><path class="cls-1" d="M13.07,2.65a1.21,1.21,0,0,0-2.14,0L8.24,7.75l-5.68,1a1.21,1.21,0,0,0-.67,2l4,4.14-.82,5.7a1.22,1.22,0,0,0,.49,1.16,1.24,1.24,0,0,0,1.25.11L12,19.33l5.17,2.55a1.24,1.24,0,0,0,1.25-.11,1.2,1.2,0,0,0,.49-1.16l-.82-5.7,4-4.14a1.22,1.22,0,0,0-.66-2l-5.69-1-2.69-5.1Zm112,0a1.21,1.21,0,0,0-2.14,0l-2.69,5.1-5.69,1a1.22,1.22,0,0,0-.66,2l4,4.14-.82,5.7a1.2,1.2,0,0,0,.49,1.16,1.24,1.24,0,0,0,1.25.11L124,19.33l5.17,2.55a1.24,1.24,0,0,0,1.25-.11,1.2,1.2,0,0,0,.49-1.16l-.82-5.7,4-4.14a1.21,1.21,0,0,0-.67-2l-5.68-1-2.69-5.1Zm-28,0a1.21,1.21,0,0,0-2.14,0l-2.69,5.1-5.68,1a1.21,1.21,0,0,0-.67,2l4,4.14-.82,5.7a1.2,1.2,0,0,0,.49,1.16,1.24,1.24,0,0,0,1.25.11L96,19.33l5.17,2.55a1.24,1.24,0,0,0,1.25-.11,1.2,1.2,0,0,0,.49-1.16l-.82-5.7,4-4.14a1.22,1.22,0,0,0-.66-2l-5.69-1-2.69-5.1Zm-28,0a1.21,1.21,0,0,0-2.14,0l-2.69,5.1-5.68,1a1.21,1.21,0,0,0-.67,2l4,4.14-.82,5.7a1.2,1.2,0,0,0,.49,1.16,1.24,1.24,0,0,0,1.25.11L68,19.33l5.17,2.55a1.24,1.24,0,0,0,1.25-.11,1.2,1.2,0,0,0,.49-1.16l-.82-5.7,4-4.14a1.22,1.22,0,0,0-.66-2l-5.69-1-2.69-5.1Zm-28,0a1.21,1.21,0,0,0-2.14,0l-2.69,5.1-5.68,1a1.21,1.21,0,0,0-.67,2l4,4.14-.82,5.7a1.22,1.22,0,0,0,.49,1.16,1.24,1.24,0,0,0,1.25.11L40,19.33l5.17,2.55a1.24,1.24,0,0,0,1.25-.11,1.2,1.2,0,0,0,.49-1.16l-.82-5.7,4-4.14a1.22,1.22,0,0,0-.66-2l-5.69-1Z" transform="translate(-1.55 -2)"/></svg>