<svg width="48" height="48" viewBox="0 0 48 48" fill="none" xmlns="http://www.w3.org/2000/svg">
<path d="M43.781 5.041c1.48,6.535 2.219,12.207 2.219,17.017 0,6.906 -1.602,12.084 -4.807,15.537 -3.204,3.577 -7.888,5.364 -14.05,5.364l0 -7.398c3.204,0 5.546,-0.864 7.025,-2.59 1.356,-1.726 2.034,-4.316 2.034,-7.769l0 -4.254 -9.244 0 0 -15.907 16.823 0zm-24.957 0c1.478,6.535 2.218,12.207 2.218,17.017 0,6.906 -1.602,12.084 -4.807,15.537 -3.204,3.577 -7.888,5.364 -14.05,5.364l0 -7.398c3.204,0 5.546,-0.864 7.025,-2.59 1.356,-1.726 2.033,-4.316 2.033,-7.769l0 -4.254 -9.243 0 0 -15.907 16.824 0z" fill="#0086ff"/>
</svg>
