<svg width="48" height="48" viewBox="0 0 48 48" fill="none" xmlns="http://www.w3.org/2000/svg">
<path d="M4.219 42.959c-1.479,-6.536 -2.219,-12.208 -2.219,-17.017 0,-6.906 1.602,-12.084 4.807,-15.537 3.204,-3.577 7.888,-5.364 14.05,-5.364l0 7.398c-3.204,0 -5.546,0.864 -7.025,2.59 -1.355,1.726 -2.034,4.316 -2.034,7.769l0 4.254 9.244 0 0 15.907 -16.823 0zm24.957 0c-1.478,-6.536 -2.218,-12.208 -2.218,-17.017 0,-6.906 1.602,-12.084 4.807,-15.537 3.204,-3.577 7.887,-5.364 14.05,-5.364l0 7.398c-3.205,0 -5.546,0.864 -7.025,2.59 -1.356,1.726 -2.034,4.316 -2.034,7.769l0 4.254 9.244 0 0 15.907 -16.824 0z" fill="#0086ff"/>
</svg>
