<svg width="38" height="33" viewBox="0 0 38 33" fill="none" xmlns="http://www.w3.org/2000/svg">
<path d="M1.91597 32.748C0.638656 27.1036 0 22.2047 0 18.0513C0 12.0875 1.38375 7.61457 4.15126 4.63264C6.91877 1.54421 10.9636 0 16.2857 0V6.38985C13.5182 6.38985 11.4958 7.13533 10.2185 8.6263C9.04762 10.1173 8.46218 12.3537 8.46218 15.3356V19.0098H16.4454V32.748H1.91597ZM23.4706 32.748C22.1933 27.1036 21.5546 22.2047 21.5546 18.0513C21.5546 12.0875 22.9384 7.61457 25.7059 4.63264C28.4734 1.54421 32.5182 0 37.8403 0V6.38985C35.0728 6.38985 33.0504 7.13533 31.7731 8.6263C30.6022 10.1173 30.0168 12.3537 30.0168 15.3356V19.0098H38V32.748H23.4706Z" fill="#0086ff"/>
</svg>
