<svg width="24" height="24" viewBox="0 0 24 24" fill="none" xmlns="http://www.w3.org/2000/svg">
<path fill-rule="evenodd" clip-rule="evenodd" d="M12.348 22H11.652C10.512 22 9.576 21.144 9.472 20.01L9.458 19.868C9.434 19.592 9.259 19.355 9.003 19.248C8.728 19.132 8.442 19.185 8.234 19.359L8.123 19.452C7.286 20.151 5.951 20.091 5.174 19.317L4.682 18.826C3.876 18.017 3.818 16.75 4.547 15.877L4.641 15.763C4.821 15.549 4.863 15.259 4.759 15.005C4.653 14.742 4.414 14.567 4.137 14.542L3.992 14.529C2.855 14.425 2 13.487 2 12.348V11.653C2 10.513 2.856 9.577 3.989 9.473L4.14 9.459C4.414 9.435 4.65 9.26 4.759 9.003C4.865 8.744 4.821 8.451 4.643 8.238L4.552 8.126C3.822 7.251 3.879 5.983 4.684 5.176L5.178 4.683C5.952 3.908 7.286 3.849 8.127 4.548L8.238 4.642C8.449 4.82 8.748 4.864 9 4.76C9.26 4.652 9.435 4.415 9.46 4.14L9.473 3.993C9.576 2.856 10.514 2.002 11.653 2.002L12.349 2C13.489 2 14.424 2.856 14.529 3.99L14.542 4.14C14.566 4.415 14.741 4.651 14.997 4.757C15.264 4.87 15.556 4.817 15.763 4.644L15.878 4.545C16.714 3.849 18.051 3.907 18.828 4.68L19.319 5.174C20.125 5.981 20.183 7.249 19.454 8.123L19.357 8.237C19.176 8.449 19.132 8.74 19.239 8.996C19.347 9.256 19.586 9.43 19.861 9.457L20.008 9.471C21.145 9.574 22 10.512 22 11.651V12.347C22 13.487 21.144 14.423 20.011 14.527L19.861 14.541C19.588 14.564 19.351 14.738 19.245 14.994C19.136 15.256 19.18 15.547 19.358 15.76L19.454 15.876C20.183 16.748 20.125 18.016 19.319 18.825L18.828 19.317C18.05 20.091 16.717 20.149 15.879 19.451L15.768 19.359C15.559 19.182 15.257 19.137 15.007 19.241C14.744 19.351 14.568 19.588 14.544 19.864L14.531 20.008C14.428 21.139 13.49 21.994 12.35 21.994L12.348 22ZM12 8C14.209 8 16 9.791 16 12C16 14.209 14.209 16 12 16C9.791 16 8 14.209 8 12C8 9.791 9.791 8 12 8ZM12 10C13.105 10 14 10.895 14 12C14 13.105 13.105 14 12 14C10.895 14 10 13.105 10 12C10 10.895 10.895 10 12 10ZM8.924 17.369C9.195 17.369 9.459 17.423 9.708 17.527C10.42 17.823 10.902 18.477 10.97 19.236L10.983 19.368C11.016 19.729 11.313 19.999 11.677 19.999H12.327C12.687 19.999 12.985 19.728 13.019 19.368L13.032 19.234C13.1 18.476 13.581 17.822 14.286 17.529C15.001 17.232 15.815 17.365 16.389 17.845L16.491 17.93C16.651 18.063 16.821 18.092 16.935 18.092C17.121 18.092 17.295 18.019 17.427 17.887L17.887 17.428C18.142 17.172 18.162 16.77 17.93 16.492L17.84 16.384C17.351 15.798 17.23 14.996 17.523 14.29C17.816 13.578 18.47 13.101 19.23 13.031L19.369 13.018C19.727 12.985 20 12.688 20 12.325V11.674C20 11.314 19.727 11.017 19.367 10.982L19.23 10.97C18.468 10.9 17.816 10.42 17.523 9.714C17.229 9.004 17.351 8.202 17.841 7.617L17.931 7.51C18.163 7.231 18.144 6.829 17.888 6.573L17.428 6.114C17.297 5.981 17.122 5.909 16.936 5.909C16.821 5.909 16.652 5.938 16.492 6.071L16.384 6.161C15.813 6.637 14.987 6.765 14.291 6.48C13.581 6.186 13.102 5.532 13.032 4.772L13.02 4.632C12.988 4.274 12.691 4.001 12.329 4.001H11.678C11.317 4.001 11.02 4.274 10.985 4.634L10.973 4.77C10.904 5.53 10.425 6.184 9.72 6.477C9.011 6.771 8.194 6.642 7.62 6.161L7.514 6.075C7.352 5.939 7.182 5.913 7.067 5.913C6.882 5.913 6.707 5.985 6.575 6.116L6.114 6.576C5.86 6.832 5.841 7.234 6.072 7.511L6.163 7.618C6.649 8.206 6.773 9.009 6.479 9.713C6.185 10.423 5.532 10.903 4.772 10.972L4.631 10.985C4.273 11.018 4 11.315 4 11.679V12.329C4 12.689 4.273 12.986 4.633 13.021L4.768 13.034C5.532 13.104 6.186 13.585 6.477 14.292C6.771 15 6.649 15.802 6.159 16.387L6.073 16.491C5.839 16.77 5.858 17.172 6.114 17.428L6.574 17.888C6.705 18.021 6.881 18.093 7.066 18.093C7.18 18.093 7.35 18.066 7.51 17.93L7.614 17.844C7.98 17.541 8.446 17.372 8.924 17.372V17.369Z" fill="#0086ff"/>
</svg>
