<svg width="168" height="48" viewBox="0 0 168 48" fill="none" xmlns="http://www.w3.org/2000/svg">
<g clip-path="url(#clip0_6_27)">
<path d="M24.0013 48.0052C37.2561 48.0052 48.0013 37.26 48.0013 24.0052C48.0013 10.7504 37.2561 0.00518799 24.0013 0.00518799C10.7464 0.00518799 0.00126648 10.7504 0.00126648 24.0052C0.00126648 37.26 10.7464 48.0052 24.0013 48.0052Z" fill="white"/>
<path fill-rule="evenodd" clip-rule="evenodd" d="M10.56 5.85001C10.56 5.85001 0.230002 14.59 2.1 27.82C2.59792 30.7427 3.82204 33.4936 5.66 35.82C8.90107 37.7739 12.6811 38.6427 16.45 38.3C16.45 38.3 4.92 33.46 4.83 20.61C5.26204 24.8007 7.09208 28.724 10.0254 31.748C12.9586 34.772 16.8244 36.7206 21 37.28C23.1563 36.4652 25.1786 35.3327 27 33.92C27 33.92 17.13 33.92 12 27.24C12 27.24 3.34 17.62 10.56 5.85001Z" fill="url(#paint0_linear_6_27)"/>
<path fill-rule="evenodd" clip-rule="evenodd" d="M37.44 42.13C40.6084 39.4881 43.0488 36.0801 44.5295 32.2296C46.0101 28.3791 46.4819 24.2141 45.9 20.13C45.4012 17.2057 44.1734 14.4543 42.33 12.13C39.086 10.1956 35.3102 9.34445 31.55 9.70001C31.55 9.70001 43.08 14.51 43.16 27.37C42.7301 23.1802 40.9021 19.2571 37.9705 16.2329C35.0389 13.2088 31.1745 11.2598 27 10.7C24.8429 11.513 22.8203 12.6457 21 14.06C21 14.06 30.87 14.06 36 20.73C36 20.73 44.66 30.35 37.44 42.13Z" fill="url(#paint1_linear_6_27)"/>
<path fill-rule="evenodd" clip-rule="evenodd" d="M42.11 10.75C42.11 10.75 34 0.129997 20.13 2.29C17.2076 2.79496 14.4576 4.02212 12.13 5.86C10.1886 9.10171 9.33045 12.8776 9.68001 16.64C9.68001 16.64 14.5 5.11 27.35 5C23.1542 5.4317 19.2266 7.2655 16.2017 10.2051C13.1768 13.1447 11.2315 17.0183 10.68 21.2C11.493 23.3571 12.6257 25.3797 14.04 27.2C14.04 27.2 14.04 17.33 20.72 12.2C20.72 12.16 30.34 3.54 42.11 10.75Z" fill="url(#paint2_linear_6_27)"/>
<path fill-rule="evenodd" clip-rule="evenodd" d="M6.17 37.31C8.81315 40.4769 12.2213 42.9162 16.0714 44.3968C19.9216 45.8773 24.086 46.35 28.17 45.77C31.0924 45.265 33.8424 44.0379 36.17 42.2C38.1044 38.956 38.9556 35.1802 38.6 31.42C38.6 31.42 33.78 42.94 20.93 43C25.1163 42.5693 29.0361 40.7436 32.0596 37.8163C35.083 34.889 37.0344 31.0302 37.6 26.86C36.786 24.7034 35.6535 22.6809 34.24 20.86C34.24 20.86 34.24 30.73 27.56 35.86C27.56 35.9 18 44.52 6.17 37.31Z" fill="url(#paint3_linear_6_27)"/>
<path fill-rule="evenodd" clip-rule="evenodd" d="M18 20.77C18.3816 20.7993 18.7384 20.9706 19 21.25C19.3426 21.6028 19.6414 21.9957 19.89 22.42L24.6 31L24.91 30.95H25L29.71 22.83V22.75C29.8908 22.4852 30.0914 22.2345 30.31 22C30.6938 21.5386 31.1709 21.1637 31.71 20.9H31.8C31.9183 20.8554 32.0435 20.8317 32.17 20.83H32.33V20.31H27.7V20.83H27.85C28.2467 20.8109 28.6382 20.9272 28.96 21.16C29.0879 21.2582 29.1902 21.3859 29.2581 21.5321C29.326 21.6784 29.3575 21.8389 29.35 22C29.3508 22.2354 29.2887 22.4667 29.17 22.67L25.78 28.47L22.53 22.67C22.43 22.5 22.36 22.36 22.31 22.26C22.2812 22.2092 22.2578 22.1556 22.24 22.1C22.3358 21.7478 22.5471 21.4379 22.84 21.22C23.1585 20.9317 23.5705 20.7683 24 20.76H24.16V20.24H17.81V20.74H17.92L18 20.77ZM19.66 21.17C19.5353 21.0185 19.3945 20.881 19.24 20.76H21.91C21.5194 21.0746 21.2392 21.5054 21.11 21.99V22.05C21.1467 22.3413 21.2383 22.6229 21.38 22.88L25.1 29.43V29.54V29.64L24.81 30.14L20.32 22.14C20.1403 21.8223 19.9328 21.5211 19.7 21.24L19.66 21.17ZM29.41 20.76H30.36C30.15 21.07 29.99 21.32 29.87 21.51C29.7716 21.2302 29.6148 20.9745 29.41 20.76Z" fill="#A5A7AA"/>
<path fill-rule="evenodd" clip-rule="evenodd" d="M17.71 20.77C18.0546 20.8268 18.3709 20.9955 18.61 21.25C18.9522 21.6057 19.254 21.998 19.51 22.42L24.29 31L24.67 30.94L29.39 22.8C29.3919 22.78 29.3919 22.76 29.39 22.74C29.5762 22.4797 29.78 22.2324 30 22C30.392 21.5405 30.8713 21.1632 31.41 20.89C31.5574 20.8353 31.7128 20.8049 31.87 20.8H32.02V20.28H27.39V20.8H27.55C27.9434 20.7823 28.3312 20.8987 28.65 21.13C28.7779 21.2282 28.8802 21.3559 28.9481 21.5021C29.016 21.6484 29.0475 21.8089 29.04 21.97C29.0408 22.2054 28.9787 22.4367 28.86 22.64L25.48 28.44L22.22 22.64C22.12 22.47 22.05 22.33 22 22.23L21.93 22C22.0272 21.6484 22.2382 21.3389 22.53 21.12C22.8629 20.8591 23.2774 20.7245 23.7 20.74H23.85V20.22H17.5V20.72H17.71V20.77ZM19.32 21.16C19.1926 21.0141 19.052 20.8802 18.9 20.76H21.57C21.1794 21.0746 20.8992 21.5054 20.77 21.99V22.05C20.8054 22.343 20.9007 22.6255 21.05 22.88L24.76 29.43V29.54V29.64L24.47 30.14L19.98 22.14C19.8027 21.8208 19.5951 21.5194 19.36 21.24V21.18L19.32 21.16ZM29.08 20.76H30L29.51 21.51C29.4154 21.2307 29.262 20.9749 29.06 20.76H29.08Z" fill="#404040"/>
<path fill-rule="evenodd" clip-rule="evenodd" d="M62.15 26.41C61.76 27.59 61.39 28.7 61.15 29.83H61C60.72 28.7 60.39 27.57 60 26.38L57.49 19.17H54L59.38 32.74H62.48L68 19.17H64.63L62.15 26.41ZM93.88 21.31V19.17H90.23V15.82L87 16.71V19.15H84C84.8652 19.6568 85.5611 20.4084 86 21.31H87V28.31C87 30.08 87.36 31.21 88.14 31.95C88.9752 32.655 90.0489 33.0129 91.14 32.95C91.9882 32.9735 92.8349 32.8656 93.65 32.63L93.6 30.5C93.1358 30.6165 92.6586 30.6736 92.18 30.67C90.81 30.67 90.18 29.85 90.18 28.18V21.31H93.88ZM146.88 27.17C146.896 27.6316 146.819 28.0917 146.651 28.5222C146.484 28.9527 146.231 29.3446 145.907 29.674C145.583 30.0034 145.196 30.2633 144.768 30.438C144.34 30.6127 143.882 30.6984 143.42 30.69C140.97 30.69 139.63 28.69 139.63 25.99C139.63 23.29 141 21.14 143.48 21.14C143.939 21.1311 144.395 21.217 144.82 21.3923C145.244 21.5676 145.628 21.8286 145.947 22.1589C146.266 22.4893 146.514 22.8819 146.674 23.3122C146.835 23.7426 146.905 24.2014 146.88 24.66V27.17ZM150.12 13H146.88V20.68C146.404 20.0626 145.782 19.5731 145.07 19.2555C144.357 18.9378 143.578 18.8019 142.8 18.86C139.37 18.86 136.39 21.47 136.39 26.08C136.39 30.26 139.04 33 142.53 33C143.369 33.0369 144.205 32.875 144.97 32.5274C145.734 32.1798 146.406 31.6565 146.93 31V32.75H150.17V13H150.12ZM130.34 18.86C129.518 18.8438 128.703 19.0093 127.953 19.3447C127.203 19.6801 126.536 20.177 126 20.8V19.17H122.77V32.74H126V24.56C125.988 24.1232 126.064 23.6885 126.225 23.2821C126.385 22.8758 126.627 22.5062 126.934 22.1959C127.242 21.8855 127.609 21.6407 128.014 21.4764C128.419 21.3121 128.853 21.2317 129.29 21.24C131.5 21.24 132.22 22.86 132.22 24.78V32.78H135.46V24.48C135.46 20.29 132.78 18.91 130.38 18.91L130.34 18.86ZM118.52 28.15C118.456 28.9392 118.083 29.6712 117.482 30.1863C116.88 30.7015 116.1 30.958 115.31 30.9C115.015 30.9292 114.716 30.8943 114.436 30.7975C114.155 30.7007 113.898 30.5444 113.684 30.3392C113.469 30.1341 113.301 29.885 113.192 29.6089C113.083 29.3329 113.034 29.0365 113.05 28.74C113.05 26.32 115.98 25.91 118.52 25.91V28.15ZM115.9 18.86C114.165 18.8234 112.448 19.2149 110.9 20L111.57 21.89C112.72 21.2748 114.006 20.9552 115.31 20.96C118.41 20.96 118.41 22.96 118.41 23.96C113.13 23.96 109.81 25.64 109.81 29.01C109.81 31.11 111.46 33.01 114.34 33.01C115.147 33.0389 115.951 32.888 116.693 32.568C117.435 32.248 118.097 31.7671 118.63 31.16H118.71V32.74H121.65V24.39C121.65 21.51 120.39 18.87 115.87 18.87L115.9 18.86ZM102 30.72C101.548 30.736 101.097 30.6616 100.674 30.501C100.25 30.3405 99.8636 30.097 99.5357 29.785C99.2079 29.473 98.9456 29.0987 98.7643 28.684C98.583 28.2693 98.4864 27.8226 98.48 27.37V24.71C98.4927 23.7776 98.8667 22.8865 99.5233 22.2244C100.18 21.5622 101.068 21.1806 102 21.16C104.57 21.16 105.83 23.3 105.83 25.87C105.83 28.77 104.46 30.72 101.98 30.72H102ZM98.46 13H95.24V32.74H98.05V30.69H98.12C98.6011 31.4481 99.2775 32.0627 100.078 32.4691C100.879 32.8756 101.774 33.059 102.67 33C105.85 33 109.12 30.68 109.12 25.73C109.12 21.6 106.69 18.86 103.18 18.86C102.281 18.8008 101.382 18.9706 100.567 19.3537C99.7524 19.7367 99.0479 20.3204 98.52 21.05H98.46V13ZM158.18 30.85C155.81 30.85 154.38 28.61 154.38 25.95C154.38 23.62 155.44 21.01 158.21 21.01C160.98 21.01 161.98 23.66 161.98 25.91C161.98 28.61 160.52 30.85 158.18 30.85ZM158.32 18.85C154.25 18.85 151.06 21.44 151.06 26.02C151.06 30.4 154.11 33.02 158.06 33.02C161.52 33.02 165.25 30.92 165.25 25.85C165.312 24.9147 165.173 23.977 164.843 23.0997C164.513 22.2224 164 21.4257 163.337 20.7629C162.674 20.1001 161.878 19.5866 161 19.2567C160.123 18.9268 159.185 18.7881 158.25 18.85H158.32ZM76.4 24.56C76.57 22.98 77.57 20.92 79.95 20.92C82.33 20.92 83.18 22.92 83.15 24.56H76.4ZM80.17 18.87C84.49 18.87 86.17 22.05 86.17 25.4C86.1723 25.8047 86.1456 26.2091 86.09 26.61H76.37C76.46 29.66 78.61 30.82 81.03 30.82C82.3514 30.8432 83.6661 30.6264 84.91 30.18L85.44 32.18C83.8792 32.7571 82.2237 33.0353 80.56 33C75.93 33 73.25 30.26 73.25 26.13C73.25 22 75.81 18.86 80.17 18.86V18.87ZM69 32.74H72.24V19.14H69V32.74Z" fill="white"/>
</g>
<defs>
<linearGradient id="paint0_linear_6_27" x1="16.3" y1="35.21" x2="3.5" y2="9.22001" gradientUnits="userSpaceOnUse">
<stop stop-color="#4D4C4C"/>
<stop offset="1" stop-color="#000002"/>
</linearGradient>
<linearGradient id="paint1_linear_6_27" x1="32.88" y1="14.88" x2="42.66" y2="49.43" gradientUnits="userSpaceOnUse">
<stop stop-color="#4D4C4C"/>
<stop offset="1" stop-color="#000002"/>
</linearGradient>
<linearGradient id="paint2_linear_6_27" x1="10.01" y1="14.59" x2="42.11" y2="14.59" gradientUnits="userSpaceOnUse">
<stop stop-color="#C52026"/>
<stop offset="1" stop-color="#B21E23"/>
</linearGradient>
<linearGradient id="paint3_linear_6_27" x1="40.47" y1="30.95" x2="8.87" y2="39.18" gradientUnits="userSpaceOnUse">
<stop stop-color="#C52026"/>
<stop offset="1" stop-color="#B21E23"/>
</linearGradient>
<clipPath id="clip0_6_27">
<rect width="168" height="48" fill="white"/>
</clipPath>
</defs>
</svg>
