<?xml version="1.0" encoding="UTF-8"?>
<!DOCTYPE svg PUBLIC "-//W3C//DTD SVG 1.1//EN" "http://www.w3.org/Graphics/SVG/1.1/DTD/svg11.dtd">
<!-- Creator: CorelDRAW 2017 -->
<svg xmlns="http://www.w3.org/2000/svg" xml:space="preserve" width="30px" height="30px" version="1.1" shape-rendering="geometricPrecision" text-rendering="geometricPrecision" image-rendering="optimizeQuality" fill-rule="evenodd" clip-rule="evenodd"
viewBox="0 0 30 30"
 xmlns:xlink="http://www.w3.org/1999/xlink">
 <defs>
    <linearGradient id="id0" gradientUnits="userSpaceOnUse" x1="10.94" y1="23.52" x2="1.02" y2="3.37">
     <stop offset="0" stop-opacity="1" stop-color="#585858"/>
     <stop offset="1" stop-opacity="1" stop-color="#2B2B2B"/>
    </linearGradient>
    <linearGradient id="id1" gradientUnits="userSpaceOnUse" x1="20.46" y1="8.09" x2="27.6" y2="33.32">
     <stop offset="0" stop-opacity="1" stop-color="#585858"/>
     <stop offset="1" stop-opacity="1" stop-color="#2B2B2B"/>
    </linearGradient>
    <linearGradient id="id2" gradientUnits="userSpaceOnUse" x1="6.13" y1="9.58" x2="26.49" y2="9.58">
     <stop offset="0" stop-opacity="1" stop-color="#CA2027"/>
     <stop offset="1" stop-opacity="1" stop-color="#B21F24"/>
    </linearGradient>
    <linearGradient id="id3" gradientUnits="userSpaceOnUse" x1="27.07" y1="18.71" x2="4.17" y2="24.67">
     <stop offset="0" stop-opacity="1" stop-color="#CA2027"/>
     <stop offset="1" stop-opacity="1" stop-color="#B21F24"/>
    </linearGradient>
 </defs>
 <g id="Layer_x0020_1">
  <metadata id="CorelCorpID_0Corel-Layer"/>
  <g id="_2315898432688">
   <circle fill="white" cx="15" cy="15" r="15"/>
   <path fill="url(#id0)" d="M6.47 3.48c0,0 -6.56,5.55 -5.37,13.95 0,0 0.21,2.26 2.26,5.05 0,0 2.58,1.84 6.85,1.58 0,0 -7.32,-3.06 -7.37,-11.21 0,0 0.58,8.94 10.26,10.58 0,0 1.53,-0.48 3.79,-2.14 0,0 -6.26,0 -9.53,-4.23 0,0 -5.47,-6.11 -0.89,-13.58z"/>
   <path fill="url(#id1)" d="M23.53 26.5c0,0 6.57,-4.89 5.36,-13.94 0,0 -0.21,-2.26 -2.26,-5.05 0,0 -2.58,-1.84 -6.84,-1.58 0,0 7.31,3.05 7.37,11.21 0,0 -0.58,-8.95 -10.27,-10.58 0,0 -1.52,0.48 -3.78,2.13 0,0 6.26,0 9.52,4.24 0,0 5.47,6.1 0.9,13.57z"/>
   <path fill="url(#id2)" d="M26.49 6.59c0,0 -5.12,-6.74 -13.94,-5.36 0,0 -2.27,0.21 -5.06,2.26 0,0 -1.84,2.58 -1.57,6.84 0,0 3.05,-7.31 11.2,-7.37 0,0 -8.94,0.58 -10.57,10.26 0,0 0.47,1.53 2.13,3.79 0,0 0,-6.26 4.24,-9.52 0,0 6.1,-5.47 13.57,-0.9z"/>
   <path fill="url(#id3)" d="M3.68 23.44c0,0 4.9,6.58 13.95,5.37 0,0 2.26,-0.21 5.05,-2.26 0,0 1.84,-2.58 1.58,-6.84 0,0 -3.05,7.31 -11.21,7.36 0,0 8.95,-0.58 10.58,-10.26 0,0 -0.48,-1.52 -2.13,-3.79 0,0 0,6.27 -4.24,9.53 0,0 -6.1,5.47 -13.58,0.89z"/>
   <path fill="#A6A8AB" fill-rule="nonzero" d="M11.17 12.95c0.25,0.03 0.44,0.14 0.6,0.31l0 0c0.26,0.28 0.45,0.52 0.57,0.74l3.04 5.43 0.19 -0.03 0.05 -0.01 2.99 -5.15c0.01,-0.02 0.02,-0.03 0.03,-0.05 0.07,-0.11 0.2,-0.27 0.38,-0.48l0 0c0.29,-0.33 0.59,-0.57 0.89,-0.7 0.03,-0.02 0.02,-0.01 0.06,-0.02 0.08,-0.03 0.16,-0.04 0.23,-0.04l0.1 0 0 -0.33 -2.96 0 0 0.33 0.1 0c0.31,0 0.54,0.07 0.7,0.2l0 0c0.17,0.14 0.25,0.31 0.25,0.54 0,0.15 -0.04,0.29 -0.11,0.42l0 0 -2.15 3.68 -2.07 -3.68 0 0c-0.06,-0.11 -0.1,-0.19 -0.14,-0.26 -0.02,-0.04 -0.03,-0.08 -0.04,-0.1l0 0c0.06,-0.23 0.18,-0.41 0.38,-0.57l0 0c0.2,-0.15 0.44,-0.23 0.74,-0.23l0.1 0 0 -0.33 -4.03 0 0 0.31 0.07 0.01c0.01,0 0.02,0.01 0.03,0.01zm1.05 0.25c-0.08,-0.1 -0.17,-0.18 -0.26,-0.25l0 0 1.69 0c-0.28,0.25 -0.45,0.5 -0.51,0.78l0 0.01 0 0.02c0.03,0.19 0.09,0.37 0.18,0.53l0 0 2.35 4.16 0.01 0.03 0.01 0.04 -0.02 0.06 -0.18 0.31 -2.85 -5.08 0 0c-0.12,-0.22 -0.25,-0.41 -0.39,-0.57 -0.01,-0.01 -0.02,-0.03 -0.03,-0.04zm6.19 -0.25l0.6 0c-0.13,0.19 -0.23,0.35 -0.31,0.47l0 0c-0.06,-0.18 -0.15,-0.34 -0.29,-0.47l0 0z"/>
   <path fill="#404040" fill-rule="nonzero" d="M11.01 12.95c0.23,0.04 0.41,0.14 0.57,0.31l0 0c0.26,0.28 0.45,0.52 0.57,0.74l3.03 5.43 0.25 -0.04 2.99 -5.16c0.01,-0.02 0.01,-0.02 0.02,-0.04 0.07,-0.11 0.2,-0.27 0.39,-0.48l0 0c0.29,-0.34 0.59,-0.57 0.89,-0.71 0.09,-0.03 0.19,-0.05 0.29,-0.05l0.1 0 0 -0.33 -2.96 0 0 0.33 0.1 0c0.3,0 0.53,0.07 0.7,0.2l0 0c0.17,0.14 0.25,0.31 0.25,0.54 0,0.15 -0.04,0.29 -0.12,0.42l0 0 -2.14 3.68 -2.07 -3.68 0 0c-0.06,-0.11 -0.11,-0.19 -0.14,-0.26 -0.02,-0.04 -0.04,-0.08 -0.04,-0.1l0 -0.01c0.06,-0.22 0.18,-0.4 0.38,-0.56l0 0c0.19,-0.15 0.44,-0.23 0.74,-0.23l0.1 0 0 -0.33 -4.03 0 0 0.31c0.04,0.01 0.08,0.02 0.13,0.02zm1.02 0.25c-0.09,-0.1 -0.17,-0.18 -0.27,-0.25l1.69 0c-0.27,0.25 -0.44,0.5 -0.5,0.78l0 0.01 0 0.02c0.02,0.19 0.08,0.37 0.17,0.53l0 0 2.36 4.16 0.01 0.03 0 0.04 -0.01 0.06 -0.18 0.31 -2.85 -5.08 0 0c-0.12,-0.22 -0.25,-0.41 -0.39,-0.57 -0.01,-0.02 -0.02,-0.03 -0.03,-0.04zm6.19 -0.25l0.6 0c-0.13,0.19 -0.24,0.35 -0.31,0.47 -0.06,-0.18 -0.16,-0.34 -0.29,-0.47l0 0z"/>
  </g>
 </g>
</svg>
