<?xml version="1.0" encoding="utf-8"?>
<!-- Generator: Adobe Illustrator 26.0.2, SVG Export Plug-In . SVG Version: 6.00 Build 0)  -->
<svg version="1.1" id="Layer_1" xmlns="http://www.w3.org/2000/svg" xmlns:xlink="http://www.w3.org/1999/xlink" x="0px" y="0px"
	 viewBox="0 0 160 48" style="enable-background:new 0 0 160 48;" xml:space="preserve">
<style type="text/css">
	.st0{fill-rule:evenodd;clip-rule:evenodd;fill:#FFFFFF;}
	.st1{fill-rule:evenodd;clip-rule:evenodd;fill:url(#SVGID_1_);}
	.st2{fill-rule:evenodd;clip-rule:evenodd;fill:url(#SVGID_00000105428391348759552570000010163232598051379858_);}
	.st3{fill-rule:evenodd;clip-rule:evenodd;fill:url(#SVGID_00000032607838230699963020000012136833092241151676_);}
	.st4{fill-rule:evenodd;clip-rule:evenodd;fill:url(#SVGID_00000001640294479176097650000014474119240474364605_);}
	.st5{fill-rule:evenodd;clip-rule:evenodd;fill:#A5A7AA;}
	.st6{fill-rule:evenodd;clip-rule:evenodd;fill:#404040;}
	.st7{fill-rule:evenodd;clip-rule:evenodd;fill:url(#SVGID_00000002385134050462476860000016975128029349480832_);}
	.st8{fill-rule:evenodd;clip-rule:evenodd;fill:url(#SVGID_00000048503576976613936230000000314375629135462840_);}
</style>
<g>
	<ellipse transform="matrix(0.9732 -0.2298 0.2298 0.9732 -4.8103 6.6871)" class="st0" cx="26.3" cy="24" rx="24" ry="24"/>
	<linearGradient id="SVGID_1_" gradientUnits="userSpaceOnUse" x1="18.4881" y1="35.3741" x2="5.4953" y2="8.9997">
		<stop  offset="0" style="stop-color:#4F4E4F"/>
		<stop  offset="1" style="stop-color:#070908"/>
	</linearGradient>
	<path class="st1" d="M12.7,5.6c0,0-10.5,8.9-8.6,22.3c0,0,0.3,3.6,3.6,8.1c0,0,4.1,2.9,10.9,2.5c0,0-11.7-4.9-11.8-17.9
		c0,0,0.9,14.3,16.4,16.9c0,0,2.4-0.8,6.1-3.4c0,0-10,0-15.2-6.8C14.1,27.3,5.3,17.5,12.7,5.6z"/>
	
		<linearGradient id="SVGID_00000098911639946281647260000003622619759788109208_" gradientUnits="userSpaceOnUse" x1="35.3263" y1="14.7418" x2="45.2526" y2="49.8085">
		<stop  offset="0" style="stop-color:#4F4E4F"/>
		<stop  offset="1" style="stop-color:#070908"/>
	</linearGradient>
	<path style="fill-rule:evenodd;clip-rule:evenodd;fill:url(#SVGID_00000098911639946281647260000003622619759788109208_);" d="
		M40,42.4c0,0,10.5-7.8,8.6-22.3c0,0-0.3-3.6-3.6-8.1c0,0-4.1-2.9-10.9-2.5c0,0,11.7,4.9,11.8,17.9c0,0-0.9-14.3-16.4-16.9
		c0,0-2.4,0.8-6.1,3.4c0,0,10,0,15.2,6.8C38.5,20.7,47.3,30.4,40,42.4z"/>
	
		<linearGradient id="SVGID_00000019664292961780809520000009753150891640618923_" gradientUnits="userSpaceOnUse" x1="12.112" y1="14.446" x2="44.6947" y2="14.446">
		<stop  offset="0" style="stop-color:#C82026"/>
		<stop  offset="1" style="stop-color:#AF1E23"/>
	</linearGradient>
	<path style="fill-rule:evenodd;clip-rule:evenodd;fill:url(#SVGID_00000019664292961780809520000009753150891640618923_);" d="
		M44.7,10.6c0,0-8.2-10.8-22.3-8.6c0,0-3.6,0.3-8.1,3.6c0,0-2.9,4.1-2.5,10.9c0,0,4.9-11.7,17.9-11.8c0,0-14.3,0.9-16.9,16.4
		c0,0,0.8,2.4,3.4,6.1c0,0,0-10,6.8-15.2C23,12,32.7,3.2,44.7,10.6z"/>
	
		<linearGradient id="SVGID_00000182511376456373530650000015934887666270866341_" gradientUnits="userSpaceOnUse" x1="43.0294" y1="31.053" x2="10.9476" y2="39.4045">
		<stop  offset="0" style="stop-color:#C82026"/>
		<stop  offset="1" style="stop-color:#AF1E23"/>
	</linearGradient>
	<path style="fill-rule:evenodd;clip-rule:evenodd;fill:url(#SVGID_00000182511376456373530650000015934887666270866341_);" d="
		M8.2,37.5c0,0,7.8,10.5,22.3,8.6c0,0,3.6-0.3,8.1-3.6c0,0,2.9-4.1,2.5-10.9c0,0-4.9,11.7-17.9,11.8c0,0,14.3-0.9,16.9-16.4
		c0,0-0.8-2.4-3.4-6.1c0,0,0,10-6.8,15.2C29.9,36.1,20.2,44.8,8.2,37.5z"/>
	<path class="st5" d="M20.2,20.7c0.4,0.1,0.7,0.2,1,0.5l0,0c0.4,0.4,0.7,0.8,0.9,1.2l4.9,8.7l0.3,0l0.1,0l4.8-8.2c0,0,0-0.1,0.1-0.1
		c0.1-0.2,0.3-0.4,0.6-0.8v0c0.5-0.5,0.9-0.9,1.4-1.1c0.1,0,0,0,0.1,0c0.1,0,0.3-0.1,0.4-0.1h0.2v-0.5h-4.7v0.5h0.2
		c0.5,0,0.8,0.1,1.1,0.3l0,0c0.3,0.2,0.4,0.5,0.4,0.9c0,0.2-0.1,0.5-0.2,0.7v0l-3.4,5.9l-3.3-5.9l0,0c-0.1-0.2-0.2-0.3-0.2-0.4
		c0-0.1-0.1-0.1-0.1-0.2v0c0.1-0.4,0.3-0.6,0.6-0.9l0,0c0.3-0.3,0.7-0.4,1.2-0.4h0.2v-0.5H20v0.5L20.2,20.7
		C20.2,20.7,20.2,20.7,20.2,20.7L20.2,20.7z M21.9,21.1c-0.1-0.2-0.3-0.3-0.4-0.4v0h2.7c-0.4,0.4-0.7,0.8-0.8,1.2l0,0l0,0
		c0,0.3,0.1,0.6,0.3,0.8v0l3.8,6.7l0,0l0,0.1l0,0.1l-0.3,0.5l-4.6-8.1l0,0C22.3,21.8,22.1,21.4,21.9,21.1
		C21.9,21.2,21.9,21.1,21.9,21.1L21.9,21.1z M31.8,20.7h1c-0.2,0.3-0.4,0.6-0.5,0.8h0C32.1,21.2,32,20.9,31.8,20.7L31.8,20.7z"/>
	<path class="st6" d="M19.9,20.7c0.4,0.1,0.7,0.2,0.9,0.5l0,0c0.4,0.4,0.7,0.8,0.9,1.2l4.9,8.7L27,31l4.8-8.3c0,0,0,0,0-0.1
		c0.1-0.2,0.3-0.4,0.6-0.8v0c0.5-0.5,1-0.9,1.4-1.1c0.1-0.1,0.3-0.1,0.5-0.1h0.2v-0.5h-4.7v0.5h0.2c0.5,0,0.8,0.1,1.1,0.3l0,0
		c0.3,0.2,0.4,0.5,0.4,0.9c0,0.2-0.1,0.5-0.2,0.7l0,0l-3.4,5.9l-3.3-5.9l0,0c-0.1-0.2-0.2-0.3-0.2-0.4c0-0.1-0.1-0.1-0.1-0.2v0
		c0.1-0.4,0.3-0.6,0.6-0.9l0,0c0.3-0.3,0.7-0.4,1.2-0.4h0.2v-0.5h-6.4v0.5C19.8,20.7,19.9,20.7,19.9,20.7L19.9,20.7z M21.6,21.1
		c-0.1-0.2-0.3-0.3-0.4-0.4h2.7c-0.4,0.4-0.7,0.8-0.8,1.2l0,0l0,0c0,0.3,0.1,0.6,0.3,0.8l0,0l3.8,6.7l0,0l0,0.1l0,0.1l-0.3,0.5
		l-4.6-8.1l0,0C22,21.8,21.8,21.4,21.6,21.1C21.6,21.2,21.6,21.1,21.6,21.1L21.6,21.1z M31.5,20.7h1c-0.2,0.3-0.4,0.6-0.5,0.8
		C31.8,21.2,31.7,20.9,31.5,20.7L31.5,20.7z"/>
	
		<linearGradient id="SVGID_00000137827038091617912470000004802532514892416640_" gradientUnits="userSpaceOnUse" x1="108.4484" y1="36.0003" x2="108.4484" y2="31.0329">
		<stop  offset="0" style="stop-color:#B51F24"/>
		<stop  offset="1" style="stop-color:#C22026"/>
	</linearGradient>
	<path style="fill-rule:evenodd;clip-rule:evenodd;fill:url(#SVGID_00000137827038091617912470000004802532514892416640_);" d="
		M60.2,32.6l1,3.3H62l0.4-1.4c0.1-0.3,0.2-0.7,0.3-1.1h0c0.1,0.4,0.2,0.7,0.3,1.1l0.4,1.4h0.8l1.1-3.3h-0.8L64,34.1
		c-0.1,0.4-0.2,0.8-0.2,1.1h0c-0.1-0.4-0.2-0.7-0.3-1.1l-0.4-1.5h-0.7l-0.4,1.5c-0.1,0.3-0.2,0.7-0.3,1.1h0
		c-0.1-0.4-0.1-0.7-0.2-1.1l-0.3-1.5H60.2L60.2,32.6z M67.7,32.6l1,3.3h0.8l0.4-1.4c0.1-0.3,0.2-0.7,0.3-1.1h0
		c0.1,0.4,0.2,0.7,0.3,1.1l0.4,1.4h0.8l1.1-3.3h-0.8l-0.4,1.5c-0.1,0.4-0.2,0.8-0.2,1.1h0c-0.1-0.4-0.2-0.7-0.3-1.1l-0.4-1.5h-0.7
		l-0.4,1.5c-0.1,0.3-0.2,0.7-0.3,1.1h0c-0.1-0.4-0.1-0.7-0.2-1.1l-0.3-1.5H67.7L67.7,32.6z M75.1,32.6l1,3.3h0.8l0.4-1.4
		c0.1-0.3,0.2-0.7,0.3-1.1h0c0.1,0.4,0.2,0.7,0.3,1.1l0.4,1.4h0.8l1.1-3.3h-0.8l-0.4,1.5c-0.1,0.4-0.2,0.8-0.2,1.1h0
		c-0.1-0.4-0.2-0.7-0.3-1.1L78,32.6h-0.7l-0.4,1.5c-0.1,0.3-0.2,0.7-0.3,1.1h0c-0.1-0.4-0.1-0.7-0.2-1.1L76,32.6H75.1L75.1,32.6z
		 M83,36c0.3,0,0.5-0.2,0.5-0.5c0-0.3-0.2-0.5-0.5-0.5c-0.3,0-0.5,0.2-0.5,0.5C82.5,35.8,82.7,36,83,36L83,36z M86,32.6l1.2,3.3h0.8
		l1.3-3.3h-0.9l-0.5,1.7c-0.1,0.3-0.2,0.6-0.2,0.8h0c-0.1-0.3-0.1-0.5-0.2-0.8l-0.5-1.7H86L86,32.6z M92.9,35.9v-3.3h-0.8v3.3H92.9
		L92.9,35.9z M92.5,31.2c-0.3,0-0.5,0.2-0.5,0.5c0,0.2,0.2,0.5,0.5,0.5c0.3,0,0.5-0.2,0.5-0.5C93,31.4,92.8,31.2,92.5,31.2
		L92.5,31.2z M98.9,34.5c0-0.1,0-0.2,0-0.4c0-0.7-0.4-1.6-1.4-1.6c-1.1,0-1.6,0.9-1.6,1.8c0,1,0.6,1.7,1.7,1.7
		c0.5,0,0.9-0.1,1.2-0.2l-0.1-0.6c-0.3,0.1-0.5,0.2-0.9,0.2c-0.5,0-1-0.3-1-0.9H98.9L98.9,34.5z M96.7,33.9c0-0.3,0.3-0.8,0.8-0.8
		c0.6,0,0.7,0.5,0.7,0.8H96.7L96.7,33.9z M102,31.9v0.6h-0.5v0.6h0.5v1.6c0,0.4,0.1,0.7,0.3,0.9c0.2,0.2,0.4,0.3,0.7,0.3
		c0.3,0,0.5,0,0.6-0.1l0-0.6c-0.1,0-0.2,0-0.3,0c-0.3,0-0.4-0.2-0.4-0.6v-1.5h0.8v-0.6h-0.8v-0.9L102,31.9L102,31.9z M106.4,35
		c0,0.3,0,0.7,0,0.9h0.7l0-0.5h0c0.2,0.4,0.6,0.6,1.1,0.6c0.8,0,1.5-0.6,1.5-1.8c0-1-0.6-1.7-1.4-1.7c-0.5,0-0.9,0.2-1.1,0.5h0v-2
		h-0.8V35L106.4,35z M107.3,34c0-0.1,0-0.2,0-0.2c0.1-0.4,0.4-0.6,0.8-0.6c0.6,0,0.8,0.5,0.8,1.1c0,0.7-0.3,1.1-0.9,1.1
		c-0.4,0-0.7-0.2-0.8-0.6c0-0.1,0-0.1,0-0.2V34L107.3,34z M115.3,33.9c0-0.7-0.3-1.4-1.4-1.4c-0.5,0-1,0.1-1.2,0.3l0.2,0.6
		c0.2-0.1,0.6-0.2,0.9-0.2c0.6,0,0.7,0.4,0.7,0.6v0.1c-1.2,0-2,0.4-2,1.3c0,0.5,0.4,1,1.1,1c0.4,0,0.8-0.2,1-0.4h0l0.1,0.4h0.8
		c0-0.2-0.1-0.5-0.1-0.8V33.9L115.3,33.9z M114.4,34.7c0,0.1,0,0.1,0,0.2c-0.1,0.2-0.3,0.5-0.7,0.5c-0.3,0-0.5-0.2-0.5-0.5
		c0-0.5,0.6-0.6,1.2-0.6V34.7L114.4,34.7z M118.4,35.9h0.8v-2c0-0.1,0-0.2,0-0.3c0.1-0.3,0.3-0.5,0.7-0.5c0.5,0,0.6,0.4,0.6,0.8v1.9
		h0.8v-2c0-1.1-0.6-1.4-1.2-1.4c-0.6,0-0.9,0.3-1.1,0.6h0l0-0.5h-0.7c0,0.3,0,0.6,0,1V35.9L118.4,35.9z M126.8,31v1.9h0
		c-0.2-0.2-0.5-0.4-0.9-0.4c-0.8,0-1.5,0.7-1.5,1.8c0,1,0.6,1.7,1.4,1.7c0.5,0,0.9-0.2,1.1-0.6h0l0,0.5h0.7c0-0.2,0-0.6,0-0.9V31
		H126.8L126.8,31z M126.8,34.5c0,0.1,0,0.2,0,0.2c-0.1,0.4-0.4,0.6-0.7,0.6c-0.5,0-0.8-0.4-0.8-1.1c0-0.6,0.3-1.1,0.8-1.1
		c0.4,0,0.7,0.3,0.7,0.6c0,0.1,0,0.2,0,0.2V34.5L126.8,34.5z M132.2,32.5c-1,0-1.7,0.7-1.7,1.8c0,1.1,0.7,1.7,1.7,1.7
		c0.9,0,1.7-0.6,1.7-1.8C133.9,33.2,133.2,32.5,132.2,32.5L132.2,32.5z M132.2,33.1c0.6,0,0.8,0.6,0.8,1.1c0,0.7-0.3,1.1-0.8,1.1
		c-0.5,0-0.8-0.5-0.8-1.1C131.4,33.7,131.6,33.1,132.2,33.1L132.2,33.1z M137,36c0.3,0,0.5-0.2,0.5-0.5c0-0.3-0.2-0.5-0.5-0.5
		c-0.3,0-0.5,0.2-0.5,0.5C136.5,35.8,136.7,36,137,36L137,36z M142.8,35.2c-0.2,0.1-0.4,0.1-0.7,0.1c-0.6,0-1-0.4-1-1.1
		c0-0.6,0.4-1.1,1-1.1c0.3,0,0.5,0.1,0.6,0.1l0.2-0.6c-0.2-0.1-0.5-0.2-0.8-0.2c-1.2,0-1.9,0.8-1.9,1.8c0,1,0.7,1.7,1.7,1.7
		c0.4,0,0.8-0.1,0.9-0.2L142.8,35.2L142.8,35.2z M147.2,32.5c-1,0-1.7,0.7-1.7,1.8c0,1.1,0.7,1.7,1.7,1.7c0.9,0,1.7-0.6,1.7-1.8
		C148.8,33.2,148.2,32.5,147.2,32.5L147.2,32.5z M147.2,33.1c0.6,0,0.8,0.6,0.8,1.1c0,0.7-0.3,1.1-0.8,1.1c-0.5,0-0.8-0.5-0.8-1.1
		C146.3,33.7,146.6,33.1,147.2,33.1L147.2,33.1z M151.7,35.9h0.8v-2c0-0.1,0-0.2,0-0.3c0.1-0.2,0.3-0.5,0.6-0.5
		c0.4,0,0.6,0.3,0.6,0.8v1.9h0.8v-2c0-0.1,0-0.2,0-0.3c0.1-0.2,0.3-0.4,0.6-0.4c0.4,0,0.6,0.3,0.6,0.9v1.9h0.8v-2
		c0-1.1-0.6-1.5-1.1-1.5c-0.3,0-0.5,0.1-0.7,0.2c-0.2,0.1-0.3,0.2-0.4,0.4h0c-0.1-0.4-0.5-0.6-0.9-0.6c-0.6,0-0.9,0.3-1,0.6h0l0-0.5
		h-0.7c0,0.3,0,0.6,0,1V35.9z"/>
	<g>
		
			<linearGradient id="SVGID_00000166638907255650592580000004778593670505710006_" gradientUnits="userSpaceOnUse" x1="107.4135" y1="17.5609" x2="107.4135" y2="29.7677">
			<stop  offset="0" style="stop-color:#4D4C4C"/>
			<stop  offset="1" style="stop-color:#000002"/>
		</linearGradient>
		<path style="fill-rule:evenodd;clip-rule:evenodd;fill:url(#SVGID_00000166638907255650592580000004778593670505710006_);" d="
			M64.7,24.1c-0.4,1.1-0.7,2.1-0.9,3.1h-0.1c-0.3-1-0.6-2-0.9-3.1l-2.3-6.5h-3.1l4.8,12.2H65l5-12.2h-3L64.7,24.1L64.7,24.1z
			 M93.2,19.5v-1.9h-3.3v-3L87,15.3v2.2h-2.8c1.2,0.5,1.9,1.9,1.9,1.9H87v6.3c0,1.6,0.3,2.6,1,3.3c0.6,0.6,1.6,0.9,2.7,0.9
			c1,0,1.8-0.1,2.3-0.3l-0.1-2c-0.4,0.1-0.7,0.2-1.3,0.2c-1.2,0-1.8-0.7-1.8-2.2v-6.2H93.2L93.2,19.5L93.2,19.5z M140.9,24.8
			c0,1.7-1.2,3.2-3.1,3.2c-2.2,0-3.4-1.8-3.4-4.2c0-2.4,1.2-4.4,3.5-4.4c1.6,0,3.1,1.2,3.1,3.2L140.9,24.8L140.9,24.8L140.9,24.8z
			 M143.8,12h-2.9v6.9h-0.1c-0.6-0.9-1.9-1.6-3.7-1.6c-3.1,0-5.8,2.3-5.8,6.5c0,3.8,2.4,6.2,5.5,6.2c1.8,0,3.2-0.7,4-1.8v1.6h2.9V12
			L143.8,12z M126,17.3c-1.9,0-3.2,0.8-3.9,1.7v-1.5h-2.9v12.2h2.9v-7.4c0-2,1.5-3,3-3c2,0,2.6,1.5,2.6,3.2v7.2h2.9v-7.5
			C130.6,18.5,128.2,17.3,126,17.3L126,17.3z M115.4,25.6c0,1.4-1.3,2.5-2.9,2.5c-1.1,0-2-0.6-2-1.9c0-2.2,2.6-2.5,4.9-2.5V25.6
			L115.4,25.6z M113,17.3c-1.9,0-3.5,0.5-4.5,1l0.6,1.7c0.9-0.5,2.1-0.8,3.4-0.8c2.8,0,2.8,1.8,2.8,2.7c-4.7,0-7.7,1.5-7.7,4.5
			c0,1.9,1.5,3.6,4.1,3.6c1.7,0,3.1-0.7,3.9-1.7h0.1v1.4h2.6v-7.5C118.2,19.7,117.1,17.3,113,17.3L113,17.3z M100.5,27.9
			c-1.9,0-3.2-1.5-3.2-3v-2.4c0-1.6,1.4-3.2,3.2-3.2c2.3,0,3.4,1.9,3.4,4.2C104,26.2,102.7,27.9,100.5,27.9L100.5,27.9z M97.3,12
			h-2.9v17.8H97v-1.8H97c0.9,1.4,2.3,2.1,4.1,2.1c2.9,0,5.8-2.1,5.8-6.5c0-3.7-2.2-6.2-5.3-6.2c-1.9,0-3.4,0.7-4.2,2h-0.1V12
			L97.3,12z M151.1,28.1c-2.1,0-3.4-2-3.4-4.4c0-2.1,1-4.5,3.4-4.5c2.4,0,3.4,2.4,3.4,4.4C154.5,26.1,153.2,28.1,151.1,28.1
			L151.1,28.1z M151.2,17.3c-3.7,0-6.5,2.3-6.5,6.4c0,3.9,2.7,6.3,6.3,6.3c3.1,0,6.5-1.9,6.5-6.4C157.5,19.8,155,17.3,151.2,17.3
			L151.2,17.3z M77.5,22.4c0.2-1.4,1.1-3.3,3.2-3.3c2.2,0,2.9,1.8,2.9,3.3H77.5L77.5,22.4z M80.9,17.3c3.9,0,5.4,2.9,5.4,5.9
			c0,0.4,0,0.8-0.1,1.1h-8.8c0.1,2.7,2,3.8,4.2,3.8c1.5,0,2.6-0.2,3.5-0.6l0.5,1.8c-1,0.4-2.5,0.7-4.4,0.7c-4.2,0-6.6-2.5-6.6-6.2
			C74.7,20.2,77,17.3,80.9,17.3L80.9,17.3z M70.8,29.8h2.9V17.5h-2.9V29.8z"/>
	</g>
</g>
</svg>
