<?xml version="1.0" encoding="utf-8"?>
<!-- Generator: Adobe Illustrator 26.0.2, SVG Export Plug-In . SVG Version: 6.00 Build 0)  -->
<svg version="1.1" id="Layer_1" xmlns="http://www.w3.org/2000/svg" xmlns:xlink="http://www.w3.org/1999/xlink" x="0px" y="0px"
	 viewBox="0 0 164 48" style="enable-background:new 0 0 164 48;" xml:space="preserve">
<style type="text/css">
	.st0{fill-rule:evenodd;clip-rule:evenodd;fill:#FFFFFF;}
	.st1{fill-rule:evenodd;clip-rule:evenodd;fill:#0093DD;}
	.st2{fill-rule:evenodd;clip-rule:evenodd;fill:#1ABB9C;}
	.st3{fill-rule:evenodd;clip-rule:evenodd;fill:#050C38;}
</style>
<path class="st3" d="M81.7,33.2h-5.9L70,14.8h5.3l3.5,13.8h0.1l3.5-13.8h5.1L81.7,33.2L81.7,33.2z M98.1,33.2h-8.8V14.8h8.6
	c1.8,0,3.2,0.4,4.2,1.2c1,0.8,1.5,1.9,1.5,3.3c0,1-0.3,1.9-1,2.6c-0.7,0.7-1.5,1.2-2.6,1.3v0.1c1.3,0.1,2.3,0.5,3.2,1.3
	c0.9,0.8,1.3,1.9,1.3,3.1c0,1.6-0.6,2.9-1.7,3.8C101.6,32.7,100.1,33.2,98.1,33.2L98.1,33.2z M94,18.1v4.2h2.4c0.8,0,1.5-0.2,2-0.6
	c0.5-0.4,0.7-0.9,0.7-1.6c0-0.6-0.2-1.1-0.7-1.5c-0.4-0.4-1-0.5-1.8-0.5H94L94,18.1z M94,29.9h2.8c1,0,1.7-0.2,2.2-0.6
	c0.5-0.4,0.8-1,0.8-1.8c0-0.7-0.3-1.3-0.8-1.7c-0.5-0.4-1.3-0.6-2.2-0.6H94V29.9L94,29.9z M106.5,14.8h7.5c2.8,0,4.9,0.8,6.5,2.3
	c1.5,1.6,2.3,3.8,2.3,6.7c0,2.9-0.8,5.2-2.3,6.8c-1.5,1.6-3.7,2.4-6.5,2.4h-7.5V14.8L106.5,14.8z M111.1,18.6v10.8h2.2
	c1.5,0,2.7-0.5,3.5-1.4c0.8-0.9,1.2-2.3,1.2-4.1c0-1.7-0.4-3-1.2-3.9c-0.8-0.9-2-1.4-3.4-1.4H111.1L111.1,18.6z M137.2,29.4v3.8H125
	V14.8h4.7v14.6H137.2L137.2,29.4z M144,33.2h-4.7V14.8h4.7V33.2L144,33.2z M146.2,27.9h4.4c0.1,0.6,0.4,1.1,1.1,1.5
	c0.6,0.4,1.4,0.6,2.2,0.6c0.9,0,1.6-0.2,2.2-0.5c0.6-0.4,0.8-0.8,0.8-1.4c0-0.5-0.2-0.9-0.6-1.2c-0.4-0.3-1.2-0.5-2.2-0.8l-2.4-0.5
	c-1.7-0.3-3-0.9-3.8-1.8c-0.9-0.9-1.3-2-1.3-3.4c0-1.8,0.7-3.2,2-4.2c1.4-1.1,3.1-1.6,5.2-1.6c2.3,0,4.1,0.5,5.4,1.5
	c1.3,1,2,2.4,2,4.1h-4.3c0-0.7-0.3-1.2-0.9-1.6c-0.6-0.4-1.3-0.6-2.1-0.6c-0.8,0-1.5,0.2-2,0.5c-0.5,0.3-0.7,0.8-0.7,1.3
	c0,0.5,0.2,0.9,0.6,1.2c0.4,0.3,1.1,0.6,2.1,0.7l2.4,0.4c1.8,0.3,3.1,0.9,4,1.8c0.8,0.8,1.3,2,1.3,3.4c0,1.8-0.7,3.3-2.1,4.4
	c-1.4,1.1-3.3,1.6-5.6,1.6c-2.3,0-4.2-0.5-5.5-1.5C146.9,31,146.2,29.6,146.2,27.9z"/>
<g>
	<ellipse class="st0" cx="27.5" cy="24" rx="27.5" ry="23"/>
	<g>
		<path class="st1" d="M27,4c-1,0-2,0.1-3,0.2c-3.5,2.3-6.6,5.8-8.3,10.5c3.6,0.9,7.6,1.4,11.4,1.4V4L27,4z M27.5,2
			C40,2,54,10.2,54,24S40,46,27.5,46S1,37.8,1,24S15,2,27.5,2L27.5,2z M27.5,3C39.4,3,53,10.8,53,24S39.4,45,27.5,45
			C15.6,45,2,37.2,2,24S15.6,3,27.5,3L27.5,3z M22,4.6c-0.8,0.7-1.6,1.4-2.4,2.1c-2.2,2.3-3.8,5-4.8,7.8c-2.5-0.7-4.9-1.6-6.8-2.7
			C11.6,8.1,16.8,5.6,22,4.6L22,4.6L22,4.6z M7.4,12.5L7.4,12.5C4.8,15.4,3.2,19,3,23.2c2.8,1.6,6.5,2.8,10.3,3.6
			c-0.1-0.9-0.1-1.8-0.1-2.8c0-3,0.4-5.9,1.4-8.7C12,14.6,9.5,13.7,7.4,12.5L7.4,12.5z M3,24.2c0,4.4,1.6,8.1,4.2,11.1l0,0
			c2.9,2.1,7,3.4,10.9,4.2c-2.6-3.4-4.2-7.5-4.7-11.8C9.7,26.9,5.9,25.8,3,24.2L3,24.2z M9.6,37.7c3.5,2.9,7.9,4.9,12.4,5.8
			c-0.8-0.7-1.6-1.4-2.4-2.1c-0.2-0.2-0.5-0.5-0.7-0.8C15.8,40,12.5,39,9.6,37.7L9.6,37.7z M24,43.8c1,0.1,2,0.2,3,0.2v-2.6
			c-1.8,0-4.2-0.2-6.6-0.6C21.5,42,22.7,42.9,24,43.8L24,43.8z M27,40.5V29.2c-3,0-7.8-0.4-12.7-1.3c0.7,4.8,2.6,8.8,5.1,11.9
			C22.3,40.3,25,40.5,27,40.5L27,40.5z M27,28.3c-3.2,0-8-0.4-12.8-1.4C14.1,26,14,25,14,24c0-3.1,0.5-6,1.3-8.5
			c4.3,1,8.7,1.5,11.6,1.5V28.3z"/>
	</g>
	<path class="st2" d="M28,44c1,0,2-0.1,3.1-0.2c1.3-0.8,2.5-1.8,3.6-3c-2.5,0.4-4.8,0.6-6.7,0.6V44L28,44z M33,43.4
		c0.8-0.7,1.6-1.4,2.4-2.1c0.2-0.2,0.5-0.5,0.7-0.8c3.2-0.6,6.5-1.5,9.3-2.9C41.9,40.6,37.5,42.6,33,43.4L33,43.4z M47.8,35.3
		L47.8,35.3c2.6-3,4.2-6.7,4.2-11.1c-2.9,1.6-6.6,2.7-10.4,3.5c-0.5,4.3-2.1,8.4-4.7,11.8C40.8,38.7,44.9,37.3,47.8,35.3L47.8,35.3z
		 M52,23.2c-2.8,1.6-6.5,2.8-10.2,3.6c0.1-0.9,0.1-1.8,0.1-2.8c0-3-0.4-5.9-1.4-8.7c2.6-0.7,5.1-1.6,7.1-2.7
		C50.2,15.4,51.8,19,52,23.2L52,23.2L52,23.2z M47,11.9c-3.6-3.8-8.8-6.3-14-7.3c0.8,0.7,1.6,1.4,2.4,2.1c2.2,2.3,3.8,5,4.8,7.8
		C42.8,13.8,45.1,12.9,47,11.9L47,11.9z M31.1,4.2c3.5,2.3,6.5,5.8,8.3,10.5c-3.6,0.9-7.6,1.4-11.4,1.4V4C29,4,30,4.1,31.1,4.2
		L31.1,4.2z M28,17c2.9,0,7.3-0.5,11.7-1.5C40.5,18,41,20.9,41,24c0,1-0.1,2-0.2,3c-4.8,1-9.6,1.4-12.8,1.4V17L28,17z M28,29.2v11.3
		c2,0,4.7-0.3,7.6-0.8c2.6-3,4.4-7,5.1-11.9C35.8,28.8,31,29.2,28,29.2z"/>
	<path class="st0" d="M18.5,7.6c0,0.1,0.2,0.4,0.2,0.4H19l0.3,0.5L19.7,9v0.5l0.4-0.1h0.3v0.4l-0.2,0.6l0.8,1.2l0.6,0.2l0.7,0.3
		l0.6-0.7l0.7,0.1l0.9,0.6L24,12.6l0.1,0.4l0.5-0.2v0.5l0.8,0.4l-0.3,0.6l-0.4,0.5h-1.2c0,0-0.3,0.4-0.3,0.5c0,0.1-0.5,0.4-0.4,0.4
		c0.1,0,1,0.6,1,0.6l1,0.5l0.6,0.3l0.5,0.4l-0.3,0.6c0,0,0.5,0.4,0.6,0.4c0.1,0,0.8,0.7,0.8,0.7l0.3,1l0.9,0.7c0,0,0.4,0.3,0.5,0.3
		c0.1,0.1,0.6,0.7,0.6,0.7l0.1,1h0.5c0,0,0.6,0.6,0.7,0.6c0.1,0,0.7,0.4,0.7,0.4l-0.2,0.5l-0.1,0.8l0.5,0.3l0.3,0.2v0.9l-0.4,0.1
		l0.1,0.7l-0.2,1.1l0.1,0.8l0.4,1v0.6l-0.4,1c0,0,0.2,0.7,0.2,0.8c0,0.1,0,0.8,0,0.8l-0.3,0.2h-0.9l-0.3,0.6h-0.9l-0.6,0.3l0.2,0.6
		l-0.7-0.2L28,35.5h-0.5l0.2,0.7l0.4,0.4l0.4,0.6l0,0.6l-0.7-0.5l-0.3-0.4l-1.1,0.3h-0.7l-0.1,0.7l-0.6,0.5h-0.9l0.4,0.6l0.7,0.3
		l0.4,0.5l-0.4,0.6l-0.2,1.9l-0.5,0.8l1.1-0.2l0.8-0.9l1.2-0.8l0.7-0.4l0.8-0.2l0.3-0.7l0.3-0.7l0.1-0.6l0.8-0.2l1-0.4l1-0.5
		l0.5,0.2l0.4-0.7l1.7-1.4l0.8-1v-1.5l0.4-0.9l-0.3-1.4l-0.2-1l0.2-0.6l-0.4-1.3l-0.3-0.9l-0.3-0.7l-0.1-0.5l-0.7-0.7l-1.1-1
		l-0.2-0.7l-0.9-0.5l-1.8-1.6L29,19.6l0.2-0.4l-1.1-0.9l-0.5-0.8l-0.4-0.8l0.2-0.8l0.2-1.1l0.4-0.9l0.4,0l0.7-0.8l0.4,0.1l0-1
		c0,0,0.6-0.3,0.6-0.4s0.6-0.5,0.6-0.5l0.6-0.3l0.7-0.6l0.5-0.3l0.8-0.2l0.5-0.3l-1.2-0.2l-0.7,0.1l-0.2-0.3l-0.2,0.3L31,9.3
		l-0.3-0.2l0-0.4L30,8.6l-0.3-0.1l0.1-0.6l-0.3-0.2l0.2-0.4l0.4-0.5l0-0.2l-0.5-0.3h-0.9l-0.3-0.3L27.8,6l-0.3-0.1H27l0-0.5
		l-0.7-0.5l-0.2,0.4l-0.5,0l-0.2,0.3h-0.4l0.1,0.5L25,6.6l-0.4-0.3l-0.4,0.3l-0.5-0.2l-0.3,0.2L23,7.3l-0.7-0.8L22,7.1l-0.4-0.7
		L21,7.3l-0.4,0l-0.5-0.4l-0.5-0.3l-0.6,0.5l-0.1,0.5L18.5,7.6z"/>
</g>
</svg>
